<svg width="169" height="46" viewBox="0 0 169 46" fill="none" xmlns="http://www.w3.org/2000/svg">
<rect width="169" height="46" rx="23" fill="#163AB8"/>
<path d="M34.272 19.392H36.224V21.152H34.272V26.016H32.256V15.424H34.272V19.392ZM27.04 28.416H34.624V30.144H25.008V25.184H27.04V28.416ZM26.608 23.744C26.0213 23.744 25.4933 23.6533 25.024 23.472C24.5547 23.28 24.1547 23.024 23.824 22.704C23.4933 22.384 23.2373 22.016 23.056 21.6C22.8853 21.184 22.8 20.752 22.8 20.304V19.408C22.8 18.96 22.8853 18.528 23.056 18.112C23.2373 17.696 23.4933 17.328 23.824 17.008C24.1547 16.688 24.5547 16.4373 25.024 16.256C25.4933 16.064 26.0213 15.968 26.608 15.968C27.1947 15.968 27.7227 16.064 28.192 16.256C28.6613 16.4373 29.0613 16.688 29.392 17.008C29.7227 17.328 29.9733 17.696 30.144 18.112C30.3253 18.528 30.416 18.96 30.416 19.408V20.304C30.416 20.752 30.3253 21.184 30.144 21.6C29.9733 22.016 29.7227 22.384 29.392 22.704C29.0613 23.024 28.6613 23.28 28.192 23.472C27.7227 23.6533 27.1947 23.744 26.608 23.744ZM26.608 17.712C26.3093 17.712 26.0427 17.7653 25.808 17.872C25.5733 17.968 25.3707 18.1013 25.2 18.272C25.04 18.4427 24.9173 18.64 24.832 18.864C24.7467 19.088 24.704 19.3173 24.704 19.552V20.16C24.704 20.4053 24.7467 20.64 24.832 20.864C24.9173 21.0773 25.04 21.2693 25.2 21.44C25.3707 21.6107 25.5733 21.7493 25.808 21.856C26.0427 21.952 26.3093 22 26.608 22C26.9067 22 27.1733 21.952 27.408 21.856C27.6427 21.7493 27.84 21.6107 28 21.44C28.1707 21.2693 28.2987 21.0773 28.384 20.864C28.4693 20.64 28.512 20.4053 28.512 20.16V19.552C28.512 19.3173 28.4693 19.088 28.384 18.864C28.2987 18.64 28.1707 18.4427 28 18.272C27.84 18.1013 27.6427 17.968 27.408 17.872C27.1733 17.7653 26.9067 17.712 26.608 17.712ZM50.6585 26.72V28.432H37.0265V26.72H50.6585ZM38.7705 23.968V16.656H48.7225V18.368H40.7865V22.256H48.9145V23.968H38.7705ZM59.413 24.72V26.736H65.221V28.432H51.589V26.736H57.397V24.72H53.413V19.76H61.301V18.176H53.365V16.48H63.317V21.44H55.429V23.024H63.653V24.72H59.413ZM70.7435 26.8C70.0608 26.8 69.4742 26.6933 68.9835 26.48C68.5035 26.2667 68.1088 25.968 67.7995 25.584C67.4902 25.2 67.2608 24.7467 67.1115 24.224C66.9728 23.7013 66.9035 23.1253 66.9035 22.496V20.72C66.9035 20.1013 66.9728 19.5307 67.1115 19.008C67.2608 18.4747 67.4902 18.016 67.7995 17.632C68.1088 17.248 68.5035 16.9493 68.9835 16.736C69.4742 16.5227 70.0608 16.416 70.7435 16.416C71.4262 16.416 72.0075 16.5227 72.4875 16.736C72.9782 16.9493 73.3782 17.248 73.6875 17.632C73.9968 18.016 74.2208 18.4747 74.3595 19.008C74.5088 19.5307 74.5835 20.1013 74.5835 20.72V22.496C74.5835 23.1253 74.5088 23.7013 74.3595 24.224C74.2208 24.7467 73.9968 25.2 73.6875 25.584C73.3782 25.968 72.9782 26.2667 72.4875 26.48C72.0075 26.6933 71.4262 26.8 70.7435 26.8ZM70.7435 18.192C70.0608 18.192 69.5702 18.4267 69.2715 18.896C68.9835 19.3653 68.8395 20.0533 68.8395 20.96V22.256C68.8395 23.1627 68.9835 23.8507 69.2715 24.32C69.5702 24.7893 70.0608 25.024 70.7435 25.024C71.4262 25.024 71.9115 24.7893 72.1995 24.32C72.4982 23.8507 72.6475 23.1627 72.6475 22.256V20.96C72.6475 20.0533 72.4982 19.3653 72.1995 18.896C71.9115 18.4267 71.4262 18.192 70.7435 18.192ZM78.6795 30.304H76.6475V15.424H78.6795V30.304ZM94.346 26.72V28.432H80.714V26.72H94.346ZM82.458 23.968V16.656H92.41V18.368H84.474V22.256H92.602V23.968H82.458ZM102.621 22.912C102.055 22.912 101.559 22.8267 101.133 22.656C100.706 22.4747 100.354 22.24 100.077 21.952C99.7992 21.6533 99.5912 21.3173 99.4525 20.944C99.3138 20.56 99.2445 20.1653 99.2445 19.76V19.152C99.2445 18.7467 99.3138 18.3573 99.4525 17.984C99.5912 17.6 99.7992 17.264 100.077 16.976C100.354 16.6773 100.706 16.4427 101.133 16.272C101.559 16.0907 102.055 16 102.621 16C103.186 16 103.677 16.0907 104.093 16.272C104.519 16.4427 104.871 16.6773 105.149 16.976C105.437 17.264 105.65 17.6 105.789 17.984C105.927 18.3573 105.997 18.7467 105.997 19.152V19.76C105.997 20.1653 105.927 20.56 105.789 20.944C105.65 21.3173 105.437 21.6533 105.149 21.952C104.871 22.24 104.519 22.4747 104.093 22.656C103.677 22.8267 103.186 22.912 102.621 22.912ZM102.621 17.648C102.119 17.648 101.741 17.808 101.485 18.128C101.239 18.448 101.117 18.8267 101.117 19.264V19.648C101.117 20.0853 101.239 20.464 101.485 20.784C101.741 21.104 102.119 21.264 102.621 21.264C103.122 21.264 103.495 21.104 103.741 20.784C103.997 20.464 104.125 20.0853 104.125 19.648V19.264C104.125 18.8267 103.997 18.448 103.741 18.128C103.495 17.808 103.122 17.648 102.621 17.648ZM111.981 23.84V30.32H102.317V23.84H104.317V25.536H109.981V23.84H111.981ZM108.845 18.416H110.061V15.424H111.981V23.168H110.061V20.144H108.845V23.136H106.941V15.616H108.845V18.416ZM109.981 28.64V27.2H104.317V28.64H109.981ZM130.191 23.52V27.744H122.815V28.848H130.639V30.448H120.863V26.224H128.239V25.12H120.783V23.52H130.191ZM122.367 20.304C122.314 20.4427 122.186 20.6133 121.983 20.816C121.791 21.0187 121.556 21.232 121.279 21.456C120.938 21.7333 120.586 22.0213 120.223 22.32C119.86 22.608 119.439 22.9227 118.959 23.264L117.791 21.792C118.282 21.4507 118.703 21.1413 119.055 20.864C119.418 20.576 119.78 20.2773 120.143 19.968C120.548 19.616 120.836 19.2533 121.007 18.88C121.178 18.5067 121.263 18.08 121.263 17.6V15.792H123.311V17.568C123.311 17.824 123.327 18.0533 123.359 18.256C123.391 18.4587 123.45 18.6507 123.535 18.832C123.62 19.0027 123.732 19.168 123.871 19.328C124.02 19.488 124.207 19.6587 124.431 19.84C124.559 19.936 124.708 20.048 124.879 20.176C125.06 20.304 125.247 20.4373 125.439 20.576C125.631 20.7147 125.828 20.8533 126.031 20.992C126.244 21.12 126.447 21.248 126.639 21.376L125.519 22.768C124.847 22.3307 124.175 21.8613 123.503 21.36C123.183 21.1147 122.927 20.912 122.735 20.752C122.554 20.5813 122.436 20.432 122.383 20.304H122.367ZM128.175 19.536H125.551V17.824H128.175V15.424H130.191V22.848H128.175V19.536ZM133.01 17.472H136.146V15.504H138.194V17.472H141.186V19.2H138.194V20.432C138.194 20.7413 138.215 21.024 138.258 21.28C138.3 21.536 138.364 21.7813 138.45 22.016C138.546 22.24 138.668 22.4587 138.818 22.672C138.967 22.8853 139.148 23.1093 139.362 23.344C139.5 23.504 139.66 23.68 139.842 23.872C140.034 24.0533 140.231 24.2453 140.434 24.448C140.636 24.64 140.839 24.8373 141.042 25.04C141.255 25.232 141.463 25.4187 141.666 25.6L140.37 26.944C140.028 26.624 139.687 26.2987 139.346 25.968C139.004 25.6267 138.684 25.3013 138.386 24.992C138.066 24.6613 137.799 24.3787 137.586 24.144C137.383 23.8987 137.255 23.712 137.202 23.584H137.17C137.095 23.7333 136.94 23.9467 136.706 24.224C136.471 24.5013 136.22 24.7787 135.954 25.056C135.655 25.3653 135.346 25.6853 135.026 26.016C134.706 26.336 134.322 26.6987 133.874 27.104L132.546 25.744C133.42 24.9653 134.21 24.192 134.914 23.424C135.148 23.1573 135.346 22.912 135.506 22.688C135.666 22.464 135.794 22.24 135.89 22.016C135.986 21.7813 136.05 21.5413 136.082 21.296C136.124 21.04 136.146 20.752 136.146 20.432V19.2H133.01V17.472ZM144.93 30.304H142.898V15.424H144.93V30.304Z" fill="white"/>
</svg>
