<svg width="140" height="46" viewBox="0 0 140 46" fill="none" xmlns="http://www.w3.org/2000/svg">
<rect width="140" height="46" rx="23" fill="#163AB8"/>
<path d="M25.808 22.912C25.2427 22.912 24.7467 22.8267 24.32 22.656C23.8933 22.4747 23.5413 22.24 23.264 21.952C22.9867 21.6533 22.7787 21.3173 22.64 20.944C22.5013 20.56 22.432 20.1653 22.432 19.76V19.152C22.432 18.7467 22.5013 18.3573 22.64 17.984C22.7787 17.6 22.9867 17.264 23.264 16.976C23.5413 16.6773 23.8933 16.4427 24.32 16.272C24.7467 16.0907 25.2427 16 25.808 16C26.3733 16 26.864 16.0907 27.28 16.272C27.7067 16.4427 28.0587 16.6773 28.336 16.976C28.624 17.264 28.8373 17.6 28.976 17.984C29.1147 18.3573 29.184 18.7467 29.184 19.152V19.76C29.184 20.1653 29.1147 20.56 28.976 20.944C28.8373 21.3173 28.624 21.6533 28.336 21.952C28.0587 22.24 27.7067 22.4747 27.28 22.656C26.864 22.8267 26.3733 22.912 25.808 22.912ZM25.808 17.648C25.3067 17.648 24.928 17.808 24.672 18.128C24.4267 18.448 24.304 18.8267 24.304 19.264V19.648C24.304 20.0853 24.4267 20.464 24.672 20.784C24.928 21.104 25.3067 21.264 25.808 21.264C26.3093 21.264 26.6827 21.104 26.928 20.784C27.184 20.464 27.312 20.0853 27.312 19.648V19.264C27.312 18.8267 27.184 18.448 26.928 18.128C26.6827 17.808 26.3093 17.648 25.808 17.648ZM35.168 23.84V30.32H25.504V23.84H27.504V25.536H33.168V23.84H35.168ZM32.032 18.416H33.248V15.424H35.168V23.168H33.248V20.144H32.032V23.136H30.128V15.616H32.032V18.416ZM33.168 28.64V27.2H27.504V28.64H33.168ZM52.8345 20.848H54.8825V22.608H52.8345V30.304H50.8025V15.424H52.8345V20.848ZM41.3625 25.632C42.1625 25.152 42.8452 24.7253 43.4105 24.352C43.9758 23.9787 44.4452 23.6373 44.8185 23.328C45.2025 23.008 45.5012 22.7093 45.7145 22.432C45.9278 22.144 46.0878 21.856 46.1945 21.568C46.3118 21.28 46.3812 20.976 46.4025 20.656C46.4345 20.336 46.4505 19.9787 46.4505 19.584V18.512H41.6345V16.768H48.4825V19.68C48.4825 20.224 48.4558 20.7147 48.4025 21.152C48.3492 21.5787 48.2425 21.984 48.0825 22.368C47.9332 22.7413 47.7198 23.104 47.4425 23.456C47.1758 23.808 46.8185 24.176 46.3705 24.56C45.9225 24.9333 45.3732 25.3387 44.7225 25.776C44.0825 26.2027 43.3198 26.688 42.4345 27.232L41.3625 25.632ZM60.181 26.8C59.4983 26.8 58.9117 26.6933 58.421 26.48C57.941 26.2667 57.5463 25.968 57.237 25.584C56.9277 25.2 56.6983 24.7467 56.549 24.224C56.4103 23.7013 56.341 23.1253 56.341 22.496V20.72C56.341 20.1013 56.4103 19.5307 56.549 19.008C56.6983 18.4747 56.9277 18.016 57.237 17.632C57.5463 17.248 57.941 16.9493 58.421 16.736C58.9117 16.5227 59.4983 16.416 60.181 16.416C60.8637 16.416 61.445 16.5227 61.925 16.736C62.4157 16.9493 62.8157 17.248 63.125 17.632C63.4343 18.016 63.6583 18.4747 63.797 19.008C63.9463 19.5307 64.021 20.1013 64.021 20.72V22.496C64.021 23.1253 63.9463 23.7013 63.797 24.224C63.6583 24.7467 63.4343 25.2 63.125 25.584C62.8157 25.968 62.4157 26.2667 61.925 26.48C61.445 26.6933 60.8637 26.8 60.181 26.8ZM60.181 18.192C59.4983 18.192 59.0077 18.4267 58.709 18.896C58.421 19.3653 58.277 20.0533 58.277 20.96V22.256C58.277 23.1627 58.421 23.8507 58.709 24.32C59.0077 24.7893 59.4983 25.024 60.181 25.024C60.8637 25.024 61.349 24.7893 61.637 24.32C61.9357 23.8507 62.085 23.1627 62.085 22.256V20.96C62.085 20.0533 61.9357 19.3653 61.637 18.896C61.349 18.4267 60.8637 18.192 60.181 18.192ZM68.117 30.304H66.085V15.424H68.117V30.304ZM83.7835 26.72V28.432H70.1515V26.72H83.7835ZM71.8955 23.968V16.656H81.8475V18.368H73.9115V22.256H82.0395V23.968H71.8955ZM100.522 20.64H102.57V22.4H100.522V30.304H98.49V15.424H100.522V20.64ZM89.466 16.704H96.346V18.448H91.498V24.704H92.506C93.274 24.704 94.0953 24.6773 94.97 24.624C95.8447 24.5707 96.6607 24.4907 97.418 24.384L97.642 26.112C97.2687 26.176 96.858 26.2293 96.41 26.272C95.962 26.3147 95.4927 26.352 95.002 26.384C94.5113 26.4053 94.0153 26.4213 93.514 26.432C93.0127 26.4427 92.5167 26.448 92.026 26.448H89.466V16.704ZM116.909 22.8V24.496H111.325V27.056H109.309V24.496H103.277V22.8H116.909ZM107.213 28.432H115.293V30.144H105.197V25.824H107.213V28.432ZM110.093 21.936C109.378 21.936 108.722 21.872 108.125 21.744C107.527 21.616 107.01 21.4347 106.573 21.2C106.146 20.9547 105.81 20.656 105.565 20.304C105.33 19.9413 105.213 19.536 105.213 19.088V18.48C105.213 18.032 105.33 17.632 105.565 17.28C105.81 16.9173 106.146 16.6187 106.573 16.384C107.01 16.1387 107.527 15.952 108.125 15.824C108.722 15.696 109.378 15.632 110.093 15.632C110.807 15.632 111.463 15.696 112.061 15.824C112.658 15.952 113.17 16.1387 113.597 16.384C114.034 16.6187 114.37 16.9173 114.605 17.28C114.85 17.632 114.973 18.032 114.973 18.48V19.088C114.973 19.536 114.85 19.9413 114.605 20.304C114.37 20.656 114.034 20.9547 113.597 21.2C113.17 21.4347 112.658 21.616 112.061 21.744C111.463 21.872 110.807 21.936 110.093 21.936ZM110.093 17.264C109.186 17.264 108.477 17.3973 107.965 17.664C107.463 17.92 107.213 18.2293 107.213 18.592V18.976C107.213 19.3387 107.463 19.6533 107.965 19.92C108.477 20.176 109.186 20.304 110.093 20.304C110.999 20.304 111.703 20.176 112.205 19.92C112.717 19.6533 112.973 19.3387 112.973 18.976V18.592C112.973 18.2293 112.717 17.92 112.205 17.664C111.703 17.3973 110.999 17.264 110.093 17.264Z" fill="white"/>
</svg>
