<svg width="694" height="359" viewBox="0 0 694 359" fill="none" xmlns="http://www.w3.org/2000/svg">
<path d="M694 273.109H370V273.271H694V273.109Z" fill="#EBEBEB"/>
<path d="M459.204 277.522H437.742V277.684H459.204V277.522Z" fill="#EBEBEB"/>
<path d="M661.535 278.61H601.18V278.772H661.535V278.61Z" fill="#EBEBEB"/>
<path d="M576.997 281.345H549.632V281.507H576.997V281.345Z" fill="#EBEBEB"/>
<path d="M415.794 136.187H472.008C472.008 136.187 468.982 129.15 458.88 131.34C458.88 131.34 456.754 123.337 449.037 124.445C449.037 124.445 442.654 117.531 433.342 120.214C424.037 122.896 424.834 131.346 424.834 131.346C424.834 131.346 417.926 129.538 415.794 136.187Z" fill="#FAFAFA"/>
<path d="M566.273 93.3153H510.059C510.059 93.3153 513.085 86.278 523.187 88.4682C523.187 88.4682 525.313 80.4654 533.03 81.5735C533.03 81.5735 539.413 74.6593 548.725 77.3421C558.03 80.0248 557.233 88.4747 557.233 88.4747C557.233 88.4747 564.147 86.6668 566.273 93.3153Z" fill="#FAFAFA"/>
<path d="M607.732 91.4814H650.746C650.746 91.4814 649.1 85.5587 642.873 87.4962C642.873 87.4962 644.156 79.5517 639.581 78.6381C635.006 77.7244 633.542 83.7637 633.542 83.7637C633.542 83.7637 630.25 79.7397 624.936 81.2041C619.629 82.6686 618.715 87.4962 618.715 87.4962C618.715 87.4962 611.024 83.0963 607.732 91.4814Z" fill="#FAFAFA"/>
<path d="M452.102 230.28H399.782V333.94H452.102V230.28Z" fill="#E6E6E6"/>
<path d="M442.589 230.28H399.782V333.94H442.589V230.28Z" fill="#F0F0F0"/>
<path d="M452.717 230.28H398.655V231.971H452.717V230.28Z" fill="#E0E0E0"/>
<path d="M452.717 226.897H398.655V228.589H452.717V226.897Z" fill="#E0E0E0"/>
<path d="M451.583 228.588H399.782V230.28H451.583V228.588Z" fill="#F0F0F0"/>
<path d="M411.887 236.377H403.845V244.542H411.887V236.377Z" fill="#E6E6E6"/>
<path d="M411.88 236.377H404.551V244.542H411.88V236.377Z" fill="#F5F5F5"/>
<path d="M424.063 236.377H416.021V244.542H424.063V236.377Z" fill="#E6E6E6"/>
<path d="M424.056 236.377H416.727V244.542H424.056V236.377Z" fill="#F5F5F5"/>
<path d="M436.238 236.377H428.197V244.542H436.238V236.377Z" fill="#E6E6E6"/>
<path d="M436.232 236.377H428.903V244.542H436.232V236.377Z" fill="#F5F5F5"/>
<path d="M411.887 248.398H403.845V256.563H411.887V248.398Z" fill="#E6E6E6"/>
<path d="M411.88 248.398H404.551V256.563H411.88V248.398Z" fill="#F5F5F5"/>
<path d="M424.063 248.398H416.021V256.563H424.063V248.398Z" fill="#E6E6E6"/>
<path d="M424.056 248.398H416.727V256.563H424.056V248.398Z" fill="#F5F5F5"/>
<path d="M436.238 248.398H428.197V256.563H436.238V248.398Z" fill="#E6E6E6"/>
<path d="M436.232 248.398H428.903V256.563H436.232V248.398Z" fill="#F5F5F5"/>
<path d="M411.887 270.411H403.845V278.575H411.887V270.411Z" fill="#E6E6E6"/>
<path d="M411.88 270.411H404.551V278.575H411.88V270.411Z" fill="#F5F5F5"/>
<path d="M424.063 270.411H416.021V278.575H424.063V270.411Z" fill="#E6E6E6"/>
<path d="M424.056 270.411H416.727V278.575H424.056V270.411Z" fill="#F5F5F5"/>
<path d="M436.238 270.411H428.197V278.575H436.238V270.411Z" fill="#E6E6E6"/>
<path d="M436.232 270.411H428.903V278.575H436.232V270.411Z" fill="#F5F5F5"/>
<path d="M411.887 282.432H403.845V290.596H411.887V282.432Z" fill="#E6E6E6"/>
<path d="M411.88 282.431H404.551V290.596H411.88V282.431Z" fill="#F5F5F5"/>
<path d="M424.063 282.432H416.021V290.596H424.063V282.432Z" fill="#E6E6E6"/>
<path d="M424.056 282.431H416.727V290.596H424.056V282.431Z" fill="#F5F5F5"/>
<path d="M436.238 282.432H428.197V290.596H436.238V282.432Z" fill="#E6E6E6"/>
<path d="M436.232 282.431H428.903V290.596H436.232V282.431Z" fill="#F5F5F5"/>
<path d="M411.887 306.894H403.845V315.058H411.887V306.894Z" fill="#E6E6E6"/>
<path d="M411.88 306.893H404.551V315.057H411.88V306.893Z" fill="#F5F5F5"/>
<path d="M424.063 306.894H416.021V315.058H424.063V306.894Z" fill="#E6E6E6"/>
<path d="M424.056 306.893H416.727V315.057H424.056V306.893Z" fill="#F5F5F5"/>
<path d="M436.238 306.894H428.197V315.058H436.238V306.894Z" fill="#E6E6E6"/>
<path d="M436.232 306.893H428.903V315.057H436.232V306.893Z" fill="#F5F5F5"/>
<path d="M411.887 318.914H403.845V327.078H411.887V318.914Z" fill="#E6E6E6"/>
<path d="M411.88 318.913H404.551V327.078H411.88V318.913Z" fill="#F5F5F5"/>
<path d="M424.063 318.914H416.021V327.078H424.063V318.914Z" fill="#E6E6E6"/>
<path d="M424.056 318.913H416.727V327.078H424.056V318.913Z" fill="#F5F5F5"/>
<path d="M436.238 318.914H428.197V327.078H436.238V318.914Z" fill="#E6E6E6"/>
<path d="M436.232 318.913H428.903V327.078H436.232V318.913Z" fill="#F5F5F5"/>
<path d="M452.102 262.304H399.782V263.062H452.102V262.304Z" fill="#E0E0E0"/>
<path d="M452.102 299.927H399.782V300.685H452.102V299.927Z" fill="#E0E0E0"/>
<path d="M657.842 206.89H606.151V332.673H657.842V206.89Z" fill="#E0E0E0"/>
<path d="M643.119 206.89H606.151V332.673H643.119V206.89Z" fill="#F0F0F0"/>
<path d="M623.718 217.226H609.961V223.906H623.718V217.226Z" fill="#E6E6E6"/>
<path d="M623.718 217.226H610.875V223.906H623.718V217.226Z" fill="#F5F5F5"/>
<path d="M639.633 217.226H625.876V223.906H639.633V217.226Z" fill="#E6E6E6"/>
<path d="M639.633 217.226H626.789V223.906H639.633V217.226Z" fill="#F5F5F5"/>
<path d="M623.718 229.797H609.961V236.478H623.718V229.797Z" fill="#E6E6E6"/>
<path d="M623.718 229.797H610.875V236.478H623.718V229.797Z" fill="#F5F5F5"/>
<path d="M639.633 229.797H625.876V236.478H639.633V229.797Z" fill="#E6E6E6"/>
<path d="M639.633 229.797H626.789V236.478H639.633V229.797Z" fill="#F5F5F5"/>
<path d="M623.718 245.861H609.961V252.542H623.718V245.861Z" fill="#E6E6E6"/>
<path d="M623.718 245.861H610.875V252.542H623.718V245.861Z" fill="#F5F5F5"/>
<path d="M639.633 245.861H625.876V252.542H639.633V245.861Z" fill="#E6E6E6"/>
<path d="M639.633 245.861H626.789V252.542H639.633V245.861Z" fill="#F5F5F5"/>
<path d="M623.718 255.094H609.961V261.775H623.718V255.094Z" fill="#E6E6E6"/>
<path d="M623.718 255.094H610.875V261.775H623.718V255.094Z" fill="#F5F5F5"/>
<path d="M639.633 255.094H625.876V261.775H639.633V255.094Z" fill="#E6E6E6"/>
<path d="M639.633 255.094H626.789V261.775H639.633V255.094Z" fill="#F5F5F5"/>
<path d="M623.718 270.264H609.961V276.945H623.718V270.264Z" fill="#E6E6E6"/>
<path d="M623.718 270.264H610.875V276.945H623.718V270.264Z" fill="#F5F5F5"/>
<path d="M639.633 270.264H625.876V276.945H639.633V270.264Z" fill="#E6E6E6"/>
<path d="M639.633 270.264H626.789V276.945H639.633V270.264Z" fill="#F5F5F5"/>
<path d="M623.718 279.491H609.961V286.172H623.718V279.491Z" fill="#E6E6E6"/>
<path d="M623.718 279.492H610.875V286.173H623.718V279.492Z" fill="#F5F5F5"/>
<path d="M639.633 279.491H625.876V286.172H639.633V279.491Z" fill="#E6E6E6"/>
<path d="M639.633 279.492H626.789V286.173H639.633V279.492Z" fill="#F5F5F5"/>
<path d="M623.718 296.003H609.961V302.684H623.718V296.003Z" fill="#E6E6E6"/>
<path d="M623.718 296.002H610.875V302.683H623.718V296.002Z" fill="#F5F5F5"/>
<path d="M639.633 296.003H625.876V302.684H639.633V296.003Z" fill="#E6E6E6"/>
<path d="M639.633 296.002H626.789V302.683H639.633V296.002Z" fill="#F5F5F5"/>
<path d="M623.718 308.192H609.961V314.873H623.718V308.192Z" fill="#E6E6E6"/>
<path d="M623.718 308.191H610.875V314.872H623.718V308.191Z" fill="#F5F5F5"/>
<path d="M639.633 308.192H625.876V314.873H639.633V308.192Z" fill="#E6E6E6"/>
<path d="M639.633 308.191H626.789V314.872H639.633V308.191Z" fill="#F5F5F5"/>
<path opacity="0.05" d="M657.842 240.592H606.151V241.739H657.842V240.592Z" fill="black"/>
<path opacity="0.05" d="M657.842 265.443H606.151V266.59H657.842V265.443Z" fill="black"/>
<path opacity="0.05" d="M657.842 290.514H606.151V291.661H657.842V290.514Z" fill="black"/>
<path d="M657.842 203.17H603.714V207.188H657.842V203.17Z" fill="#E0E0E0"/>
<path opacity="0.05" d="M657.842 203.17H645.471V207.188H657.842V203.17Z" fill="black"/>
<path d="M532.531 182.217H474.095V334.095H532.531V182.217Z" fill="#E6E6E6"/>
<path d="M510.907 182.217H452.464V334.095H510.907V182.217Z" fill="#F0F0F0"/>
<path d="M505.808 192.526H457.564V200.263H505.808V192.526Z" fill="#E6E6E6"/>
<path d="M505.808 192.525H459.437V200.263H505.808V192.525Z" fill="#F5F5F5"/>
<path d="M505.808 205.551H457.564V213.288H505.808V205.551Z" fill="#E6E6E6"/>
<path d="M505.808 205.551H459.437V213.288H505.808V205.551Z" fill="#F5F5F5"/>
<path d="M505.808 219.082H457.564V226.819H505.808V219.082Z" fill="#E6E6E6"/>
<path d="M505.808 219.081H459.437V226.818H505.808V219.081Z" fill="#F5F5F5"/>
<path d="M505.808 232.618H457.564V240.355H505.808V232.618Z" fill="#E6E6E6"/>
<path d="M505.808 232.618H459.437V240.355H505.808V232.618Z" fill="#F5F5F5"/>
<path d="M505.808 246.149H457.564V253.886H505.808V246.149Z" fill="#E6E6E6"/>
<path d="M505.808 246.148H459.437V253.885H505.808V246.148Z" fill="#F5F5F5"/>
<path d="M505.808 259.686H457.564V267.423H505.808V259.686Z" fill="#E6E6E6"/>
<path d="M505.808 259.685H459.437V267.422H505.808V259.685Z" fill="#F5F5F5"/>
<path d="M505.808 274.602H457.564V282.339H505.808V274.602Z" fill="#E6E6E6"/>
<path d="M505.808 274.602H459.437V282.339H505.808V274.602Z" fill="#F5F5F5"/>
<path d="M505.808 289.513H457.564V297.25H505.808V289.513Z" fill="#E6E6E6"/>
<path d="M505.808 289.512H459.437V297.249H505.808V289.512Z" fill="#F5F5F5"/>
<path d="M505.808 304.429H457.564V312.166H505.808V304.429Z" fill="#E6E6E6"/>
<path d="M505.808 304.429H459.437V312.166H505.808V304.429Z" fill="#F5F5F5"/>
<path d="M505.808 319.346H457.564V327.083H505.808V319.346Z" fill="#E6E6E6"/>
<path d="M505.808 319.346H459.437V327.083H505.808V319.346Z" fill="#F5F5F5"/>
<path d="M534.054 180.688H450.812V184.394H534.054V180.688Z" fill="#F5F5F5"/>
<path d="M534.054 174H450.812V177.707H534.054V174Z" fill="#F5F5F5"/>
<path d="M531.287 176.981H452.464V180.688H531.287V176.981Z" fill="#F0F0F0"/>
<path d="M532.538 192.526H516.253V200.263H532.538V192.526Z" fill="#E0E0E0"/>
<path d="M532.538 205.259H516.253V212.996H532.538V205.259Z" fill="#E0E0E0"/>
<path d="M532.538 217.993H516.253V225.73H532.538V217.993Z" fill="#E0E0E0"/>
<path d="M532.538 232.612H516.253V240.349H532.538V232.612Z" fill="#E0E0E0"/>
<path d="M532.538 246.148H516.253V253.886H532.538V246.148Z" fill="#E0E0E0"/>
<path d="M532.538 259.685H516.253V267.422H532.538V259.685Z" fill="#E0E0E0"/>
<path d="M532.538 274.596H516.253V282.333H532.538V274.596Z" fill="#E0E0E0"/>
<path d="M532.538 289.513H516.253V297.25H532.538V289.513Z" fill="#E0E0E0"/>
<path d="M532.538 304.429H516.253V312.166H532.538V304.429Z" fill="#E0E0E0"/>
<path d="M532.538 319.346H516.253V327.083H532.538V319.346Z" fill="#E0E0E0"/>
<path d="M607.654 233.728H601.226V243.784H607.654V233.728Z" fill="#E0E0E0"/>
<path d="M607.654 250.187H601.226V260.243H607.654V250.187Z" fill="#E0E0E0"/>
<path d="M607.654 266.186H601.226V276.243H607.654V266.186Z" fill="#E0E0E0"/>
<path d="M607.654 283.099H601.226V293.156H607.654V283.099Z" fill="#E0E0E0"/>
<path d="M607.654 299.558H601.226V309.615H607.654V299.558Z" fill="#E0E0E0"/>
<path d="M607.654 223.619H540.009V326.495H607.654V223.619Z" fill="#E6E6E6"/>
<path d="M596.23 223.619H540.016V326.495H596.23V223.619Z" fill="#F0F0F0"/>
<path d="M590.78 233.734H545.07V243.791H590.78V233.734Z" fill="#EBEBEB"/>
<path d="M590.78 250.187H545.07V260.243H590.78V250.187Z" fill="#EBEBEB"/>
<path d="M590.78 266.646H545.07V276.703H590.78V266.646Z" fill="#EBEBEB"/>
<path d="M590.78 283.099H545.07V293.156H590.78V283.099Z" fill="#EBEBEB"/>
<path d="M590.78 299.558H545.07V309.615H590.78V299.558Z" fill="#EBEBEB"/>
<path d="M590.78 233.734H546.755V243.791H590.78V233.734Z" fill="#F5F5F5"/>
<path d="M590.78 250.187H546.755V260.243H590.78V250.187Z" fill="#F5F5F5"/>
<path d="M590.78 266.646H546.755V276.703H590.78V266.646Z" fill="#F5F5F5"/>
<path d="M590.78 283.099H546.755V293.156H590.78V283.099Z" fill="#F5F5F5"/>
<path d="M590.78 299.558H546.755V309.615H590.78V299.558Z" fill="#F5F5F5"/>
<g clip-path="url(#clip0)">
<path d="M360.58 120.517H285.908C285.908 120.517 293.315 100.312 304.707 100.312C316.1 100.312 319.668 114.258 319.668 114.258C319.668 114.258 327.353 106.683 333.669 106.683C339.985 106.683 345.472 116.699 345.472 116.699C345.472 116.699 354.396 111.312 360.58 120.517Z" fill="#EBEBEB"/>
<path d="M303.355 41.3784H268.462C268.462 41.3784 276.26 30.0903 282.402 30.0903C288.543 30.0903 290.357 37.6128 290.357 37.6128C290.357 37.6128 294.693 34.1 298.706 34.7276C302.727 35.3552 303.355 41.3784 303.355 41.3784Z" fill="#EBEBEB"/>
<path d="M71.4008 92.8414H3.42828C3.42828 92.8414 12.7361 72.0782 22.6982 70.7794C32.6603 69.4806 37.4145 86.208 37.4145 86.208C37.4145 86.208 43.8349 80.298 48.8858 80.298C53.9366 80.298 57.8359 88.0821 57.8359 88.0821C57.8359 88.0821 67.9376 82.7474 71.4008 92.8414Z" fill="#EBEBEB"/>
<path d="M120.88 15.263H74.9599C74.9599 15.263 82.8458 0.218019 91.4034 0.000102151C99.9611 -0.217815 104.454 11.3841 104.454 11.3841C104.454 11.3841 117.765 0.714871 120.88 15.263Z" fill="#EBEBEB"/>
<path d="M97.9198 119.166H66.9257C66.9257 119.166 72.2469 109.011 78.0218 108.863C83.7967 108.715 86.8324 116.551 86.8324 116.551C86.8324 116.551 95.8175 109.351 97.9198 119.166Z" fill="#EBEBEB"/>
<path d="M278.293 135.814H240.495V333.805H278.293V135.814Z" fill="#DBDBDB"/>
<path d="M253.702 142.239H246.357V149.796H253.702V142.239Z" fill="#EBEBEB"/>
<path d="M263.106 142.239H255.76V149.796H263.106V142.239Z" fill="#EBEBEB"/>
<path d="M253.702 155.079H246.357V162.636H253.702V155.079Z" fill="#EBEBEB"/>
<path d="M263.106 155.079H255.76V162.636H263.106V155.079Z" fill="#EBEBEB"/>
<path d="M253.702 167.91H246.357V175.467H253.702V167.91Z" fill="#EBEBEB"/>
<path d="M263.106 167.91H255.76V175.467H263.106V167.91Z" fill="#EBEBEB"/>
<path d="M253.702 180.749H246.357V188.306H253.702V180.749Z" fill="#EBEBEB"/>
<path d="M263.106 180.749H255.76V188.306H263.106V180.749Z" fill="#EBEBEB"/>
<path d="M253.702 193.58H246.357V201.137H253.702V193.58Z" fill="#EBEBEB"/>
<path d="M263.106 193.58H255.76V201.137H263.106V193.58Z" fill="#EBEBEB"/>
<path d="M253.702 206.42H246.357V213.977H253.702V206.42Z" fill="#EBEBEB"/>
<path d="M263.106 206.42H255.76V213.977H263.106V206.42Z" fill="#EBEBEB"/>
<path d="M253.702 219.25H246.357V226.808H253.702V219.25Z" fill="#EBEBEB"/>
<path d="M263.106 219.25H255.76V226.808H263.106V219.25Z" fill="#EBEBEB"/>
<path d="M253.702 232.09H246.357V239.648H253.702V232.09Z" fill="#EBEBEB"/>
<path d="M263.106 232.09H255.76V239.648H263.106V232.09Z" fill="#EBEBEB"/>
<path d="M253.702 244.921H246.357V252.479H253.702V244.921Z" fill="#EBEBEB"/>
<path d="M263.106 244.921H255.76V252.479H263.106V244.921Z" fill="#EBEBEB"/>
<path d="M253.702 257.761H246.357V265.319H253.702V257.761Z" fill="#EBEBEB"/>
<path d="M263.106 257.761H255.76V265.319H263.106V257.761Z" fill="#EBEBEB"/>
<path d="M253.702 270.592H246.357V278.149H253.702V270.592Z" fill="#EBEBEB"/>
<path d="M263.106 270.592H255.76V278.149H263.106V270.592Z" fill="#EBEBEB"/>
<path d="M253.702 283.432H246.357V290.989H253.702V283.432Z" fill="#EBEBEB"/>
<path d="M263.106 283.432H255.76V290.989H263.106V283.432Z" fill="#EBEBEB"/>
<path d="M253.702 296.263H246.357V303.82H253.702V296.263Z" fill="#EBEBEB"/>
<path d="M263.106 296.263H255.76V303.82H263.106V296.263Z" fill="#EBEBEB"/>
<path d="M253.702 309.103H246.357V316.66H253.702V309.103Z" fill="#EBEBEB"/>
<path d="M265.078 316.662H272.423V309.104H265.078V316.662Z" fill="#EBEBEB"/>
<path d="M265.078 303.831H272.423V296.273H265.078V303.831Z" fill="#EBEBEB"/>
<path d="M265.078 290.991H272.423V283.433H265.078V290.991Z" fill="#EBEBEB"/>
<path d="M265.078 278.16H272.423V270.603H265.078V278.16Z" fill="#EBEBEB"/>
<path d="M265.078 265.32H272.423V257.763H265.078V265.32Z" fill="#EBEBEB"/>
<path d="M265.078 252.489H272.423V244.932H265.078V252.489Z" fill="#EBEBEB"/>
<path d="M265.078 239.649H272.423V232.092H265.078V239.649Z" fill="#EBEBEB"/>
<path d="M265.078 226.818H272.423V219.261H265.078V226.818Z" fill="#EBEBEB"/>
<path d="M265.078 213.979H272.423V206.422H265.078V213.979Z" fill="#EBEBEB"/>
<path d="M265.078 201.148H272.423V193.591H265.078V201.148Z" fill="#EBEBEB"/>
<path d="M265.078 188.309H272.423V180.751H265.078V188.309Z" fill="#EBEBEB"/>
<path d="M265.078 175.478H272.423V167.92H265.078V175.478Z" fill="#EBEBEB"/>
<path d="M265.078 162.638H272.423V155.08H265.078V162.638Z" fill="#EBEBEB"/>
<path d="M265.078 149.807H272.423V142.249H265.078V149.807Z" fill="#EBEBEB"/>
<path d="M263.106 309.103H255.76V316.66H263.106V309.103Z" fill="#EBEBEB"/>
<path d="M308.092 135.814H278.293V333.805H308.092V135.814Z" fill="#A6A6A6"/>
<path d="M298.954 316.662H305.026V309.104H298.954V316.662Z" fill="#C7C7C7"/>
<path d="M291.185 316.662H297.256V309.104H291.185V316.662Z" fill="#C7C7C7"/>
<path d="M298.954 303.831H305.026V296.273H298.954V303.831Z" fill="#C7C7C7"/>
<path d="M291.185 303.831H297.256V296.273H291.185V303.831Z" fill="#C7C7C7"/>
<path d="M298.954 290.991H305.026V283.433H298.954V290.991Z" fill="#C7C7C7"/>
<path d="M291.185 290.991H297.256V283.433H291.185V290.991Z" fill="#C7C7C7"/>
<path d="M298.954 278.16H305.026V270.603H298.954V278.16Z" fill="#C7C7C7"/>
<path d="M291.185 278.16H297.256V270.603H291.185V278.16Z" fill="#C7C7C7"/>
<path d="M298.954 265.32H305.026V257.763H298.954V265.32Z" fill="#C7C7C7"/>
<path d="M291.185 265.32H297.256V257.763H291.185V265.32Z" fill="#C7C7C7"/>
<path d="M298.954 252.489H305.026V244.932H298.954V252.489Z" fill="#C7C7C7"/>
<path d="M291.185 252.489H297.256V244.932H291.185V252.489Z" fill="#C7C7C7"/>
<path d="M298.954 239.649H305.026V232.092H298.954V239.649Z" fill="#C7C7C7"/>
<path d="M291.185 239.649H297.256V232.092H291.185V239.649Z" fill="#C7C7C7"/>
<path d="M298.954 226.818H305.026V219.261H298.954V226.818Z" fill="#C7C7C7"/>
<path d="M291.185 226.818H297.256V219.261H291.185V226.818Z" fill="#C7C7C7"/>
<path d="M298.954 213.979H305.026V206.422H298.954V213.979Z" fill="#C7C7C7"/>
<path d="M291.185 213.979H297.256V206.422H291.185V213.979Z" fill="#C7C7C7"/>
<path d="M298.954 201.148H305.026V193.591H298.954V201.148Z" fill="#C7C7C7"/>
<path d="M291.185 201.148H297.256V193.591H291.185V201.148Z" fill="#C7C7C7"/>
<path d="M298.954 188.309H305.026V180.751H298.954V188.309Z" fill="#C7C7C7"/>
<path d="M291.185 188.309H297.256V180.751H291.185V188.309Z" fill="#C7C7C7"/>
<path d="M298.954 175.478H305.026V167.92H298.954V175.478Z" fill="#C7C7C7"/>
<path d="M291.185 175.478H297.256V167.92H291.185V175.478Z" fill="#C7C7C7"/>
<path d="M298.954 162.638H305.026V155.08H298.954V162.638Z" fill="#C7C7C7"/>
<path d="M291.185 162.638H297.256V155.08H291.185V162.638Z" fill="#C7C7C7"/>
<path d="M298.954 149.807H305.026V142.249H298.954V149.807Z" fill="#C7C7C7"/>
<path d="M289.564 142.239H283.492V149.796H289.564V142.239Z" fill="#C7C7C7"/>
<path d="M289.564 155.079H283.492V162.636H289.564V155.079Z" fill="#C7C7C7"/>
<path d="M289.564 167.91H283.492V175.467H289.564V167.91Z" fill="#C7C7C7"/>
<path d="M289.564 180.749H283.492V188.306H289.564V180.749Z" fill="#C7C7C7"/>
<path d="M289.564 193.58H283.492V201.137H289.564V193.58Z" fill="#C7C7C7"/>
<path d="M289.564 206.42H283.492V213.977H289.564V206.42Z" fill="#C7C7C7"/>
<path d="M289.564 219.25H283.492V226.808H289.564V219.25Z" fill="#C7C7C7"/>
<path d="M289.564 232.09H283.492V239.648H289.564V232.09Z" fill="#C7C7C7"/>
<path d="M289.564 244.921H283.492V252.479H289.564V244.921Z" fill="#C7C7C7"/>
<path d="M289.564 257.761H283.492V265.319H289.564V257.761Z" fill="#C7C7C7"/>
<path d="M289.564 270.592H283.492V278.149H289.564V270.592Z" fill="#C7C7C7"/>
<path d="M289.564 283.432H283.492V290.989H289.564V283.432Z" fill="#C7C7C7"/>
<path d="M289.564 296.263H283.492V303.82H289.564V296.263Z" fill="#C7C7C7"/>
<path d="M289.564 309.103H283.492V316.66H289.564V309.103Z" fill="#C7C7C7"/>
<path d="M291.185 149.807H297.256V142.249H291.185V149.807Z" fill="#C7C7C7"/>
<path d="M86.3701 131.491H46.9405V333.805H86.3701V131.491Z" fill="#EBEBEB"/>
<path d="M86.3788 127.464H45.9984V131.491H86.3788V127.464Z" fill="#C7C7C7"/>
<path d="M54.5037 137.427H50.5084V333.805H54.5037V137.427Z" fill="white"/>
<path d="M61.5783 137.427H57.583V333.805H61.5783V137.427Z" fill="white"/>
<path d="M68.653 137.427H64.6577V333.805H68.653V137.427Z" fill="white"/>
<path d="M75.7363 137.427H71.741V333.805H75.7363V137.427Z" fill="white"/>
<path d="M82.811 137.427H78.8157V333.805H82.811V137.427Z" fill="white"/>
<path d="M54.5037 142.518H50.5084V150.467H54.5037V142.518Z" fill="#EBEBEB"/>
<path d="M61.5783 142.518H57.583V150.467H61.5783V142.518Z" fill="#EBEBEB"/>
<path d="M68.653 142.518H64.6577V150.467H68.653V142.518Z" fill="#EBEBEB"/>
<path d="M75.7363 142.518H71.741V150.467H75.7363V142.518Z" fill="#EBEBEB"/>
<path d="M82.811 142.518H78.8157V150.467H82.811V142.518Z" fill="#EBEBEB"/>
<path d="M54.5037 155.445H50.5084V163.394H54.5037V155.445Z" fill="#EBEBEB"/>
<path d="M61.5783 155.445H57.583V163.394H61.5783V155.445Z" fill="#EBEBEB"/>
<path d="M68.653 155.445H64.6577V163.394H68.653V155.445Z" fill="#EBEBEB"/>
<path d="M75.7363 155.445H71.741V163.394H75.7363V155.445Z" fill="#EBEBEB"/>
<path d="M82.811 155.445H78.8157V163.394H82.811V155.445Z" fill="#EBEBEB"/>
<path d="M54.5037 168.372H50.5084V176.321H54.5037V168.372Z" fill="#EBEBEB"/>
<path d="M61.5783 168.372H57.583V176.321H61.5783V168.372Z" fill="#EBEBEB"/>
<path d="M68.653 168.372H64.6577V176.321H68.653V168.372Z" fill="#EBEBEB"/>
<path d="M75.7363 168.372H71.741V176.321H75.7363V168.372Z" fill="#EBEBEB"/>
<path d="M82.811 168.372H78.8157V176.321H82.811V168.372Z" fill="#EBEBEB"/>
<path d="M54.5037 181.298H50.5084V189.248H54.5037V181.298Z" fill="#EBEBEB"/>
<path d="M61.5783 181.298H57.583V189.248H61.5783V181.298Z" fill="#EBEBEB"/>
<path d="M68.653 181.298H64.6577V189.248H68.653V181.298Z" fill="#EBEBEB"/>
<path d="M75.7363 181.298H71.741V189.248H75.7363V181.298Z" fill="#EBEBEB"/>
<path d="M82.811 181.298H78.8157V189.248H82.811V181.298Z" fill="#EBEBEB"/>
<path d="M54.5037 194.216H50.5084V202.166H54.5037V194.216Z" fill="#EBEBEB"/>
<path d="M61.5783 194.216H57.583V202.166H61.5783V194.216Z" fill="#EBEBEB"/>
<path d="M68.653 194.216H64.6577V202.166H68.653V194.216Z" fill="#EBEBEB"/>
<path d="M75.7363 194.216H71.741V202.166H75.7363V194.216Z" fill="#EBEBEB"/>
<path d="M82.811 194.216H78.8157V202.166H82.811V194.216Z" fill="#EBEBEB"/>
<path d="M54.5037 207.143H50.5084V215.093H54.5037V207.143Z" fill="#EBEBEB"/>
<path d="M61.5783 207.143H57.583V215.093H61.5783V207.143Z" fill="#EBEBEB"/>
<path d="M68.653 207.143H64.6577V215.093H68.653V207.143Z" fill="#EBEBEB"/>
<path d="M75.7363 207.143H71.741V215.093H75.7363V207.143Z" fill="#EBEBEB"/>
<path d="M82.811 207.143H78.8157V215.093H82.811V207.143Z" fill="#EBEBEB"/>
<path d="M54.5037 220.07H50.5084V228.02H54.5037V220.07Z" fill="#EBEBEB"/>
<path d="M61.5783 220.07H57.583V228.02H61.5783V220.07Z" fill="#EBEBEB"/>
<path d="M68.653 220.07H64.6577V228.02H68.653V220.07Z" fill="#EBEBEB"/>
<path d="M75.7363 220.07H71.741V228.02H75.7363V220.07Z" fill="#EBEBEB"/>
<path d="M82.811 220.07H78.8157V228.02H82.811V220.07Z" fill="#EBEBEB"/>
<path d="M54.5037 232.997H50.5084V240.947H54.5037V232.997Z" fill="#EBEBEB"/>
<path d="M61.5783 232.997H57.583V240.947H61.5783V232.997Z" fill="#EBEBEB"/>
<path d="M68.653 232.997H64.6577V240.947H68.653V232.997Z" fill="#EBEBEB"/>
<path d="M75.7363 232.997H71.741V240.947H75.7363V232.997Z" fill="#EBEBEB"/>
<path d="M82.811 232.997H78.8157V240.947H82.811V232.997Z" fill="#EBEBEB"/>
<path d="M54.5037 245.924H50.5084V253.873H54.5037V245.924Z" fill="#EBEBEB"/>
<path d="M61.5783 245.924H57.583V253.873H61.5783V245.924Z" fill="#EBEBEB"/>
<path d="M68.653 245.924H64.6577V253.873H68.653V245.924Z" fill="#EBEBEB"/>
<path d="M75.7363 245.924H71.741V253.873H75.7363V245.924Z" fill="#EBEBEB"/>
<path d="M82.811 245.924H78.8157V253.873H82.811V245.924Z" fill="#EBEBEB"/>
<path d="M54.5037 258.842H50.5084V266.791H54.5037V258.842Z" fill="#EBEBEB"/>
<path d="M61.5783 258.842H57.583V266.791H61.5783V258.842Z" fill="#EBEBEB"/>
<path d="M68.653 258.842H64.6577V266.791H68.653V258.842Z" fill="#EBEBEB"/>
<path d="M75.7363 258.842H71.741V266.791H75.7363V258.842Z" fill="#EBEBEB"/>
<path d="M82.811 258.842H78.8157V266.791H82.811V258.842Z" fill="#EBEBEB"/>
<path d="M54.5037 271.769H50.5084V279.718H54.5037V271.769Z" fill="#EBEBEB"/>
<path d="M61.5783 271.769H57.583V279.718H61.5783V271.769Z" fill="#EBEBEB"/>
<path d="M68.653 271.769H64.6577V279.718H68.653V271.769Z" fill="#EBEBEB"/>
<path d="M75.7363 271.769H71.741V279.718H75.7363V271.769Z" fill="#EBEBEB"/>
<path d="M82.811 271.769H78.8157V279.718H82.811V271.769Z" fill="#EBEBEB"/>
<path d="M54.5037 284.696H50.5084V292.645H54.5037V284.696Z" fill="#EBEBEB"/>
<path d="M61.5783 284.696H57.583V292.645H61.5783V284.696Z" fill="#EBEBEB"/>
<path d="M68.653 284.696H64.6577V292.645H68.653V284.696Z" fill="#EBEBEB"/>
<path d="M75.7363 284.696H71.741V292.645H75.7363V284.696Z" fill="#EBEBEB"/>
<path d="M82.811 284.696H78.8157V292.645H82.811V284.696Z" fill="#EBEBEB"/>
<path d="M54.5037 297.623H50.5084V305.572H54.5037V297.623Z" fill="#EBEBEB"/>
<path d="M61.5783 297.623H57.583V305.572H61.5783V297.623Z" fill="#EBEBEB"/>
<path d="M68.653 297.623H64.6577V305.572H68.653V297.623Z" fill="#EBEBEB"/>
<path d="M75.7363 297.623H71.741V305.572H75.7363V297.623Z" fill="#EBEBEB"/>
<path d="M82.811 297.623H78.8157V305.572H82.811V297.623Z" fill="#EBEBEB"/>
<path d="M54.5037 310.549H50.5084V333.814H54.5037V310.549Z" fill="#EBEBEB"/>
<path d="M61.5783 310.549H57.583V333.814H61.5783V310.549Z" fill="#EBEBEB"/>
<path d="M68.653 310.549H64.6577V333.814H68.653V310.549Z" fill="#EBEBEB"/>
<path d="M75.7363 310.549H71.741V333.814H75.7363V310.549Z" fill="#EBEBEB"/>
<path d="M82.811 310.549H78.8157V333.814H82.811V310.549Z" fill="#EBEBEB"/>
<path d="M111.694 131.491H86.3788V333.805H111.694V131.491Z" fill="#DBDBDB"/>
<path d="M112.793 127.464H86.3788V131.491H112.793V127.464Z" fill="#C7C7C7"/>
<path d="M93.9333 137.427H89.938V333.805H93.9333V137.427Z" fill="#C7C7C7"/>
<path d="M101.017 137.427H97.0214V333.805H101.017V137.427Z" fill="#C7C7C7"/>
<path d="M108.091 137.427H104.096V333.805H108.091V137.427Z" fill="#C7C7C7"/>
<path d="M93.9333 142.518H89.938V150.467H93.9333V142.518Z" fill="#DBDBDB"/>
<path d="M101.017 142.518H97.0214V150.467H101.017V142.518Z" fill="#DBDBDB"/>
<path d="M108.091 142.518H104.096V150.467H108.091V142.518Z" fill="#DBDBDB"/>
<path d="M93.9333 155.445H89.938V163.394H93.9333V155.445Z" fill="#DBDBDB"/>
<path d="M101.017 155.445H97.0214V163.394H101.017V155.445Z" fill="#DBDBDB"/>
<path d="M108.091 155.445H104.096V163.394H108.091V155.445Z" fill="#DBDBDB"/>
<path d="M93.9333 168.372H89.938V176.321H93.9333V168.372Z" fill="#DBDBDB"/>
<path d="M101.017 168.372H97.0214V176.321H101.017V168.372Z" fill="#DBDBDB"/>
<path d="M108.091 168.372H104.096V176.321H108.091V168.372Z" fill="#DBDBDB"/>
<path d="M93.9333 181.298H89.938V189.248H93.9333V181.298Z" fill="#DBDBDB"/>
<path d="M101.017 181.298H97.0214V189.248H101.017V181.298Z" fill="#DBDBDB"/>
<path d="M108.091 181.298H104.096V189.248H108.091V181.298Z" fill="#DBDBDB"/>
<path d="M93.9333 194.216H89.938V202.166H93.9333V194.216Z" fill="#DBDBDB"/>
<path d="M101.017 194.216H97.0214V202.166H101.017V194.216Z" fill="#DBDBDB"/>
<path d="M108.091 194.216H104.096V202.166H108.091V194.216Z" fill="#DBDBDB"/>
<path d="M93.9333 207.143H89.938V215.093H93.9333V207.143Z" fill="#DBDBDB"/>
<path d="M101.017 207.143H97.0214V215.093H101.017V207.143Z" fill="#DBDBDB"/>
<path d="M108.091 207.143H104.096V215.093H108.091V207.143Z" fill="#DBDBDB"/>
<path d="M93.9333 220.07H89.938V228.02H93.9333V220.07Z" fill="#DBDBDB"/>
<path d="M101.017 220.07H97.0214V228.02H101.017V220.07Z" fill="#DBDBDB"/>
<path d="M108.091 220.07H104.096V228.02H108.091V220.07Z" fill="#DBDBDB"/>
<path d="M93.9333 232.997H89.938V240.947H93.9333V232.997Z" fill="#DBDBDB"/>
<path d="M101.017 232.997H97.0214V240.947H101.017V232.997Z" fill="#DBDBDB"/>
<path d="M108.091 232.997H104.096V240.947H108.091V232.997Z" fill="#DBDBDB"/>
<path d="M93.9333 245.924H89.938V253.873H93.9333V245.924Z" fill="#DBDBDB"/>
<path d="M101.017 245.924H97.0214V253.873H101.017V245.924Z" fill="#DBDBDB"/>
<path d="M108.091 245.924H104.096V253.873H108.091V245.924Z" fill="#DBDBDB"/>
<path d="M93.9333 258.842H89.938V266.791H93.9333V258.842Z" fill="#DBDBDB"/>
<path d="M101.017 258.842H97.0214V266.791H101.017V258.842Z" fill="#DBDBDB"/>
<path d="M108.091 258.842H104.096V266.791H108.091V258.842Z" fill="#DBDBDB"/>
<path d="M93.9333 271.769H89.938V279.718H93.9333V271.769Z" fill="#DBDBDB"/>
<path d="M101.017 271.769H97.0214V279.718H101.017V271.769Z" fill="#DBDBDB"/>
<path d="M108.091 271.769H104.096V279.718H108.091V271.769Z" fill="#DBDBDB"/>
<path d="M93.9333 284.696H89.938V292.645H93.9333V284.696Z" fill="#DBDBDB"/>
<path d="M101.017 284.696H97.0214V292.645H101.017V284.696Z" fill="#DBDBDB"/>
<path d="M108.091 284.696H104.096V292.645H108.091V284.696Z" fill="#DBDBDB"/>
<path d="M93.9333 297.623H89.938V305.572H93.9333V297.623Z" fill="#DBDBDB"/>
<path d="M101.017 297.623H97.0214V305.572H101.017V297.623Z" fill="#DBDBDB"/>
<path d="M108.091 297.623H104.096V305.572H108.091V297.623Z" fill="#DBDBDB"/>
<path d="M93.9333 310.549H89.938V333.814H93.9333V310.549Z" fill="#DBDBDB"/>
<path d="M101.017 310.549H97.0214V333.814H101.017V310.549Z" fill="#DBDBDB"/>
<path d="M108.091 310.549H104.096V333.814H108.091V310.549Z" fill="#DBDBDB"/>
<path d="M40.3195 192.081H2.92236V333.805H40.3195V192.081Z" fill="#EBEBEB"/>
<path d="M40.3195 182.684H8.24365V192.081H40.3195V182.684Z" fill="#C7C7C7"/>
<path d="M36.2195 196.988H7.02234V302.931H36.2195V196.988Z" fill="#DBDBDB"/>
<path d="M36.2195 207.1H7.02234V209.601H36.2195V207.1Z" fill="white"/>
<path d="M36.2195 217.473H7.02234V219.974H36.2195V217.473Z" fill="white"/>
<path d="M36.2195 227.845H7.02234V230.347H36.2195V227.845Z" fill="white"/>
<path d="M36.2195 238.209H7.02234V240.711H36.2195V238.209Z" fill="white"/>
<path d="M36.2195 248.583H7.02234V251.084H36.2195V248.583Z" fill="white"/>
<path d="M36.2195 258.955H7.02234V261.457H36.2195V258.955Z" fill="white"/>
<path d="M36.2195 269.319H7.02234V271.821H36.2195V269.319Z" fill="white"/>
<path d="M36.2195 279.692H7.02234V282.194H36.2195V279.692Z" fill="white"/>
<path d="M36.2195 290.065H7.02234V292.567H36.2195V290.065Z" fill="white"/>
<path d="M36.2195 300.429H7.02234V302.931H36.2195V300.429Z" fill="white"/>
<path d="M63.7417 192.081H40.3195V333.805H63.7417V192.081Z" fill="#DBDBDB"/>
<path d="M60.2262 182.684H40.3195V192.081H60.2262V182.684Z" fill="#A6A6A6"/>
<path d="M61.5608 196.988H43.5471V302.931H61.5608V196.988Z" fill="#C7C7C7"/>
<path d="M61.5608 207.1H43.5471V209.601H61.5608V207.1Z" fill="white"/>
<path d="M61.5608 217.473H43.5471V219.974H61.5608V217.473Z" fill="white"/>
<path d="M61.5608 227.845H43.5471V230.347H61.5608V227.845Z" fill="white"/>
<path d="M61.5608 238.209H43.5471V240.711H61.5608V238.209Z" fill="white"/>
<path d="M61.5608 248.583H43.5471V251.084H61.5608V248.583Z" fill="white"/>
<path d="M61.5608 258.955H43.5471V261.457H61.5608V258.955Z" fill="white"/>
<path d="M61.5608 269.319H43.5471V271.821H61.5608V269.319Z" fill="white"/>
<path d="M61.5608 279.692H43.5471V282.194H61.5608V279.692Z" fill="white"/>
<path d="M61.5608 290.065H43.5471V292.567H61.5608V290.065Z" fill="white"/>
<path d="M61.5608 300.429H43.5471V302.931H61.5608V300.429Z" fill="white"/>
<path d="M330.249 194.478H310.273V218.056H330.249V194.478Z" fill="#DBDBDB"/>
<path d="M342.907 194.478H330.241V218.919H342.907V194.478Z" fill="#C7C7C7"/>
<path d="M343.753 204.885H331.183V218.919H343.753V204.885Z" fill="#DBDBDB"/>
<path d="M351.595 204.885H343.753V218.919H351.595V204.885Z" fill="#C7C7C7"/>
<path d="M334.908 216.513H302.614V333.805H334.908V216.513Z" fill="#EBEBEB"/>
<path d="M316.458 221.56H306.304V225.709H316.458V221.56Z" fill="white"/>
<path d="M329.447 221.56H319.293V225.709H329.447V221.56Z" fill="white"/>
<path d="M316.458 228.603H306.304V232.752H316.458V228.603Z" fill="white"/>
<path d="M329.447 228.603H319.293V232.752H329.447V228.603Z" fill="white"/>
<path d="M316.458 235.638H306.304V239.787H316.458V235.638Z" fill="white"/>
<path d="M329.447 235.638H319.293V239.787H329.447V235.638Z" fill="white"/>
<path d="M316.458 242.681H306.304V246.83H316.458V242.681Z" fill="white"/>
<path d="M329.447 242.681H319.293V246.83H329.447V242.681Z" fill="white"/>
<path d="M316.458 249.715H306.304V253.864H316.458V249.715Z" fill="white"/>
<path d="M329.447 249.715H319.293V253.864H329.447V249.715Z" fill="white"/>
<path d="M316.458 256.758H306.304V260.907H316.458V256.758Z" fill="white"/>
<path d="M329.447 256.758H319.293V260.907H329.447V256.758Z" fill="white"/>
<path d="M316.458 263.801H306.304V267.95H316.458V263.801Z" fill="white"/>
<path d="M329.447 263.801H319.293V267.95H329.447V263.801Z" fill="white"/>
<path d="M316.458 270.835H306.304V274.985H316.458V270.835Z" fill="white"/>
<path d="M329.447 270.835H319.293V274.985H329.447V270.835Z" fill="white"/>
<path d="M316.458 277.878H306.304V282.028H316.458V277.878Z" fill="white"/>
<path d="M329.447 277.878H319.293V282.028H329.447V277.878Z" fill="white"/>
<path d="M316.458 284.922H306.304V289.071H316.458V284.922Z" fill="white"/>
<path d="M329.447 284.922H319.293V289.071H329.447V284.922Z" fill="white"/>
<path d="M316.458 291.956H306.304V296.105H316.458V291.956Z" fill="white"/>
<path d="M329.447 291.956H319.293V296.105H329.447V291.956Z" fill="white"/>
<path d="M316.458 298.999H306.304V303.148H316.458V298.999Z" fill="white"/>
<path d="M329.447 298.999H319.293V303.148H329.447V298.999Z" fill="white"/>
<path d="M316.458 306.042H306.304V310.191H316.458V306.042Z" fill="white"/>
<path d="M329.447 306.042H319.293V310.191H329.447V306.042Z" fill="white"/>
<path d="M316.458 313.077H306.304V317.226H316.458V313.077Z" fill="white"/>
<path d="M329.447 313.077H319.293V317.226H329.447V313.077Z" fill="white"/>
<path d="M361.078 216.513H334.908V333.805H361.078V216.513Z" fill="#C7C7C7"/>
<path d="M350.118 317.229H358.458V313.079H350.118V317.229Z" fill="#EBEBEB"/>
<path d="M339.444 317.229H347.784V313.079H339.444V317.229Z" fill="#EBEBEB"/>
<path d="M350.118 310.183H358.458V306.034H350.118V310.183Z" fill="#EBEBEB"/>
<path d="M339.444 310.183H347.784V306.034H339.444V310.183Z" fill="#EBEBEB"/>
<path d="M350.118 303.146H358.458V298.997H350.118V303.146Z" fill="#EBEBEB"/>
<path d="M339.444 303.146H347.784V298.997H339.444V303.146Z" fill="#EBEBEB"/>
<path d="M350.118 296.109H358.458V291.96H350.118V296.109Z" fill="#EBEBEB"/>
<path d="M339.444 296.109H347.784V291.96H339.444V296.109Z" fill="#EBEBEB"/>
<path d="M350.118 289.063H358.458V284.914H350.118V289.063Z" fill="#EBEBEB"/>
<path d="M339.444 289.063H347.784V284.914H339.444V289.063Z" fill="#EBEBEB"/>
<path d="M350.118 282.026H358.458V277.877H350.118V282.026Z" fill="#EBEBEB"/>
<path d="M339.444 282.026H347.784V277.877H339.444V282.026Z" fill="#EBEBEB"/>
<path d="M350.118 274.989H358.458V270.84H350.118V274.989Z" fill="#EBEBEB"/>
<path d="M339.444 274.989H347.784V270.84H339.444V274.989Z" fill="#EBEBEB"/>
<path d="M350.118 267.944H358.458V263.795H350.118V267.944Z" fill="#EBEBEB"/>
<path d="M339.444 267.944H347.784V263.795H339.444V267.944Z" fill="#EBEBEB"/>
<path d="M350.118 260.907H358.458V256.758H350.118V260.907Z" fill="#EBEBEB"/>
<path d="M339.444 260.907H347.784V256.758H339.444V260.907Z" fill="#EBEBEB"/>
<path d="M350.118 253.87H358.458V249.721H350.118V253.87Z" fill="#EBEBEB"/>
<path d="M339.444 253.87H347.784V249.721H339.444V253.87Z" fill="#EBEBEB"/>
<path d="M350.118 246.824H358.458V242.675H350.118V246.824Z" fill="#EBEBEB"/>
<path d="M339.444 246.824H347.784V242.675H339.444V246.824Z" fill="#EBEBEB"/>
<path d="M350.118 239.788H358.458V235.638H350.118V239.788Z" fill="#EBEBEB"/>
<path d="M339.444 239.788H347.784V235.638H339.444V239.788Z" fill="#EBEBEB"/>
<path d="M350.118 232.742H358.458V228.593H350.118V232.742Z" fill="#EBEBEB"/>
<path d="M339.444 232.742H347.784V228.593H339.444V232.742Z" fill="#EBEBEB"/>
<path d="M350.118 225.705H358.458V221.556H350.118V225.705Z" fill="#EBEBEB"/>
<path d="M339.444 225.705H347.784V221.556H339.444V225.705Z" fill="#EBEBEB"/>
<path d="M218.25 257.377H180.155V333.805H218.25V257.377Z" fill="#C7C7C7"/>
<path d="M192.891 263.993H186.148V268.674H192.891V263.993Z" fill="#DBDBDB"/>
<path d="M192.891 274H186.148V278.681H192.891V274Z" fill="#DBDBDB"/>
<path d="M192.891 283.998H186.148V288.679H192.891V283.998Z" fill="#DBDBDB"/>
<path d="M192.891 293.996H186.148V298.677H192.891V293.996Z" fill="#DBDBDB"/>
<path d="M192.891 304.003H186.148V308.684H192.891V304.003Z" fill="#DBDBDB"/>
<path d="M192.891 314.001H186.148V318.682H192.891V314.001Z" fill="#DBDBDB"/>
<path d="M192.891 323.999H186.148V328.68H192.891V323.999Z" fill="#DBDBDB"/>
<path d="M202.583 263.993H195.84V268.674H202.583V263.993Z" fill="#DBDBDB"/>
<path d="M202.583 274H195.84V278.681H202.583V274Z" fill="#DBDBDB"/>
<path d="M202.583 283.998H195.84V288.679H202.583V283.998Z" fill="#DBDBDB"/>
<path d="M202.583 293.996H195.84V298.677H202.583V293.996Z" fill="#DBDBDB"/>
<path d="M202.583 304.003H195.84V308.684H202.583V304.003Z" fill="#DBDBDB"/>
<path d="M202.583 314.001H195.84V318.682H202.583V314.001Z" fill="#DBDBDB"/>
<path d="M202.583 323.999H195.84V328.68H202.583V323.999Z" fill="#DBDBDB"/>
<path d="M212.257 263.993H205.514V268.674H212.257V263.993Z" fill="#DBDBDB"/>
<path d="M212.257 274H205.514V278.681H212.257V274Z" fill="#DBDBDB"/>
<path d="M212.257 283.998H205.514V288.679H212.257V283.998Z" fill="#DBDBDB"/>
<path d="M212.257 293.996H205.514V298.677H212.257V293.996Z" fill="#DBDBDB"/>
<path d="M212.257 304.003H205.514V308.684H212.257V304.003Z" fill="#DBDBDB"/>
<path d="M212.257 314.001H205.514V318.682H212.257V314.001Z" fill="#DBDBDB"/>
<path d="M212.257 323.999H205.514V328.68H212.257V323.999Z" fill="#DBDBDB"/>
<path d="M218.241 249.419H192.882V257.386H218.241V249.419Z" fill="#DBDBDB"/>
<path d="M218.25 244.485H202.173V249.419H218.25V244.485Z" fill="#EBEBEB"/>
<path d="M244.978 257.377H218.25V333.805H244.978V257.377Z" fill="#A6A6A6"/>
<path d="M236.753 327.935H242.24V323.254H236.753V327.935Z" fill="#C7C7C7"/>
<path d="M236.753 317.939H242.24V313.258H236.753V317.939Z" fill="#C7C7C7"/>
<path d="M236.753 307.935H242.24V303.254H236.753V307.935Z" fill="#C7C7C7"/>
<path d="M236.753 297.93H242.24V293.249H236.753V297.93Z" fill="#C7C7C7"/>
<path d="M236.753 287.935H242.24V283.254H236.753V287.935Z" fill="#C7C7C7"/>
<path d="M236.753 277.931H242.24V273.25H236.753V277.931Z" fill="#C7C7C7"/>
<path d="M236.753 267.926H242.24V263.245H236.753V267.926Z" fill="#C7C7C7"/>
<path d="M228.86 327.935H234.347V323.254H228.86V327.935Z" fill="#C7C7C7"/>
<path d="M228.86 317.939H234.347V313.258H228.86V317.939Z" fill="#C7C7C7"/>
<path d="M228.86 307.935H234.347V303.254H228.86V307.935Z" fill="#C7C7C7"/>
<path d="M228.86 297.93H234.347V293.249H228.86V297.93Z" fill="#C7C7C7"/>
<path d="M228.86 287.935H234.347V283.254H228.86V287.935Z" fill="#C7C7C7"/>
<path d="M228.86 277.931H234.347V273.25H228.86V277.931Z" fill="#C7C7C7"/>
<path d="M228.86 267.926H234.347V263.245H228.86V267.926Z" fill="#C7C7C7"/>
<path d="M220.988 327.935H226.475V323.254H220.988V327.935Z" fill="#C7C7C7"/>
<path d="M220.988 317.939H226.475V313.258H220.988V317.939Z" fill="#C7C7C7"/>
<path d="M220.988 307.935H226.475V303.254H220.988V307.935Z" fill="#C7C7C7"/>
<path d="M220.988 297.93H226.475V293.249H220.988V297.93Z" fill="#C7C7C7"/>
<path d="M220.988 287.935H226.475V283.254H220.988V287.935Z" fill="#C7C7C7"/>
<path d="M220.988 277.931H226.475V273.25H220.988V277.931Z" fill="#C7C7C7"/>
<path d="M220.988 267.926H226.475V263.245H220.988V267.926Z" fill="#C7C7C7"/>
<path d="M240.931 249.419H218.25V257.386H240.931V249.419Z" fill="#C7C7C7"/>
<path d="M230.541 244.485H218.25V249.419H230.541V244.485Z" fill="#DBDBDB"/>
<path d="M318.708 150.842H261.134V327.477H318.708V150.842Z" fill="#645856"/>
<path d="M318.481 133.069H275.405V150.833H318.481V133.069Z" fill="#4F4644"/>
<path d="M282.672 135.814H278.991V148.096H282.672V135.814Z" fill="#645856"/>
<path d="M289.119 135.814H285.437V148.096H289.119V135.814Z" fill="#645856"/>
<path d="M295.565 135.814H291.884V148.096H295.565V135.814Z" fill="#645856"/>
<path d="M302.012 135.814H298.33V148.096H302.012V135.814Z" fill="#645856"/>
<path d="M308.45 135.814H304.768V148.096H308.45V135.814Z" fill="#645856"/>
<path d="M314.896 135.814H311.215V148.096H314.896V135.814Z" fill="#645856"/>
<path d="M338.083 133.069H318.49V150.833H338.083V133.069Z" fill="#645856"/>
<path d="M324.361 135.814H321.229V148.096H324.361V135.814Z" fill="#4F4644"/>
<path d="M329.848 135.814H326.716V148.096H329.848V135.814Z" fill="#4F4644"/>
<path d="M335.326 135.814H332.194V148.096H335.326V135.814Z" fill="#4F4644"/>
<path d="M347.792 150.842H318.49V327.477H347.792V150.842Z" fill="#4F4644"/>
<path d="M284.896 124.064H283.579V133.069H284.896V124.064Z" fill="#383130"/>
<path d="M310.316 124.064H308.999V133.069H310.316V124.064Z" fill="#383130"/>
<path d="M316.161 108.322H277.743V124.065H316.161V108.322Z" fill="#9CC6FF"/>
<path d="M283.544 163.002H272.919V179.259H283.544V163.002Z" fill="#383130"/>
<path d="M305.169 163.002H294.544V179.259H305.169V163.002Z" fill="#383130"/>
<path d="M283.544 188.629H272.919V204.886H283.544V188.629Z" fill="#383130"/>
<path d="M305.169 188.629H294.544V204.886H305.169V188.629Z" fill="#383130"/>
<path d="M283.544 214.248H272.919V230.504H283.544V214.248Z" fill="#383130"/>
<path d="M305.169 214.248H294.544V230.504H305.169V214.248Z" fill="#383130"/>
<path d="M283.544 239.866H272.919V256.122H283.544V239.866Z" fill="#383130"/>
<path d="M305.169 239.866H294.544V256.122H305.169V239.866Z" fill="#383130"/>
<path d="M283.544 265.493H272.919V281.749H283.544V265.493Z" fill="#383130"/>
<path d="M305.169 265.493H294.544V281.749H305.169V265.493Z" fill="#383130"/>
<path d="M283.544 291.111H272.919V307.368H283.544V291.111Z" fill="#383130"/>
<path d="M305.169 291.111H294.544V307.368H305.169V291.111Z" fill="#383130"/>
<path d="M329.979 163.002H323.872V179.259H329.979V163.002Z" fill="#383130"/>
<path d="M342.401 163.002H336.295V179.259H342.401V163.002Z" fill="#383130"/>
<path d="M329.979 188.629H323.872V204.886H329.979V188.629Z" fill="#383130"/>
<path d="M342.401 188.629H336.295V204.886H342.401V188.629Z" fill="#383130"/>
<path d="M329.979 214.248H323.872V230.504H329.979V214.248Z" fill="#383130"/>
<path d="M342.401 214.248H336.295V230.504H342.401V214.248Z" fill="#383130"/>
<path d="M329.979 239.866H323.872V256.122H329.979V239.866Z" fill="#383130"/>
<path d="M342.401 239.866H336.295V256.122H342.401V239.866Z" fill="#383130"/>
<path d="M329.979 265.493H323.872V281.749H329.979V265.493Z" fill="#383130"/>
<path d="M342.401 265.493H336.295V281.749H342.401V265.493Z" fill="#383130"/>
<path d="M329.979 291.111H323.872V307.368H329.979V291.111Z" fill="#383130"/>
<path d="M342.401 291.111H336.295V307.368H342.401V291.111Z" fill="#383130"/>
<path d="M166.145 100.87H135.352V327.469H166.145V100.87Z" fill="#4F4644"/>
<path d="M166.145 113.561H135.352V115.941H166.145V113.561Z" fill="#645856"/>
<path d="M144.189 122.949H138.518V136.199H144.189V122.949Z" fill="#383130"/>
<path d="M144.189 139.668H138.518V152.917H144.189V139.668Z" fill="#383130"/>
<path d="M144.189 156.378H138.518V169.627H144.189V156.378Z" fill="#383130"/>
<path d="M144.189 173.087H138.518V186.337H144.189V173.087Z" fill="#383130"/>
<path d="M144.189 189.806H138.518V203.056H144.189V189.806Z" fill="#383130"/>
<path d="M144.189 206.525H138.518V219.774H144.189V206.525Z" fill="#383130"/>
<path d="M144.189 223.226H138.518V236.475H144.189V223.226Z" fill="#383130"/>
<path d="M144.189 239.944H138.518V253.194H144.189V239.944Z" fill="#383130"/>
<path d="M144.189 256.663H138.518V269.912H144.189V256.663Z" fill="#383130"/>
<path d="M144.189 273.364H138.518V286.614H144.189V273.364Z" fill="#383130"/>
<path d="M144.189 290.083H138.518V303.332H144.189V290.083Z" fill="#383130"/>
<path d="M144.189 306.802H138.518V320.051H144.189V306.802Z" fill="#383130"/>
<path d="M144.189 122.949H138.518V136.199H144.189V122.949Z" fill="#383130"/>
<path d="M144.189 139.668H138.518V152.917H144.189V139.668Z" fill="#383130"/>
<path d="M144.189 156.378H138.518V169.627H144.189V156.378Z" fill="#383130"/>
<path d="M144.189 173.087H138.518V186.337H144.189V173.087Z" fill="#383130"/>
<path d="M144.189 189.806H138.518V203.056H144.189V189.806Z" fill="#383130"/>
<path d="M144.189 206.525H138.518V219.774H144.189V206.525Z" fill="#383130"/>
<path d="M144.189 223.226H138.518V236.475H144.189V223.226Z" fill="#383130"/>
<path d="M144.189 239.944H138.518V253.194H144.189V239.944Z" fill="#383130"/>
<path d="M144.189 256.663H138.518V269.912H144.189V256.663Z" fill="#383130"/>
<path d="M144.189 273.364H138.518V286.614H144.189V273.364Z" fill="#383130"/>
<path d="M144.189 290.083H138.518V303.332H144.189V290.083Z" fill="#383130"/>
<path d="M144.189 306.802H138.518V320.051H144.189V306.802Z" fill="#383130"/>
<path d="M153.584 122.949H147.913V136.199H153.584V122.949Z" fill="#383130"/>
<path d="M153.584 139.668H147.913V152.917H153.584V139.668Z" fill="#383130"/>
<path d="M153.584 156.378H147.913V169.627H153.584V156.378Z" fill="#383130"/>
<path d="M153.584 173.087H147.913V186.337H153.584V173.087Z" fill="#383130"/>
<path d="M153.584 189.806H147.913V203.056H153.584V189.806Z" fill="#383130"/>
<path d="M153.584 206.525H147.913V219.774H153.584V206.525Z" fill="#383130"/>
<path d="M153.584 223.226H147.913V236.475H153.584V223.226Z" fill="#383130"/>
<path d="M153.584 239.944H147.913V253.194H153.584V239.944Z" fill="#383130"/>
<path d="M153.584 256.663H147.913V269.912H153.584V256.663Z" fill="#383130"/>
<path d="M153.584 273.364H147.913V286.614H153.584V273.364Z" fill="#383130"/>
<path d="M153.584 290.083H147.913V303.332H153.584V290.083Z" fill="#383130"/>
<path d="M153.584 306.802H147.913V320.051H153.584V306.802Z" fill="#383130"/>
<path d="M153.584 122.949H147.913V136.199H153.584V122.949Z" fill="#383130"/>
<path d="M153.584 139.668H147.913V152.917H153.584V139.668Z" fill="#383130"/>
<path d="M153.584 156.378H147.913V169.627H153.584V156.378Z" fill="#383130"/>
<path d="M153.584 173.087H147.913V186.337H153.584V173.087Z" fill="#383130"/>
<path d="M153.584 189.806H147.913V203.056H153.584V189.806Z" fill="#383130"/>
<path d="M153.584 206.525H147.913V219.774H153.584V206.525Z" fill="#383130"/>
<path d="M153.584 223.226H147.913V236.475H153.584V223.226Z" fill="#383130"/>
<path d="M153.584 239.944H147.913V253.194H153.584V239.944Z" fill="#383130"/>
<path d="M153.584 256.663H147.913V269.912H153.584V256.663Z" fill="#383130"/>
<path d="M153.584 273.364H147.913V286.614H153.584V273.364Z" fill="#383130"/>
<path d="M153.584 290.083H147.913V303.332H153.584V290.083Z" fill="#383130"/>
<path d="M153.584 306.802H147.913V320.051H153.584V306.802Z" fill="#383130"/>
<path d="M162.97 122.949H157.3V136.199H162.97V122.949Z" fill="#383130"/>
<path d="M162.97 139.668H157.3V152.917H162.97V139.668Z" fill="#383130"/>
<path d="M162.97 156.378H157.3V169.627H162.97V156.378Z" fill="#383130"/>
<path d="M162.97 173.087H157.3V186.337H162.97V173.087Z" fill="#383130"/>
<path d="M162.97 189.806H157.3V203.056H162.97V189.806Z" fill="#383130"/>
<path d="M162.97 206.525H157.3V219.774H162.97V206.525Z" fill="#383130"/>
<path d="M162.97 223.226H157.3V236.475H162.97V223.226Z" fill="#383130"/>
<path d="M162.97 239.944H157.3V253.194H162.97V239.944Z" fill="#383130"/>
<path d="M162.97 256.663H157.3V269.912H162.97V256.663Z" fill="#383130"/>
<path d="M162.97 273.364H157.3V286.614H162.97V273.364Z" fill="#383130"/>
<path d="M162.97 290.083H157.3V303.332H162.97V290.083Z" fill="#383130"/>
<path d="M162.97 306.802H157.3V320.051H162.97V306.802Z" fill="#383130"/>
<path d="M162.97 122.949H157.3V136.199H162.97V122.949Z" fill="#383130"/>
<path d="M162.97 139.668H157.3V152.917H162.97V139.668Z" fill="#383130"/>
<path d="M162.97 156.378H157.3V169.627H162.97V156.378Z" fill="#383130"/>
<path d="M162.97 173.087H157.3V186.337H162.97V173.087Z" fill="#383130"/>
<path d="M162.97 189.806H157.3V203.056H162.97V189.806Z" fill="#383130"/>
<path d="M162.97 206.525H157.3V219.774H162.97V206.525Z" fill="#383130"/>
<path d="M162.97 223.226H157.3V236.475H162.97V223.226Z" fill="#383130"/>
<path d="M162.97 239.944H157.3V253.194H162.97V239.944Z" fill="#383130"/>
<path d="M162.97 256.663H157.3V269.912H162.97V256.663Z" fill="#383130"/>
<path d="M162.97 273.364H157.3V286.614H162.97V273.364Z" fill="#383130"/>
<path d="M162.97 290.083H157.3V303.332H162.97V290.083Z" fill="#383130"/>
<path d="M162.97 306.802H157.3V320.051H162.97V306.802Z" fill="#383130"/>
<path d="M135.352 100.87H82.7062V327.469H135.352V100.87Z" fill="#645856"/>
<path d="M135.352 113.561H82.7062V115.941H135.352V113.561Z" fill="#4F4644"/>
<path d="M135.352 88.1431H101.47V100.869H135.352V88.1431Z" fill="#4F4644"/>
<path d="M135.344 100.871H151.264V88.1447H135.344V100.871Z" fill="#383130"/>
<path d="M97.5534 122.949H88.3503V136.198H97.5534V122.949Z" fill="#383130"/>
<path d="M97.5534 139.667H88.3503V152.917H97.5534V139.667Z" fill="#383130"/>
<path d="M97.5534 156.377H88.3503V169.627H97.5534V156.377Z" fill="#383130"/>
<path d="M97.5534 173.087H88.3503V186.336H97.5534V173.087Z" fill="#383130"/>
<path d="M97.5534 189.806H88.3503V203.055H97.5534V189.806Z" fill="#383130"/>
<path d="M97.5534 206.524H88.3503V219.774H97.5534V206.524Z" fill="#383130"/>
<path d="M97.5534 223.226H88.3503V236.475H97.5534V223.226Z" fill="#383130"/>
<path d="M97.5534 239.944H88.3503V253.193H97.5534V239.944Z" fill="#383130"/>
<path d="M97.5534 256.663H88.3503V269.912H97.5534V256.663Z" fill="#383130"/>
<path d="M97.5534 273.364H88.3503V286.613H97.5534V273.364Z" fill="#383130"/>
<path d="M97.5534 290.083H88.3503V303.332H97.5534V290.083Z" fill="#383130"/>
<path d="M97.5534 306.801H88.3503V320.051H97.5534V306.801Z" fill="#383130"/>
<path d="M97.5534 122.949H88.3503V136.198H97.5534V122.949Z" fill="#383130"/>
<path d="M97.5534 139.667H88.3503V152.917H97.5534V139.667Z" fill="#383130"/>
<path d="M97.5534 156.377H88.3503V169.627H97.5534V156.377Z" fill="#383130"/>
<path d="M97.5534 173.087H88.3503V186.336H97.5534V173.087Z" fill="#383130"/>
<path d="M97.5534 189.806H88.3503V203.055H97.5534V189.806Z" fill="#383130"/>
<path d="M97.5534 206.524H88.3503V219.774H97.5534V206.524Z" fill="#383130"/>
<path d="M97.5534 223.226H88.3503V236.475H97.5534V223.226Z" fill="#383130"/>
<path d="M97.5534 239.944H88.3503V253.193H97.5534V239.944Z" fill="#383130"/>
<path d="M97.5534 256.663H88.3503V269.912H97.5534V256.663Z" fill="#383130"/>
<path d="M97.5534 273.364H88.3503V286.613H97.5534V273.364Z" fill="#383130"/>
<path d="M97.5534 290.083H88.3503V303.332H97.5534V290.083Z" fill="#383130"/>
<path d="M97.5534 306.801H88.3503V320.051H97.5534V306.801Z" fill="#383130"/>
<path d="M112.793 122.949H103.59V136.198H112.793V122.949Z" fill="#383130"/>
<path d="M112.793 139.667H103.59V152.917H112.793V139.667Z" fill="#383130"/>
<path d="M112.793 156.377H103.59V169.627H112.793V156.377Z" fill="#383130"/>
<path d="M112.793 173.087H103.59V186.336H112.793V173.087Z" fill="#383130"/>
<path d="M112.793 189.806H103.59V203.055H112.793V189.806Z" fill="#383130"/>
<path d="M112.793 206.524H103.59V219.774H112.793V206.524Z" fill="#383130"/>
<path d="M112.793 223.226H103.59V236.475H112.793V223.226Z" fill="#383130"/>
<path d="M112.793 239.944H103.59V253.193H112.793V239.944Z" fill="#383130"/>
<path d="M112.793 256.663H103.59V269.912H112.793V256.663Z" fill="#383130"/>
<path d="M112.793 273.364H103.59V286.613H112.793V273.364Z" fill="#383130"/>
<path d="M112.793 290.083H103.59V303.332H112.793V290.083Z" fill="#383130"/>
<path d="M112.793 306.801H103.59V320.051H112.793V306.801Z" fill="#383130"/>
<path d="M112.793 122.949H103.59V136.198H112.793V122.949Z" fill="#383130"/>
<path d="M112.793 139.667H103.59V152.917H112.793V139.667Z" fill="#383130"/>
<path d="M112.793 156.377H103.59V169.627H112.793V156.377Z" fill="#383130"/>
<path d="M112.793 173.087H103.59V186.336H112.793V173.087Z" fill="#383130"/>
<path d="M112.793 189.806H103.59V203.055H112.793V189.806Z" fill="#383130"/>
<path d="M112.793 206.524H103.59V219.774H112.793V206.524Z" fill="#383130"/>
<path d="M112.793 223.226H103.59V236.475H112.793V223.226Z" fill="#383130"/>
<path d="M112.793 239.944H103.59V253.193H112.793V239.944Z" fill="#383130"/>
<path d="M112.793 256.663H103.59V269.912H112.793V256.663Z" fill="#383130"/>
<path d="M112.793 273.364H103.59V286.613H112.793V273.364Z" fill="#383130"/>
<path d="M112.793 290.083H103.59V303.332H112.793V290.083Z" fill="#383130"/>
<path d="M112.793 306.801H103.59V320.051H112.793V306.801Z" fill="#383130"/>
<path d="M128.042 122.949H118.838V136.198H128.042V122.949Z" fill="#383130"/>
<path d="M128.042 139.667H118.838V152.917H128.042V139.667Z" fill="#383130"/>
<path d="M128.042 156.377H118.838V169.627H128.042V156.377Z" fill="#383130"/>
<path d="M128.042 173.087H118.838V186.336H128.042V173.087Z" fill="#383130"/>
<path d="M128.042 189.806H118.838V203.055H128.042V189.806Z" fill="#383130"/>
<path d="M128.042 206.524H118.838V219.774H128.042V206.524Z" fill="#383130"/>
<path d="M128.042 223.226H118.838V236.475H128.042V223.226Z" fill="#383130"/>
<path d="M128.042 239.944H118.838V253.193H128.042V239.944Z" fill="#383130"/>
<path d="M128.042 256.663H118.838V269.912H128.042V256.663Z" fill="#383130"/>
<path d="M128.042 273.364H118.838V286.613H128.042V273.364Z" fill="#383130"/>
<path d="M128.042 290.083H118.838V303.332H128.042V290.083Z" fill="#383130"/>
<path d="M128.042 306.801H118.838V320.051H128.042V306.801Z" fill="#383130"/>
<path d="M128.042 122.949H118.838V136.198H128.042V122.949Z" fill="#383130"/>
<path d="M128.042 139.667H118.838V152.917H128.042V139.667Z" fill="#383130"/>
<path d="M128.042 156.377H118.838V169.627H128.042V156.377Z" fill="#383130"/>
<path d="M128.042 173.087H118.838V186.336H128.042V173.087Z" fill="#383130"/>
<path d="M128.042 189.806H118.838V203.055H128.042V189.806Z" fill="#383130"/>
<path d="M128.042 206.524H118.838V219.774H128.042V206.524Z" fill="#383130"/>
<path d="M128.042 223.226H118.838V236.475H128.042V223.226Z" fill="#383130"/>
<path d="M128.042 239.944H118.838V253.193H128.042V239.944Z" fill="#383130"/>
<path d="M128.042 256.663H118.838V269.912H128.042V256.663Z" fill="#383130"/>
<path d="M128.042 273.364H118.838V286.613H128.042V273.364Z" fill="#383130"/>
<path d="M128.042 290.083H118.838V303.332H128.042V290.083Z" fill="#383130"/>
<path d="M128.042 306.801H118.838V320.051H128.042V306.801Z" fill="#383130"/>
<path d="M62.7297 327.468H20.9971V196.657L62.7297 169.626V327.468Z" fill="#9CC6FF"/>
<path d="M57.3649 327.468H25.6903V200.318L57.3649 179.799V327.468Z" fill="#9CC6FF"/>
<path opacity="0.3" d="M57.3649 327.468H25.6903V200.318L57.3649 179.799V327.468Z" fill="black"/>
<g opacity="0.3">
<path opacity="0.3" d="M57.3648 202.515H29.3192V203.526H57.3648V202.515Z" fill="black"/>
<path opacity="0.3" d="M57.3648 210.778H29.3192V211.789H57.3648V210.778Z" fill="black"/>
<path opacity="0.3" d="M57.3648 219.042H29.3192V220.053H57.3648V219.042Z" fill="black"/>
<path opacity="0.3" d="M57.3648 227.305H29.3192V228.316H57.3648V227.305Z" fill="black"/>
<path opacity="0.3" d="M57.3648 235.568H29.3192V236.58H57.3648V235.568Z" fill="black"/>
<path opacity="0.3" d="M57.3648 243.832H29.3192V244.843H57.3648V243.832Z" fill="black"/>
<path opacity="0.3" d="M57.3648 252.095H29.3192V253.106H57.3648V252.095Z" fill="black"/>
<path opacity="0.3" d="M57.3648 260.358H29.3192V261.37H57.3648V260.358Z" fill="black"/>
<path opacity="0.3" d="M57.3648 268.622H29.3192V269.633H57.3648V268.622Z" fill="black"/>
<path opacity="0.3" d="M57.3648 276.885H29.3192V277.896H57.3648V276.885Z" fill="black"/>
<path opacity="0.3" d="M57.3648 285.149H29.3192V286.16H57.3648V285.149Z" fill="black"/>
<path opacity="0.3" d="M57.3648 293.412H29.3192V294.423H57.3648V293.412Z" fill="black"/>
<path opacity="0.3" d="M57.3648 301.676H29.3192V302.687H57.3648V301.676Z" fill="black"/>
<path opacity="0.3" d="M57.3648 309.939H29.3192V310.95H57.3648V309.939Z" fill="black"/>
<path opacity="0.3" d="M57.3648 318.203H29.3192V319.214H57.3648V318.203Z" fill="black"/>
<path opacity="0.3" d="M57.3648 326.466H29.3192V327.477H57.3648V326.466Z" fill="black"/>
<path opacity="0.3" d="M42.8365 192.911L42.8365 327.47H43.8484L43.8484 192.911H42.8365Z" fill="black"/>
</g>
<path d="M57.3649 179.799V184.358L29.3192 202.515V327.468H25.6903V200.309L57.3649 179.799Z" fill="#9CC6FF"/>
<path opacity="0.2" d="M57.3649 179.799V184.358L29.3192 202.515V327.468H25.6903V200.309L57.3649 179.799Z" fill="black"/>
<path d="M99.4987 169.626H62.7297V327.468H99.4987V169.626Z" fill="#9CC6FF"/>
<path opacity="0.2" d="M99.4987 169.626H62.7297V327.468H99.4987V169.626Z" fill="black"/>
<g opacity="0.2">
<path opacity="0.2" d="M95.9309 179.799H66.2976V183.373H95.9309V179.799Z" fill="black"/>
<path opacity="0.2" d="M95.9309 187.896H66.2976V191.47H95.9309V187.896Z" fill="black"/>
<path opacity="0.2" d="M95.9309 195.995H66.2976V199.568H95.9309V195.995Z" fill="black"/>
<path opacity="0.2" d="M95.9309 204.083H66.2976V207.657H95.9309V204.083Z" fill="black"/>
<path opacity="0.2" d="M95.9309 212.181H66.2976V215.755H95.9309V212.181Z" fill="black"/>
<path opacity="0.2" d="M95.9309 220.271H66.2976V223.844H95.9309V220.271Z" fill="black"/>
<path opacity="0.2" d="M95.9309 228.368H66.2976V231.942H95.9309V228.368Z" fill="black"/>
<path opacity="0.2" d="M95.9309 236.466H66.2976V240.04H95.9309V236.466Z" fill="black"/>
<path opacity="0.2" d="M95.9309 244.555H66.2976V248.129H95.9309V244.555Z" fill="black"/>
<path opacity="0.2" d="M95.9309 252.653H66.2976V256.227H95.9309V252.653Z" fill="black"/>
<path opacity="0.2" d="M95.9309 260.75H66.2976V264.324H95.9309V260.75Z" fill="black"/>
<path opacity="0.2" d="M95.9309 268.84H66.2976V272.414H95.9309V268.84Z" fill="black"/>
<path opacity="0.2" d="M95.9309 276.938H66.2976V280.511H95.9309V276.938Z" fill="black"/>
<path opacity="0.2" d="M95.9309 285.027H66.2976V288.601H95.9309V285.027Z" fill="black"/>
<path opacity="0.2" d="M95.9309 293.125H66.2976V296.698H95.9309V293.125Z" fill="black"/>
<path opacity="0.2" d="M95.9309 301.222H66.2976V304.796H95.9309V301.222Z" fill="black"/>
<path opacity="0.2" d="M95.9309 309.312H66.2976V312.885H95.9309V309.312Z" fill="black"/>
<path opacity="0.2" d="M95.9309 317.409H66.2976V320.983H95.9309V317.409Z" fill="black"/>
</g>
<path d="M251.521 160.353H218.442V327.478H251.521V160.353Z" fill="#9CC6FF"/>
<path opacity="0.2" d="M251.521 160.353H218.442V327.478H251.521V160.353Z" fill="black"/>
<path d="M218.434 160.351H253.493V154.877H218.434V160.351Z" fill="#9CC6FF"/>
<path d="M218.43 154.875H248.159V146.324H218.43V154.875Z" fill="#9CC6FF"/>
<path opacity="0.2" d="M218.43 154.875H248.159V146.324H218.43V154.875Z" fill="black"/>
<path d="M218.433 146.32H241.175V127.457H218.433V146.32Z" fill="#9CC6FF"/>
<path opacity="0.3" d="M218.433 146.32H241.175V127.457H218.433V146.32Z" fill="black"/>
<g opacity="0.3">
<path opacity="0.3" d="M226.092 166.681H221.608V184.262H226.092V166.681Z" fill="black"/>
</g>
<g opacity="0.3">
<path opacity="0.3" d="M226.092 190.634H221.608V208.216H226.092V190.634Z" fill="black"/>
</g>
<g opacity="0.3">
<path opacity="0.3" d="M226.092 214.579H221.608V232.16H226.092V214.579Z" fill="black"/>
</g>
<g opacity="0.3">
<path opacity="0.3" d="M226.092 238.523H221.608V256.105H226.092V238.523Z" fill="black"/>
</g>
<g opacity="0.3">
<path opacity="0.3" d="M226.092 262.468H221.608V280.05H226.092V262.468Z" fill="black"/>
</g>
<g opacity="0.3">
<path opacity="0.3" d="M226.092 286.422H221.608V304.003H226.092V286.422Z" fill="black"/>
</g>
<g opacity="0.3">
<path opacity="0.3" d="M233.507 166.681H229.023V184.262H233.507V166.681Z" fill="black"/>
</g>
<g opacity="0.3">
<path opacity="0.3" d="M233.507 190.634H229.023V208.216H233.507V190.634Z" fill="black"/>
</g>
<g opacity="0.3">
<path opacity="0.3" d="M233.507 214.579H229.023V232.16H233.507V214.579Z" fill="black"/>
</g>
<g opacity="0.3">
<path opacity="0.3" d="M233.507 238.523H229.023V256.105H233.507V238.523Z" fill="black"/>
</g>
<g opacity="0.3">
<path opacity="0.3" d="M233.507 262.468H229.023V280.05H233.507V262.468Z" fill="black"/>
</g>
<g opacity="0.3">
<path opacity="0.3" d="M233.507 286.422H229.023V304.003H233.507V286.422Z" fill="black"/>
</g>
<g opacity="0.3">
<path opacity="0.3" d="M240.931 166.681H236.447V184.262H240.931V166.681Z" fill="black"/>
</g>
<g opacity="0.3">
<path opacity="0.3" d="M240.931 190.634H236.447V208.216H240.931V190.634Z" fill="black"/>
</g>
<g opacity="0.3">
<path opacity="0.3" d="M240.931 214.579H236.447V232.16H240.931V214.579Z" fill="black"/>
</g>
<g opacity="0.3">
<path opacity="0.3" d="M240.931 238.523H236.447V256.105H240.931V238.523Z" fill="black"/>
</g>
<g opacity="0.3">
<path opacity="0.3" d="M240.931 262.468H236.447V280.05H240.931V262.468Z" fill="black"/>
</g>
<g opacity="0.3">
<path opacity="0.3" d="M240.931 286.422H236.447V304.003H240.931V286.422Z" fill="black"/>
</g>
<g opacity="0.3">
<path opacity="0.3" d="M248.346 166.681H243.862V184.262H248.346V166.681Z" fill="black"/>
</g>
<g opacity="0.3">
<path opacity="0.3" d="M248.346 190.634H243.862V208.216H248.346V190.634Z" fill="black"/>
</g>
<g opacity="0.3">
<path opacity="0.3" d="M248.346 214.579H243.862V232.16H248.346V214.579Z" fill="black"/>
</g>
<g opacity="0.3">
<path opacity="0.3" d="M248.346 238.523H243.862V256.105H248.346V238.523Z" fill="black"/>
</g>
<g opacity="0.3">
<path opacity="0.3" d="M248.346 262.468H243.862V280.05H248.346V262.468Z" fill="black"/>
</g>
<g opacity="0.3">
<path opacity="0.3" d="M248.346 286.422H243.862V304.003H248.346V286.422Z" fill="black"/>
</g>
<path d="M218.433 160.353H150.626V327.478H218.433V160.353Z" fill="#9CC6FF"/>
<path d="M218.433 146.319H153.872V154.87H218.433V146.319Z" fill="#9CC6FF"/>
<path d="M218.433 127.464H169.853V146.327H218.433V127.464Z" fill="#9CC6FF"/>
<path opacity="0.2" d="M218.433 127.464H169.853V146.327H218.433V127.464Z" fill="black"/>
<path d="M218.433 154.87H148.594V160.344H218.433V154.87Z" fill="#9CC6FF"/>
<path opacity="0.2" d="M218.433 154.87H148.594V160.344H218.433V154.87Z" fill="black"/>
<g opacity="0.3">
<path opacity="0.3" d="M166.311 166.681H157.108V184.262H166.311V166.681Z" fill="black"/>
</g>
<g opacity="0.3">
<path opacity="0.3" d="M166.311 190.634H157.108V208.216H166.311V190.634Z" fill="black"/>
</g>
<g opacity="0.3">
<path opacity="0.3" d="M166.311 214.579H157.108V232.161H166.311V214.579Z" fill="black"/>
</g>
<g opacity="0.3">
<path opacity="0.3" d="M166.311 238.523H157.108V256.105H166.311V238.523Z" fill="black"/>
</g>
<g opacity="0.3">
<path opacity="0.3" d="M166.311 262.468H157.108V280.05H166.311V262.468Z" fill="black"/>
</g>
<g opacity="0.3">
<path opacity="0.3" d="M166.311 286.422H157.108V304.004H166.311V286.422Z" fill="black"/>
</g>
<g opacity="0.3">
<path opacity="0.3" d="M181.525 166.681H172.321V184.262H181.525V166.681Z" fill="black"/>
</g>
<g opacity="0.3">
<path opacity="0.3" d="M181.525 190.634H172.321V208.216H181.525V190.634Z" fill="black"/>
</g>
<g opacity="0.3">
<path opacity="0.3" d="M181.525 214.579H172.321V232.161H181.525V214.579Z" fill="black"/>
</g>
<g opacity="0.3">
<path opacity="0.3" d="M181.525 238.523H172.321V256.105H181.525V238.523Z" fill="black"/>
</g>
<g opacity="0.3">
<path opacity="0.3" d="M181.525 262.468H172.321V280.05H181.525V262.468Z" fill="black"/>
</g>
<g opacity="0.3">
<path opacity="0.3" d="M181.525 286.422H172.321V304.004H181.525V286.422Z" fill="black"/>
</g>
<g opacity="0.3">
<path opacity="0.3" d="M196.738 166.681H187.535V184.262H196.738V166.681Z" fill="black"/>
</g>
<g opacity="0.3">
<path opacity="0.3" d="M196.738 190.634H187.535V208.216H196.738V190.634Z" fill="black"/>
</g>
<g opacity="0.3">
<path opacity="0.3" d="M196.738 214.579H187.535V232.161H196.738V214.579Z" fill="black"/>
</g>
<g opacity="0.3">
<path opacity="0.3" d="M196.738 238.523H187.535V256.105H196.738V238.523Z" fill="black"/>
</g>
<g opacity="0.3">
<path opacity="0.3" d="M196.738 262.468H187.535V280.05H196.738V262.468Z" fill="black"/>
</g>
<g opacity="0.3">
<path opacity="0.3" d="M196.738 286.422H187.535V304.004H196.738V286.422Z" fill="black"/>
</g>
<g opacity="0.3">
<path opacity="0.3" d="M211.952 166.681H202.749V184.262H211.952V166.681Z" fill="black"/>
</g>
<g opacity="0.3">
<path opacity="0.3" d="M211.952 190.634H202.749V208.216H211.952V190.634Z" fill="black"/>
</g>
<g opacity="0.3">
<path opacity="0.3" d="M211.952 214.579H202.749V232.161H211.952V214.579Z" fill="black"/>
</g>
<g opacity="0.3">
<path opacity="0.3" d="M211.952 238.523H202.749V256.105H211.952V238.523Z" fill="black"/>
</g>
<g opacity="0.3">
<path opacity="0.3" d="M211.952 262.468H202.749V280.05H211.952V262.468Z" fill="black"/>
</g>
<g opacity="0.3">
<path opacity="0.3" d="M211.952 286.422H202.749V304.004H211.952V286.422Z" fill="black"/>
</g>
<path opacity="0.3" d="M196.738 310.907H172.321V327.469H196.738V310.907Z" fill="black"/>
<path d="M319.389 232.169H286.31V327.469H319.389V232.169Z" fill="#9CC6FF"/>
<path opacity="0.2" d="M319.389 232.169H286.31V327.469H319.389V232.169Z" fill="black"/>
<path d="M286.305 232.172H321.364V226.698H286.305V232.172Z" fill="#9CC6FF"/>
<path d="M286.301 226.696H316.03V218.145H286.301V226.696Z" fill="#9CC6FF"/>
<path opacity="0.2" d="M286.301 226.696H316.03V218.145H286.301V226.696Z" fill="black"/>
<g opacity="0.3">
<path opacity="0.3" d="M293.96 238.506H289.476V256.088H293.96V238.506Z" fill="black"/>
</g>
<g opacity="0.3">
<path opacity="0.3" d="M293.96 262.451H289.476V280.033H293.96V262.451Z" fill="black"/>
</g>
<g opacity="0.3">
<path opacity="0.3" d="M293.96 286.404H289.476V303.986H293.96V286.404Z" fill="black"/>
</g>
<g opacity="0.3">
<path opacity="0.3" d="M301.384 238.506H296.9V256.088H301.384V238.506Z" fill="black"/>
</g>
<g opacity="0.3">
<path opacity="0.3" d="M301.384 262.451H296.9V280.033H301.384V262.451Z" fill="black"/>
</g>
<g opacity="0.3">
<path opacity="0.3" d="M301.384 286.404H296.9V303.986H301.384V286.404Z" fill="black"/>
</g>
<g opacity="0.3">
<path opacity="0.3" d="M308.799 238.506H304.315V256.088H308.799V238.506Z" fill="black"/>
</g>
<g opacity="0.3">
<path opacity="0.3" d="M308.799 262.451H304.315V280.033H308.799V262.451Z" fill="black"/>
</g>
<g opacity="0.3">
<path opacity="0.3" d="M308.799 286.404H304.315V303.986H308.799V286.404Z" fill="black"/>
</g>
<g opacity="0.3">
<path opacity="0.3" d="M316.213 238.506H311.73V256.088H316.213V238.506Z" fill="black"/>
</g>
<g opacity="0.3">
<path opacity="0.3" d="M316.213 262.451H311.73V280.033H316.213V262.451Z" fill="black"/>
</g>
<g opacity="0.3">
<path opacity="0.3" d="M316.213 286.404H311.73V303.986H316.213V286.404Z" fill="black"/>
</g>
<path d="M286.301 232.169H218.494V327.469H286.301V232.169Z" fill="#9CC6FF"/>
<path d="M286.31 218.144H221.748V226.695H286.31V218.144Z" fill="#9CC6FF"/>
<path d="M286.31 226.695H216.47V232.169H286.31V226.695Z" fill="#9CC6FF"/>
<path opacity="0.2" d="M286.31 226.695H216.47V232.169H286.31V226.695Z" fill="black"/>
<g opacity="0.3">
<path opacity="0.3" d="M234.188 238.506H224.984V256.088H234.188V238.506Z" fill="black"/>
</g>
<g opacity="0.3">
<path opacity="0.3" d="M234.188 262.451H224.984V280.033H234.188V262.451Z" fill="black"/>
</g>
<g opacity="0.3">
<path opacity="0.3" d="M234.188 286.404H224.984V303.986H234.188V286.404Z" fill="black"/>
</g>
<g opacity="0.3">
<path opacity="0.3" d="M249.392 238.506H240.189V256.088H249.392V238.506Z" fill="black"/>
</g>
<g opacity="0.3">
<path opacity="0.3" d="M249.392 262.451H240.189V280.033H249.392V262.451Z" fill="black"/>
</g>
<g opacity="0.3">
<path opacity="0.3" d="M249.392 286.404H240.189V303.986H249.392V286.404Z" fill="black"/>
</g>
<g opacity="0.3">
<path opacity="0.3" d="M264.606 238.506H255.403V256.088H264.606V238.506Z" fill="black"/>
</g>
<g opacity="0.3">
<path opacity="0.3" d="M264.606 262.451H255.403V280.033H264.606V262.451Z" fill="black"/>
</g>
<g opacity="0.3">
<path opacity="0.3" d="M264.606 286.404H255.403V303.986H264.606V286.404Z" fill="black"/>
</g>
<g opacity="0.3">
<path opacity="0.3" d="M279.82 238.506H270.616V256.088H279.82V238.506Z" fill="black"/>
</g>
<g opacity="0.3">
<path opacity="0.3" d="M279.82 262.451H270.616V280.033H279.82V262.451Z" fill="black"/>
</g>
<g opacity="0.3">
<path opacity="0.3" d="M279.82 286.404H270.616V303.986H279.82V286.404Z" fill="black"/>
</g>
<path d="M259.826 97.496C259.372 97.2606 258.91 97.0688 258.43 96.8945C257.941 96.7376 257.462 96.5807 256.903 96.5458C256.764 96.5458 256.615 96.5371 256.432 96.5981C256.389 96.6069 256.336 96.6417 256.284 96.6679C256.249 96.694 256.223 96.7115 256.188 96.7376C256.127 96.7812 256.074 96.8248 256.022 96.8684C255.822 97.0514 255.638 97.2345 255.464 97.4262C255.124 97.8098 254.818 98.2107 254.513 98.6291L254.888 98.4984C254.373 98.3589 253.867 98.2456 253.335 98.1671C253.074 98.1323 252.803 98.1061 252.524 98.1061C252.385 98.1061 252.245 98.1148 252.088 98.141C252.018 98.1497 251.931 98.1759 251.852 98.1933C251.774 98.2194 251.695 98.263 251.617 98.3066C251.355 98.4809 251.172 98.6901 251.006 98.8906C250.84 99.0998 250.692 99.3177 250.544 99.5357C250.273 99.9802 250.02 100.442 249.82 100.922C250.151 100.521 250.474 100.12 250.823 99.7449C250.989 99.5531 251.163 99.37 251.346 99.1957C251.521 99.0301 251.713 98.8558 251.896 98.7686C252.036 98.6989 252.271 98.6989 252.507 98.7076C252.742 98.725 252.986 98.7599 253.231 98.8035C253.719 98.8906 254.216 99.0127 254.696 99.1434L254.94 99.2044L255.08 99.0039C255.359 98.603 255.664 98.2107 255.97 97.8272C256.118 97.6354 256.275 97.4524 256.441 97.2868C256.485 97.2519 256.519 97.2083 256.563 97.1734L256.615 97.1299C256.624 97.1299 256.624 97.1211 256.642 97.1124C256.694 97.0863 256.799 97.0688 256.912 97.0601C257.357 97.0427 257.863 97.1211 258.351 97.1996C258.84 97.3042 259.328 97.4088 259.826 97.496Z" fill="#383130"/>
<path d="M254.33 112.332C253.737 111.853 253.109 111.443 252.454 111.042C251.791 110.667 251.128 110.292 250.317 110.083C250.108 110.04 249.898 109.987 249.611 110.022C249.541 110.031 249.454 110.057 249.375 110.083C249.314 110.109 249.27 110.127 249.218 110.153C249.113 110.196 249.035 110.249 248.939 110.301C248.59 110.51 248.276 110.728 247.962 110.964C247.342 111.426 246.775 111.931 246.208 112.445L246.802 112.358C246.086 112.001 245.371 111.687 244.612 111.426C244.228 111.303 243.844 111.181 243.434 111.103C243.225 111.068 243.016 111.033 242.789 111.025C242.684 111.016 242.553 111.033 242.431 111.042C242.309 111.059 242.178 111.103 242.056 111.138C241.611 111.321 241.297 111.565 240.983 111.826C240.678 112.088 240.39 112.367 240.12 112.646C239.587 113.221 239.081 113.823 238.654 114.476C239.265 113.988 239.849 113.491 240.468 113.038C240.774 112.811 241.079 112.585 241.393 112.393C241.707 112.201 242.03 112.001 242.318 111.931C242.545 111.87 242.885 111.94 243.234 112.018C243.574 112.105 243.923 112.236 244.272 112.376C244.961 112.646 245.659 112.968 246.322 113.3L246.653 113.465L246.915 113.212C247.447 112.707 248.005 112.21 248.564 111.739C248.843 111.504 249.122 111.277 249.41 111.086C249.48 111.042 249.549 110.99 249.619 110.955L249.715 110.903C249.724 110.903 249.724 110.894 249.75 110.885C249.837 110.859 250.003 110.859 250.16 110.885C250.823 110.99 251.538 111.251 252.228 111.513C252.934 111.757 253.623 112.053 254.33 112.332Z" fill="#383130"/>
<path d="M102.325 78.0145C101.924 77.7094 101.488 77.4479 101.043 77.1951C100.589 76.9598 100.144 76.7244 99.5947 76.6024C99.4551 76.5763 99.3068 76.5501 99.1236 76.5763C99.08 76.585 99.019 76.6024 98.9666 76.6198C98.923 76.6373 98.8968 76.6547 98.8619 76.6721C98.7922 76.707 98.7398 76.7419 98.6788 76.7767C98.452 76.9249 98.2426 77.0818 98.042 77.2387C97.6407 77.5612 97.2743 77.9099 96.9079 78.2673L97.3005 78.1976C96.812 77.9709 96.3322 77.7792 95.8175 77.6223C95.5645 77.5438 95.3028 77.4741 95.0237 77.4305C94.8841 77.4131 94.7445 77.3869 94.5962 77.3869C94.5264 77.3782 94.4392 77.3956 94.3607 77.4044C94.2822 77.4131 94.1949 77.4479 94.1164 77.4741C93.8286 77.6048 93.6192 77.7792 93.4186 77.9535C93.2179 78.1365 93.0347 78.3283 92.8603 78.5201C92.5201 78.9211 92.1973 79.3307 91.9182 79.7666C92.3107 79.4266 92.6945 79.0867 93.0958 78.7642C93.2964 78.6073 93.4971 78.4503 93.6977 78.3109C93.8984 78.1801 94.1164 78.0407 94.3084 77.9796C94.4566 77.9361 94.6922 77.9709 94.919 78.0232C95.1458 78.0755 95.39 78.154 95.6169 78.2412C96.0879 78.4068 96.559 78.6072 97.0039 78.8164L97.2307 78.9211L97.3964 78.7467C97.7366 78.398 98.103 78.0581 98.4607 77.7269C98.6439 77.5612 98.8271 77.4043 99.0102 77.2736C99.0539 77.2387 99.1062 77.2039 99.1498 77.1864L99.2109 77.1516C99.2196 77.1516 99.2196 77.1428 99.2371 77.1428C99.2894 77.1254 99.4028 77.1254 99.5075 77.1341C99.9524 77.1864 100.441 77.3433 100.903 77.5089C101.383 77.6571 101.854 77.8402 102.325 78.0145Z" fill="#383130"/>
<path d="M114.773 76.0008C114.346 75.3732 113.866 74.7805 113.36 74.2139C112.837 73.656 112.313 73.1069 111.607 72.6623C111.424 72.5577 111.232 72.4444 110.944 72.3921C110.874 72.3747 110.787 72.3747 110.7 72.3747C110.63 72.3834 110.586 72.3921 110.525 72.4008C110.412 72.4182 110.316 72.4357 110.211 72.4618C109.81 72.5577 109.443 72.6797 109.077 72.8018C108.353 73.0633 107.664 73.3771 106.966 73.6996L107.559 73.7955C106.983 73.2376 106.39 72.732 105.745 72.2526C105.422 72.0173 105.082 71.7906 104.715 71.5989C104.532 71.503 104.34 71.4071 104.122 71.3287C104.026 71.2851 103.895 71.2676 103.773 71.2415C103.651 71.2153 103.511 71.224 103.389 71.224C102.918 71.2676 102.534 71.4071 102.159 71.564C101.784 71.7209 101.435 71.9039 101.086 72.087C100.406 72.4793 99.7517 72.9064 99.1411 73.3945C99.8651 73.1069 100.58 72.8105 101.304 72.5577C101.662 72.427 102.02 72.3049 102.386 72.209C102.735 72.1219 103.11 72.026 103.407 72.0434C103.642 72.0521 103.948 72.2178 104.253 72.4008C104.558 72.5839 104.846 72.8192 105.134 73.0458C105.71 73.5078 106.285 74.0221 106.818 74.5364L107.088 74.7979L107.411 74.6323C108.065 74.301 108.745 73.996 109.417 73.717C109.749 73.5776 110.089 73.4381 110.42 73.3422C110.499 73.3248 110.586 73.2899 110.656 73.2812L110.761 73.255C110.769 73.255 110.778 73.2463 110.804 73.255C110.891 73.255 111.048 73.3073 111.197 73.3771C111.799 73.6734 112.409 74.1354 112.985 74.5887C113.613 75.0332 114.18 75.5214 114.773 76.0008Z" fill="#383130"/>
<path d="M272.091 108.688C271.663 108.061 271.183 107.468 270.677 106.901C270.154 106.344 269.631 105.794 268.924 105.35C268.741 105.245 268.549 105.132 268.261 105.08C268.191 105.062 268.104 105.062 268.017 105.062C267.947 105.071 267.903 105.08 267.842 105.088C267.729 105.106 267.633 105.123 267.528 105.149C267.127 105.245 266.761 105.367 266.394 105.489C265.67 105.751 264.981 106.065 264.283 106.387L264.876 106.483C264.301 105.925 263.708 105.42 263.062 104.94C262.739 104.705 262.399 104.487 262.033 104.286C261.849 104.19 261.658 104.095 261.439 104.016C261.343 103.973 261.213 103.955 261.09 103.929C260.968 103.903 260.829 103.912 260.707 103.912C260.236 103.955 259.852 104.095 259.477 104.252C259.102 104.408 258.753 104.591 258.404 104.775C257.723 105.167 257.069 105.594 256.458 106.082C257.182 105.794 257.898 105.498 258.622 105.245C258.979 105.114 259.337 104.992 259.703 104.897C260.052 104.809 260.428 104.713 260.724 104.731C260.96 104.74 261.265 104.905 261.57 105.088C261.876 105.271 262.163 105.507 262.451 105.733C263.027 106.195 263.603 106.71 264.135 107.224L264.405 107.485L264.728 107.32C265.382 106.989 266.063 106.683 266.735 106.405C267.066 106.265 267.406 106.126 267.738 106.03C267.816 106.012 267.903 105.977 267.973 105.969L268.078 105.943C268.087 105.943 268.095 105.934 268.122 105.943C268.209 105.943 268.366 105.995 268.514 106.065C269.116 106.361 269.727 106.823 270.302 107.276C270.93 107.729 271.497 108.209 272.091 108.688Z" fill="#383130"/>
<path d="M41.0522 327.469C41.0522 327.469 40.3194 324.043 38.8539 323.52C37.3884 322.988 36.4986 324.531 36.4986 324.531C36.4986 324.531 36.1496 321.262 34.0735 320.277C31.9973 319.301 30.4358 321.306 30.4358 321.306C30.4358 321.306 28.8395 317.157 25.9869 317.157C23.1344 317.157 21.695 323.232 21.695 323.232C21.695 323.232 20.0114 321.419 18.2929 322.448C16.5657 323.468 16.5657 327.477 16.5657 327.477H41.0522V327.469Z" fill="#4F4644"/>
<path d="M284.295 327.469C284.295 327.469 283.562 324.043 282.096 323.52C280.631 322.988 279.741 324.531 279.741 324.531C279.741 324.531 279.392 321.262 277.316 320.277C275.24 319.301 273.678 321.306 273.678 321.306C273.678 321.306 272.082 317.157 269.229 317.157C266.377 317.157 264.937 323.232 264.937 323.232C264.937 323.232 263.254 321.419 261.535 322.448C259.808 323.468 259.808 327.477 259.808 327.477H284.295V327.469Z" fill="#645856"/>
<path d="M105.849 327.469H80.0718C80.0718 327.469 80.918 323.834 82.6278 323.581C84.3376 323.328 85.1314 325.011 85.1314 325.011C85.1314 325.011 85.0529 319.946 88.2456 319.083C91.4384 318.22 94.1165 322.692 94.1165 322.692C94.1165 322.692 96.1141 320.138 98.8445 320.304C101.575 320.469 102.264 324.679 102.264 324.679C102.264 324.679 104.75 323.224 105.849 327.469Z" fill="#4F4644"/>
<path d="M18.1446 327.469H4.57104C4.57104 327.469 4.60594 325.446 5.94061 324.915C7.27529 324.383 8.06912 325.42 8.06912 325.42C8.06912 325.42 8.60996 321.707 11.0961 321.707C13.5823 321.707 14.7687 324.906 14.7687 324.906C14.7687 324.906 15.327 323.938 16.7052 324.122C18.0923 324.313 18.1446 327.469 18.1446 327.469Z" fill="#645856"/>
<path d="M116.492 327.469H102.918C102.918 327.469 102.953 325.446 104.288 324.915C105.623 324.383 106.416 325.42 106.416 325.42C106.416 325.42 106.957 321.707 109.443 321.707C111.93 321.707 113.116 324.906 113.116 324.906C113.116 324.906 113.674 323.938 115.053 324.122C116.44 324.313 116.492 327.469 116.492 327.469Z" fill="#645856"/>
<path d="M339.636 327.469H326.062C326.062 327.469 326.097 325.446 327.432 324.915C328.766 324.383 329.56 325.42 329.56 325.42C329.56 325.42 330.101 321.707 332.587 321.707C335.073 321.707 336.26 324.906 336.26 324.906C336.26 324.906 336.818 323.938 338.196 324.122C339.583 324.313 339.636 327.469 339.636 327.469Z" fill="#645856"/>
<path d="M359.429 327.469H337.062C337.062 327.469 337.115 324.139 339.313 323.258C341.511 322.378 342.82 324.095 342.82 324.095C342.82 324.095 343.718 317.976 347.818 317.976C351.918 317.976 353.881 323.25 353.881 323.25C353.881 323.25 354.797 321.655 357.074 321.951C359.342 322.256 359.429 327.469 359.429 327.469Z" fill="#4F4644"/>
<path d="M364 327.469H0V333.806H364V327.469Z" fill="#C7C7C7"/>
<path d="M25.5159 327.469C25.8561 328.523 25.9346 329.578 25.952 330.633C25.9433 331.688 25.8648 332.742 25.5159 333.797C25.1757 332.742 25.0972 331.688 25.0797 330.633C25.0972 329.587 25.1757 328.523 25.5159 327.469Z" fill="#383130"/>
<path d="M53.9715 327.469C54.3117 328.523 54.3902 329.578 54.4077 330.633C54.3989 331.688 54.3204 332.742 53.9715 333.797C53.6313 332.742 53.5528 331.688 53.5353 330.633C53.5528 329.587 53.6313 328.523 53.9715 327.469Z" fill="#383130"/>
<path d="M82.4185 327.469C82.7587 328.523 82.8372 329.578 82.8546 330.633C82.8459 331.688 82.7674 332.742 82.4185 333.797C82.0783 332.742 81.9997 331.688 81.9823 330.633C81.9997 329.587 82.0783 328.523 82.4185 327.469Z" fill="#383130"/>
<path d="M110.874 327.469C111.214 328.523 111.293 329.578 111.31 330.633C111.301 331.688 111.223 332.742 110.874 333.797C110.534 332.742 110.455 331.688 110.438 330.633C110.455 329.587 110.534 328.523 110.874 327.469Z" fill="#383130"/>
<path d="M139.321 327.469C139.661 328.523 139.74 329.578 139.757 330.633C139.748 331.688 139.67 332.742 139.321 333.797C138.981 332.742 138.902 331.688 138.885 330.633C138.911 329.587 138.981 328.523 139.321 327.469Z" fill="#383130"/>
<path d="M167.777 327.469C168.117 328.523 168.195 329.578 168.213 330.633C168.204 331.688 168.125 332.742 167.777 333.797C167.436 332.742 167.358 331.688 167.34 330.633C167.358 329.587 167.436 328.523 167.777 327.469Z" fill="#383130"/>
<path d="M196.223 327.469C196.564 328.523 196.642 329.578 196.66 330.633C196.651 331.688 196.572 332.742 196.223 333.797C195.883 332.742 195.805 331.688 195.787 330.633C195.813 329.587 195.883 328.523 196.223 327.469Z" fill="#383130"/>
<path d="M224.679 327.469C225.019 328.523 225.098 329.578 225.115 330.633C225.107 331.688 225.028 332.742 224.679 333.797C224.339 332.742 224.26 331.688 224.243 330.633C224.26 329.587 224.339 328.523 224.679 327.469Z" fill="#383130"/>
<path d="M253.126 327.469C253.466 328.523 253.545 329.578 253.562 330.633C253.553 331.688 253.475 332.742 253.126 333.797C252.786 332.742 252.707 331.688 252.69 330.633C252.716 329.587 252.786 328.523 253.126 327.469Z" fill="#383130"/>
<path d="M281.582 327.469C281.922 328.523 282 329.578 282.018 330.633C282.009 331.688 281.931 332.742 281.582 333.797C281.241 332.742 281.163 331.688 281.146 330.633C281.163 329.587 281.241 328.523 281.582 327.469Z" fill="#383130"/>
<path d="M310.029 327.469C310.369 328.523 310.447 329.578 310.465 330.633C310.456 331.688 310.377 332.742 310.029 333.797C309.688 332.742 309.61 331.688 309.592 330.633C309.619 329.587 309.688 328.523 310.029 327.469Z" fill="#383130"/>
<path d="M338.484 327.469C338.824 328.523 338.903 329.578 338.92 330.633C338.912 331.688 338.833 332.742 338.484 333.797C338.144 332.742 338.065 331.688 338.048 330.633C338.065 329.587 338.144 328.523 338.484 327.469Z" fill="#383130"/>
<path d="M2.6955 333.805L47.5249 333.596L92.3455 333.518L182.004 333.37L271.654 333.518L316.484 333.596L361.304 333.805L316.484 334.023L271.654 334.093L182.004 334.241L92.3455 334.093L47.5249 334.015L2.6955 333.805Z" fill="#263238"/>
<path opacity="0.1" d="M220.782 66.901C231.469 56.2225 231.469 38.9093 220.782 28.2308C210.095 17.5523 192.769 17.5523 182.082 28.2308C171.395 38.9093 171.395 56.2225 182.082 66.901C192.769 77.5795 210.095 77.5795 220.782 66.901Z" fill="#FFC727"/>
<path d="M201.431 64.7647C210.937 64.7647 218.643 57.0649 218.643 47.5667C218.643 38.0685 210.937 30.3687 201.431 30.3687C191.926 30.3687 184.22 38.0685 184.22 47.5667C184.22 57.0649 191.926 64.7647 201.431 64.7647Z" fill="#FFC727"/>
</g>
<defs>
<clipPath id="clip0">
<rect width="364" height="334.241" fill="white"/>
</clipPath>
</defs>
</svg>
