<svg width="577" height="419" viewBox="0 0 577 419" fill="none" xmlns="http://www.w3.org/2000/svg">
<g style="mix-blend-mode:screen">
<path d="M86.1046 374.132C198.179 432.627 379.876 432.627 491.95 374.132C604.025 315.638 604.025 220.787 491.95 162.293C379.876 103.798 198.179 103.798 86.1046 162.293C-25.9702 220.787 -25.9702 315.625 86.1046 374.132Z" fill="#071629"/>
</g>
<path d="M44.2578 276C44.2578 276 48.9001 263.258 49.9288 249.356C50.9575 235.454 44.2314 214.172 31.8739 207.056C19.5164 199.927 12.8563 208.743 16.9842 216.333C21.1254 223.923 35.0919 245.258 35.2633 263.719L44.2578 276Z" fill="#82ACDE"/>
<path d="M39.9584 275.697C39.9188 275.697 39.8925 275.697 39.8529 275.684C39.4968 275.632 39.2462 275.289 39.3122 274.933L39.3386 274.762C40.3804 268.489 41.7916 259.911 39.932 244.217C37.8351 226.559 32.0586 218.389 26.6909 212.723C26.4403 212.459 26.4535 212.037 26.7173 211.787C26.981 211.537 27.4031 211.55 27.6537 211.813C33.1664 217.638 39.1012 226.019 41.2377 244.058C43.1236 259.937 41.6861 268.634 40.6442 274.973L40.6178 275.144C40.5519 275.473 40.2749 275.697 39.9584 275.697Z" fill="white"/>
<path d="M37.2284 283.907C35.9491 277.397 31.0826 270.071 21.8112 265.775C12.5398 261.466 3.01775 258.962 1.29007 253.414C-0.437608 247.867 5.43122 241.449 17.4986 244.138C29.5659 246.826 42.5037 264.747 41.818 276.817L37.2284 283.907Z" fill="#82ACDE"/>
<path d="M39.9584 280.362C39.6419 280.362 39.3517 280.125 39.3121 279.809C36.8459 263.469 22.9717 250.99 12.065 250.015C11.7089 249.988 11.4319 249.659 11.4715 249.303C11.4979 248.934 11.8276 248.684 12.1837 248.71C23.5784 249.725 38.0593 262.678 40.6178 279.611C40.6706 279.967 40.42 280.309 40.0639 280.362C40.0243 280.362 39.9848 280.362 39.9584 280.362Z" fill="white"/>
<path d="M489.234 158.748C489.234 158.748 483.075 145.149 484.09 133.5C485.119 121.575 489.379 110.413 499.494 102.573C509.597 94.7323 517.47 98.2902 519.132 101.15C520.794 104.022 520.833 109.675 513.303 115.829C505.772 121.983 497.542 138.784 499.877 155.572L496.421 165.389L489.234 158.748Z" fill="#82ACDE"/>
<path d="M492.953 160.039C492.715 160.039 492.491 159.921 492.373 159.697C489.801 154.979 489.418 135.384 493.56 124.421C498.597 111.085 507.671 103.548 514.49 100.939C514.819 100.807 515.215 100.978 515.347 101.321C515.479 101.664 515.307 102.046 514.964 102.177C508.41 104.681 499.679 111.968 494.799 124.882C490.843 135.345 491.133 154.637 493.546 159.064C493.718 159.381 493.599 159.789 493.283 159.96C493.177 160.013 493.058 160.039 492.953 160.039Z" fill="white"/>
<path d="M518.34 187.106C519.369 180.333 519.541 176.169 525.858 172.018C532.175 167.867 537.793 164.928 538.255 159.012C538.703 153.095 534.799 146.414 534.997 141.262C535.195 136.096 538.36 133.671 545.034 129.138C551.707 124.592 558.552 116.857 551.997 111.323C545.443 105.801 535.67 110.927 531.212 114.788C526.755 118.649 523.141 120.072 516.309 118.254C509.478 116.435 502.791 121.166 504.427 129.876C506.049 138.587 505.205 142.54 499.718 142.237C494.219 141.934 486.161 147.639 492.61 160.777L518.34 187.106Z" fill="#82ACDE"/>
<path d="M504.427 173.52C504.4 173.52 504.374 173.52 504.348 173.52C503.991 173.48 503.728 173.151 503.767 172.782C506.906 146.493 533.006 118.267 544.889 114.156C545.218 114.037 545.601 114.222 545.733 114.564C545.851 114.907 545.667 115.289 545.324 115.408C533.718 119.427 508.159 147.112 505.086 172.94C505.033 173.283 504.756 173.52 504.427 173.52Z" fill="white"/>
<path d="M515.729 144.49C515.452 144.49 515.188 144.306 515.096 144.029C512.313 134.923 511.351 126.029 511.337 125.936C511.298 125.581 511.562 125.251 511.918 125.212C512.274 125.172 512.604 125.436 512.643 125.791C512.656 125.884 513.606 134.66 516.349 143.634C516.455 143.976 516.257 144.345 515.914 144.451C515.861 144.477 515.795 144.49 515.729 144.49Z" fill="white"/>
<path d="M508.357 158.708C508.106 158.708 507.856 158.564 507.75 158.313C507.605 157.984 507.75 157.588 508.093 157.443C519.936 152.225 530.962 155.915 531.423 156.073C531.766 156.192 531.951 156.561 531.832 156.916C531.714 157.259 531.344 157.443 531.001 157.325C530.896 157.285 519.989 153.648 508.634 158.656C508.542 158.695 508.449 158.708 508.357 158.708Z" fill="white"/>
<path d="M331.87 27.8175L299.73 9.27689L267.603 27.8175L299.73 46.3581L331.87 27.8175Z" fill="#F5F5F5"/>
<path d="M299.73 83.4392L331.87 64.8987V27.8175L299.73 46.3581V83.4392Z" fill="#EBEBEB"/>
<path d="M305.928 71.1447C305.757 71.1447 305.599 71.1052 305.441 71.013C305.058 70.7889 304.834 70.3014 304.834 69.6821V65.7552C304.834 65.7552 304.834 65.7552 304.834 65.742V65.4521L305.032 65.4916L308.118 63.6863V68.0744C308.118 69.1945 307.445 70.4463 306.601 70.9471C306.377 71.0657 306.139 71.1447 305.928 71.1447ZM305.335 66.0451V69.6821C305.335 70.1301 305.467 70.4595 305.691 70.5913C305.915 70.7231 306.179 70.6176 306.364 70.5122C307.049 70.1169 307.63 68.9968 307.63 68.0744V67.7581H306.482L306.258 66.2164L305.335 66.0451ZM306.918 67.2574H307.63V64.5429L305.797 65.6234L306.707 65.7815L306.918 67.2574Z" fill="white"/>
<path d="M306.482 74.2678C306.35 74.2678 306.232 74.1624 306.232 74.0174V70.7231C306.232 70.5913 306.337 70.4727 306.482 70.4727C306.627 70.4727 306.733 70.5781 306.733 70.7231V74.0174C306.733 74.1624 306.614 74.2678 306.482 74.2678Z" fill="white"/>
<path d="M305.045 75.0979C304.966 75.0979 304.873 75.0584 304.834 74.9793C304.768 74.8607 304.808 74.7158 304.926 74.6367L307.801 72.9764C307.92 72.9105 308.065 72.95 308.144 73.0686C308.21 73.1872 308.171 73.3322 308.052 73.4112L305.177 75.0716C305.137 75.0848 305.084 75.0979 305.045 75.0979Z" fill="white"/>
<path d="M315.279 69.4185C315.187 69.4185 315.094 69.3921 315.015 69.3526C314.831 69.2472 314.725 69.0232 314.725 68.7596V68.0876C314.725 67.9558 314.831 67.8372 314.976 67.8372C315.108 67.8372 315.226 67.9426 315.226 68.0876V68.7596C315.226 68.865 315.253 68.9177 315.279 68.9177C315.305 68.9177 315.358 68.9309 315.437 68.8782C315.648 68.7464 315.899 68.2589 315.899 67.7581V63.3701C315.899 63.2383 316.004 63.1197 316.149 63.1197C316.281 63.1197 316.4 63.2251 316.4 63.3701V67.7581C316.4 68.4038 316.097 69.0627 315.701 69.2999C315.53 69.379 315.398 69.4185 315.279 69.4185Z" fill="white"/>
<path d="M312.668 65.5707V65.149C312.668 63.1329 314.092 60.6819 315.833 59.6804C316.73 59.1665 317.574 59.0874 318.233 59.4695C318.893 59.8517 319.249 60.616 319.249 61.6438V61.7888L312.668 65.5707ZM317.31 59.7199C316.941 59.7199 316.519 59.8517 316.084 60.1021C314.606 60.9586 313.38 62.9484 313.195 64.701L318.748 61.4989C318.721 60.7214 318.444 60.1548 317.983 59.8912C317.785 59.7726 317.561 59.7199 317.31 59.7199Z" fill="white"/>
<path d="M324.155 64.3584C324.023 64.3584 323.904 64.253 323.904 64.108V55.7008C323.904 55.5691 324.01 55.4505 324.155 55.4505C324.287 55.4505 324.405 55.5559 324.405 55.7008V64.108C324.405 64.2398 324.3 64.3584 324.155 64.3584Z" fill="white"/>
<path d="M323.429 57.6247C323.39 57.6247 323.363 57.6247 323.337 57.5984C323.205 57.5457 323.152 57.4007 323.205 57.2689L324.089 55.2396L325.065 56.3729C325.157 56.4783 325.144 56.6364 325.038 56.7155C324.933 56.8077 324.775 56.7946 324.695 56.6891L324.234 56.1489L323.667 57.4534C323.614 57.5588 323.535 57.6247 323.429 57.6247Z" fill="white"/>
<path d="M326.45 63.0538C326.318 63.0538 326.199 62.9484 326.199 62.8034V54.3963C326.199 54.2645 326.305 54.1459 326.45 54.1459C326.595 54.1459 326.7 54.2513 326.7 54.3963V62.8034C326.687 62.9484 326.581 63.0538 326.45 63.0538Z" fill="white"/>
<path d="M325.724 56.3202C325.685 56.3202 325.658 56.3202 325.632 56.2938C325.5 56.2411 325.447 56.0961 325.5 55.9644L326.384 53.9351L327.36 55.0683C327.452 55.1737 327.439 55.3319 327.333 55.4109C327.228 55.5032 327.069 55.49 326.99 55.3846L326.529 54.8443L325.962 56.1489C325.909 56.2543 325.817 56.3202 325.724 56.3202Z" fill="white"/>
<path d="M299.73 83.4392L267.59 64.8987L267.603 27.8175L299.73 46.3581V83.4392Z" fill="#E0E0E0"/>
<path d="M285.407 38.0958L317.534 19.5421L313.894 17.4469L281.767 35.9875L285.407 38.0958Z" fill="white"/>
<path d="M272.483 49.0726L283.983 55.714C285.249 56.4388 286.265 58.2177 286.265 59.6672V66.7567C286.265 68.2062 285.236 68.7992 283.983 68.0744L272.483 61.433C271.217 60.7082 270.201 58.9293 270.201 57.4798V50.3903C270.188 48.9408 271.217 48.3478 272.483 49.0726Z" fill="#82ACDE"/>
<path d="M271.586 50.8516L272.021 51.1019V58.9688L271.586 58.7185V50.8516Z" fill="#82ACDE"/>
<path d="M273.366 51.8794L274.118 52.3143V60.1943L273.366 59.7463V51.8794Z" fill="#82ACDE"/>
<path d="M275.147 52.894L275.582 53.1576V61.0245L275.147 60.7741V52.894Z" fill="#82ACDE"/>
<path d="M276.492 53.6583L277.362 54.1722V62.0523L276.492 61.5384V53.6583Z" fill="#82ACDE"/>
<path d="M278.708 54.9497L279.143 55.2001V63.0802L278.708 62.8298V54.9497Z" fill="#82ACDE"/>
<path d="M279.987 55.6745L280.923 56.2279V64.108L279.987 63.5546V55.6745Z" fill="#82ACDE"/>
<path d="M282.269 57.0054L282.704 57.2558V65.1359L282.255 64.8723L282.269 57.0054Z" fill="#82ACDE"/>
<path d="M283.271 57.5852L283.495 57.7038V65.5839L283.271 65.4521V57.5852Z" fill="#82ACDE"/>
<path d="M281.451 56.5705L281.675 56.7023V64.5692L281.451 64.4506V56.5705Z" fill="#82ACDE"/>
<path d="M277.864 54.4753L278.088 54.6071V62.474L277.864 62.3554V54.4753Z" fill="#82ACDE"/>
<path d="M275.898 53.3553L276.123 53.4739V61.3539L275.898 61.2222V53.3553Z" fill="#82ACDE"/>
<path d="M274.501 52.5778L274.712 52.6964V60.5765L274.501 60.4447V52.5778Z" fill="#82ACDE"/>
<path d="M272.588 51.4182L272.799 51.5368V59.4169L272.588 59.2851V51.4182Z" fill="#82ACDE"/>
<path d="M284.036 58.0332L284.484 58.2836V66.1505L284.036 65.9001V58.0332Z" fill="#82ACDE"/>
<path d="M289.021 21.6373L251.513 0L214.019 21.6373L251.513 43.2614L289.021 21.6373Z" fill="#F5F5F5"/>
<path d="M235.45 33.9977L272.944 12.3604L269.304 10.2652L231.81 31.8893L235.45 33.9977Z" fill="white"/>
<path d="M251.513 111.257L289.021 89.6194V21.6373L251.513 43.2614V111.257Z" fill="#EBEBEB"/>
<path d="M257.712 98.949C257.54 98.949 257.382 98.9095 257.224 98.8172C256.841 98.5932 256.617 98.1057 256.617 97.4863V93.5595C256.617 93.5595 256.617 93.5595 256.617 93.5463V93.2564L256.815 93.2959L259.901 91.4906V95.8787C259.901 96.9988 259.228 98.2506 258.384 98.7514C258.16 98.8831 257.923 98.949 257.712 98.949ZM257.118 93.8494V97.4863C257.118 97.9344 257.25 98.2638 257.474 98.3956C257.699 98.5273 257.962 98.4219 258.147 98.3165C258.833 97.9212 259.413 96.8011 259.413 95.8787V95.5624H258.266L258.042 94.0207L257.118 93.8494ZM258.701 95.0617H259.413V92.3471L257.58 93.4277L258.49 93.5858L258.701 95.0617Z" fill="white"/>
<path d="M258.266 102.085C258.134 102.085 258.015 101.98 258.015 101.835V98.5405C258.015 98.4088 258.121 98.2902 258.266 98.2902C258.411 98.2902 258.516 98.3956 258.516 98.5405V101.835C258.516 101.98 258.398 102.085 258.266 102.085Z" fill="white"/>
<path d="M256.828 102.915C256.749 102.915 256.657 102.876 256.617 102.797C256.551 102.678 256.591 102.533 256.709 102.454L259.585 100.794C259.703 100.728 259.848 100.768 259.927 100.886C259.993 101.005 259.954 101.15 259.835 101.229L256.96 102.889C256.92 102.902 256.881 102.915 256.828 102.915Z" fill="white"/>
<path d="M267.062 97.2228C266.97 97.2228 266.878 97.1964 266.799 97.1569C266.614 97.0515 266.508 96.8275 266.508 96.5639V95.8919C266.508 95.7601 266.614 95.6415 266.759 95.6415C266.891 95.6415 267.01 95.7469 267.01 95.8919V96.5639C267.01 96.6693 267.036 96.722 267.062 96.7352C267.089 96.7484 267.141 96.7484 267.221 96.6957C267.445 96.5639 267.682 96.0763 267.682 95.5756V91.1875C267.682 91.0558 267.788 90.9372 267.933 90.9372C268.078 90.9372 268.183 91.0426 268.183 91.1875V95.5756C268.183 96.2213 267.88 96.8802 267.484 97.1174C267.326 97.1964 267.181 97.2228 267.062 97.2228Z" fill="white"/>
<path d="M264.464 93.3882V92.9665C264.464 90.9503 265.889 88.4993 267.629 87.4979C268.526 86.9839 269.37 86.9049 270.03 87.287C270.689 87.6692 271.045 88.4335 271.045 89.4613V89.6062L264.464 93.3882ZM269.107 87.5374C268.737 87.5374 268.315 87.6692 267.88 87.9195C266.403 88.7761 265.176 90.7659 264.992 92.5184L270.544 89.3163C270.518 88.5389 270.241 87.9722 269.779 87.7087C269.568 87.5901 269.344 87.5374 269.107 87.5374Z" fill="white"/>
<path d="M275.938 92.1759C275.806 92.1759 275.688 92.0704 275.688 91.9255V83.5183C275.688 83.3865 275.793 83.2679 275.938 83.2679C276.07 83.2679 276.189 83.3734 276.189 83.5183V91.9255C276.189 92.0573 276.083 92.1759 275.938 92.1759Z" fill="white"/>
<path d="M275.213 85.429C275.173 85.429 275.147 85.429 275.12 85.4027C274.989 85.3499 274.936 85.205 274.989 85.0732L275.872 83.0439L276.848 84.1772C276.94 84.2826 276.927 84.4407 276.822 84.5198C276.716 84.612 276.558 84.5988 276.479 84.4934L276.017 83.9531L275.45 85.2577C275.411 85.3763 275.318 85.429 275.213 85.429Z" fill="white"/>
<path d="M278.233 90.8713C278.101 90.8713 277.982 90.7659 277.982 90.6209V82.2137C277.982 82.082 278.088 81.9634 278.233 81.9634C278.365 81.9634 278.483 82.0688 278.483 82.2137V90.6209C278.47 90.7527 278.365 90.8713 278.233 90.8713Z" fill="white"/>
<path d="M277.507 84.1245C277.468 84.1245 277.442 84.1245 277.415 84.0981C277.283 84.0454 277.231 83.9004 277.283 83.7687L278.167 81.7393L279.143 82.8726C279.235 82.978 279.222 83.1362 279.116 83.2152C279.011 83.3075 278.853 83.2943 278.774 83.1889L278.312 82.6486L277.745 83.9532C277.692 84.0718 277.6 84.1245 277.507 84.1245Z" fill="white"/>
<path d="M251.513 111.257L214.019 89.6194V21.6373L251.513 43.2614V111.257Z" fill="#E0E0E0"/>
<path d="M221.642 75.4801L233.142 82.1215C234.408 82.8463 235.423 84.6252 235.423 86.0747V93.1642C235.423 94.6137 234.395 95.2067 233.142 94.4819L221.642 87.8405C220.375 87.1157 219.36 85.3368 219.36 83.8873V76.7978C219.36 75.3483 220.389 74.7553 221.642 75.4801Z" fill="#F5F5F5"/>
<path d="M220.758 77.259L221.193 77.5094V85.3895L220.758 85.1259V77.259Z" fill="#E0E0E0"/>
<path d="M222.538 78.2869L223.29 78.7218V86.6018L222.538 86.1538V78.2869Z" fill="#E0E0E0"/>
<path d="M224.319 79.3015L224.754 79.5651V87.432L224.319 87.1816V79.3015Z" fill="#E0E0E0"/>
<path d="M225.651 80.0658L226.535 80.5797V88.4598L225.651 87.9459V80.0658Z" fill="#E0E0E0"/>
<path d="M227.88 81.3572L228.315 81.6076V89.4877L227.88 89.2373V81.3572Z" fill="#E0E0E0"/>
<path d="M229.159 82.082L230.095 82.6354V90.5155L229.159 89.962V82.082Z" fill="#E0E0E0"/>
<path d="M231.427 83.4129L231.863 83.6633V91.5434L231.427 91.293V83.4129Z" fill="#E0E0E0"/>
<path d="M232.443 83.9927L232.667 84.1113V91.9913L232.443 91.8596V83.9927Z" fill="#E0E0E0"/>
<path d="M230.623 82.978L230.834 83.1098V90.9899L230.623 90.8581V82.978Z" fill="#E0E0E0"/>
<path d="M227.036 80.8828L227.26 81.0146V88.8815L227.036 88.7629V80.8828Z" fill="#E0E0E0"/>
<path d="M225.07 79.7628L225.295 79.8814V87.7614L225.07 87.6297V79.7628Z" fill="#E0E0E0"/>
<path d="M223.659 78.9853L223.884 79.1039V86.984L223.659 86.8522V78.9853Z" fill="#E0E0E0"/>
<path d="M221.747 77.8257L221.971 77.9443V85.8243L221.747 85.6926V77.8257Z" fill="#E0E0E0"/>
<path d="M233.208 84.4407L233.643 84.6911V92.558L233.208 92.3076V84.4407Z" fill="#E0E0E0"/>
<path d="M231.81 40.6654L235.45 42.7606V33.9977L231.81 31.8893V40.6654Z" fill="#F0F0F0"/>
<path d="M176.524 92.7161L149.725 77.259L112.231 98.8963L139.016 114.34L176.524 92.7161Z" fill="#F5F5F5"/>
<path d="M139.016 176.155L176.524 154.518V92.7161L139.016 114.34V176.155Z" fill="#EBEBEB"/>
<path d="M145.215 163.848C145.044 163.848 144.886 163.808 144.727 163.716C144.345 163.492 144.121 163.004 144.121 162.385V158.458C144.121 158.458 144.121 158.458 144.121 158.445V158.155L144.318 158.195L147.405 156.389V160.777C147.405 161.897 146.732 163.149 145.888 163.65C145.664 163.782 145.426 163.848 145.215 163.848ZM144.622 158.748V162.385C144.622 162.833 144.754 163.162 144.978 163.294C145.202 163.426 145.466 163.321 145.651 163.215C146.336 162.82 146.917 161.7 146.917 160.777V160.461H145.769L145.545 158.919L144.622 158.748ZM146.204 159.96H146.917V157.246L145.083 158.326L145.993 158.484L146.204 159.96Z" fill="white"/>
<path d="M145.769 166.984C145.637 166.984 145.518 166.878 145.518 166.734V163.426C145.518 163.294 145.624 163.176 145.769 163.176C145.901 163.176 146.019 163.281 146.019 163.426V166.734C146.019 166.878 145.901 166.984 145.769 166.984Z" fill="white"/>
<path d="M144.331 167.814C144.252 167.814 144.16 167.775 144.12 167.695C144.054 167.577 144.094 167.432 144.213 167.353L147.088 165.693C147.206 165.627 147.351 165.666 147.431 165.785C147.496 165.903 147.457 166.048 147.338 166.127L144.463 167.788C144.41 167.801 144.371 167.814 144.331 167.814Z" fill="white"/>
<path d="M154.566 162.121C154.473 162.121 154.381 162.095 154.302 162.056C154.117 161.95 154.012 161.726 154.012 161.463V160.791C154.012 160.659 154.117 160.54 154.262 160.54C154.407 160.54 154.513 160.646 154.513 160.791V161.463C154.513 161.568 154.539 161.621 154.566 161.621C154.579 161.634 154.645 161.634 154.724 161.581C154.948 161.449 155.185 160.962 155.185 160.461V156.073C155.185 155.941 155.291 155.823 155.436 155.823C155.581 155.823 155.687 155.928 155.687 156.073V160.461C155.687 161.107 155.383 161.766 154.988 162.003C154.816 162.082 154.684 162.121 154.566 162.121Z" fill="white"/>
<path d="M151.954 158.287V157.865C151.954 155.849 153.379 153.398 155.119 152.397C156.016 151.883 156.86 151.804 157.52 152.186C158.179 152.568 158.535 153.332 158.535 154.36V154.505L151.954 158.287ZM156.597 152.436C156.227 152.436 155.805 152.568 155.37 152.818C153.893 153.675 152.666 155.664 152.482 157.417L158.034 154.215C158.008 153.438 157.731 152.871 157.269 152.607C157.071 152.489 156.847 152.436 156.597 152.436Z" fill="white"/>
<path d="M163.441 157.074C163.309 157.074 163.191 156.969 163.191 156.824V148.417C163.191 148.285 163.296 148.167 163.441 148.167C163.573 148.167 163.692 148.272 163.692 148.417V156.824C163.692 156.956 163.573 157.074 163.441 157.074Z" fill="white"/>
<path d="M162.716 150.328C162.676 150.328 162.65 150.328 162.624 150.301C162.492 150.249 162.439 150.104 162.492 149.972L163.375 147.943L164.351 149.076C164.444 149.181 164.43 149.339 164.325 149.418C164.219 149.511 164.061 149.497 163.982 149.392L163.52 148.852L162.953 150.156C162.901 150.275 162.808 150.328 162.716 150.328Z" fill="white"/>
<path d="M165.723 155.77C165.591 155.77 165.472 155.664 165.472 155.52V147.112C165.472 146.981 165.578 146.862 165.723 146.862C165.868 146.862 165.973 146.967 165.973 147.112V155.52C165.973 155.651 165.868 155.77 165.723 155.77Z" fill="white"/>
<path d="M165.011 149.023C164.971 149.023 164.945 149.023 164.918 148.997C164.786 148.944 164.734 148.799 164.786 148.667L165.67 146.638L166.646 147.771C166.738 147.877 166.725 148.035 166.62 148.114C166.514 148.206 166.356 148.193 166.277 148.087L165.815 147.547L165.248 148.852C165.195 148.97 165.103 149.023 165.011 149.023Z" fill="white"/>
<path d="M139.016 176.155L112.231 160.698V98.8963L139.016 114.34V176.155Z" fill="#E0E0E0"/>
<path d="M124.667 114.841L128.307 116.936V108.16L124.667 106.065V114.841Z" fill="#F5F5F5"/>
<path d="M128.307 108.16L165.802 86.5359L162.162 84.4407L124.667 106.065L128.307 108.16Z" fill="white"/>
<path d="M128.307 145.254L80.0907 117.437L31.874 145.254L80.0907 173.059L128.307 145.254Z" fill="#F5F5F5"/>
<path d="M80.0908 210.153L128.307 182.336V145.254L80.0908 173.059V210.153Z" fill="#EBEBEB"/>
<path d="M86.2765 197.845C86.1051 197.845 85.9468 197.806 85.7885 197.714C85.4061 197.49 85.1819 197.002 85.1819 196.383V192.456C85.1819 192.456 85.1819 192.456 85.1819 192.443V192.153L85.3797 192.192L88.4658 190.387V194.775C88.4658 195.895 87.7932 197.147 86.9491 197.648C86.7249 197.779 86.5007 197.845 86.2765 197.845ZM85.6962 192.746V196.383C85.6962 196.831 85.8281 197.16 86.0523 197.292C86.2765 197.424 86.5403 197.318 86.7249 197.213C87.4107 196.818 87.991 195.697 87.991 194.775V194.459H86.8436L86.6194 192.917L85.6962 192.746ZM87.2788 193.958H87.991V191.243L86.1578 192.324L87.0678 192.482L87.2788 193.958Z" fill="white"/>
<path d="M86.8432 200.982C86.7113 200.982 86.5926 200.876 86.5926 200.731V197.437C86.5926 197.305 86.6981 197.186 86.8432 197.186C86.9751 197.186 87.0938 197.292 87.0938 197.437V200.731C87.0806 200.863 86.9751 200.982 86.8432 200.982Z" fill="white"/>
<path d="M85.4057 201.812C85.3266 201.812 85.2342 201.772 85.1947 201.693C85.1287 201.575 85.1683 201.43 85.287 201.351L88.162 199.69C88.2807 199.624 88.4258 199.664 88.5049 199.782C88.5709 199.901 88.5313 200.046 88.4126 200.125L85.5376 201.785C85.4848 201.799 85.4452 201.812 85.4057 201.812Z" fill="white"/>
<path d="M95.6399 196.119C95.5475 196.119 95.4552 196.093 95.3629 196.053C95.1783 195.948 95.0728 195.724 95.0728 195.46V194.788C95.0728 194.656 95.1783 194.538 95.3233 194.538C95.4552 194.538 95.5739 194.643 95.5739 194.788V195.46C95.5739 195.566 95.6003 195.618 95.6267 195.632C95.6399 195.645 95.7058 195.632 95.7849 195.592C96.0091 195.46 96.2465 194.973 96.2465 194.472V190.084C96.2465 189.952 96.352 189.833 96.4971 189.833C96.629 189.833 96.7477 189.939 96.7477 190.084V194.472C96.7477 195.118 96.4443 195.776 96.0487 196.014C95.8904 196.08 95.7585 196.119 95.6399 196.119Z" fill="white"/>
<path d="M93.0286 192.284V191.85C93.0286 189.833 94.4529 187.382 96.1938 186.381C97.0906 185.867 97.9346 185.788 98.5941 186.17C99.2535 186.552 99.6096 187.317 99.6096 188.344V188.489L93.0286 192.284ZM97.6709 186.421C97.3016 186.421 96.8796 186.552 96.4312 186.803C94.9541 187.659 93.7275 189.649 93.5429 191.402L99.0952 188.2C99.0688 187.422 98.7919 186.855 98.3303 186.592C98.1457 186.486 97.9214 186.421 97.6709 186.421Z" fill="white"/>
<path d="M104.516 191.059C104.384 191.059 104.265 190.954 104.265 190.809V182.401C104.265 182.27 104.371 182.151 104.516 182.151C104.661 182.151 104.766 182.256 104.766 182.401V190.809C104.766 190.954 104.648 191.059 104.516 191.059Z" fill="white"/>
<path d="M103.79 184.325C103.751 184.325 103.724 184.325 103.698 184.299C103.566 184.246 103.513 184.101 103.566 183.97L104.45 181.94L105.426 183.073C105.518 183.179 105.505 183.337 105.399 183.416C105.294 183.508 105.135 183.495 105.056 183.39L104.595 182.849L104.028 184.154C103.975 184.273 103.883 184.325 103.79 184.325Z" fill="white"/>
<path d="M106.797 189.754C106.665 189.754 106.547 189.649 106.547 189.504V181.097C106.547 180.965 106.652 180.846 106.797 180.846C106.929 180.846 107.048 180.952 107.048 181.097V189.504C107.048 189.649 106.942 189.754 106.797 189.754Z" fill="white"/>
<path d="M106.072 183.021C106.032 183.021 106.006 183.021 105.979 182.994C105.848 182.942 105.795 182.797 105.848 182.665L106.731 180.636L107.707 181.769C107.799 181.874 107.786 182.032 107.681 182.112C107.575 182.204 107.417 182.191 107.338 182.085L106.876 181.545L106.309 182.849C106.27 182.968 106.177 183.021 106.072 183.021Z" fill="white"/>
<path d="M80.0907 210.153L31.874 182.336V145.254L80.0907 173.059V210.153Z" fill="#E0E0E0"/>
<path d="M54.1624 166.878L57.8023 168.974V160.198L54.1624 158.102V166.878Z" fill="#F5F5F5"/>
<path d="M57.8023 160.211L106.019 132.393L102.379 130.298L54.1624 158.102L57.8023 160.211Z" fill="white"/>
<path d="M39.5101 168.196L51.0104 174.838C52.2765 175.562 53.292 177.341 53.292 178.791V185.88C53.292 187.33 52.2633 187.923 51.0104 187.198L39.5101 180.557C38.244 179.832 37.2285 178.053 37.2285 176.603V169.514C37.2285 168.064 38.2572 167.471 39.5101 168.196Z" fill="#F5F5F5"/>
<path d="M38.6265 169.975L39.0617 170.226V178.092L38.6265 177.842V169.975Z" fill="#E0E0E0"/>
<path d="M40.4069 171.003L41.1587 171.438V179.318L40.4069 178.87V171.003Z" fill="#E0E0E0"/>
<path d="M42.1873 172.018L42.6225 172.281V180.148L42.1873 179.898V172.018Z" fill="#E0E0E0"/>
<path d="M43.5194 172.782L44.403 173.296V181.176L43.5194 180.662V172.782Z" fill="#E0E0E0"/>
<path d="M45.7482 174.073L46.1834 174.324V182.204L45.7482 181.953V174.073Z" fill="#E0E0E0"/>
<path d="M47.0275 174.798L47.9638 175.352V183.232L47.0275 182.678V174.798Z" fill="#E0E0E0"/>
<path d="M49.2958 176.129L49.7311 176.379V184.259L49.2958 183.996V176.129Z" fill="#E0E0E0"/>
<path d="M50.3114 176.709L50.5356 176.827V184.707L50.3114 184.576V176.709Z" fill="#E0E0E0"/>
<path d="M48.4914 175.694L48.7024 175.826V183.693L48.4914 183.574V175.694Z" fill="#E0E0E0"/>
<path d="M44.9041 173.599L45.1283 173.731V181.598L44.9041 181.479V173.599Z" fill="#E0E0E0"/>
<path d="M42.939 172.479L43.1632 172.597V180.478L42.939 180.346V172.479Z" fill="#E0E0E0"/>
<path d="M41.528 171.701L41.7522 171.82V179.7L41.528 179.568V171.701Z" fill="#E0E0E0"/>
<path d="M39.6157 170.542L39.8399 170.66V178.54L39.6157 178.409V170.542Z" fill="#E0E0E0"/>
<path d="M51.0763 177.157L51.5115 177.407V185.274L51.0763 185.024V177.157Z" fill="#E0E0E0"/>
<path d="M117.585 71.0788L80.0907 49.4416L42.583 71.0788L80.0907 92.7161L117.585 71.0788Z" fill="#F5F5F5"/>
<path d="M80.0908 166.878L117.585 145.254V71.0788L80.0908 92.7161V166.878Z" fill="#EBEBEB"/>
<path d="M86.2765 154.584C86.1051 154.584 85.9468 154.544 85.7885 154.452C85.4061 154.228 85.1819 153.741 85.1819 153.121V149.194C85.1819 149.194 85.1819 149.194 85.1819 149.181V148.891L85.3797 148.931L88.4658 147.126V151.514C88.4658 152.634 87.7932 153.886 86.9491 154.386C86.7249 154.518 86.5007 154.584 86.2765 154.584ZM85.6962 149.484V153.121C85.6962 153.569 85.8281 153.899 86.0523 154.031C86.2765 154.162 86.5403 154.057 86.7249 153.951C87.4107 153.556 87.991 152.436 87.991 151.514V151.197H86.8436L86.6194 149.656L85.6962 149.484ZM87.2788 150.697H87.991V147.982L86.1578 149.063L87.0678 149.221L87.2788 150.697Z" fill="white"/>
<path d="M86.8432 157.707C86.7113 157.707 86.5926 157.602 86.5926 157.457V154.149C86.5926 154.017 86.6981 153.899 86.8432 153.899C86.9751 153.899 87.0938 154.004 87.0938 154.149V157.457C87.0806 157.602 86.9751 157.707 86.8432 157.707Z" fill="white"/>
<path d="M85.4057 158.537C85.3266 158.537 85.2342 158.498 85.1947 158.419C85.1287 158.3 85.1683 158.155 85.287 158.076L88.162 156.416C88.2807 156.35 88.4258 156.389 88.5049 156.508C88.5709 156.626 88.5313 156.771 88.4126 156.85L85.5376 158.511C85.4848 158.524 85.4452 158.537 85.4057 158.537Z" fill="white"/>
<path d="M95.6399 152.858C95.5475 152.858 95.4552 152.831 95.3629 152.792C95.1783 152.686 95.0728 152.462 95.0728 152.199V151.527C95.0728 151.395 95.1783 151.276 95.3233 151.276C95.4552 151.276 95.5739 151.382 95.5739 151.527V152.199C95.5739 152.304 95.6003 152.357 95.6267 152.357C95.653 152.37 95.7058 152.37 95.7849 152.317C95.9959 152.186 96.2465 151.698 96.2465 151.197V146.809C96.2465 146.678 96.352 146.559 96.4971 146.559C96.629 146.559 96.7477 146.664 96.7477 146.809V151.197C96.7477 151.843 96.4443 152.502 96.0487 152.739C95.8904 152.818 95.7585 152.858 95.6399 152.858Z" fill="white"/>
<path d="M93.0286 149.023V148.601C93.0286 146.585 94.4529 144.134 96.1938 143.133C97.0906 142.619 97.9346 142.54 98.5941 142.922C99.2535 143.304 99.6096 144.068 99.6096 145.096V145.241L93.0286 149.023ZM97.6709 143.159C97.3016 143.159 96.8796 143.291 96.4312 143.541C94.9541 144.398 93.7275 146.388 93.5429 148.14L99.0952 144.938C99.0688 144.161 98.7919 143.594 98.3303 143.33C98.1457 143.212 97.9214 143.159 97.6709 143.159Z" fill="white"/>
<path d="M104.516 147.798C104.384 147.798 104.265 147.692 104.265 147.547V139.14C104.265 139.008 104.371 138.89 104.516 138.89C104.661 138.89 104.766 138.995 104.766 139.14V147.547C104.766 147.692 104.648 147.798 104.516 147.798Z" fill="white"/>
<path d="M103.79 141.064C103.751 141.064 103.724 141.064 103.698 141.038C103.566 140.985 103.513 140.84 103.566 140.708L104.45 138.679L105.426 139.812C105.518 139.918 105.505 140.076 105.399 140.155C105.294 140.247 105.135 140.234 105.056 140.128L104.595 139.588L104.028 140.893C103.975 140.998 103.883 141.064 103.79 141.064Z" fill="white"/>
<path d="M106.797 146.493C106.665 146.493 106.547 146.388 106.547 146.243V137.835C106.547 137.704 106.652 137.585 106.797 137.585C106.929 137.585 107.048 137.691 107.048 137.835V146.243C107.048 146.388 106.942 146.493 106.797 146.493Z" fill="white"/>
<path d="M106.072 139.759C106.032 139.759 106.006 139.759 105.979 139.733C105.848 139.68 105.795 139.535 105.848 139.404L106.731 137.374L107.707 138.508C107.799 138.613 107.786 138.771 107.681 138.85C107.575 138.942 107.417 138.929 107.338 138.824L106.876 138.284L106.309 139.588C106.27 139.707 106.177 139.759 106.072 139.759Z" fill="white"/>
<path d="M80.0908 166.878L42.5962 145.254L42.583 71.0788L80.0908 92.7161V166.878Z" fill="#E0E0E0"/>
<path d="M60.3873 90.1202L64.0141 92.2154V83.4392L60.3873 81.344V90.1202Z" fill="#F5F5F5"/>
<path d="M64.0141 83.4392L101.522 61.802L97.8819 59.7068L60.3873 81.344L64.0141 83.4392Z" fill="white"/>
<path d="M50.219 131.115L61.7193 137.756C62.9854 138.481 64.0009 140.26 64.0009 141.71V148.799C64.0009 150.249 62.9722 150.842 61.7193 150.117L50.219 143.475C48.9529 142.751 47.9374 140.972 47.9374 139.522V132.433C47.9374 130.97 48.9529 130.377 50.219 131.115Z" fill="#F5F5F5"/>
<path d="M49.3223 132.881L49.7707 133.131V141.011L49.3223 140.761V132.881Z" fill="#E0E0E0"/>
<path d="M51.1027 133.909L51.8545 134.357V142.224L51.1027 141.789V133.909Z" fill="#E0E0E0"/>
<path d="M52.8831 134.936L53.3183 135.187V143.067L52.8831 142.803V134.936Z" fill="#E0E0E0"/>
<path d="M54.2283 135.688L55.0988 136.215V144.082L54.2283 143.568V135.688Z" fill="#E0E0E0"/>
<path d="M56.444 136.992L56.8792 137.243V145.109L56.444 144.859V136.992Z" fill="#E0E0E0"/>
<path d="M57.7233 137.704L58.6597 138.27V146.137L57.7233 145.584V137.704Z" fill="#E0E0E0"/>
<path d="M60.0049 139.035L60.4401 139.285V147.165L60.0049 146.915V139.035Z" fill="#E0E0E0"/>
<path d="M61.0204 139.614L61.2314 139.746V147.613L61.0204 147.495V139.614Z" fill="#E0E0E0"/>
<path d="M59.1872 138.613L59.4114 138.732V146.612L59.1872 146.48V138.613Z" fill="#E0E0E0"/>
<path d="M55.6131 136.518L55.8241 136.636V144.516L55.6131 144.385V136.518Z" fill="#E0E0E0"/>
<path d="M53.6481 135.385L53.8591 135.516V143.383L53.6481 143.265V135.385Z" fill="#E0E0E0"/>
<path d="M52.2369 134.607L52.4479 134.739V142.606L52.2369 142.487V134.607Z" fill="#E0E0E0"/>
<path d="M50.3246 133.447L50.5488 133.579L50.5356 141.446L50.3246 141.327V133.447Z" fill="#E0E0E0"/>
<path d="M61.7853 140.062L62.2205 140.313V148.193L61.7853 147.943V140.062Z" fill="#E0E0E0"/>
<path d="M42.939 275.249L186.877 358.28C190.029 360.099 195.146 360.099 198.298 358.28L513.672 176.366C516.824 174.548 516.824 171.596 513.672 169.778L369.734 86.7468C366.582 84.9283 361.465 84.9283 358.313 86.7468L42.939 268.661C39.787 270.479 39.787 273.431 42.939 275.249Z" fill="#454864"/>
<path d="M120.737 313.82C125.116 316.35 132.224 316.35 136.603 313.82C140.981 311.289 140.981 307.191 136.603 304.674C132.224 302.158 125.116 302.144 120.737 304.674C116.359 307.205 116.359 311.289 120.737 313.82Z" fill="#262838"/>
<path d="M189.515 358.28L45.5767 275.249C42.7543 273.629 42.4642 271.098 44.693 269.28C41.963 271.349 39.8661 275.263 39.8661 278.544V283.907C39.8661 287.544 42.4246 291.971 45.5767 293.79L189.515 376.821C191.097 377.73 193.155 378.191 195.225 378.191V359.651C193.155 359.637 191.084 359.189 189.515 358.28Z" fill="#37394F"/>
<path d="M513.672 194.907C516.824 193.088 519.382 188.661 519.382 185.024V179.661C519.382 176.366 517.285 172.453 514.555 170.384C516.784 172.202 516.494 174.732 513.672 176.366L198.298 358.28C196.715 359.189 194.658 359.651 192.588 359.651V378.191C194.658 378.191 196.715 377.73 198.298 376.821L513.672 194.907Z" fill="#262838"/>
<path d="M210.59 341.07L72.8238 261.558C70.9379 260.464 70.9379 258.699 72.8238 257.605L339.124 103.943C341.023 102.85 344.082 102.85 345.981 103.943L483.8 183.442C485.686 184.536 485.686 186.302 483.8 187.396L217.448 341.07C215.548 342.164 212.489 342.164 210.59 341.07Z" fill="white"/>
<path d="M155.093 296.676L171.156 287.412L165.802 284.315L149.738 293.592L155.093 296.676Z" fill="#82ACDE"/>
<path d="M347.947 185.419L364.023 176.155L358.669 173.059L342.592 182.336L347.947 185.419Z" fill="#82ACDE"/>
<path d="M380.1 166.878L396.163 157.615L390.809 154.518L374.732 163.795L380.1 166.878Z" fill="#82ACDE"/>
<path d="M431.68 134.396C432.787 135.042 434.594 135.042 435.702 134.396C436.81 133.751 436.81 132.723 435.702 132.077C434.594 131.431 432.787 131.431 431.68 132.077C430.572 132.723 430.572 133.751 431.68 134.396Z" fill="#262838"/>
<path d="M438.102 152.594C440.318 153.872 443.918 153.872 446.134 152.594C448.35 151.316 448.35 149.234 446.134 147.956C443.918 146.678 440.318 146.678 438.102 147.956C435.887 149.247 435.887 151.316 438.102 152.594Z" fill="#262838"/>
<path d="M432.431 144.53C433.908 143.673 433.829 142.25 432.26 141.341L405.83 126.094C404.248 125.185 401.782 125.133 400.291 125.989C398.814 126.846 398.893 128.269 400.463 129.178L426.892 144.424C428.475 145.347 430.954 145.386 432.431 144.53Z" fill="#262838"/>
<path d="M177.724 285.844C191.058 293.513 222.314 287.939 247.544 273.378L316.835 233.411C342.065 218.85 351.692 200.85 338.332 193.194C324.972 185.538 293.69 191.138 268.46 205.686L199.287 245.587C174.045 260.161 164.404 278.175 177.724 285.844Z" fill="#F0F0F0"/>
<path d="M394.04 198.992L330.564 163.597C311.692 153.069 307.88 135.938 322.071 125.33C336.262 114.722 363.06 114.656 381.946 125.172L445.422 160.567C464.294 171.095 468.106 188.226 453.915 198.834C439.725 209.441 412.913 209.52 394.04 198.992Z" fill="#D6D6D6"/>
<path d="M330.551 163.11C311.679 152.581 307.867 135.45 322.058 124.843C336.248 114.235 363.047 114.169 381.933 124.684L445.409 160.079C464.281 170.608 468.093 187.738 453.902 198.346C439.711 208.954 412.913 209.02 394.027 198.504L330.551 163.11Z" fill="#D5D5D5"/>
<path d="M330.551 162.609C311.679 152.08 307.867 134.95 322.058 124.342C336.248 113.734 363.047 113.668 381.933 124.184L445.409 159.578C464.281 170.107 468.093 187.238 453.902 197.845C439.711 208.453 412.913 208.519 394.027 198.003L330.551 162.609Z" fill="#D4D4D4"/>
<path d="M330.538 162.121C311.665 151.593 307.854 134.462 322.045 123.854C336.235 113.246 363.034 113.181 381.92 123.696L445.395 159.091C464.268 169.619 468.079 186.75 453.889 197.358C439.698 207.966 412.899 208.031 394.014 197.516L330.538 162.121Z" fill="#D3D3D3"/>
<path d="M330.538 161.621C311.665 151.092 307.854 133.961 322.045 123.354C336.235 112.746 363.034 112.68 381.92 123.195L445.395 158.59C464.268 169.119 468.079 186.249 453.889 196.857C439.698 207.465 412.899 207.531 394.014 197.015L330.538 161.621Z" fill="#D2D2D2"/>
<path d="M330.525 161.133C311.652 150.604 307.841 133.474 322.032 122.866C336.222 112.258 363.021 112.192 381.907 122.708L445.382 158.102C464.255 168.631 468.066 185.762 453.876 196.369C439.685 206.977 412.886 207.043 394 196.528L330.525 161.133Z" fill="#D1D1D1"/>
<path d="M330.525 160.646C311.652 150.117 307.841 132.986 322.032 122.378C336.222 111.771 363.021 111.705 381.907 122.22L445.382 157.615C464.255 168.144 468.066 185.274 453.876 195.882C439.685 206.49 412.886 206.556 394 196.04L330.525 160.646Z" fill="#D0D0D0"/>
<path d="M330.512 160.145C311.639 149.616 307.828 132.485 322.018 121.878C336.209 111.27 363.008 111.204 381.894 121.72L445.369 157.114C464.242 167.643 468.053 184.773 453.863 195.381C439.672 205.989 412.873 206.055 393.987 195.539L330.512 160.145Z" fill="#CFCFCF"/>
<path d="M330.512 159.657C311.639 149.129 307.828 131.998 322.018 121.39C336.209 110.782 363.008 110.716 381.894 121.232L445.369 156.626C464.242 167.155 468.053 184.286 453.863 194.894C439.672 205.501 412.873 205.567 393.987 195.052L330.512 159.657Z" fill="#CECECE"/>
<path d="M330.498 159.157C311.626 148.628 307.814 131.497 322.005 120.889C336.196 110.282 362.995 110.216 381.88 120.731L445.356 156.126C464.229 166.654 468.04 183.785 453.849 194.393C439.659 205.001 412.86 205.067 393.974 194.551L330.498 159.157Z" fill="#CDCDCD"/>
<path d="M330.498 158.669C311.626 148.14 307.814 131.01 322.005 120.402C336.196 109.794 362.995 109.728 381.88 120.244L445.356 155.638C464.229 166.167 468.04 183.298 453.849 193.905C439.659 204.513 412.86 204.579 393.974 194.063L330.498 158.669Z" fill="#CCCCCC"/>
<path d="M330.498 158.168C311.626 147.639 307.814 130.509 322.005 119.901C336.196 109.293 362.995 109.227 381.88 119.743L445.356 155.137C464.229 165.666 468.04 182.797 453.849 193.405C439.659 204.012 412.86 204.078 393.974 193.563L330.498 158.168Z" fill="#CBCBCB"/>
<path d="M330.485 157.681C311.613 147.152 307.801 130.021 321.992 119.414C336.183 108.806 362.981 108.74 381.867 119.255L445.343 154.65C464.215 165.179 468.027 182.309 453.836 192.917C439.645 203.525 412.847 203.591 393.961 193.075L330.485 157.681Z" fill="#CACACA"/>
<path d="M330.485 157.193C311.613 146.664 307.801 129.534 321.992 118.926C336.183 108.318 362.981 108.252 381.867 118.768L445.343 154.162C464.215 164.691 468.027 181.822 453.836 192.429C439.645 203.037 412.847 203.103 393.961 192.588L330.485 157.193Z" fill="#C9C9C9"/>
<path d="M330.472 156.692C311.6 146.164 307.788 129.033 321.979 118.425C336.169 107.817 362.968 107.752 381.854 118.267L445.33 153.662C464.202 164.19 468.014 181.321 453.823 191.929C439.632 202.536 412.833 202.602 393.948 192.087L330.472 156.692Z" fill="#C8C8C8"/>
<path d="M330.472 156.205C311.6 145.676 307.788 128.545 321.979 117.938C336.169 107.33 362.968 107.264 381.854 117.78L445.33 153.174C464.202 163.703 468.014 180.833 453.823 191.441C439.632 202.049 412.833 202.115 393.948 191.599L330.472 156.205Z" fill="#C7C7C7"/>
<path d="M330.459 155.704C311.586 145.175 307.775 128.045 321.966 117.437C336.156 106.829 362.955 106.763 381.841 117.279L445.316 152.673C464.189 163.202 468 180.333 453.81 190.94C439.619 201.548 412.82 201.614 393.934 191.099L330.459 155.704Z" fill="#C6C6C6"/>
<path d="M330.459 155.216C311.586 144.688 307.775 127.557 321.966 116.949C336.156 106.342 362.955 106.276 381.841 116.791L445.316 152.186C464.189 162.714 468 179.845 453.81 190.453C439.619 201.061 412.82 201.127 393.934 190.611L330.459 155.216Z" fill="#C6C6C6"/>
<path d="M330.459 154.716C311.586 144.187 307.775 127.056 321.966 116.449C336.156 105.841 362.955 105.775 381.841 116.29L445.316 151.685C464.189 162.214 468 179.344 453.81 189.952C439.619 200.56 412.82 200.626 393.934 190.11L330.459 154.716Z" fill="#C5C5C5"/>
<path d="M330.446 154.228C311.573 143.699 307.762 126.569 321.952 115.961C336.143 105.353 362.942 105.287 381.828 115.803L445.303 151.197C464.176 161.726 467.987 178.857 453.797 189.465C439.606 200.072 412.807 200.138 393.921 189.623L330.446 154.228Z" fill="#C4C4C4"/>
<path d="M330.446 153.741C311.573 143.212 307.762 126.081 321.952 115.473C336.143 104.866 362.942 104.8 381.828 115.315L445.303 150.71C464.176 161.239 467.987 178.369 453.797 188.977C439.606 199.585 412.807 199.651 393.921 189.135L330.446 153.741Z" fill="#C3C3C3"/>
<path d="M330.432 153.24C311.56 142.711 307.748 125.581 321.939 114.973C336.13 104.365 362.929 104.299 381.814 114.815L445.29 150.209C464.163 160.738 467.974 177.868 453.783 188.476C439.593 199.084 412.794 199.15 393.908 188.634L330.432 153.24Z" fill="#C2C2C2"/>
<path d="M330.432 152.752C311.56 142.224 307.748 125.093 321.939 114.485C336.13 103.877 362.929 103.811 381.814 114.327L445.29 149.722C464.163 160.25 467.974 177.381 453.783 187.989C439.593 198.596 412.794 198.662 393.908 188.147L330.432 152.752Z" fill="#C1C1C1"/>
<path d="M330.419 152.252C311.547 141.723 307.735 124.592 321.926 113.984C336.117 103.377 362.915 103.311 381.801 113.826L445.277 149.221C464.149 159.75 467.961 176.88 453.77 187.488C439.579 198.096 412.781 198.162 393.895 187.646L330.419 152.252Z" fill="#C0C0C0"/>
<path d="M330.419 151.764C311.547 141.235 307.735 124.105 321.926 113.497C336.117 102.889 362.915 102.823 381.801 113.339L445.277 148.733C464.149 159.262 467.961 176.393 453.77 187C439.579 197.608 412.781 197.674 393.895 187.158L330.419 151.764Z" fill="#BFBFBF"/>
<path d="M330.406 151.263C311.534 140.735 307.722 123.604 321.913 112.996C336.103 102.388 362.902 102.322 381.788 112.838L445.264 148.232C464.136 158.761 467.948 175.892 453.757 186.5C439.566 197.107 412.767 197.173 393.882 186.658L330.406 151.263Z" fill="#BEBEBE"/>
<path d="M330.406 150.776C311.534 140.247 307.722 123.116 321.913 112.509C336.103 101.901 362.902 101.835 381.788 112.35L445.264 147.745C464.136 158.274 467.948 175.404 453.757 186.012C439.566 196.62 412.767 196.686 393.882 186.17L330.406 150.776Z" fill="#BDBDBD"/>
<path d="M330.406 150.275C311.534 139.746 307.722 122.616 321.913 112.008C336.103 101.4 362.902 101.334 381.788 111.85L445.264 147.244C464.136 157.773 467.948 174.904 453.757 185.511C439.566 196.119 412.767 196.185 393.882 185.669L330.406 150.275Z" fill="#BCBCBC"/>
<path d="M330.393 149.787C311.52 139.259 307.709 122.128 321.9 111.52C336.09 100.912 362.889 100.847 381.775 111.362L445.25 146.757C464.123 157.285 467.934 174.416 453.744 185.024C439.553 195.632 412.754 195.697 393.869 185.182L330.393 149.787Z" fill="#BBBBBB"/>
<path d="M330.393 149.3C311.52 138.771 307.709 121.641 321.9 111.033C336.09 100.425 362.889 100.359 381.775 110.875L445.25 146.269C464.123 156.798 467.934 173.928 453.744 184.536C439.553 195.144 412.754 195.21 393.869 184.694L330.393 149.3Z" fill="#BABABA"/>
<path d="M330.38 148.799C311.507 138.27 307.696 121.14 321.886 110.532C336.077 99.9241 362.876 99.8583 381.762 110.374L445.237 145.768C464.11 156.297 467.921 173.428 453.731 184.035C439.54 194.643 412.741 194.709 393.855 184.194L330.38 148.799Z" fill="#B9B9B9"/>
<path d="M330.38 148.312C311.507 137.783 307.696 120.652 321.886 110.044C336.077 99.4366 362.876 99.3707 381.762 109.886L445.237 145.281C464.11 155.809 467.921 172.94 453.731 183.548C439.54 194.156 412.741 194.222 393.855 183.706L330.38 148.312Z" fill="#B8B8B8"/>
<path d="M330.367 147.811C311.494 137.282 307.683 120.151 321.873 109.544C336.064 98.9358 362.863 98.87 381.748 109.386L445.224 144.78C464.097 155.309 467.908 172.439 453.717 183.047C439.527 193.655 412.728 193.721 393.842 183.205L330.367 147.811Z" fill="#B7B7B7"/>
<path d="M330.367 147.323C311.494 136.794 307.683 119.664 321.873 109.056C336.064 98.4483 362.863 98.3824 381.748 108.898L445.224 144.292C464.097 154.821 467.908 171.952 453.717 182.56C439.527 193.167 412.728 193.233 393.842 182.718L330.367 147.323Z" fill="#B6B6B6"/>
<path d="M393.842 182.217L330.367 146.822C311.494 136.294 307.683 119.163 321.873 108.555C336.064 97.9475 362.863 97.8817 381.748 108.397L445.224 143.792C464.097 154.32 467.908 171.451 453.717 182.059C439.527 192.68 412.715 192.746 393.842 182.217Z" fill="#B5B5B5"/>
<path d="M393.842 182.217L330.367 146.822C311.494 136.294 307.683 119.163 321.873 108.555C336.064 97.9475 362.863 97.8817 381.748 108.397L445.224 143.792C464.097 154.32 467.908 171.451 453.717 182.059C439.527 192.68 412.715 192.746 393.842 182.217Z" fill="#D6D6D6"/>
<path d="M393.842 182.217L330.367 146.822C311.494 136.294 307.683 119.163 321.873 108.555C336.064 97.9475 362.863 97.8817 381.748 108.397L445.224 143.792C464.097 154.32 467.908 171.451 453.717 182.059C439.527 192.68 412.715 192.746 393.842 182.217Z" fill="#E2E2E2"/>
<path d="M456.052 168.145C457.819 155.656 442.904 143.223 422.738 140.374C402.572 137.525 384.792 145.34 383.025 157.829C381.258 170.317 396.173 182.751 416.339 185.599C436.504 188.448 454.285 180.633 456.052 168.145Z" fill="#536782"/>
<path d="M456.057 168.007C457.825 155.518 442.91 143.085 422.744 140.236C402.578 137.387 384.798 145.202 383.031 157.69C381.264 170.179 396.179 182.612 416.344 185.461C436.51 188.31 454.29 180.495 456.057 168.007Z" fill="#526782"/>
<path d="M456.049 167.866C457.816 155.378 442.901 142.944 422.735 140.095C402.57 137.247 384.789 145.061 383.022 157.55C381.255 170.038 396.17 182.472 416.336 185.321C436.502 188.169 454.282 180.355 456.049 167.866Z" fill="#516683"/>
<path d="M456.054 167.728C457.821 155.239 442.906 142.806 422.74 139.957C402.574 137.108 384.794 144.923 383.027 157.411C381.26 169.9 396.175 182.333 416.341 185.182C436.506 188.031 454.287 180.216 456.054 167.728Z" fill="#506683"/>
<path d="M456.044 167.6C457.811 155.112 442.896 142.678 422.73 139.829C402.564 136.981 384.784 144.795 383.017 157.284C381.25 169.773 396.165 182.206 416.331 185.055C436.496 187.903 454.277 180.089 456.044 167.6Z" fill="#4F6683"/>
<path d="M456.048 167.461C457.815 154.972 442.9 142.539 422.734 139.69C402.568 136.842 384.788 144.656 383.021 157.145C381.254 169.633 396.169 182.067 416.334 184.916C436.5 187.764 454.28 179.95 456.048 167.461Z" fill="#4E6684"/>
<path d="M397.495 178.646C413.677 187.672 436.652 187.607 448.811 178.514C460.971 169.422 457.713 154.729 441.531 145.716C425.349 136.689 402.375 136.755 390.215 145.847C378.056 154.94 381.326 169.619 397.495 178.646Z" fill="#4D6584"/>
<path d="M456.044 167.182C457.812 154.693 442.897 142.26 422.731 139.411C402.565 136.563 384.785 144.377 383.018 156.866C381.251 169.354 396.166 181.788 416.331 184.637C436.497 187.485 454.277 179.671 456.044 167.182Z" fill="#4C6584"/>
<path d="M456.05 167.044C457.817 154.555 442.902 142.122 422.736 139.273C402.57 136.424 384.79 144.239 383.023 156.727C381.256 169.216 396.171 181.649 416.336 184.498C436.502 187.347 454.282 179.532 456.05 167.044Z" fill="#4B6584"/>
<path d="M456.04 166.902C457.807 154.414 442.892 141.98 422.726 139.131C402.56 136.283 384.78 144.097 383.013 156.586C381.246 169.075 396.161 181.508 416.326 184.357C436.492 187.205 454.272 179.391 456.04 166.902Z" fill="#4A6585"/>
<path d="M456.045 166.764C457.813 154.276 442.898 141.842 422.732 138.993C402.566 136.145 384.786 143.959 383.019 156.448C381.252 168.937 396.167 181.37 416.332 184.219C436.498 187.067 454.278 179.253 456.045 166.764Z" fill="#496485"/>
<path d="M456.038 166.624C457.805 154.135 442.89 141.702 422.724 138.853C402.558 136.004 384.778 143.819 383.011 156.308C381.244 168.796 396.159 181.23 416.325 184.079C436.49 186.927 454.27 179.113 456.038 166.624Z" fill="#486485"/>
<path d="M456.04 166.498C457.807 154.009 442.892 141.576 422.726 138.727C402.56 135.878 384.78 143.693 383.013 156.182C381.246 168.67 396.161 181.103 416.326 183.952C436.492 186.801 454.272 178.986 456.04 166.498Z" fill="#476486"/>
<path d="M456.032 166.358C457.799 153.869 442.884 141.436 422.718 138.587C402.552 135.738 384.772 143.553 383.005 156.041C381.238 168.53 396.153 180.963 416.319 183.812C436.484 186.661 454.265 178.846 456.032 166.358Z" fill="#466486"/>
<path d="M456.036 166.219C457.803 153.73 442.888 141.297 422.723 138.448C402.557 135.599 384.777 143.414 383.009 155.902C381.242 168.391 396.157 180.824 416.323 183.673C436.489 186.522 454.269 178.707 456.036 166.219Z" fill="#456386"/>
<path d="M456.029 166.079C457.796 153.59 442.881 141.157 422.715 138.308C402.549 135.459 384.769 143.274 383.002 155.762C381.235 168.251 396.15 180.684 416.315 183.533C436.481 186.382 454.261 178.567 456.029 166.079Z" fill="#446387"/>
<path d="M456.031 165.939C457.799 153.45 442.884 141.017 422.718 138.168C402.552 135.319 384.772 143.134 383.005 155.623C381.238 168.111 396.153 180.545 416.318 183.393C436.484 186.242 454.264 178.428 456.031 165.939Z" fill="#436387"/>
<path d="M456.024 165.799C457.791 153.31 442.876 140.877 422.71 138.028C402.545 135.179 384.765 142.994 382.997 155.483C381.23 167.971 396.145 180.405 416.311 183.253C436.477 186.102 454.257 178.288 456.024 165.799Z" fill="#426287"/>
<path d="M456.029 165.661C457.796 153.172 442.881 140.739 422.716 137.89C402.55 135.041 384.77 142.856 383.003 155.344C381.235 167.833 396.15 180.266 416.316 183.115C436.482 185.964 454.262 178.149 456.029 165.661Z" fill="#416287"/>
<path d="M456.02 165.52C457.787 153.031 442.872 140.598 422.707 137.749C402.541 134.9 384.761 142.715 382.994 155.203C381.226 167.692 396.141 180.125 416.307 182.974C436.473 185.823 454.253 178.008 456.02 165.52Z" fill="#406288"/>
<path d="M456.023 165.394C457.791 152.906 442.876 140.472 422.71 137.624C402.544 134.775 384.764 142.589 382.997 155.078C381.23 167.567 396.145 180 416.31 182.849C436.476 185.698 454.256 177.883 456.023 165.394Z" fill="#3F6288"/>
<path d="M456.015 165.254C457.782 152.765 442.867 140.332 422.701 137.483C402.536 134.634 384.755 142.449 382.988 154.937C381.221 167.426 396.136 179.859 416.302 182.708C436.468 185.557 454.248 177.742 456.015 165.254Z" fill="#3E6188"/>
<path d="M456.02 165.115C457.787 152.626 442.872 140.193 422.706 137.344C402.54 134.495 384.76 142.31 382.993 154.799C381.226 167.287 396.141 179.721 416.306 182.569C436.472 185.418 454.252 177.604 456.02 165.115Z" fill="#3D6189"/>
<path d="M456.024 164.976C457.791 152.487 442.876 140.054 422.71 137.205C402.544 134.356 384.764 142.171 382.997 154.66C381.23 167.148 396.145 179.582 416.31 182.43C436.476 185.279 454.256 177.465 456.024 164.976Z" fill="#3C6189"/>
<path d="M456.016 164.836C457.783 152.347 442.868 139.914 422.703 137.065C402.537 134.216 384.757 142.031 382.99 154.52C381.222 167.008 396.137 179.442 416.303 182.29C436.469 185.139 454.249 177.324 456.016 164.836Z" fill="#3B6189"/>
<path d="M456.02 164.697C457.787 152.208 442.872 139.775 422.706 136.926C402.541 134.077 384.76 141.892 382.993 154.38C381.226 166.869 396.141 179.302 416.307 182.151C436.473 185 454.253 177.185 456.02 164.697Z" fill="#3A608A"/>
<path d="M456.012 164.556C457.779 152.068 442.864 139.634 422.698 136.786C402.533 133.937 384.752 141.751 382.985 154.24C381.218 166.729 396.133 179.162 416.299 182.011C436.465 184.86 454.245 177.045 456.012 164.556Z" fill="#39608A"/>
<path d="M456.017 164.418C457.784 151.929 442.869 139.496 422.704 136.647C402.538 133.798 384.758 141.613 382.99 154.102C381.223 166.59 396.138 179.024 416.304 181.872C436.47 184.721 454.25 176.906 456.017 164.418Z" fill="#38608A"/>
<path d="M456.006 164.29C457.773 151.801 442.858 139.368 422.692 136.519C402.527 133.67 384.746 141.485 382.979 153.974C381.212 166.462 396.127 178.896 416.293 181.744C436.459 184.593 454.239 176.779 456.006 164.29Z" fill="#38608A"/>
<path d="M456.011 164.151C457.778 151.663 442.863 139.229 422.697 136.381C402.532 133.532 384.751 141.347 382.984 153.835C381.217 166.324 396.132 178.757 416.298 181.606C436.464 184.455 454.244 176.64 456.011 164.151Z" fill="#375F8B"/>
<path d="M456.002 164.011C457.769 151.522 442.854 139.089 422.689 136.24C402.523 133.391 384.743 141.206 382.976 153.694C381.208 166.183 396.123 178.616 416.289 181.465C436.455 184.314 454.235 176.499 456.002 164.011Z" fill="#365F8B"/>
<path d="M456.008 163.873C457.775 151.384 442.86 138.951 422.694 136.102C402.529 133.253 384.749 141.068 382.981 153.556C381.214 166.045 396.129 178.478 416.295 181.327C436.461 184.176 454.241 176.361 456.008 163.873Z" fill="#355F8B"/>
<path d="M455.999 163.731C457.766 151.243 442.851 138.809 422.685 135.961C402.519 133.112 384.739 140.927 382.972 153.415C381.205 165.904 396.12 178.337 416.286 181.186C436.451 184.035 454.232 176.22 455.999 163.731Z" fill="#345E8C"/>
<path d="M397.456 174.917C413.638 183.943 436.612 183.877 448.772 174.785C460.931 165.693 457.674 151 441.492 141.986C425.31 132.96 402.335 133.026 390.176 142.118C378.016 151.211 381.274 165.903 397.456 174.917Z" fill="#335E8C"/>
<path d="M455.996 163.453C457.763 150.964 442.848 138.531 422.682 135.682C402.516 132.833 384.736 140.648 382.969 153.136C381.202 165.625 396.117 178.058 416.283 180.907C436.448 183.756 454.229 175.941 455.996 163.453Z" fill="#325E8C"/>
<path d="M456 163.314C457.768 150.825 442.853 138.392 422.687 135.543C402.521 132.694 384.741 140.509 382.974 152.998C381.207 165.486 396.121 177.92 416.287 180.768C436.453 183.617 454.233 175.803 456 163.314Z" fill="#315E8D"/>
<path d="M455.99 163.186C457.757 150.698 442.842 138.264 422.676 135.416C402.511 132.567 384.73 140.382 382.963 152.87C381.196 165.359 396.111 177.792 416.277 180.641C436.443 183.49 454.223 175.675 455.99 163.186Z" fill="#305D8D"/>
<path d="M455.994 163.047C457.761 150.559 442.846 138.125 422.68 135.277C402.515 132.428 384.734 140.242 382.967 152.731C381.2 165.22 396.115 177.653 416.281 180.502C436.447 183.351 454.227 175.536 455.994 163.047Z" fill="#2F5D8D"/>
<path d="M397.443 174.231C413.625 183.258 436.599 183.192 448.759 174.1C460.918 165.007 457.661 150.315 441.479 141.301C425.296 132.275 402.322 132.341 390.163 141.433C378.003 150.525 381.274 165.218 397.443 174.231Z" fill="#2E5D8E"/>
<path d="M455.991 162.769C457.758 150.28 442.843 137.847 422.678 134.998C402.512 132.149 384.732 139.964 382.965 152.452C381.197 164.941 396.112 177.374 416.278 180.223C436.444 183.072 454.224 175.257 455.991 162.769Z" fill="#2D5D8E"/>
<path d="M455.996 162.63C457.763 150.141 442.848 137.708 422.682 134.859C402.516 132.01 384.736 139.825 382.969 152.314C381.202 164.802 396.117 177.236 416.283 180.084C436.448 182.933 454.229 175.118 455.996 162.63Z" fill="#2C5C8E"/>
<path d="M455.986 162.489C457.754 150 442.839 137.567 422.673 134.718C402.507 131.869 384.727 139.684 382.96 152.173C381.193 164.661 396.108 177.095 416.273 179.943C436.439 182.792 454.219 174.977 455.986 162.489Z" fill="#2B5C8E"/>
<path d="M455.992 162.351C457.759 149.862 442.844 137.429 422.678 134.58C402.513 131.731 384.733 139.546 382.965 152.034C381.198 164.523 396.113 176.956 416.279 179.805C436.445 182.654 454.225 174.839 455.992 162.351Z" fill="#2A5C8F"/>
<path d="M455.984 162.21C457.751 149.721 442.836 137.288 422.67 134.439C402.504 131.59 384.724 139.405 382.957 151.894C381.19 164.382 396.105 176.816 416.27 179.664C436.436 182.513 454.216 174.699 455.984 162.21Z" fill="#295B8F"/>
<path d="M455.986 162.084C457.754 149.596 442.839 137.162 422.673 134.314C402.507 131.465 384.727 139.28 382.96 151.768C381.193 164.257 396.108 176.69 416.273 179.539C436.439 182.388 454.219 174.573 455.986 162.084Z" fill="#285B8F"/>
<path d="M455.978 161.944C457.746 149.455 442.831 137.022 422.665 134.173C402.499 131.324 384.719 139.139 382.952 151.628C381.185 164.116 396.1 176.55 416.265 179.398C436.431 182.247 454.211 174.433 455.978 161.944Z" fill="#275B90"/>
<path d="M455.983 161.805C457.75 149.317 442.835 136.883 422.669 134.034C402.503 131.186 384.723 139 382.956 151.489C381.189 163.977 396.104 176.411 416.27 179.26C436.435 182.108 454.216 174.294 455.983 161.805Z" fill="#265B90"/>
<path d="M455.974 161.665C457.742 149.176 442.827 136.743 422.661 133.894C402.495 131.045 384.715 138.86 382.948 151.348C381.181 163.837 396.095 176.27 416.261 179.119C436.427 181.968 454.207 174.153 455.974 161.665Z" fill="#255A90"/>
<path d="M455.978 161.526C457.745 149.037 442.83 136.604 422.665 133.755C402.499 130.906 384.719 138.721 382.952 151.209C381.184 163.698 396.099 176.131 416.265 178.98C436.431 181.829 454.211 174.014 455.978 161.526Z" fill="#245A91"/>
<path d="M455.971 161.385C457.738 148.897 442.823 136.463 422.657 133.615C402.491 130.766 384.711 138.58 382.944 151.069C381.177 163.558 396.092 175.991 416.258 178.84C436.423 181.689 454.203 173.874 455.971 161.385Z" fill="#235A91"/>
<path d="M455.975 161.247C457.742 148.758 442.827 136.325 422.662 133.476C402.496 130.627 384.716 138.442 382.949 150.93C381.181 163.419 396.096 175.852 416.262 178.701C436.428 181.55 454.208 173.735 455.975 161.247Z" fill="#225A91"/>
<path d="M455.967 161.106C457.734 148.618 442.819 136.184 422.653 133.336C402.488 130.487 384.707 138.301 382.94 150.79C381.173 163.279 396.088 175.712 416.254 178.561C436.42 181.41 454.2 173.595 455.967 161.106Z" fill="#215991"/>
<path d="M455.97 160.981C457.737 148.492 442.822 136.059 422.657 133.21C402.491 130.361 384.711 138.176 382.944 150.665C381.176 163.153 396.091 175.587 416.257 178.435C436.423 181.284 454.203 173.469 455.97 160.981Z" fill="#205992"/>
<path d="M455.962 160.84C457.729 148.352 442.814 135.918 422.648 133.069C402.482 130.221 384.702 138.035 382.935 150.524C381.168 163.012 396.083 175.446 416.249 178.295C436.414 181.143 454.194 173.329 455.962 160.84Z" fill="#1F5992"/>
<path d="M455.966 160.701C457.734 148.213 442.819 135.779 422.653 132.931C402.487 130.082 384.707 137.897 382.94 150.385C381.173 162.874 396.088 175.307 416.253 178.156C436.419 181.005 454.199 173.19 455.966 160.701Z" fill="#1E5992"/>
<path d="M455.971 160.563C457.738 148.074 442.823 135.641 422.657 132.792C402.491 129.943 384.711 137.758 382.944 150.246C381.177 162.735 396.092 175.168 416.258 178.017C436.423 180.866 454.204 173.051 455.971 160.563Z" fill="#1D5893"/>
<path d="M455.964 160.423C457.731 147.934 442.816 135.501 422.65 132.652C402.484 129.803 384.704 137.618 382.937 150.106C381.17 162.595 396.085 175.028 416.251 177.877C436.416 180.726 454.197 172.911 455.964 160.423Z" fill="#1C5893"/>
<path d="M455.964 160.423C457.731 147.934 442.816 135.501 422.65 132.652C402.485 129.803 384.704 137.618 382.937 150.106C381.17 162.595 396.085 175.028 416.251 177.877C436.417 180.726 454.197 172.911 455.964 160.423Z" fill="#5393D3"/>
<path d="M361.781 126.279L359.407 127.346L350.241 122.655L348.672 123.367L354.831 126.516L349.16 129.073L336.697 122.681L335.484 123.222L348.632 129.955L346.338 130.983L330.103 122.668L335.8 120.099L348.263 126.49L349.45 125.963L336.855 119.506L339.15 118.478L345.48 121.72L347.05 121.008L337.884 116.317L340.258 115.249L361.781 126.279ZM350.993 113.036L357.455 116.343L359.658 115.355L362.836 116.989L360.634 117.977L367.096 121.285L364.735 122.352L358.273 119.045C357.917 119.203 357.732 119.4 357.732 119.611C357.732 119.835 357.917 120.125 358.313 120.481C359.051 121.127 359.763 121.733 360.449 122.299C361.148 122.866 361.887 123.472 362.691 124.105L359.684 124.75C358.827 124.078 358.049 123.459 357.363 122.866C356.664 122.286 355.978 121.706 355.306 121.127C354.791 120.692 354.449 120.336 354.277 120.059C354.106 119.782 354.027 119.572 354.079 119.427L354.053 119.414C353.736 119.427 353.301 119.374 352.721 119.269C352.141 119.163 351.415 118.979 350.558 118.702C349.411 118.346 348.25 117.977 347.076 117.608C345.916 117.239 344.663 116.818 343.318 116.37L344.874 114.96C346.127 115.381 347.3 115.777 348.408 116.132C349.503 116.488 350.703 116.857 351.982 117.252C353.367 117.661 354.409 117.714 355.095 117.411L348.632 114.103L350.993 113.036Z" fill="#5393D3"/>
<path d="M390.097 132.604L386.114 134.396C385.837 134.515 385.494 134.66 385.072 134.831C384.65 135.002 384.201 135.174 383.7 135.345C383.212 135.529 382.698 135.701 382.157 135.885C381.617 136.057 381.102 136.215 380.575 136.36L384.281 138.257L381.696 139.417L360.185 128.4L362.77 127.241L377.357 134.712C378.359 134.449 379.348 134.146 380.324 133.803C381.3 133.461 382.105 133.131 382.738 132.841L384.307 132.13L371.936 125.791L374.521 124.632L390.097 132.604ZM359.381 134.752L372.134 141.288L369.549 142.448L353.618 134.291L360.937 130.996L364.116 132.63L359.381 134.752Z" fill="#5393D3"/>
<path d="M180.639 275.5L196.715 266.223L191.348 263.139L175.284 272.403L180.639 275.5Z" fill="#82ACDE"/>
<path d="M212.779 256.959L228.856 247.682L223.501 244.599L207.424 253.862L212.779 256.959Z" fill="#82ACDE"/>
<path d="M206.185 253.217C206.185 260.965 200.751 270.387 194.038 274.248C190.464 276.317 187.246 276.383 185.031 274.828C185.031 274.814 185.017 274.814 185.017 274.814C183.395 273.681 182.301 271.691 181.971 268.977C182.419 268.779 182.868 268.542 183.329 268.278C190.042 264.418 195.476 254.996 195.476 247.247C195.476 246.641 195.449 246.061 195.37 245.521C197.903 244.375 200.197 244.269 202.017 245.047C204.576 246.14 206.185 249 206.185 253.217Z" fill="#262838"/>
<path d="M207.279 237.272C207.2 237.233 207.134 237.193 207.055 237.14C203.679 235.348 199.089 235.678 194.038 238.603C183.685 244.572 175.284 259.094 175.284 271.046C175.284 277.055 177.408 281.258 180.837 283.208C184.226 285.132 188.895 284.829 194.038 281.864C204.391 275.895 212.779 261.36 212.779 249.408C212.779 243.426 210.682 239.222 207.279 237.272ZM194.038 274.248C190.451 276.317 187.233 276.383 185.017 274.814C183.066 273.457 181.879 270.848 181.879 267.237C181.879 259.502 187.325 250.08 194.038 246.206C197.098 244.441 199.881 244.138 202.017 245.047C204.576 246.14 206.185 249 206.185 253.217C206.185 260.965 200.751 270.387 194.038 274.248Z" fill="#37394F"/>
<path d="M202.611 245.337C202.558 245.31 202.518 245.284 202.466 245.258C200.276 244.098 197.296 244.309 194.025 246.206C187.312 250.081 181.865 259.489 181.865 267.237C181.865 271.138 183.237 273.853 185.466 275.118C187.668 276.369 190.688 276.172 194.025 274.248C200.738 270.374 206.172 260.952 206.172 253.204C206.185 249.329 204.826 246.602 202.611 245.337ZM194.038 271.494C191.15 273.154 188.565 273.207 186.785 271.955C185.215 270.861 184.266 268.766 184.266 265.867C184.266 259.647 188.644 252.07 194.038 248.96C196.504 247.537 198.733 247.3 200.448 248.025C202.505 248.908 203.798 251.201 203.798 254.587C203.798 260.82 199.432 268.384 194.038 271.494Z" fill="#82ACDE"/>
<path d="M244.932 238.419L260.996 229.142L255.641 226.058L239.565 235.322L244.932 238.419Z" fill="#82ACDE"/>
<path d="M277.072 219.878L293.136 210.601L287.781 207.518L271.718 216.781L277.072 219.878Z" fill="#82ACDE"/>
<path d="M309.212 201.337L325.289 192.06L319.921 188.964L303.858 198.241L309.212 201.337Z" fill="#82ACDE"/>
<path d="M229.238 115.118C230.293 114.208 231.361 114.591 231.612 115.948C231.863 117.305 231.216 119.15 230.161 120.059C229.106 120.968 228.038 120.586 227.787 119.229C227.524 117.859 228.183 116.014 229.238 115.118Z" fill="#82ACDE"/>
<path d="M241.609 120.929L230.847 114.736L228.499 120.402L239.274 126.622L241.609 120.929Z" fill="#82ACDE"/>
<path d="M239.947 121.298C241.002 120.389 242.07 120.771 242.321 122.128C242.571 123.499 241.925 125.33 240.87 126.239C239.815 127.149 238.747 126.767 238.496 125.409C238.246 124.039 238.892 122.194 239.947 121.298Z" fill="#82ACDE"/>
<path d="M322.559 173.256C322.572 173.52 322.599 173.757 322.599 174.021C322.599 174.548 322.585 175.088 322.546 175.628C320.409 174.719 317.627 175.022 314.567 176.788C307.854 180.662 302.407 190.084 302.407 197.819C302.407 201.43 303.594 204.039 305.546 205.396C304.992 205.791 304.425 206.147 303.845 206.477C303.634 206.595 303.436 206.687 303.225 206.793L301.365 213.79L290.604 207.794C287.201 205.831 285.104 201.64 285.104 195.658C285.104 183.706 293.492 169.185 303.845 163.202C308.962 160.25 313.591 159.947 316.98 161.832V161.818L327.584 167.722C327.663 167.775 327.729 167.814 327.808 167.854L322.559 173.256Z" fill="#454864"/>
<path d="M327.808 167.854C327.729 167.814 327.663 167.775 327.584 167.722C324.208 165.93 319.618 166.259 314.567 169.185C304.214 175.154 295.813 189.675 295.813 201.627C295.813 207.636 297.936 211.84 301.365 213.79C304.755 215.714 309.423 215.411 314.567 212.446C324.92 206.477 333.308 191.942 333.308 179.99C333.308 174.007 331.211 169.804 327.808 167.854ZM314.567 204.829C310.98 206.898 307.762 206.964 305.546 205.396C303.594 204.039 302.407 201.43 302.407 197.819C302.407 190.084 307.854 180.662 314.567 176.788C317.627 175.022 320.409 174.719 322.546 175.628C325.104 176.722 326.713 179.581 326.713 183.798C326.713 191.547 321.28 200.968 314.567 204.829Z" fill="#37394F"/>
<path d="M326.713 183.798C326.713 191.547 321.28 200.968 314.567 204.829C310.993 206.898 307.775 206.964 305.559 205.409C305.559 205.396 305.546 205.396 305.546 205.396C303.924 204.263 302.829 202.273 302.499 199.558C302.948 199.361 303.396 199.124 303.858 198.86C310.571 194.999 316.004 185.577 316.004 177.829C316.004 177.223 315.978 176.643 315.899 176.103C318.431 174.956 320.726 174.851 322.546 175.628C325.104 176.722 326.713 179.581 326.713 183.798Z" fill="#262838"/>
<path d="M323.152 175.931C323.1 175.905 323.06 175.879 323.007 175.852C320.818 174.693 317.838 174.904 314.567 176.801C307.854 180.675 302.407 190.084 302.407 197.832C302.407 201.733 303.779 204.447 306.008 205.712C308.21 206.964 311.23 206.766 314.567 204.843C321.28 200.968 326.713 191.547 326.713 183.798C326.713 179.924 325.355 177.196 323.152 175.931ZM314.567 202.088C311.679 203.749 309.094 203.802 307.313 202.55C305.744 201.456 304.794 199.361 304.794 196.462C304.794 190.242 309.173 182.665 314.567 179.555C317.033 178.132 319.262 177.895 320.976 178.62C323.034 179.502 324.326 181.795 324.326 185.182C324.339 191.402 319.961 198.979 314.567 202.088Z" fill="#82ACDE"/>
<path d="M303.858 187.738C303.858 187.738 330.67 172.268 334.191 170.239C337.726 168.209 326.212 156.271 317.772 155.48C309.331 154.689 303.858 156.837 303.858 156.837C303.858 156.837 310.333 165.126 309.212 169.83C308.091 174.535 303.858 187.738 303.858 187.738Z" fill="#82ACDE"/>
<path d="M260.996 138.297C260.996 138.297 304.966 160.448 306.865 161.779C308.764 163.11 306.918 178.58 303.858 187.738C300.785 196.91 296.195 210.983 294.336 215.002C292.476 219.021 290.05 220.431 285.592 223.001C281.134 225.571 253.913 241.278 253.913 241.278L211.091 246.444L194.078 237.167L198.496 209.349C198.496 209.349 244.035 185.142 250.273 181.532C256.525 177.961 274.962 161.133 260.996 138.297Z" fill="#82ACDE"/>
<path opacity="0.2" d="M260.996 138.297C260.996 138.297 304.966 160.448 306.865 161.779C308.764 163.11 306.918 178.58 303.858 187.738C300.785 196.91 296.195 210.983 294.336 215.002C292.476 219.021 290.05 220.431 285.592 223.001C281.134 225.571 253.913 241.278 253.913 241.278L211.091 246.444L194.078 237.167L198.496 209.349C198.496 209.349 244.035 185.142 250.273 181.532C256.525 177.961 274.962 161.133 260.996 138.297Z" fill="black"/>
<path d="M307.709 182.467C311.639 171.846 314.62 163.031 314.118 157.101C313.512 150.051 310.887 144.279 299.242 141.393C287.597 138.494 271.309 138.534 271.309 138.534L266.35 141.393C266.35 141.393 299.796 160.764 303.594 162.873C305.915 164.164 308.395 169.988 303.858 187.738C303.858 187.738 304.201 187.936 304.636 188.186C305.058 188.437 306.443 185.88 307.709 182.467Z" fill="#82ACDE"/>
<path opacity="0.3" d="M307.709 182.467C311.639 171.846 314.62 163.031 314.118 157.101C313.512 150.051 310.887 144.279 299.242 141.393C287.597 138.494 271.309 138.534 271.309 138.534L266.35 141.393C266.35 141.393 299.796 160.764 303.594 162.873C305.915 164.164 308.395 169.988 303.858 187.738C303.858 187.738 304.201 187.936 304.636 188.186C305.058 188.437 306.443 185.88 307.709 182.467Z" fill="white"/>
<path d="M282.374 150.657L287.781 147.574C287.781 147.574 287.465 128.849 279.591 124.302C271.718 119.756 244.932 122.853 244.932 122.853L239.578 125.95L282.374 150.657Z" fill="#82ACDE"/>
<path d="M264.833 128.572C262.262 130.048 262.262 132.459 264.833 133.935C267.405 135.411 271.573 135.411 274.131 133.935C276.703 132.459 276.703 130.048 274.131 128.572C271.573 127.096 267.405 127.096 264.833 128.572Z" fill="#F0F0F0"/>
<path d="M273.076 137.519C271.256 138.573 271.256 140.26 273.076 141.314C274.896 142.369 277.837 142.369 279.657 141.314C281.477 140.26 281.477 138.573 279.657 137.519C277.837 136.478 274.883 136.478 273.076 137.519Z" fill="#F0F0F0"/>
<path d="M252.344 126.187C250.524 127.241 250.524 128.928 252.344 129.982C254.164 131.036 257.105 131.036 258.925 129.982C260.745 128.928 260.745 127.241 258.925 126.187C257.105 125.133 254.164 125.133 252.344 126.187Z" fill="#F0F0F0"/>
<path d="M283.152 145.215C284.207 144.306 285.275 144.688 285.526 146.045C285.777 147.415 285.13 149.247 284.075 150.156C283.02 151.066 281.952 150.683 281.701 149.326C281.451 147.956 282.097 146.124 283.152 145.215Z" fill="#82ACDE"/>
<path d="M295.523 151.039L284.761 144.833L282.414 150.512L293.188 156.732L295.523 151.039Z" fill="#82ACDE"/>
<path d="M293.861 151.395C294.916 150.486 295.984 150.868 296.235 152.225C296.486 153.596 295.839 155.427 294.784 156.337C293.729 157.246 292.661 156.864 292.41 155.506C292.16 154.136 292.806 152.304 293.861 151.395Z" fill="#82ACDE"/>
<path d="M293.861 151.395C294.916 150.486 295.984 150.868 296.235 152.225C296.486 153.596 295.839 155.427 294.784 156.337C293.729 157.246 292.661 156.864 292.41 155.506C292.16 154.136 292.806 152.304 293.861 151.395Z" fill="black"/>
<path d="M202.03 242.675C202.044 242.938 202.07 243.176 202.07 243.439C202.07 243.966 202.057 244.506 202.017 245.047C199.881 244.138 197.098 244.441 194.038 246.206C187.325 250.08 181.879 259.502 181.879 267.237C181.879 270.848 183.065 273.457 185.017 274.814C184.463 275.21 183.896 275.566 183.316 275.895C183.105 276.014 182.907 276.106 182.696 276.211L180.837 283.208L170.075 277.213C166.672 275.249 164.575 271.059 164.575 265.076C164.575 253.124 172.963 238.603 183.316 232.62C188.433 229.669 193.062 229.366 196.452 231.25V231.237L207.055 237.14C207.134 237.193 207.2 237.233 207.279 237.272L202.03 242.675Z" fill="#454864"/>
<path d="M169.93 221.736L161.885 249.553L177.962 258.817L186.283 231.171L169.93 221.736Z" fill="#82ACDE"/>
<path opacity="0.2" d="M169.93 221.736L161.885 249.553L177.962 258.817L186.283 231.171L169.93 221.736Z" fill="black"/>
<path d="M169.93 221.736C169.93 221.736 179.043 229.418 186.297 231.171C195.819 233.477 210.959 233.727 216.327 234.096C224.543 234.663 230.728 234.663 233.643 233.609C237.402 232.265 247.504 226.427 250.3 224.819C255.654 221.723 257.936 209.6 243.178 206.279C228.42 202.958 212.805 203.195 212.805 203.195L169.93 221.736Z" fill="#82ACDE"/>
<path d="M260.758 218.165C260.336 218.718 260.257 219.997 259.835 221.736C259.413 223.475 259.268 224.819 259.545 225.663C259.835 226.506 261.695 228.417 263.976 229.128C266.258 229.84 269.08 229.247 271.797 227.613C274.527 225.992 276.571 224.002 280.462 222.909C284.339 221.802 286.278 220.906 288.124 219.43C290.274 217.704 293.149 212.933 289.034 211.827C284.88 210.72 275.964 214.62 267.827 214.976L260.758 218.165Z" fill="#37394F"/>
<path d="M260.758 213.078V219.166C260.758 219.166 261.325 221.275 264.003 221.736C264.675 221.855 265.335 221.749 265.954 221.525C267.985 220.814 269.304 218.85 269.449 216.702L269.687 213.078H260.758Z" fill="#FFC0A7"/>
<path d="M272.404 175.417C272.443 182.994 270.267 215.74 270.267 215.74C270.267 215.74 267.168 219.667 260.429 215.74L258.147 179.16L272.404 175.417Z" fill="#37394F"/>
<path d="M237.059 207.728L258.134 195.566C259.716 194.656 260.982 192.535 260.982 190.822C260.982 189.109 259.703 187 258.121 186.078L242.4 177.012C240.817 176.103 238.272 176.103 236.689 177.012L215.614 189.175C214.032 190.084 212.766 192.205 212.766 193.905C212.766 195.605 214.045 197.727 215.628 198.636L231.348 207.702C232.931 208.638 235.489 208.638 237.059 207.728Z" fill="#82ACDE"/>
<path d="M237.059 207.728L258.134 195.566C259.716 194.656 260.982 192.535 260.982 190.822C260.982 189.109 259.703 187 258.121 186.078L242.4 177.012C240.817 176.103 238.272 176.103 236.689 177.012L215.614 189.175C214.032 190.084 212.766 192.205 212.766 193.905C212.766 195.605 214.045 197.727 215.628 198.636L231.348 207.702C232.931 208.638 235.489 208.638 237.059 207.728Z" fill="white"/>
<path d="M215.628 192.482L231.348 201.548C232.931 202.457 235.476 202.457 237.059 201.548L258.134 189.385C259.716 188.476 259.716 187 258.134 186.091L242.413 177.025C240.831 176.116 238.285 176.116 236.703 177.025L215.628 189.188C214.058 190.097 214.058 191.573 215.628 192.482Z" fill="#82ACDE"/>
<path d="M228.486 111.837L225.809 122.853L214.309 123.551L216.801 108.279L228.486 111.837Z" fill="#FFC0A7"/>
<path d="M239.63 103.522C239.63 103.522 240.883 108.2 240.409 108.45C239.934 108.713 237.903 108.463 237.903 108.463L239.63 103.522Z" fill="#F2AA8F"/>
<path d="M237.494 88.6311C239.354 90.8054 241.028 94.3765 239.736 103.1C238.312 112.667 236.544 113.774 235.107 114.696C233.26 115.895 225.809 115.263 223.712 113.734C221.193 111.902 217.303 106.091 216.379 100.359C215.298 93.6122 217.553 86.1406 222.512 84.8756C229.489 83.0966 235.925 86.7995 237.494 88.6311Z" fill="#FFC0A7"/>
<path d="M215.628 111.362C217.395 113.207 221.061 113.708 223.356 114.129C225.651 114.538 232.707 115.012 234.79 109.992C236.874 104.971 235.45 101.361 238.008 100.148C240.567 98.9359 243.125 98.1452 243.798 97.46C244.471 96.7879 244.484 88.5653 237.613 84.3353C230.742 80.1054 220.217 79.0116 213.293 87.7614C207.992 94.4687 210.194 105.709 215.628 111.362Z" fill="#454864"/>
<path d="M222.538 114.208C224.319 114.353 229.95 113.471 231.638 111.151C233.34 108.832 234.025 104.694 234.223 102.507C234.421 100.319 235.595 99.4498 237.283 98.9095C238.971 98.3692 242.743 96.5244 242.743 96.5244L242.769 95.4966C242.769 95.4966 245.605 95.3384 246.409 95.4834C247.201 95.6283 246.779 96.7879 244.761 97.829C242.756 98.8568 237.257 100.807 236.412 101.479C235.555 102.151 235.173 104.984 234.5 108.002C233.828 111.006 231.836 115.539 222.538 114.208Z" fill="#37394F"/>
<path d="M238.364 126.622L244.919 122.84C245.552 120.929 244.537 119.967 242.73 120.086C240.923 120.204 241.49 118.465 240.395 117.964C238.958 117.305 238.14 117.674 237.507 117.384C236.689 117.002 236.584 116.304 235.74 116.225C231.968 115.856 229.396 121.232 229.396 121.232L238.364 126.622Z" fill="#F2AA8F"/>
<path d="M193.616 175.062C193.616 175.062 222.749 160.632 227.84 158.274C232.931 155.915 240.883 152.555 245.117 152.555C248.19 152.555 251.276 155.572 251.434 159.012C251.592 162.451 250.999 166.615 250.999 166.615C250.999 166.615 238.72 170.792 226.561 172.848C214.401 174.904 193.616 175.062 193.616 175.062Z" fill="#37394F"/>
<path d="M196.781 166.734C196.795 172.703 196.214 178.923 198.707 183.298C201.12 187.527 214.691 197.806 227.418 195.671C235.727 194.274 260.389 182.929 260.389 182.929C260.389 182.929 272.338 178.554 272.404 175.431C272.483 170.832 272.166 164.348 261.734 164.625C252.239 164.876 224.187 170.726 224.187 170.726L196.781 166.734Z" fill="#454864"/>
<path d="M204.932 119.334C209.442 114.617 212.489 114.235 214.652 114.801C222.182 116.791 227.484 119.927 229.014 120.547C229.014 120.547 227.273 137.387 235.516 142.25V168.486C235.516 168.486 235.265 171.332 231.678 174.166C228.513 176.656 221.351 179.173 212.805 178.461C202.65 177.618 196.795 166.72 196.795 166.72C196.795 166.72 196.531 145.254 197.968 136.729C199.643 126.793 203.362 120.955 204.932 119.334Z" fill="#454864"/>
<path d="M235.502 143.515C235.502 143.515 230.517 139.601 229.001 134.423C229.001 134.423 229.594 142.487 235.502 146.572V143.515Z" fill="#37394F"/>
<path d="M281.649 155.902C283.6 156.165 286.713 155.137 288.23 153.872C288.23 153.872 290.524 149.418 293.347 149.787C293.347 149.787 293.848 147.903 292.687 147.271C291.527 146.638 291.026 146.822 290.564 146.177C290.089 145.531 290.036 144.279 287.966 144.279C287.095 144.279 287.227 143.66 285.104 143.41C282.994 143.159 280.91 148.022 279.367 148.022L281.649 155.902Z" fill="#FFC0A7"/>
<path d="M229.001 120.547C236.241 121.667 238.866 123.815 241.503 126.253C244.26 128.809 260.283 144.872 260.283 144.872L279.829 147.679C279.829 147.679 281.2 148.601 281.992 150.894C282.783 153.187 282.071 155.678 281.319 156.284C281.319 156.284 261.932 157.43 258.121 156.719C254.309 156.007 235.437 143.462 235.437 143.462C235.437 143.462 230.082 140.049 228.842 132.103C227.616 124.157 229.001 120.547 229.001 120.547Z" fill="#454864"/>
<path d="M211.632 190.163L181.641 226.691C181.311 226.73 180.982 226.757 180.639 226.757C179.399 226.757 178.173 226.48 177.223 225.953C177.21 225.94 151.928 211.352 151.928 211.352C151.928 211.352 151.163 210.904 150.213 210.364C149.264 209.824 148.499 207.61 148.499 205.422V199.269C148.499 186.394 155.37 174.508 166.514 168.078L196.715 150.657L228.856 169.198L211.632 190.163Z" fill="#82ACDE"/>
<g opacity="0.1">
<path opacity="0.1" d="M211.632 190.163L181.641 226.691C181.311 226.73 180.982 226.757 180.639 226.757C179.399 226.757 178.173 226.48 177.223 225.953C177.21 225.94 151.928 211.352 151.928 211.352C151.928 211.352 151.163 210.904 150.213 210.364C149.264 209.824 148.499 207.61 148.499 205.422V199.269C148.499 186.394 155.37 174.508 166.514 168.078L196.715 150.657L228.856 169.198L211.632 190.163Z" fill="black"/>
</g>
<path d="M201.305 202.747L228.856 169.198L196.715 150.657L166.527 168.078C162.558 170.371 159.142 173.362 156.372 176.827L201.305 202.747Z" fill="#82ACDE"/>
<path d="M228.856 196.145C228.856 198.333 228.091 200.547 227.141 201.087L225.427 202.075L184.068 225.94C183.356 226.335 182.525 226.585 181.641 226.691C181.312 226.73 180.982 226.757 180.639 226.757V217.809C180.639 204.935 187.51 193.049 198.667 186.618L202.083 184.655L228.856 169.198V196.145Z" fill="#82ACDE"/>
<g opacity="0.2">
<path opacity="0.2" d="M228.856 196.145C228.856 198.333 228.091 200.547 227.141 201.087L225.427 202.075L184.068 225.94C183.356 226.335 182.525 226.585 181.641 226.691C181.312 226.73 180.982 226.757 180.639 226.757V217.809C180.639 204.935 187.51 193.049 198.667 186.618L202.083 184.655L228.856 169.198V196.145Z" fill="black"/>
</g>
<path d="M237.718 241.344L253.914 241.291L277.072 227.916L254.375 244.309L237.296 244.546L237.718 241.344Z" fill="#E0E0E0"/>
<path d="M198.43 264.338C198.43 264.338 227.603 253.349 230.056 252.057C233.221 250.384 238.312 246.035 238.312 246.035C239.34 245.099 239.301 242.359 237.876 241.331C237.876 241.331 225.981 240.79 222.96 241.713C221.259 242.24 193.814 251.029 193.814 251.029L198.43 264.338Z" fill="#E0E0E0"/>
<path d="M197.124 252.057C194.711 249.988 192.284 250.845 191.691 253.968C191.11 257.091 192.587 261.294 195.001 263.363C197.414 265.432 199.841 264.576 200.435 261.453C201.015 258.33 199.538 254.126 197.124 252.057Z" fill="#454864"/>
</svg>
