<svg width="360" height="64" viewBox="0 0 360 64" fill="none" xmlns="http://www.w3.org/2000/svg">
<rect width="360" height="64" rx="32" fill="white"/>
<path d="M48.903 46.48V28.88H42.631V26.096H48.903V16.976H52.071V46.48H48.903ZM36.295 31.664C36.1457 32.0267 35.9217 32.3893 35.623 32.752C35.3457 33.1147 34.951 33.5733 34.439 34.128C33.7777 34.8533 33.0203 35.6427 32.167 36.496C31.3137 37.328 30.343 38.2453 29.255 39.248L27.175 37.104C29.1163 35.376 30.8017 33.7227 32.231 32.144C32.7217 31.5893 33.127 31.0773 33.447 30.608C33.767 30.1387 34.0123 29.68 34.183 29.232C34.375 28.7627 34.503 28.2933 34.567 27.824C34.6523 27.3333 34.695 26.8 34.695 26.224V19.12H37.895V26.224C37.895 26.864 37.9377 27.44 38.023 27.952C38.1083 28.4427 38.247 28.9227 38.439 29.392C38.631 29.84 38.887 30.2987 39.207 30.768C39.5483 31.216 39.9643 31.7067 40.455 32.24C41.1377 32.9867 41.8523 33.7227 42.599 34.448C43.3457 35.152 44.199 35.9307 45.159 36.784L43.111 38.96C42.0017 37.936 41.063 37.0507 40.295 36.304C39.5483 35.536 38.8657 34.8213 38.247 34.16C37.799 33.6693 37.3937 33.2107 37.031 32.784C36.6897 32.3573 36.455 31.984 36.327 31.664H36.295ZM77.804 46.48V16.976H80.972V46.48H77.804ZM58.668 38.736V19.376H61.804V26.352H69.26V19.376H72.396V38.736H58.668ZM61.804 36.016H69.26V29.04H61.804V36.016ZM112.721 39.856V42.544H85.649V39.856H112.721ZM99.185 28.144C99.0143 28.5067 98.609 28.9653 97.969 29.52C97.3503 30.0747 96.497 30.6933 95.409 31.376C94.4703 31.9733 93.4783 32.592 92.433 33.232C91.3877 33.8507 90.193 34.5333 88.849 35.28L87.281 32.784C88.561 32.08 89.7343 31.4187 90.801 30.8C91.8677 30.1813 92.9343 29.5093 94.001 28.784C94.7263 28.2933 95.3237 27.824 95.793 27.376C96.2623 26.928 96.625 26.4587 96.881 25.968C97.1583 25.4773 97.3397 24.944 97.425 24.368C97.5317 23.7707 97.585 23.0773 97.585 22.288V19.056H100.785V22.288C100.785 23.0773 100.828 23.7707 100.913 24.368C100.998 24.944 101.18 25.488 101.457 26C101.734 26.4907 102.129 26.9707 102.641 27.44C103.153 27.9093 103.846 28.432 104.721 29.008C105.724 29.6693 106.726 30.288 107.729 30.864C108.732 31.44 109.862 32.0693 111.121 32.752L109.585 35.216C108.39 34.5333 107.228 33.872 106.097 33.232C104.966 32.5707 103.921 31.9307 102.961 31.312C101.916 30.6507 101.073 30.0533 100.433 29.52C99.793 28.9653 99.3877 28.5067 99.217 28.144H99.185ZM136.31 27.632C136.139 27.9947 135.734 28.4533 135.094 29.008C134.475 29.5627 133.622 30.1813 132.534 30.864C131.595 31.4613 130.603 32.08 129.558 32.72C128.513 33.3387 127.318 34.0213 125.974 34.768L124.406 32.272C125.686 31.568 126.859 30.9067 127.926 30.288C128.993 29.6693 130.059 28.9973 131.126 28.272C131.851 27.7813 132.449 27.312 132.918 26.864C133.387 26.416 133.75 25.9467 134.006 25.456C134.283 24.9653 134.465 24.432 134.55 23.856C134.657 23.2587 134.71 22.5653 134.71 21.776V18.896H137.91V21.776C137.91 22.5653 137.953 23.2587 138.038 23.856C138.123 24.432 138.305 24.976 138.582 25.488C138.859 25.9787 139.254 26.4587 139.766 26.928C140.278 27.3973 140.971 27.92 141.846 28.496C142.849 29.1573 143.851 29.776 144.854 30.352C145.857 30.928 146.987 31.5573 148.246 32.24L146.71 34.704C145.515 34.0213 144.353 33.36 143.222 32.72C142.091 32.0587 141.046 31.4187 140.086 30.8C139.041 30.1387 138.198 29.5413 137.558 29.008C136.918 28.4533 136.513 27.9947 136.342 27.632H136.31ZM149.846 39.856V42.544H122.774V39.856H134.71V33.52H137.878V39.856H149.846ZM177.531 46.48H174.427V30.032H170.875V45.04H167.771V17.584H170.875V27.28H174.427V16.976H177.531V46.48ZM161.147 22.576H152.955V19.856H164.251V25.872C164.251 26.832 164.208 27.7067 164.123 28.496C164.038 29.2853 163.867 30.0427 163.611 30.768C163.376 31.472 163.024 32.1653 162.555 32.848C162.086 33.5307 161.467 34.2453 160.699 34.992C159.931 35.7173 158.982 36.5067 157.851 37.36C156.742 38.2133 155.419 39.152 153.883 40.176L152.123 37.712C153.616 36.752 154.875 35.8773 155.899 35.088C156.944 34.2987 157.798 33.5733 158.459 32.912C159.142 32.2293 159.664 31.5893 160.027 30.992C160.39 30.3733 160.646 29.776 160.795 29.2C160.966 28.6027 161.062 27.9947 161.083 27.376C161.126 26.736 161.147 26.0533 161.147 25.328V22.576ZM202.528 46.48V28.88H196.256V26.096H202.528V16.976H205.696V46.48H202.528ZM189.92 31.664C189.771 32.0267 189.547 32.3893 189.248 32.752C188.971 33.1147 188.576 33.5733 188.064 34.128C187.403 34.8533 186.645 35.6427 185.792 36.496C184.939 37.328 183.968 38.2453 182.88 39.248L180.8 37.104C182.741 35.376 184.427 33.7227 185.856 32.144C186.347 31.5893 186.752 31.0773 187.072 30.608C187.392 30.1387 187.637 29.68 187.808 29.232C188 28.7627 188.128 28.2933 188.192 27.824C188.277 27.3333 188.32 26.8 188.32 26.224V19.12H191.52V26.224C191.52 26.864 191.563 27.44 191.648 27.952C191.733 28.4427 191.872 28.9227 192.064 29.392C192.256 29.84 192.512 30.2987 192.832 30.768C193.173 31.216 193.589 31.7067 194.08 32.24C194.763 32.9867 195.477 33.7227 196.224 34.448C196.971 35.152 197.824 35.9307 198.784 36.784L196.736 38.96C195.627 37.936 194.688 37.0507 193.92 36.304C193.173 35.536 192.491 34.8213 191.872 34.16C191.424 33.6693 191.019 33.2107 190.656 32.784C190.315 32.3573 190.08 31.984 189.952 31.664H189.92ZM233.189 22.384H222.789V35.952H224.485C226.576 35.952 228.528 35.888 230.341 35.76C232.176 35.6107 234 35.3973 235.813 35.12L236.229 37.776C234.33 38.1173 232.378 38.3627 230.373 38.512C228.389 38.64 226.202 38.704 223.813 38.704H219.621V19.632H233.189V22.384ZM245.797 30.384H241.253V46.48H238.085V16.976H241.253V27.632H245.797V30.384ZM260.81 17.52C262.261 17.52 263.573 17.648 264.746 17.904C265.919 18.16 266.911 18.5333 267.722 19.024C268.554 19.4933 269.183 20.0693 269.61 20.752C270.058 21.4133 270.282 22.1707 270.282 23.024V24.048C270.282 24.9013 270.058 25.6693 269.61 26.352C269.183 27.0133 268.554 27.5893 267.722 28.08C266.911 28.5493 265.919 28.912 264.746 29.168C263.573 29.424 262.261 29.552 260.81 29.552C259.359 29.552 258.047 29.424 256.874 29.168C255.701 28.912 254.698 28.5493 253.866 28.08C253.055 27.5893 252.426 27.0133 251.978 26.352C251.551 25.6693 251.338 24.9013 251.338 24.048V23.024C251.338 22.1707 251.551 21.4133 251.978 20.752C252.426 20.0693 253.055 19.4933 253.866 19.024C254.698 18.5333 255.701 18.16 256.874 17.904C258.047 17.648 259.359 17.52 260.81 17.52ZM259.594 40.112V34.512H247.274V31.824H274.346V34.512H262.794V40.112H259.594ZM254.346 43.408H271.018V46.16H251.178V37.456H254.346V43.408ZM260.81 26.928C261.77 26.928 262.634 26.8533 263.402 26.704C264.191 26.5547 264.863 26.352 265.418 26.096C265.973 25.8187 266.399 25.4987 266.698 25.136C267.018 24.7733 267.178 24.368 267.178 23.92V23.152C267.178 22.704 267.018 22.2987 266.698 21.936C266.399 21.5733 265.973 21.264 265.418 21.008C264.863 20.7307 264.191 20.5173 263.402 20.368C262.634 20.2187 261.77 20.144 260.81 20.144C259.85 20.144 258.975 20.2187 258.186 20.368C257.418 20.5173 256.757 20.7307 256.202 21.008C255.647 21.264 255.21 21.5733 254.89 21.936C254.591 22.2987 254.442 22.704 254.442 23.152V23.92C254.442 24.368 254.591 24.7733 254.89 25.136C255.21 25.4987 255.647 25.8187 256.202 26.096C256.757 26.352 257.418 26.5547 258.186 26.704C258.975 26.8533 259.85 26.928 260.81 26.928ZM277.839 31.856V18.32H280.943V22.8H288.527V18.32H291.631V31.856H277.839ZM299.759 35.344V38.064H284.815V43.728H300.303V46.448H281.647V35.344H299.759ZM303.887 26.608H299.695V33.904H296.559V16.976H299.695V23.856H303.887V26.608ZM280.943 29.168H288.527V25.456H280.943V29.168ZM306.772 37.52C308.479 36.5173 309.919 35.632 311.092 34.864C312.287 34.0747 313.279 33.36 314.068 32.72C314.857 32.0587 315.476 31.4507 315.924 30.896C316.372 30.32 316.703 29.7547 316.916 29.2C317.151 28.624 317.289 28.0267 317.332 27.408C317.396 26.7893 317.428 26.096 317.428 25.328V22.416H307.348V19.696H320.564V25.36C320.564 26.32 320.532 27.1947 320.468 27.984C320.425 28.752 320.276 29.488 320.02 30.192C319.764 30.8747 319.38 31.5573 318.868 32.24C318.377 32.9013 317.673 33.616 316.756 34.384C315.86 35.152 314.729 35.9947 313.364 36.912C312.02 37.8293 310.377 38.8747 308.436 40.048L306.772 37.52ZM326.804 46.48V16.976H329.972V46.48H326.804Z" fill="#0E48C4"/>
</svg>
