<svg width="1920" height="421" viewBox="0 0 1920 421" fill="none" xmlns="http://www.w3.org/2000/svg">
<g clip-path="url(#clip0)">
<path d="M1537.59 254H1668L1727.27 242.26C1733.77 240.97 1737.81 236.2 1739 230.81V224.15C1738.13 220.25 1735.68 216.63 1731.51 214.38C1731.44 214.34 1731.39 214.31 1731.32 214.27L1611.41 157H1481L1421.73 168.74C1415.23 170.03 1411.19 174.8 1410 180.19V186.85C1410.87 190.75 1413.32 194.37 1417.49 196.62C1417.56 196.66 1417.61 196.69 1417.68 196.73L1537.59 254Z" fill="#0E3FE8" fill-opacity="0.16"/>
<path d="M1668 361V360.61L1727.27 348.87C1733.77 347.58 1737.81 342.81 1739 337.42V240.81C1737.82 246.2 1733.77 250.98 1727.27 252.26L1668 264H1528.42H-322V361H1668Z" fill="url(#paint0_radial)"/>
<path d="M1481 50V50.39L1421.73 62.13C1415.23 63.42 1411.19 68.19 1410 73.58V170.19C1411.18 164.8 1415.23 160.02 1421.73 158.74L1481 147H1620.58H3471V50H1481Z" fill="url(#paint1_linear)"/>
<rect x="304" y="144" width="345" height="87" rx="43.5" fill="#163AB8"/>
<path d="M370.078 179.708H374.226V183.448H370.078V193.784H365.794V171.276H370.078V179.708ZM354.71 198.884H370.826V202.556H350.392V192.016H354.71V198.884ZM353.792 188.956C352.545 188.956 351.423 188.763 350.426 188.378C349.429 187.97 348.579 187.426 347.876 186.746C347.173 186.066 346.629 185.284 346.244 184.4C345.881 183.516 345.7 182.598 345.7 181.646V179.742C345.7 178.79 345.881 177.872 346.244 176.988C346.629 176.104 347.173 175.322 347.876 174.642C348.579 173.962 349.429 173.429 350.426 173.044C351.423 172.636 352.545 172.432 353.792 172.432C355.039 172.432 356.161 172.636 357.158 173.044C358.155 173.429 359.005 173.962 359.708 174.642C360.411 175.322 360.943 176.104 361.306 176.988C361.691 177.872 361.884 178.79 361.884 179.742V181.646C361.884 182.598 361.691 183.516 361.306 184.4C360.943 185.284 360.411 186.066 359.708 186.746C359.005 187.426 358.155 187.97 357.158 188.378C356.161 188.763 355.039 188.956 353.792 188.956ZM353.792 176.138C353.157 176.138 352.591 176.251 352.092 176.478C351.593 176.682 351.163 176.965 350.8 177.328C350.46 177.691 350.199 178.11 350.018 178.586C349.837 179.062 349.746 179.549 349.746 180.048V181.34C349.746 181.861 349.837 182.36 350.018 182.836C350.199 183.289 350.46 183.697 350.8 184.06C351.163 184.423 351.593 184.717 352.092 184.944C352.591 185.148 353.157 185.25 353.792 185.25C354.427 185.25 354.993 185.148 355.492 184.944C355.991 184.717 356.41 184.423 356.75 184.06C357.113 183.697 357.385 183.289 357.566 182.836C357.747 182.36 357.838 181.861 357.838 181.34V180.048C357.838 179.549 357.747 179.062 357.566 178.586C357.385 178.11 357.113 177.691 356.75 177.328C356.41 176.965 355.991 176.682 355.492 176.478C354.993 176.251 354.427 176.138 353.792 176.138ZM404.899 195.28V198.918H375.931V195.28H404.899ZM379.637 189.432V173.894H400.785V177.532H383.921V185.794H401.193V189.432H379.637ZM423.503 191.03V195.314H435.845V198.918H406.877V195.314H419.219V191.03H410.753V180.49H427.515V177.124H410.651V173.52H431.799V184.06H415.037V187.426H432.513V191.03H423.503ZM447.58 195.45C446.129 195.45 444.883 195.223 443.84 194.77C442.82 194.317 441.981 193.682 441.324 192.866C440.667 192.05 440.179 191.087 439.862 189.976C439.567 188.865 439.42 187.641 439.42 186.304V182.53C439.42 181.215 439.567 180.003 439.862 178.892C440.179 177.759 440.667 176.784 441.324 175.968C441.981 175.152 442.82 174.517 443.84 174.064C444.883 173.611 446.129 173.384 447.58 173.384C449.031 173.384 450.266 173.611 451.286 174.064C452.329 174.517 453.179 175.152 453.836 175.968C454.493 176.784 454.969 177.759 455.264 178.892C455.581 180.003 455.74 181.215 455.74 182.53V186.304C455.74 187.641 455.581 188.865 455.264 189.976C454.969 191.087 454.493 192.05 453.836 192.866C453.179 193.682 452.329 194.317 451.286 194.77C450.266 195.223 449.031 195.45 447.58 195.45ZM447.58 177.158C446.129 177.158 445.087 177.657 444.452 178.654C443.84 179.651 443.534 181.113 443.534 183.04V185.794C443.534 187.721 443.84 189.183 444.452 190.18C445.087 191.177 446.129 191.676 447.58 191.676C449.031 191.676 450.062 191.177 450.674 190.18C451.309 189.183 451.626 187.721 451.626 185.794V183.04C451.626 181.113 451.309 179.651 450.674 178.654C450.062 177.657 449.031 177.158 447.58 177.158ZM464.444 202.896H460.126V171.276H464.444V202.896ZM497.735 195.28V198.918H468.767V195.28H497.735ZM472.473 189.432V173.894H493.621V177.532H476.757V185.794H494.029V189.432H472.473ZM515.319 187.188C514.117 187.188 513.063 187.007 512.157 186.644C511.25 186.259 510.502 185.76 509.913 185.148C509.323 184.513 508.881 183.799 508.587 183.006C508.292 182.19 508.145 181.351 508.145 180.49V179.198C508.145 178.337 508.292 177.509 508.587 176.716C508.881 175.9 509.323 175.186 509.913 174.574C510.502 173.939 511.25 173.441 512.157 173.078C513.063 172.693 514.117 172.5 515.319 172.5C516.52 172.5 517.563 172.693 518.447 173.078C519.353 173.441 520.101 173.939 520.691 174.574C521.303 175.186 521.756 175.9 522.051 176.716C522.345 177.509 522.493 178.337 522.493 179.198V180.49C522.493 181.351 522.345 182.19 522.051 183.006C521.756 183.799 521.303 184.513 520.691 185.148C520.101 185.76 519.353 186.259 518.447 186.644C517.563 187.007 516.52 187.188 515.319 187.188ZM515.319 176.002C514.253 176.002 513.449 176.342 512.905 177.022C512.383 177.702 512.123 178.507 512.123 179.436V180.252C512.123 181.181 512.383 181.986 512.905 182.666C513.449 183.346 514.253 183.686 515.319 183.686C516.384 183.686 517.177 183.346 517.699 182.666C518.243 181.986 518.515 181.181 518.515 180.252V179.436C518.515 178.507 518.243 177.702 517.699 177.022C517.177 176.342 516.384 176.002 515.319 176.002ZM535.209 189.16V202.93H514.673V189.16H518.923V192.764H530.959V189.16H535.209ZM528.545 177.634H531.129V171.276H535.209V187.732H531.129V181.306H528.545V187.664H524.499V171.684H528.545V177.634ZM530.959 199.36V196.3H518.923V199.36H530.959ZM573.906 188.48V197.456H558.232V199.802H574.858V203.202H554.084V194.226H569.758V191.88H553.914V188.48H573.906ZM557.28 181.646C557.167 181.941 556.895 182.303 556.464 182.734C556.056 183.165 555.557 183.618 554.968 184.094C554.243 184.683 553.495 185.295 552.724 185.93C551.953 186.542 551.058 187.211 550.038 187.936L547.556 184.808C548.599 184.083 549.494 183.425 550.242 182.836C551.013 182.224 551.783 181.589 552.554 180.932C553.415 180.184 554.027 179.413 554.39 178.62C554.753 177.827 554.934 176.92 554.934 175.9V172.058H559.286V175.832C559.286 176.376 559.32 176.863 559.388 177.294C559.456 177.725 559.581 178.133 559.762 178.518C559.943 178.881 560.181 179.232 560.476 179.572C560.793 179.912 561.19 180.275 561.666 180.66C561.938 180.864 562.255 181.102 562.618 181.374C563.003 181.646 563.4 181.929 563.808 182.224C564.216 182.519 564.635 182.813 565.066 183.108C565.519 183.38 565.95 183.652 566.358 183.924L563.978 186.882C562.55 185.953 561.122 184.955 559.694 183.89C559.014 183.369 558.47 182.938 558.062 182.598C557.677 182.235 557.427 181.918 557.314 181.646H557.28ZM569.622 180.014H564.046V176.376H569.622V171.276H573.906V187.052H569.622V180.014ZM579.895 175.628H586.559V171.446H590.911V175.628H597.269V179.3H590.911V181.918C590.911 182.575 590.957 183.176 591.047 183.72C591.138 184.264 591.274 184.785 591.455 185.284C591.659 185.76 591.92 186.225 592.237 186.678C592.555 187.131 592.94 187.607 593.393 188.106C593.688 188.446 594.028 188.82 594.413 189.228C594.821 189.613 595.241 190.021 595.671 190.452C596.102 190.86 596.533 191.279 596.963 191.71C597.417 192.118 597.859 192.515 598.289 192.9L595.535 195.756C594.81 195.076 594.085 194.385 593.359 193.682C592.634 192.957 591.954 192.265 591.319 191.608C590.639 190.905 590.073 190.305 589.619 189.806C589.189 189.285 588.917 188.888 588.803 188.616H588.735C588.577 188.933 588.248 189.387 587.749 189.976C587.251 190.565 586.718 191.155 586.151 191.744C585.517 192.401 584.859 193.081 584.179 193.784C583.499 194.464 582.683 195.235 581.731 196.096L578.909 193.206C580.768 191.551 582.445 189.908 583.941 188.276C584.44 187.709 584.859 187.188 585.199 186.712C585.539 186.236 585.811 185.76 586.015 185.284C586.219 184.785 586.355 184.275 586.423 183.754C586.514 183.21 586.559 182.598 586.559 181.918V179.3H579.895V175.628ZM605.225 202.896H600.907V171.276H605.225V202.896Z" fill="white"/>
<rect x="719" y="144" width="283" height="87" rx="43.5" fill="#163AB8"/>
<path d="M785.078 182.496H789.43V186.236H785.078V202.896H780.76V171.276H785.078V182.496ZM768.996 195.45C767.568 195.45 766.344 195.223 765.324 194.77C764.304 194.317 763.454 193.682 762.774 192.866C762.117 192.05 761.629 191.087 761.312 189.976C761.017 188.865 760.87 187.641 760.87 186.304V182.53C760.87 181.215 761.017 180.003 761.312 178.892C761.629 177.759 762.117 176.784 762.774 175.968C763.454 175.152 764.304 174.517 765.324 174.064C766.344 173.611 767.568 173.384 768.996 173.384C770.424 173.384 771.648 173.611 772.668 174.064C773.688 174.517 774.527 175.152 775.184 175.968C775.864 176.784 776.351 177.759 776.646 178.892C776.963 180.003 777.122 181.215 777.122 182.53V186.304C777.122 187.641 776.963 188.865 776.646 189.976C776.351 191.087 775.864 192.05 775.184 192.866C774.527 193.682 773.688 194.317 772.668 194.77C771.648 195.223 770.424 195.45 768.996 195.45ZM768.996 177.158C767.568 177.158 766.537 177.657 765.902 178.654C765.29 179.651 764.984 181.113 764.984 183.04V185.794C764.984 187.721 765.29 189.183 765.902 190.18C766.537 191.177 767.568 191.676 768.996 191.676C770.424 191.676 771.444 191.177 772.056 190.18C772.691 189.183 773.008 187.721 773.008 185.794V183.04C773.008 181.113 772.691 179.651 772.056 178.654C771.444 177.657 770.424 177.158 768.996 177.158ZM800.689 195.45C799.239 195.45 797.992 195.223 796.949 194.77C795.929 194.317 795.091 193.682 794.433 192.866C793.776 192.05 793.289 191.087 792.971 189.976C792.677 188.865 792.529 187.641 792.529 186.304V182.53C792.529 181.215 792.677 180.003 792.971 178.892C793.289 177.759 793.776 176.784 794.433 175.968C795.091 175.152 795.929 174.517 796.949 174.064C797.992 173.611 799.239 173.384 800.689 173.384C802.14 173.384 803.375 173.611 804.395 174.064C805.438 174.517 806.288 175.152 806.945 175.968C807.603 176.784 808.079 177.759 808.373 178.892C808.691 180.003 808.849 181.215 808.849 182.53V186.304C808.849 187.641 808.691 188.865 808.373 189.976C808.079 191.087 807.603 192.05 806.945 192.866C806.288 193.682 805.438 194.317 804.395 194.77C803.375 195.223 802.14 195.45 800.689 195.45ZM800.689 177.158C799.239 177.158 798.196 177.657 797.561 178.654C796.949 179.651 796.643 181.113 796.643 183.04V185.794C796.643 187.721 796.949 189.183 797.561 190.18C798.196 191.177 799.239 191.676 800.689 191.676C802.14 191.676 803.171 191.177 803.783 190.18C804.418 189.183 804.735 187.721 804.735 185.794V183.04C804.735 181.113 804.418 179.651 803.783 178.654C803.171 177.657 802.14 177.158 800.689 177.158ZM817.553 202.896H813.235V171.276H817.553V202.896ZM847.343 172.398V175.934H843.705V181.612H847.547V185.148H838.503V188.072H850.845V191.676H821.877V188.072H834.219V185.148H825.175V181.612H829.017V175.934H825.379V172.398H847.343ZM830.241 198.918H847.377V202.556H825.957V193.444H830.241V198.918ZM833.233 181.612H839.489V175.934H833.233V181.612ZM868.428 187.188C867.227 187.188 866.173 187.007 865.266 186.644C864.359 186.259 863.611 185.76 863.022 185.148C862.433 184.513 861.991 183.799 861.696 183.006C861.401 182.19 861.254 181.351 861.254 180.49V179.198C861.254 178.337 861.401 177.509 861.696 176.716C861.991 175.9 862.433 175.186 863.022 174.574C863.611 173.939 864.359 173.441 865.266 173.078C866.173 172.693 867.227 172.5 868.428 172.5C869.629 172.5 870.672 172.693 871.556 173.078C872.463 173.441 873.211 173.939 873.8 174.574C874.412 175.186 874.865 175.9 875.16 176.716C875.455 177.509 875.602 178.337 875.602 179.198V180.49C875.602 181.351 875.455 182.19 875.16 183.006C874.865 183.799 874.412 184.513 873.8 185.148C873.211 185.76 872.463 186.259 871.556 186.644C870.672 187.007 869.629 187.188 868.428 187.188ZM868.428 176.002C867.363 176.002 866.558 176.342 866.014 177.022C865.493 177.702 865.232 178.507 865.232 179.436V180.252C865.232 181.181 865.493 181.986 866.014 182.666C866.558 183.346 867.363 183.686 868.428 183.686C869.493 183.686 870.287 183.346 870.808 182.666C871.352 181.986 871.624 181.181 871.624 180.252V179.436C871.624 178.507 871.352 177.702 870.808 177.022C870.287 176.342 869.493 176.002 868.428 176.002ZM888.318 189.16V202.93H867.782V189.16H872.032V192.764H884.068V189.16H888.318ZM881.654 177.634H884.238V171.276H888.318V187.732H884.238V181.306H881.654V187.664H877.608V171.684H881.654V177.634ZM884.068 199.36V196.3H872.032V199.36H884.068ZM927.015 188.48V197.456H911.341V199.802H927.967V203.202H907.193V194.226H922.867V191.88H907.023V188.48H927.015ZM910.389 181.646C910.276 181.941 910.004 182.303 909.573 182.734C909.165 183.165 908.667 183.618 908.077 184.094C907.352 184.683 906.604 185.295 905.833 185.93C905.063 186.542 904.167 187.211 903.147 187.936L900.665 184.808C901.708 184.083 902.603 183.425 903.351 182.836C904.122 182.224 904.893 181.589 905.663 180.932C906.525 180.184 907.137 179.413 907.499 178.62C907.862 177.827 908.043 176.92 908.043 175.9V172.058H912.395V175.832C912.395 176.376 912.429 176.863 912.497 177.294C912.565 177.725 912.69 178.133 912.871 178.518C913.053 178.881 913.291 179.232 913.585 179.572C913.903 179.912 914.299 180.275 914.775 180.66C915.047 180.864 915.365 181.102 915.727 181.374C916.113 181.646 916.509 181.929 916.917 182.224C917.325 182.519 917.745 182.813 918.175 183.108C918.629 183.38 919.059 183.652 919.467 183.924L917.087 186.882C915.659 185.953 914.231 184.955 912.803 183.89C912.123 183.369 911.579 182.938 911.171 182.598C910.786 182.235 910.537 181.918 910.423 181.646H910.389ZM922.731 180.014H917.155V176.376H922.731V171.276H927.015V187.052H922.731V180.014ZM933.005 175.628H939.669V171.446H944.021V175.628H950.379V179.3H944.021V181.918C944.021 182.575 944.066 183.176 944.157 183.72C944.247 184.264 944.383 184.785 944.565 185.284C944.769 185.76 945.029 186.225 945.347 186.678C945.664 187.131 946.049 187.607 946.503 188.106C946.797 188.446 947.137 188.82 947.523 189.228C947.931 189.613 948.35 190.021 948.781 190.452C949.211 190.86 949.642 191.279 950.073 191.71C950.526 192.118 950.968 192.515 951.399 192.9L948.645 195.756C947.919 195.076 947.194 194.385 946.469 193.682C945.743 192.957 945.063 192.265 944.429 191.608C943.749 190.905 943.182 190.305 942.729 189.806C942.298 189.285 942.026 188.888 941.913 188.616H941.845C941.686 188.933 941.357 189.387 940.859 189.976C940.36 190.565 939.827 191.155 939.261 191.744C938.626 192.401 937.969 193.081 937.289 193.784C936.609 194.464 935.793 195.235 934.841 196.096L932.019 193.206C933.877 191.551 935.555 189.908 937.051 188.276C937.549 187.709 937.969 187.188 938.309 186.712C938.649 186.236 938.921 185.76 939.125 185.284C939.329 184.785 939.465 184.275 939.533 183.754C939.623 183.21 939.669 182.598 939.669 181.918V179.3H933.005V175.628ZM958.335 202.896H954.017V171.276H958.335V202.896Z" fill="white"/>
<rect x="1072" y="144" width="283" height="87" rx="43.5" fill="#163AB8"/>
<path d="M1120.09 187.188C1118.89 187.188 1117.84 187.007 1116.93 186.644C1116.02 186.259 1115.28 185.76 1114.69 185.148C1114.1 184.513 1113.65 183.799 1113.36 183.006C1113.07 182.19 1112.92 181.351 1112.92 180.49V179.198C1112.92 178.337 1113.07 177.509 1113.36 176.716C1113.65 175.9 1114.1 175.186 1114.69 174.574C1115.28 173.939 1116.02 173.441 1116.93 173.078C1117.84 172.693 1118.89 172.5 1120.09 172.5C1121.29 172.5 1122.34 172.693 1123.22 173.078C1124.13 173.441 1124.87 173.939 1125.46 174.574C1126.08 175.186 1126.53 175.9 1126.82 176.716C1127.12 177.509 1127.27 178.337 1127.27 179.198V180.49C1127.27 181.351 1127.12 182.19 1126.82 183.006C1126.53 183.799 1126.08 184.513 1125.46 185.148C1124.87 185.76 1124.13 186.259 1123.22 186.644C1122.34 187.007 1121.29 187.188 1120.09 187.188ZM1120.09 176.002C1119.03 176.002 1118.22 176.342 1117.68 177.022C1117.16 177.702 1116.9 178.507 1116.9 179.436V180.252C1116.9 181.181 1117.16 181.986 1117.68 182.666C1118.22 183.346 1119.03 183.686 1120.09 183.686C1121.16 183.686 1121.95 183.346 1122.47 182.666C1123.02 181.986 1123.29 181.181 1123.29 180.252V179.436C1123.29 178.507 1123.02 177.702 1122.47 177.022C1121.95 176.342 1121.16 176.002 1120.09 176.002ZM1139.98 189.16V202.93H1119.45V189.16H1123.7V192.764H1135.73V189.16H1139.98ZM1133.32 177.634H1135.9V171.276H1139.98V187.732H1135.9V181.306H1133.32V187.664H1129.27V171.684H1133.32V177.634ZM1135.73 199.36V196.3H1123.7V199.36H1135.73ZM1177.52 182.802H1181.88V186.542H1177.52V202.896H1173.21V171.276H1177.52V182.802ZM1153.15 192.968C1154.85 191.948 1156.3 191.041 1157.5 190.248C1158.7 189.455 1159.7 188.729 1160.49 188.072C1161.31 187.392 1161.94 186.757 1162.39 186.168C1162.85 185.556 1163.19 184.944 1163.41 184.332C1163.66 183.72 1163.81 183.074 1163.86 182.394C1163.92 181.714 1163.96 180.955 1163.96 180.116V177.838H1153.72V174.132H1168.28V180.32C1168.28 181.476 1168.22 182.519 1168.11 183.448C1167.99 184.355 1167.77 185.216 1167.43 186.032C1167.11 186.825 1166.65 187.596 1166.07 188.344C1165.5 189.092 1164.74 189.874 1163.79 190.69C1162.84 191.483 1161.67 192.345 1160.29 193.274C1158.93 194.181 1157.3 195.212 1155.42 196.368L1153.15 192.968ZM1193.13 195.45C1191.68 195.45 1190.44 195.223 1189.39 194.77C1188.37 194.317 1187.54 193.682 1186.88 192.866C1186.22 192.05 1185.73 191.087 1185.42 189.976C1185.12 188.865 1184.97 187.641 1184.97 186.304V182.53C1184.97 181.215 1185.12 180.003 1185.42 178.892C1185.73 177.759 1186.22 176.784 1186.88 175.968C1187.54 175.152 1188.37 174.517 1189.39 174.064C1190.44 173.611 1191.68 173.384 1193.13 173.384C1194.59 173.384 1195.82 173.611 1196.84 174.064C1197.88 174.517 1198.73 175.152 1199.39 175.968C1200.05 176.784 1200.52 177.759 1200.82 178.892C1201.14 180.003 1201.29 181.215 1201.29 182.53V186.304C1201.29 187.641 1201.14 188.865 1200.82 189.976C1200.52 191.087 1200.05 192.05 1199.39 192.866C1198.73 193.682 1197.88 194.317 1196.84 194.77C1195.82 195.223 1194.59 195.45 1193.13 195.45ZM1193.13 177.158C1191.68 177.158 1190.64 177.657 1190.01 178.654C1189.39 179.651 1189.09 181.113 1189.09 183.04V185.794C1189.09 187.721 1189.39 189.183 1190.01 190.18C1190.64 191.177 1191.68 191.676 1193.13 191.676C1194.59 191.676 1195.62 191.177 1196.23 190.18C1196.86 189.183 1197.18 187.721 1197.18 185.794V183.04C1197.18 181.113 1196.86 179.651 1196.23 178.654C1195.62 177.657 1194.59 177.158 1193.13 177.158ZM1210 202.896H1205.68V171.276H1210V202.896ZM1243.29 195.28V198.918H1214.32V195.28H1243.29ZM1218.03 189.432V173.894H1239.18V177.532H1222.31V185.794H1239.58V189.432H1218.03ZM1278.86 182.36H1283.21V186.1H1278.86V202.896H1274.54V171.276H1278.86V182.36ZM1255.37 173.996H1269.99V177.702H1259.68V190.996H1261.83C1263.46 190.996 1265.2 190.939 1267.06 190.826C1268.92 190.713 1270.65 190.543 1272.26 190.316L1272.74 193.988C1271.95 194.124 1271.07 194.237 1270.12 194.328C1269.17 194.419 1268.17 194.498 1267.13 194.566C1266.09 194.611 1265.03 194.645 1263.97 194.668C1262.9 194.691 1261.85 194.702 1260.81 194.702H1255.37V173.996ZM1313.68 186.95V190.554H1301.81V195.994H1297.53V190.554H1284.71V186.95H1313.68ZM1293.08 198.918H1310.25V202.556H1288.79V193.376H1293.08V198.918ZM1299.2 185.114C1297.68 185.114 1296.28 184.978 1295.01 184.706C1293.75 184.434 1292.65 184.049 1291.72 183.55C1290.81 183.029 1290.1 182.394 1289.57 181.646C1289.08 180.875 1288.83 180.014 1288.83 179.062V177.77C1288.83 176.818 1289.08 175.968 1289.57 175.22C1290.1 174.449 1290.81 173.815 1291.72 173.316C1292.65 172.795 1293.75 172.398 1295.01 172.126C1296.28 171.854 1297.68 171.718 1299.2 171.718C1300.72 171.718 1302.11 171.854 1303.38 172.126C1304.65 172.398 1305.74 172.795 1306.64 173.316C1307.57 173.815 1308.29 174.449 1308.78 175.22C1309.31 175.968 1309.57 176.818 1309.57 177.77V179.062C1309.57 180.014 1309.31 180.875 1308.78 181.646C1308.29 182.394 1307.57 183.029 1306.64 183.55C1305.74 184.049 1304.65 184.434 1303.38 184.706C1302.11 184.978 1300.72 185.114 1299.2 185.114ZM1299.2 175.186C1297.27 175.186 1295.76 175.469 1294.67 176.036C1293.61 176.58 1293.08 177.237 1293.08 178.008V178.824C1293.08 179.595 1293.61 180.263 1294.67 180.83C1295.76 181.374 1297.27 181.646 1299.2 181.646C1301.12 181.646 1302.62 181.374 1303.68 180.83C1304.77 180.263 1305.32 179.595 1305.32 178.824V178.008C1305.32 177.237 1304.77 176.58 1303.68 176.036C1302.62 175.469 1301.12 175.186 1299.2 175.186Z" fill="white"/>
</g>
<defs>
<radialGradient id="paint0_radial" cx="0" cy="0" r="1" gradientUnits="userSpaceOnUse" gradientTransform="translate(1714 301) rotate(-180) scale(2070 26632.6)">
<stop offset="0.490675" stop-color="#163AB8"/>
<stop offset="0.732703" stop-color="#163AB8" stop-opacity="0"/>
</radialGradient>
<linearGradient id="paint1_linear" x1="2320" y1="50" x2="1392" y2="29.0002" gradientUnits="userSpaceOnUse">
<stop stop-color="#173BB9" stop-opacity="0"/>
<stop offset="0.875" stop-color="#173BB9"/>
</linearGradient>
<clipPath id="clip0">
<rect width="3793" height="421" fill="white" transform="translate(-462)"/>
</clipPath>
</defs>
</svg>
