<svg width="375" height="198" viewBox="0 0 375 198" fill="none" xmlns="http://www.w3.org/2000/svg">
<g clip-path="url(#clip0)">
<path d="M254.324 119.458H315.455L343.238 113.937C346.285 113.33 348.179 111.087 348.737 108.552V105.42C348.329 103.585 347.181 101.883 345.226 100.825C345.193 100.806 345.17 100.792 345.137 100.773L288.928 73.8384H227.797L200.014 79.3598C196.967 79.9665 195.073 82.2099 194.515 84.7448V87.8771C194.923 89.7113 196.072 91.4138 198.026 92.472C198.059 92.4908 198.083 92.5049 198.115 92.5237L254.324 119.458Z" fill="#0E3FE8" fill-opacity="0.16"/>
<path d="M315.455 169.782V169.598L343.238 164.077C346.285 163.47 348.179 161.227 348.737 158.692V113.255C348.184 115.79 346.285 118.038 343.238 118.64L315.455 124.162H250.026H-617.374V169.782H315.455Z" fill="url(#paint0_radial)"/>
<path d="M227.797 23.5154V23.6988L200.014 29.2202C196.967 29.8269 195.073 32.0703 194.515 34.6053V80.0418C195.069 77.5068 196.967 75.2588 200.014 74.6568L227.797 69.1353H293.226H1160.63V23.5154H227.797Z" fill="url(#paint1_linear)"/>
</g>
<defs>
<radialGradient id="paint0_radial" cx="0" cy="0" r="1" gradientUnits="userSpaceOnUse" gradientTransform="translate(337.018 141.563) rotate(-180) scale(970.33 12525.5)">
<stop offset="0.490675" stop-color="#163AB8"/>
<stop offset="0.732703" stop-color="#163AB8" stop-opacity="0"/>
</radialGradient>
<linearGradient id="paint1_linear" x1="621.085" y1="23.5154" x2="186.076" y2="13.704" gradientUnits="userSpaceOnUse">
<stop stop-color="#173BB9" stop-opacity="0"/>
<stop offset="0.875" stop-color="#173BB9"/>
</linearGradient>
<clipPath id="clip0">
<rect width="1778" height="198" fill="white" transform="translate(-683)"/>
</clipPath>
</defs>
</svg>
