<svg width="140" height="46" viewBox="0 0 140 46" fill="none" xmlns="http://www.w3.org/2000/svg">
<rect width="140" height="46" rx="23" fill="#163AB8"/>
<path d="M34.272 20.704H36.32V22.464H34.272V30.304H32.24V15.424H34.272V20.704ZM26.704 26.8C26.032 26.8 25.456 26.6933 24.976 26.48C24.496 26.2667 24.096 25.968 23.776 25.584C23.4667 25.2 23.2373 24.7467 23.088 24.224C22.9493 23.7013 22.88 23.1253 22.88 22.496V20.72C22.88 20.1013 22.9493 19.5307 23.088 19.008C23.2373 18.4747 23.4667 18.016 23.776 17.632C24.096 17.248 24.496 16.9493 24.976 16.736C25.456 16.5227 26.032 16.416 26.704 16.416C27.376 16.416 27.952 16.5227 28.432 16.736C28.912 16.9493 29.3067 17.248 29.616 17.632C29.936 18.016 30.1653 18.4747 30.304 19.008C30.4533 19.5307 30.528 20.1013 30.528 20.72V22.496C30.528 23.1253 30.4533 23.7013 30.304 24.224C30.1653 24.7467 29.936 25.2 29.616 25.584C29.3067 25.968 28.912 26.2667 28.432 26.48C27.952 26.6933 27.376 26.8 26.704 26.8ZM26.704 18.192C26.032 18.192 25.5467 18.4267 25.248 18.896C24.96 19.3653 24.816 20.0533 24.816 20.96V22.256C24.816 23.1627 24.96 23.8507 25.248 24.32C25.5467 24.7893 26.032 25.024 26.704 25.024C27.376 25.024 27.856 24.7893 28.144 24.32C28.4427 23.8507 28.592 23.1627 28.592 22.256V20.96C28.592 20.0533 28.4427 19.3653 28.144 18.896C27.856 18.4267 27.376 18.192 26.704 18.192ZM41.6185 26.8C40.9358 26.8 40.3492 26.6933 39.8585 26.48C39.3785 26.2667 38.9838 25.968 38.6745 25.584C38.3652 25.2 38.1358 24.7467 37.9865 24.224C37.8478 23.7013 37.7785 23.1253 37.7785 22.496V20.72C37.7785 20.1013 37.8478 19.5307 37.9865 19.008C38.1358 18.4747 38.3652 18.016 38.6745 17.632C38.9838 17.248 39.3785 16.9493 39.8585 16.736C40.3492 16.5227 40.9358 16.416 41.6185 16.416C42.3012 16.416 42.8825 16.5227 43.3625 16.736C43.8532 16.9493 44.2532 17.248 44.5625 17.632C44.8718 18.016 45.0958 18.4747 45.2345 19.008C45.3838 19.5307 45.4585 20.1013 45.4585 20.72V22.496C45.4585 23.1253 45.3838 23.7013 45.2345 24.224C45.0958 24.7467 44.8718 25.2 44.5625 25.584C44.2532 25.968 43.8532 26.2667 43.3625 26.48C42.8825 26.6933 42.3012 26.8 41.6185 26.8ZM41.6185 18.192C40.9358 18.192 40.4452 18.4267 40.1465 18.896C39.8585 19.3653 39.7145 20.0533 39.7145 20.96V22.256C39.7145 23.1627 39.8585 23.8507 40.1465 24.32C40.4452 24.7893 40.9358 25.024 41.6185 25.024C42.3012 25.024 42.7865 24.7893 43.0745 24.32C43.3732 23.8507 43.5225 23.1627 43.5225 22.256V20.96C43.5225 20.0533 43.3732 19.3653 43.0745 18.896C42.7865 18.4267 42.3012 18.192 41.6185 18.192ZM49.5545 30.304H47.5225V15.424H49.5545V30.304ZM63.573 15.952V17.616H61.861V20.288H63.669V21.952H59.413V23.328H65.221V25.024H51.589V23.328H57.397V21.952H53.141V20.288H54.949V17.616H53.237V15.952H63.573ZM55.525 28.432H63.589V30.144H53.509V25.856H55.525V28.432ZM56.933 20.288H59.877V17.616H56.933V20.288ZM73.4955 22.912C72.9302 22.912 72.4342 22.8267 72.0075 22.656C71.5808 22.4747 71.2288 22.24 70.9515 21.952C70.6742 21.6533 70.4662 21.3173 70.3275 20.944C70.1888 20.56 70.1195 20.1653 70.1195 19.76V19.152C70.1195 18.7467 70.1888 18.3573 70.3275 17.984C70.4662 17.6 70.6742 17.264 70.9515 16.976C71.2288 16.6773 71.5808 16.4427 72.0075 16.272C72.4342 16.0907 72.9302 16 73.4955 16C74.0608 16 74.5515 16.0907 74.9675 16.272C75.3942 16.4427 75.7462 16.6773 76.0235 16.976C76.3115 17.264 76.5248 17.6 76.6635 17.984C76.8022 18.3573 76.8715 18.7467 76.8715 19.152V19.76C76.8715 20.1653 76.8022 20.56 76.6635 20.944C76.5248 21.3173 76.3115 21.6533 76.0235 21.952C75.7462 22.24 75.3942 22.4747 74.9675 22.656C74.5515 22.8267 74.0608 22.912 73.4955 22.912ZM73.4955 17.648C72.9942 17.648 72.6155 17.808 72.3595 18.128C72.1142 18.448 71.9915 18.8267 71.9915 19.264V19.648C71.9915 20.0853 72.1142 20.464 72.3595 20.784C72.6155 21.104 72.9942 21.264 73.4955 21.264C73.9968 21.264 74.3702 21.104 74.6155 20.784C74.8715 20.464 74.9995 20.0853 74.9995 19.648V19.264C74.9995 18.8267 74.8715 18.448 74.6155 18.128C74.3702 17.808 73.9968 17.648 73.4955 17.648ZM82.8555 23.84V30.32H73.1915V23.84H75.1915V25.536H80.8555V23.84H82.8555ZM79.7195 18.416H80.9355V15.424H82.8555V23.168H80.9355V20.144H79.7195V23.136H77.8155V15.616H79.7195V18.416ZM80.8555 28.64V27.2H75.1915V28.64H80.8555ZM101.066 23.52V27.744H93.69V28.848H101.514V30.448H91.738V26.224H99.114V25.12H91.658V23.52H101.066ZM93.242 20.304C93.1887 20.4427 93.0607 20.6133 92.858 20.816C92.666 21.0187 92.4313 21.232 92.154 21.456C91.8127 21.7333 91.4607 22.0213 91.098 22.32C90.7353 22.608 90.314 22.9227 89.834 23.264L88.666 21.792C89.1567 21.4507 89.578 21.1413 89.93 20.864C90.2927 20.576 90.6553 20.2773 91.018 19.968C91.4233 19.616 91.7113 19.2533 91.882 18.88C92.0527 18.5067 92.138 18.08 92.138 17.6V15.792H94.186V17.568C94.186 17.824 94.202 18.0533 94.234 18.256C94.266 18.4587 94.3247 18.6507 94.41 18.832C94.4953 19.0027 94.6073 19.168 94.746 19.328C94.8953 19.488 95.082 19.6587 95.306 19.84C95.434 19.936 95.5833 20.048 95.754 20.176C95.9353 20.304 96.122 20.4373 96.314 20.576C96.506 20.7147 96.7033 20.8533 96.906 20.992C97.1193 21.12 97.322 21.248 97.514 21.376L96.394 22.768C95.722 22.3307 95.05 21.8613 94.378 21.36C94.058 21.1147 93.802 20.912 93.61 20.752C93.4287 20.5813 93.3113 20.432 93.258 20.304H93.242ZM99.05 19.536H96.426V17.824H99.05V15.424H101.066V22.848H99.05V19.536ZM103.885 17.472H107.021V15.504H109.069V17.472H112.061V19.2H109.069V20.432C109.069 20.7413 109.09 21.024 109.133 21.28C109.175 21.536 109.239 21.7813 109.325 22.016C109.421 22.24 109.543 22.4587 109.693 22.672C109.842 22.8853 110.023 23.1093 110.237 23.344C110.375 23.504 110.535 23.68 110.717 23.872C110.909 24.0533 111.106 24.2453 111.309 24.448C111.511 24.64 111.714 24.8373 111.917 25.04C112.13 25.232 112.338 25.4187 112.541 25.6L111.245 26.944C110.903 26.624 110.562 26.2987 110.221 25.968C109.879 25.6267 109.559 25.3013 109.261 24.992C108.941 24.6613 108.674 24.3787 108.461 24.144C108.258 23.8987 108.13 23.712 108.077 23.584H108.045C107.97 23.7333 107.815 23.9467 107.581 24.224C107.346 24.5013 107.095 24.7787 106.829 25.056C106.53 25.3653 106.221 25.6853 105.901 26.016C105.581 26.336 105.197 26.6987 104.749 27.104L103.421 25.744C104.295 24.9653 105.085 24.192 105.789 23.424C106.023 23.1573 106.221 22.912 106.381 22.688C106.541 22.464 106.669 22.24 106.765 22.016C106.861 21.7813 106.925 21.5413 106.957 21.296C106.999 21.04 107.021 20.752 107.021 20.432V19.2H103.885V17.472ZM115.805 30.304H113.773V15.424H115.805V30.304Z" fill="white"/>
</svg>
