<svg width="358" height="65" viewBox="0 0 358 65" fill="none" xmlns="http://www.w3.org/2000/svg">
<rect y="0.5" width="358" height="64" rx="32" fill="white"/>
<path d="M95.5905 46.98V29.38H89.3185V26.596H95.5905V17.476H98.7585V46.98H95.5905ZM82.9825 32.164C82.8332 32.5267 82.6092 32.8893 82.3105 33.252C82.0332 33.6147 81.6385 34.0733 81.1265 34.628C80.4652 35.3533 79.7078 36.1427 78.8545 36.996C78.0012 37.828 77.0305 38.7453 75.9425 39.748L73.8625 37.604C75.8038 35.876 77.4892 34.2227 78.9185 32.644C79.4092 32.0893 79.8145 31.5773 80.1345 31.108C80.4545 30.6387 80.6998 30.18 80.8705 29.732C81.0625 29.2627 81.1905 28.7933 81.2545 28.324C81.3398 27.8333 81.3825 27.3 81.3825 26.724V19.62H84.5825V26.724C84.5825 27.364 84.6252 27.94 84.7105 28.452C84.7958 28.9427 84.9345 29.4227 85.1265 29.892C85.3185 30.34 85.5745 30.7987 85.8945 31.268C86.2358 31.716 86.6518 32.2067 87.1425 32.74C87.8252 33.4867 88.5398 34.2227 89.2865 34.948C90.0332 35.652 90.8865 36.4307 91.8465 37.284L89.7985 39.46C88.6892 38.436 87.7505 37.5507 86.9825 36.804C86.2358 36.036 85.5532 35.3213 84.9345 34.66C84.4865 34.1693 84.0812 33.7107 83.7185 33.284C83.3772 32.8573 83.1425 32.484 83.0145 32.164H82.9825ZM124.492 46.98V17.476H127.66V46.98H124.492ZM105.356 39.236V19.876H108.492V26.852H115.948V19.876H119.083V39.236H105.356ZM108.492 36.516H115.948V29.54H108.492V36.516ZM159.409 40.356V43.044H132.337V40.356H159.409ZM145.873 28.644C145.702 29.0067 145.297 29.4653 144.657 30.02C144.038 30.5747 143.185 31.1933 142.097 31.876C141.158 32.4733 140.166 33.092 139.121 33.732C138.075 34.3507 136.881 35.0333 135.536 35.78L133.969 33.284C135.249 32.58 136.422 31.9187 137.489 31.3C138.555 30.6813 139.622 30.0093 140.689 29.284C141.414 28.7933 142.011 28.324 142.481 27.876C142.95 27.428 143.313 26.9587 143.569 26.468C143.846 25.9773 144.027 25.444 144.113 24.868C144.219 24.2707 144.273 23.5773 144.273 22.788V19.556H147.472V22.788C147.472 23.5773 147.515 24.2707 147.601 24.868C147.686 25.444 147.867 25.988 148.145 26.5C148.422 26.9907 148.817 27.4707 149.329 27.94C149.841 28.4093 150.534 28.932 151.409 29.508C152.411 30.1693 153.414 30.788 154.417 31.364C155.419 31.94 156.55 32.5693 157.809 33.252L156.273 35.716C155.078 35.0333 153.915 34.372 152.785 33.732C151.654 33.0707 150.609 32.4307 149.649 31.812C148.603 31.1507 147.761 30.5533 147.121 30.02C146.481 29.4653 146.075 29.0067 145.905 28.644H145.873ZM197.11 31.14H192.566V46.98H189.398V17.476H192.566V28.388H197.11V31.14ZM170.07 37.956C171.776 36.9533 173.216 36.068 174.39 35.3C175.584 34.5107 176.566 33.796 177.334 33.156C178.123 32.516 178.742 31.9187 179.19 31.364C179.638 30.788 179.968 30.212 180.182 29.636C180.395 29.06 180.523 28.4733 180.566 27.876C180.63 27.2573 180.662 26.564 180.662 25.796V22.948H170.646V20.228H183.798V25.828C183.798 26.8093 183.766 27.684 183.702 28.452C183.659 29.22 183.51 29.956 183.254 30.66C183.019 31.3427 182.646 32.0253 182.134 32.708C181.643 33.3693 180.95 34.084 180.054 34.852C179.158 35.5987 178.027 36.4307 176.661 37.348C175.318 38.2653 173.675 39.3107 171.734 40.484L170.07 37.956ZM223.035 34.116V46.98H204.635V34.116H207.771V37.796H219.899V34.116H223.035ZM207.195 18.5C208.411 18.5 209.477 18.6813 210.395 19.044C211.312 19.4067 212.069 19.8867 212.667 20.484C213.285 21.06 213.744 21.7213 214.043 22.468C214.363 23.1933 214.523 23.9293 214.523 24.676V25.892C214.523 26.6387 214.363 27.3853 214.043 28.132C213.744 28.8573 213.285 29.5187 212.667 30.116C212.069 30.692 211.312 31.1613 210.395 31.524C209.477 31.8867 208.411 32.068 207.195 32.068C205.979 32.068 204.912 31.8867 203.995 31.524C203.077 31.1613 202.309 30.692 201.691 30.116C201.093 29.5187 200.635 28.8573 200.315 28.132C200.016 27.3853 199.867 26.6387 199.867 25.892V24.676C199.867 23.9293 200.016 23.1933 200.315 22.468C200.635 21.7213 201.093 21.06 201.691 20.484C202.309 19.8867 203.077 19.4067 203.995 19.044C204.912 18.6813 205.979 18.5 207.195 18.5ZM207.195 29.348C207.877 29.348 208.485 29.2413 209.019 29.028C209.552 28.8147 210 28.5373 210.363 28.196C210.725 27.8547 211.003 27.4707 211.195 27.044C211.387 26.6173 211.483 26.18 211.483 25.732V24.836C211.483 24.388 211.387 23.9507 211.195 23.524C211.003 23.0973 210.725 22.724 210.363 22.404C210 22.0627 209.552 21.7853 209.019 21.572C208.485 21.3587 207.877 21.252 207.195 21.252C206.512 21.252 205.904 21.3587 205.371 21.572C204.837 21.7853 204.389 22.0627 204.027 22.404C203.664 22.724 203.387 23.0973 203.195 23.524C203.003 23.9507 202.907 24.388 202.907 24.836V25.732C202.907 26.18 203.003 26.6173 203.195 27.044C203.387 27.4707 203.664 27.8547 204.027 28.196C204.389 28.5373 204.837 28.8147 205.371 29.028C205.904 29.2413 206.512 29.348 207.195 29.348ZM219.899 32.676V17.476H223.035V32.676H219.899ZM219.899 44.292V40.452H207.771V44.292H219.899ZM236.448 40.388C235.317 40.388 234.314 40.2173 233.44 39.876C232.565 39.5133 231.818 39.044 231.2 38.468C230.581 37.892 230.112 37.2307 229.792 36.484C229.472 35.7373 229.312 34.98 229.312 34.212V32.356C229.312 31.588 229.472 30.8307 229.792 30.084C230.112 29.3373 230.581 28.676 231.2 28.1C231.818 27.5027 232.565 27.0333 233.44 26.692C234.314 26.3293 235.317 26.148 236.448 26.148C237.557 26.148 238.549 26.3293 239.424 26.692C240.32 27.0333 241.077 27.5027 241.696 28.1C242.314 28.676 242.784 29.3373 243.104 30.084C243.424 30.8307 243.583 31.588 243.583 32.356V34.212C243.583 34.98 243.424 35.7373 243.104 36.484C242.784 37.2307 242.314 37.892 241.696 38.468C241.077 39.044 240.32 39.5133 239.424 39.876C238.549 40.2173 237.557 40.388 236.448 40.388ZM255.36 31.94H250.816V46.98H247.648V17.476H250.816V29.188H255.36V31.94ZM236.448 28.804C235.168 28.804 234.154 29.1667 233.408 29.892C232.661 30.596 232.288 31.5347 232.288 32.708V33.86C232.288 35.0333 232.661 35.972 233.408 36.676C234.154 37.38 235.168 37.732 236.448 37.732C237.728 37.732 238.741 37.38 239.488 36.676C240.234 35.972 240.608 35.0333 240.608 33.86V32.708C240.608 31.5347 240.234 30.596 239.488 29.892C238.741 29.1667 237.728 28.804 236.448 28.804ZM234.88 21.828V17.668H238.048V21.828H244.896V24.516H227.84V21.828H234.88ZM258.085 38.02C259.791 37.0173 261.231 36.132 262.405 35.364C263.599 34.5747 264.591 33.86 265.381 33.22C266.17 32.5587 266.789 31.9507 267.237 31.396C267.685 30.82 268.015 30.2547 268.229 29.7C268.463 29.124 268.602 28.5267 268.645 27.908C268.709 27.2893 268.741 26.596 268.741 25.828V22.916H258.661V20.196H271.877V25.86C271.877 26.82 271.845 27.6947 271.781 28.484C271.738 29.252 271.589 29.988 271.333 30.692C271.077 31.3747 270.693 32.0573 270.181 32.74C269.69 33.4013 268.986 34.116 268.069 34.884C267.173 35.652 266.042 36.4947 264.677 37.412C263.333 38.3293 261.69 39.3747 259.749 40.548L258.085 38.02ZM278.117 46.98V17.476H281.285V46.98H278.117Z" fill="#0E48C4"/>
</svg>
