<svg width="303" height="82" viewBox="0 0 303 82" fill="none" xmlns="http://www.w3.org/2000/svg">
<rect y="9" width="303" height="30" fill="#94BAFF" fill-opacity="0.36"/>
<rect x="44" y="52" width="215" height="30" fill="#94BAFF" fill-opacity="0.36"/>
<path d="M16.6051 32.145V21.915H25.3501V32.475H27.8911V21.915H35.3821V19.737H6.47405V21.915H14.0641V32.145H16.6051ZM9.74105 3.699V15.711H33.0721L33.0391 13.5H12.2491V3.699H9.74105ZM65.7861 19.242C60.1101 17.361 55.6221 13.995 52.9821 9.606C53.7081 7.791 54.1701 5.844 54.2361 3.798H51.5961C51.1341 11.52 45.5571 17.328 38.1981 19.176L39.6171 21.057C44.6331 19.704 49.2201 16.338 51.8931 11.784C54.8301 16.107 59.5161 19.605 64.3671 21.222L65.7861 19.242ZM37.6371 27.195V29.373H66.5451V27.195H37.6371ZM81.4062 16.635V4.227H70.7142V6.405H78.9312V14.457H70.7142V27.591L84.7392 26.799V24.654L73.1892 25.149V16.635H81.4062ZM89.5242 31.65V3.369H87.0492V13.764H82.7922V16.008H87.0492V31.65H89.5242ZM95.9592 32.442V3.039H93.4512V32.442H95.9592ZM116.397 14.391H104.748V6.273H117.189V4.095H102.24V27.591L120.423 26.535V24.39L104.748 25.215V16.569H116.397V14.391ZM126.396 32.475V3.039H123.888V13.599H118.278V15.843H123.888V32.475H126.396ZM157.366 32.475V19.935H170.863V17.757H166.243C167.035 13.863 167.695 9.375 167.893 3.963H144.76V6.141H165.319C165.121 9.903 164.527 13.995 163.735 17.757H141.955V19.935H154.792V32.475H157.366ZM199.056 11.982H178.893V5.679H198.66V3.567H176.385V14.127H186.45V17.955H173.118V20.133H202.026V17.955H189.024V14.127H199.056V11.982ZM198.858 32.607V23.235H175.56V25.413H196.35V32.607H198.858ZM219.197 5.481V3.303H209.297V5.481H219.197ZM223.487 10.464V8.286H204.875V10.464H223.487ZM214.181 12.576C209.066 12.576 205.964 16.272 205.964 20.562C205.964 24.852 209.066 28.548 214.181 28.548C219.296 28.548 222.398 24.852 222.398 20.562C222.398 16.272 219.296 12.576 214.181 12.576ZM214.181 26.403C210.32 26.403 208.472 23.697 208.472 20.595C208.472 17.427 210.32 14.721 214.181 14.721C218.042 14.721 219.89 17.427 219.89 20.595C219.89 23.697 218.042 26.403 214.181 26.403ZM229.394 32.475V17.823H234.179V15.579H229.394V3.039H226.886V32.475H229.394ZM256.267 25.314C252.01 22.575 248.512 18.384 246.466 14.061C247.357 11.058 247.819 7.725 247.819 3.963H245.245C245.146 14.424 241.384 21.948 234.949 26.37L236.632 28.119C240.46 25.314 243.562 21.585 245.509 16.8C247.654 20.793 251.152 24.753 254.551 27.228L256.267 25.314ZM262.537 32.475V3.039H260.029V32.475H262.537ZM266.475 27.525V29.703H295.383V27.525H280.434V15.48H277.86V27.525H266.475ZM290.796 23.037C292.083 17.658 292.677 10.959 292.677 4.425H269.412V6.603H290.103C290.103 10.926 289.509 17.724 288.354 23.037H290.796ZM70.6834 75.65V47.369H68.2084V58.721H62.4004C61.1464 57.401 59.4304 56.576 57.3514 56.576C52.9624 56.576 50.1244 60.272 50.1244 64.562C50.1244 68.852 52.9624 72.548 57.3514 72.548C59.9914 72.548 62.0704 71.228 63.2914 69.215H68.2084V75.65H70.6834ZM62.1034 64.562C62.1034 67.73 60.4534 70.403 57.3514 70.403C54.2494 70.403 52.5994 67.73 52.5994 64.562C52.5994 61.394 54.2494 58.721 57.3514 58.721C60.4534 58.721 62.1034 61.394 62.1034 64.562ZM76.5904 76.442V47.039H74.0824V76.442H76.5904ZM65.3374 54.53V52.352H49.0354V54.53H65.3374ZM64.5784 64.562C64.5784 63.275 64.3144 62.054 63.8524 60.965H68.2084V66.971H64.2484C64.4464 66.212 64.5784 65.42 64.5784 64.562ZM61.8724 49.613V47.435H52.8304V49.613H61.8724ZM93.9595 54.695H83.9605V49.976H94.2895V47.864H81.4855V63.935L95.7085 63.209V61.13L83.9605 61.625V56.741H93.9595V54.695ZM99.8335 65.222V56.774H104.553V65.222H107.061V47.039H104.553V54.596H99.8335V47.303H97.3585V65.222H99.8335ZM106.995 76.64V66.872H83.8945V69.05H104.487V76.64H106.995ZM136.38 47.732V52.88H125.721V47.732H123.213V62.516H138.888V47.732H136.38ZM125.886 65.717V76.277H148.062V74.099H128.394V67.829H147.336V65.717H125.886ZM125.721 60.338V55.058H136.38V60.338H125.721ZM147.402 64.067V56.378H151.461V54.134H147.402V47.039H144.894V64.067H147.402ZM153.089 71.195V73.373H181.997V71.195H153.089ZM167.51 46.973C161.075 46.973 156.752 51.23 156.752 56.081C156.752 60.932 161.075 65.189 167.51 65.189C173.945 65.189 178.268 60.932 178.268 56.081C178.268 51.23 173.945 46.973 167.51 46.973ZM167.51 63.011C162.428 63.011 159.26 59.777 159.26 56.081C159.26 52.385 162.428 49.151 167.51 49.151C172.592 49.151 175.76 52.385 175.76 56.081C175.76 59.777 172.592 63.011 167.51 63.011ZM205.801 75.683V47.336H203.326V57.137H197.947V59.381H203.326V75.683H205.801ZM212.071 76.442V47.039H209.563V76.442H212.071ZM185.506 72.119C188.311 69.149 190.753 65.519 192.403 61.064C194.119 65.024 196.792 68.819 199.795 71.426L201.445 69.677C197.914 66.74 194.911 62.417 193.393 57.863C194.152 54.86 194.614 51.56 194.68 48.062H192.172C192.04 57.5 188.806 65.618 183.658 70.634L185.506 72.119ZM229.836 46.973C223.401 46.973 219.078 51.164 219.078 55.916C219.078 60.668 223.401 64.859 229.836 64.859C236.271 64.859 240.594 60.668 240.594 55.916C240.594 51.164 236.271 46.973 229.836 46.973ZM229.836 62.681C224.754 62.681 221.586 59.546 221.586 55.916C221.586 52.286 224.754 49.151 229.836 49.151C234.918 49.151 238.086 52.286 238.086 55.916C238.086 59.546 234.918 62.681 229.836 62.681ZM215.415 71.525V73.703H244.323V71.525H237.822V65.288H235.281V71.525H224.556V65.288H222.015V71.525H215.415ZM248.327 71.822H251.495V74.99H248.327V71.822ZM251.264 47.765H248.558L248.987 69.149H250.835L251.264 47.765Z" fill="black"/>
</svg>
