<svg width="59" height="51" viewBox="0 0 59 51" fill="none" xmlns="http://www.w3.org/2000/svg">
<path d="M58.8234 13.0242C58.5186 12.5499 57.8891 12.4309 57.413 12.7356L52.4704 16.0183L50.5 15.9974L51.7152 15.1888C52.1742 14.8832 52.3085 14.2384 51.9866 13.7803C51.6809 13.3042 51.0524 13.168 50.5762 13.4918L47.0964 15.9098L30.1372 7.36925C29.9049 7.25211 29.7058 7.0826 29.5477 6.87975L25.7317 0.455316C25.6003 0.235327 25.386 0.0791447 25.1346 0.0220048C24.8908 -0.0322782 24.627 0.0143861 24.4128 0.156284L0.418752 16.1364C0.00163038 16.4116 -0.123125 16.964 0.1321 17.3925L3.98905 23.8836V40.6514C3.98905 41.0418 4.20999 41.3989 4.55092 41.5685L22.4481 50.5347C22.4671 50.5347 22.4814 50.5347 22.4986 50.5518C22.5157 50.5518 22.5338 50.5689 22.551 50.5689C22.5681 50.5861 22.5843 50.5861 22.6195 50.5861C22.6348 50.6032 22.6509 50.6032 22.67 50.6032C22.6871 50.6223 22.7205 50.6223 22.7367 50.6223C22.7538 50.6223 22.77 50.6223 22.7871 50.6385H22.9062C22.9586 50.6385 22.9919 50.6385 23.0424 50.6223H23.0947C23.1281 50.6032 23.1633 50.6032 23.1947 50.6032C23.2138 50.5861 23.23 50.5861 23.2471 50.5699C23.2642 50.5699 23.2976 50.5528 23.3309 50.5528C23.35 50.5356 23.3661 50.5194 23.3833 50.5194C23.4004 50.5023 23.4166 50.5023 23.4338 50.4842C23.4528 50.4842 23.4528 50.4842 23.4528 50.4689H23.47L43.4489 37.1772C43.4842 37.1601 43.5156 37.1458 43.5489 37.1268L45.7907 35.6288C46.3021 35.2859 46.6097 34.7126 46.6097 34.0974V32.6165L42.4099 35.4116C42.3947 35.424 42.3804 35.4373 42.3633 35.4507L23.9252 47.6996V33.0622L23.9623 33.0375L32.7704 33.1298C32.8114 33.1356 32.8561 33.1375 32.8952 33.1375C33.0809 33.1375 33.2618 33.0832 33.418 32.9794L56.2064 17.7544C56.5283 17.5373 56.6825 17.144 56.5968 16.7688C56.5254 16.4631 56.3092 16.2221 56.0273 16.1117L58.552 14.4327C59.011 14.127 59.1453 13.4842 58.8234 13.0242ZM29.7315 9.45866L44.4927 16.8459L44.5574 16.8783L36.4693 22.2552L36.4493 22.2447L36.4274 22.259L29.7592 18.8249L29.7306 18.8106V9.45866H29.7315ZM2.19104 17.203L24.6261 2.25522L27.7126 7.44734L5.27755 22.3951L2.19104 17.203ZM21.8691 47.9548L6.04323 40.0228V25.216L21.8691 33.146V47.9548ZM14.9971 27.412L14.1895 27.0073L7.06889 23.4437L7.04794 23.4332L27.6783 9.71103V9.71484V9.71579H27.6793V18.9763L14.9971 27.412ZM32.6685 31.2518L26.3336 31.2328L46.3431 17.8716L46.7678 17.8763L46.7983 17.8554H46.8069L46.8097 17.8773L47.6592 17.8868L47.6916 17.8659L49.6515 17.8897L49.6191 17.9106L52.5951 17.9459L32.6685 31.2518Z" fill="#1C4B97"/>
<path d="M53.4522 22.4856L46.6068 27.0368L40.7662 30.9252C40.2919 31.2471 40.171 31.8756 40.4757 32.3518C40.6824 32.6403 41.0043 32.8098 41.3262 32.8098C41.5309 32.8098 41.7166 32.7432 41.9023 32.6403L46.6059 29.4976L54.5874 24.2008C55.0617 23.8789 55.1826 23.2503 54.8778 22.7732C54.556 22.298 53.9265 22.179 53.4522 22.4856Z" fill="#1C4B97"/>
</svg>
