<svg width="345" height="87" viewBox="0 0 345 87" fill="none" xmlns="http://www.w3.org/2000/svg">
<rect width="345" height="87" rx="43.5" fill="#163AB8"/>
<path d="M66.078 35.708H70.226V39.448H66.078V49.784H61.794V27.276H66.078V35.708ZM50.71 54.884H66.826V58.556H46.392V48.016H50.71V54.884ZM49.792 44.956C48.5453 44.956 47.4233 44.7633 46.426 44.378C45.4287 43.97 44.5787 43.426 43.876 42.746C43.1733 42.066 42.6293 41.284 42.244 40.4C41.8813 39.516 41.7 38.598 41.7 37.646V35.742C41.7 34.79 41.8813 33.872 42.244 32.988C42.6293 32.104 43.1733 31.322 43.876 30.642C44.5787 29.962 45.4287 29.4293 46.426 29.044C47.4233 28.636 48.5453 28.432 49.792 28.432C51.0387 28.432 52.1607 28.636 53.158 29.044C54.1553 29.4293 55.0053 29.962 55.708 30.642C56.4107 31.322 56.9433 32.104 57.306 32.988C57.6913 33.872 57.884 34.79 57.884 35.742V37.646C57.884 38.598 57.6913 39.516 57.306 40.4C56.9433 41.284 56.4107 42.066 55.708 42.746C55.0053 43.426 54.1553 43.97 53.158 44.378C52.1607 44.7633 51.0387 44.956 49.792 44.956ZM49.792 32.138C49.1573 32.138 48.5907 32.2513 48.092 32.478C47.5933 32.682 47.1627 32.9653 46.8 33.328C46.46 33.6907 46.1993 34.11 46.018 34.586C45.8367 35.062 45.746 35.5493 45.746 36.048V37.34C45.746 37.8613 45.8367 38.36 46.018 38.836C46.1993 39.2893 46.46 39.6973 46.8 40.06C47.1627 40.4227 47.5933 40.7173 48.092 40.944C48.5907 41.148 49.1573 41.25 49.792 41.25C50.4267 41.25 50.9933 41.148 51.492 40.944C51.9907 40.7173 52.41 40.4227 52.75 40.06C53.1127 39.6973 53.3847 39.2893 53.566 38.836C53.7473 38.36 53.838 37.8613 53.838 37.34V36.048C53.838 35.5493 53.7473 35.062 53.566 34.586C53.3847 34.11 53.1127 33.6907 52.75 33.328C52.41 32.9653 51.9907 32.682 51.492 32.478C50.9933 32.2513 50.4267 32.138 49.792 32.138ZM100.899 51.28V54.918H71.9313V51.28H100.899ZM75.6373 45.432V29.894H96.7853V33.532H79.9213V41.794H97.1933V45.432H75.6373ZM119.503 47.03V51.314H131.845V54.918H102.877V51.314H115.219V47.03H106.753V36.49H123.515V33.124H106.651V29.52H127.799V40.06H111.037V43.426H128.513V47.03H119.503ZM143.58 51.45C142.129 51.45 140.883 51.2233 139.84 50.77C138.82 50.3167 137.981 49.682 137.324 48.866C136.667 48.05 136.179 47.0867 135.862 45.976C135.567 44.8653 135.42 43.6413 135.42 42.304V38.53C135.42 37.2153 135.567 36.0027 135.862 34.892C136.179 33.7587 136.667 32.784 137.324 31.968C137.981 31.152 138.82 30.5173 139.84 30.064C140.883 29.6107 142.129 29.384 143.58 29.384C145.031 29.384 146.266 29.6107 147.286 30.064C148.329 30.5173 149.179 31.152 149.836 31.968C150.493 32.784 150.969 33.7587 151.264 34.892C151.581 36.0027 151.74 37.2153 151.74 38.53V42.304C151.74 43.6413 151.581 44.8653 151.264 45.976C150.969 47.0867 150.493 48.05 149.836 48.866C149.179 49.682 148.329 50.3167 147.286 50.77C146.266 51.2233 145.031 51.45 143.58 51.45ZM143.58 33.158C142.129 33.158 141.087 33.6567 140.452 34.654C139.84 35.6513 139.534 37.1133 139.534 39.04V41.794C139.534 43.7207 139.84 45.1827 140.452 46.18C141.087 47.1773 142.129 47.676 143.58 47.676C145.031 47.676 146.062 47.1773 146.674 46.18C147.309 45.1827 147.626 43.7207 147.626 41.794V39.04C147.626 37.1133 147.309 35.6513 146.674 34.654C146.062 33.6567 145.031 33.158 143.58 33.158ZM160.444 58.896H156.126V27.276H160.444V58.896ZM193.735 51.28V54.918H164.767V51.28H193.735ZM168.473 45.432V29.894H189.621V33.532H172.757V41.794H190.029V45.432H168.473ZM211.319 43.188C210.117 43.188 209.063 43.0067 208.157 42.644C207.25 42.2587 206.502 41.76 205.913 41.148C205.323 40.5133 204.881 39.7993 204.587 39.006C204.292 38.19 204.145 37.3513 204.145 36.49V35.198C204.145 34.3367 204.292 33.5093 204.587 32.716C204.881 31.9 205.323 31.186 205.913 30.574C206.502 29.9393 207.25 29.4407 208.157 29.078C209.063 28.6927 210.117 28.5 211.319 28.5C212.52 28.5 213.563 28.6927 214.447 29.078C215.353 29.4407 216.101 29.9393 216.691 30.574C217.303 31.186 217.756 31.9 218.051 32.716C218.345 33.5093 218.493 34.3367 218.493 35.198V36.49C218.493 37.3513 218.345 38.19 218.051 39.006C217.756 39.7993 217.303 40.5133 216.691 41.148C216.101 41.76 215.353 42.2587 214.447 42.644C213.563 43.0067 212.52 43.188 211.319 43.188ZM211.319 32.002C210.253 32.002 209.449 32.342 208.905 33.022C208.383 33.702 208.123 34.5067 208.123 35.436V36.252C208.123 37.1813 208.383 37.986 208.905 38.666C209.449 39.346 210.253 39.686 211.319 39.686C212.384 39.686 213.177 39.346 213.699 38.666C214.243 37.986 214.515 37.1813 214.515 36.252V35.436C214.515 34.5067 214.243 33.702 213.699 33.022C213.177 32.342 212.384 32.002 211.319 32.002ZM231.209 45.16V58.93H210.673V45.16H214.923V48.764H226.959V45.16H231.209ZM224.545 33.634H227.129V27.276H231.209V43.732H227.129V37.306H224.545V43.664H220.499V27.684H224.545V33.634ZM226.959 55.36V52.3H214.923V55.36H226.959ZM269.906 44.48V53.456H254.232V55.802H270.858V59.202H250.084V50.226H265.758V47.88H249.914V44.48H269.906ZM253.28 37.646C253.167 37.9407 252.895 38.3033 252.464 38.734C252.056 39.1647 251.557 39.618 250.968 40.094C250.243 40.6833 249.495 41.2953 248.724 41.93C247.953 42.542 247.058 43.2107 246.038 43.936L243.556 40.808C244.599 40.0827 245.494 39.4253 246.242 38.836C247.013 38.224 247.783 37.5893 248.554 36.932C249.415 36.184 250.027 35.4133 250.39 34.62C250.753 33.8267 250.934 32.92 250.934 31.9V28.058H255.286V31.832C255.286 32.376 255.32 32.8633 255.388 33.294C255.456 33.7247 255.581 34.1327 255.762 34.518C255.943 34.8807 256.181 35.232 256.476 35.572C256.793 35.912 257.19 36.2747 257.666 36.66C257.938 36.864 258.255 37.102 258.618 37.374C259.003 37.646 259.4 37.9293 259.808 38.224C260.216 38.5187 260.635 38.8133 261.066 39.108C261.519 39.38 261.95 39.652 262.358 39.924L259.978 42.882C258.55 41.9527 257.122 40.9553 255.694 39.89C255.014 39.3687 254.47 38.938 254.062 38.598C253.677 38.2353 253.427 37.918 253.314 37.646H253.28ZM265.622 36.014H260.046V32.376H265.622V27.276H269.906V43.052H265.622V36.014ZM275.895 31.628H282.559V27.446H286.911V31.628H293.269V35.3H286.911V37.918C286.911 38.5753 286.957 39.176 287.047 39.72C287.138 40.264 287.274 40.7853 287.455 41.284C287.659 41.76 287.92 42.2247 288.237 42.678C288.555 43.1313 288.94 43.6073 289.393 44.106C289.688 44.446 290.028 44.82 290.413 45.228C290.821 45.6133 291.241 46.0213 291.671 46.452C292.102 46.86 292.533 47.2793 292.963 47.71C293.417 48.118 293.859 48.5147 294.289 48.9L291.535 51.756C290.81 51.076 290.085 50.3847 289.359 49.682C288.634 48.9567 287.954 48.2653 287.319 47.608C286.639 46.9053 286.073 46.3047 285.619 45.806C285.189 45.2847 284.917 44.888 284.803 44.616H284.735C284.577 44.9333 284.248 45.3867 283.749 45.976C283.251 46.5653 282.718 47.1547 282.151 47.744C281.517 48.4013 280.859 49.0813 280.179 49.784C279.499 50.464 278.683 51.2347 277.731 52.096L274.909 49.206C276.768 47.5513 278.445 45.908 279.941 44.276C280.44 43.7093 280.859 43.188 281.199 42.712C281.539 42.236 281.811 41.76 282.015 41.284C282.219 40.7853 282.355 40.2753 282.423 39.754C282.514 39.21 282.559 38.598 282.559 37.918V35.3H275.895V31.628ZM301.225 58.896H296.907V27.276H301.225V58.896Z" fill="white"/>
</svg>
