<svg width="283" height="87" viewBox="0 0 283 87" fill="none" xmlns="http://www.w3.org/2000/svg">
<rect width="283" height="87" rx="43.5" fill="#163AB8"/>
<path d="M48.092 43.188C46.8907 43.188 45.8367 43.0067 44.93 42.644C44.0233 42.2587 43.2753 41.76 42.686 41.148C42.0967 40.5133 41.6547 39.7993 41.36 39.006C41.0653 38.19 40.918 37.3513 40.918 36.49V35.198C40.918 34.3367 41.0653 33.5093 41.36 32.716C41.6547 31.9 42.0967 31.186 42.686 30.574C43.2753 29.9393 44.0233 29.4407 44.93 29.078C45.8367 28.6927 46.8907 28.5 48.092 28.5C49.2933 28.5 50.336 28.6927 51.22 29.078C52.1267 29.4407 52.8747 29.9393 53.464 30.574C54.076 31.186 54.5293 31.9 54.824 32.716C55.1187 33.5093 55.266 34.3367 55.266 35.198V36.49C55.266 37.3513 55.1187 38.19 54.824 39.006C54.5293 39.7993 54.076 40.5133 53.464 41.148C52.8747 41.76 52.1267 42.2587 51.22 42.644C50.336 43.0067 49.2933 43.188 48.092 43.188ZM48.092 32.002C47.0267 32.002 46.222 32.342 45.678 33.022C45.1567 33.702 44.896 34.5067 44.896 35.436V36.252C44.896 37.1813 45.1567 37.986 45.678 38.666C46.222 39.346 47.0267 39.686 48.092 39.686C49.1573 39.686 49.9507 39.346 50.472 38.666C51.016 37.986 51.288 37.1813 51.288 36.252V35.436C51.288 34.5067 51.016 33.702 50.472 33.022C49.9507 32.342 49.1573 32.002 48.092 32.002ZM67.982 45.16V58.93H47.446V45.16H51.696V48.764H63.732V45.16H67.982ZM61.318 33.634H63.902V27.276H67.982V43.732H63.902V37.306H61.318V43.664H57.272V27.684H61.318V33.634ZM63.732 55.36V52.3H51.696V55.36H63.732ZM105.523 38.802H109.875V42.542H105.523V58.896H101.205V27.276H105.523V38.802ZM81.1453 48.968C82.8453 47.948 84.296 47.0413 85.4973 46.248C86.6986 45.4547 87.696 44.7293 88.4893 44.072C89.3053 43.392 89.94 42.7573 90.3933 42.168C90.8466 41.556 91.1866 40.944 91.4133 40.332C91.6626 39.72 91.81 39.074 91.8553 38.394C91.9233 37.714 91.9573 36.9547 91.9573 36.116V33.838H81.7233V30.132H96.2753V36.32C96.2753 37.476 96.2186 38.5187 96.1053 39.448C95.992 40.3547 95.7653 41.216 95.4253 42.032C95.108 42.8253 94.6546 43.596 94.0653 44.344C93.4986 45.092 92.7393 45.874 91.7873 46.69C90.8353 47.4833 89.668 48.3447 88.2853 49.274C86.9253 50.1807 85.3046 51.212 83.4233 52.368L81.1453 48.968ZM121.135 51.45C119.684 51.45 118.437 51.2233 117.395 50.77C116.375 50.3167 115.536 49.682 114.879 48.866C114.221 48.05 113.734 47.0867 113.417 45.976C113.122 44.8653 112.975 43.6413 112.975 42.304V38.53C112.975 37.2153 113.122 36.0027 113.417 34.892C113.734 33.7587 114.221 32.784 114.879 31.968C115.536 31.152 116.375 30.5173 117.395 30.064C118.437 29.6107 119.684 29.384 121.135 29.384C122.585 29.384 123.821 29.6107 124.841 30.064C125.883 30.5173 126.733 31.152 127.391 31.968C128.048 32.784 128.524 33.7587 128.819 34.892C129.136 36.0027 129.295 37.2153 129.295 38.53V42.304C129.295 43.6413 129.136 44.8653 128.819 45.976C128.524 47.0867 128.048 48.05 127.391 48.866C126.733 49.682 125.883 50.3167 124.841 50.77C123.821 51.2233 122.585 51.45 121.135 51.45ZM121.135 33.158C119.684 33.158 118.641 33.6567 118.007 34.654C117.395 35.6513 117.089 37.1133 117.089 39.04V41.794C117.089 43.7207 117.395 45.1827 118.007 46.18C118.641 47.1773 119.684 47.676 121.135 47.676C122.585 47.676 123.617 47.1773 124.229 46.18C124.863 45.1827 125.181 43.7207 125.181 41.794V39.04C125.181 37.1133 124.863 35.6513 124.229 34.654C123.617 33.6567 122.585 33.158 121.135 33.158ZM137.999 58.896H133.681V27.276H137.999V58.896ZM171.29 51.28V54.918H142.322V51.28H171.29ZM146.028 45.432V29.894H167.176V33.532H150.312V41.794H167.584V45.432H146.028ZM206.859 38.36H211.211V42.1H206.859V58.896H202.541V27.276H206.859V38.36ZM183.365 29.996H197.985V33.702H187.683V46.996H189.825C191.457 46.996 193.203 46.9393 195.061 46.826C196.92 46.7127 198.654 46.5427 200.263 46.316L200.739 49.988C199.946 50.124 199.073 50.2373 198.121 50.328C197.169 50.4187 196.172 50.498 195.129 50.566C194.087 50.6113 193.033 50.6453 191.967 50.668C190.902 50.6907 189.848 50.702 188.805 50.702H183.365V29.996ZM241.681 42.95V46.554H229.815V51.994H225.531V46.554H212.713V42.95H241.681ZM221.077 54.918H238.247V58.556H216.793V49.376H221.077V54.918ZM227.197 41.114C225.678 41.114 224.284 40.978 223.015 40.706C221.745 40.434 220.646 40.0487 219.717 39.55C218.81 39.0287 218.096 38.394 217.575 37.646C217.076 36.8753 216.827 36.014 216.827 35.062V33.77C216.827 32.818 217.076 31.968 217.575 31.22C218.096 30.4493 218.81 29.8147 219.717 29.316C220.646 28.7947 221.745 28.398 223.015 28.126C224.284 27.854 225.678 27.718 227.197 27.718C228.715 27.718 230.109 27.854 231.379 28.126C232.648 28.398 233.736 28.7947 234.643 29.316C235.572 29.8147 236.286 30.4493 236.785 31.22C237.306 31.968 237.567 32.818 237.567 33.77V35.062C237.567 36.014 237.306 36.8753 236.785 37.646C236.286 38.394 235.572 39.0287 234.643 39.55C233.736 40.0487 232.648 40.434 231.379 40.706C230.109 40.978 228.715 41.114 227.197 41.114ZM227.197 31.186C225.27 31.186 223.763 31.4693 222.675 32.036C221.609 32.58 221.077 33.2373 221.077 34.008V34.824C221.077 35.5947 221.609 36.2633 222.675 36.83C223.763 37.374 225.27 37.646 227.197 37.646C229.123 37.646 230.619 37.374 231.685 36.83C232.773 36.2633 233.317 35.5947 233.317 34.824V34.008C233.317 33.2373 232.773 32.58 231.685 32.036C230.619 31.4693 229.123 31.186 227.197 31.186Z" fill="white"/>
</svg>
