<svg width="283" height="87" viewBox="0 0 283 87" fill="none" xmlns="http://www.w3.org/2000/svg">
<rect width="283" height="87" rx="43.5" fill="#163AB8"/>
<path d="M66.078 38.496H70.43V42.236H66.078V58.896H61.76V27.276H66.078V38.496ZM49.996 51.45C48.568 51.45 47.344 51.2233 46.324 50.77C45.304 50.3167 44.454 49.682 43.774 48.866C43.1167 48.05 42.6293 47.0867 42.312 45.976C42.0173 44.8653 41.87 43.6413 41.87 42.304V38.53C41.87 37.2153 42.0173 36.0027 42.312 34.892C42.6293 33.7587 43.1167 32.784 43.774 31.968C44.454 31.152 45.304 30.5173 46.324 30.064C47.344 29.6107 48.568 29.384 49.996 29.384C51.424 29.384 52.648 29.6107 53.668 30.064C54.688 30.5173 55.5267 31.152 56.184 31.968C56.864 32.784 57.3513 33.7587 57.646 34.892C57.9633 36.0027 58.122 37.2153 58.122 38.53V42.304C58.122 43.6413 57.9633 44.8653 57.646 45.976C57.3513 47.0867 56.864 48.05 56.184 48.866C55.5267 49.682 54.688 50.3167 53.668 50.77C52.648 51.2233 51.424 51.45 49.996 51.45ZM49.996 33.158C48.568 33.158 47.5367 33.6567 46.902 34.654C46.29 35.6513 45.984 37.1133 45.984 39.04V41.794C45.984 43.7207 46.29 45.1827 46.902 46.18C47.5367 47.1773 48.568 47.676 49.996 47.676C51.424 47.676 52.444 47.1773 53.056 46.18C53.6907 45.1827 54.008 43.7207 54.008 41.794V39.04C54.008 37.1133 53.6907 35.6513 53.056 34.654C52.444 33.6567 51.424 33.158 49.996 33.158ZM81.6893 51.45C80.2386 51.45 78.992 51.2233 77.9493 50.77C76.9293 50.3167 76.0906 49.682 75.4333 48.866C74.776 48.05 74.2886 47.0867 73.9713 45.976C73.6766 44.8653 73.5293 43.6413 73.5293 42.304V38.53C73.5293 37.2153 73.6766 36.0027 73.9713 34.892C74.2886 33.7587 74.776 32.784 75.4333 31.968C76.0906 31.152 76.9293 30.5173 77.9493 30.064C78.992 29.6107 80.2386 29.384 81.6893 29.384C83.14 29.384 84.3753 29.6107 85.3953 30.064C86.438 30.5173 87.288 31.152 87.9453 31.968C88.6026 32.784 89.0786 33.7587 89.3733 34.892C89.6906 36.0027 89.8493 37.2153 89.8493 38.53V42.304C89.8493 43.6413 89.6906 44.8653 89.3733 45.976C89.0786 47.0867 88.6026 48.05 87.9453 48.866C87.288 49.682 86.438 50.3167 85.3953 50.77C84.3753 51.2233 83.14 51.45 81.6893 51.45ZM81.6893 33.158C80.2386 33.158 79.196 33.6567 78.5613 34.654C77.9493 35.6513 77.6433 37.1133 77.6433 39.04V41.794C77.6433 43.7207 77.9493 45.1827 78.5613 46.18C79.196 47.1773 80.2386 47.676 81.6893 47.676C83.14 47.676 84.1713 47.1773 84.7833 46.18C85.418 45.1827 85.7353 43.7207 85.7353 41.794V39.04C85.7353 37.1133 85.418 35.6513 84.7833 34.654C84.1713 33.6567 83.14 33.158 81.6893 33.158ZM98.5533 58.896H94.2353V27.276H98.5533V58.896ZM128.343 28.398V31.934H124.705V37.612H128.547V41.148H119.503V44.072H131.845V47.676H102.877V44.072H115.219V41.148H106.175V37.612H110.017V31.934H106.379V28.398H128.343ZM111.241 54.918H128.377V58.556H106.957V49.444H111.241V54.918ZM114.233 37.612H120.489V31.934H114.233V37.612ZM149.428 43.188C148.227 43.188 147.173 43.0067 146.266 42.644C145.359 42.2587 144.611 41.76 144.022 41.148C143.433 40.5133 142.991 39.7993 142.696 39.006C142.401 38.19 142.254 37.3513 142.254 36.49V35.198C142.254 34.3367 142.401 33.5093 142.696 32.716C142.991 31.9 143.433 31.186 144.022 30.574C144.611 29.9393 145.359 29.4407 146.266 29.078C147.173 28.6927 148.227 28.5 149.428 28.5C150.629 28.5 151.672 28.6927 152.556 29.078C153.463 29.4407 154.211 29.9393 154.8 30.574C155.412 31.186 155.865 31.9 156.16 32.716C156.455 33.5093 156.602 34.3367 156.602 35.198V36.49C156.602 37.3513 156.455 38.19 156.16 39.006C155.865 39.7993 155.412 40.5133 154.8 41.148C154.211 41.76 153.463 42.2587 152.556 42.644C151.672 43.0067 150.629 43.188 149.428 43.188ZM149.428 32.002C148.363 32.002 147.558 32.342 147.014 33.022C146.493 33.702 146.232 34.5067 146.232 35.436V36.252C146.232 37.1813 146.493 37.986 147.014 38.666C147.558 39.346 148.363 39.686 149.428 39.686C150.493 39.686 151.287 39.346 151.808 38.666C152.352 37.986 152.624 37.1813 152.624 36.252V35.436C152.624 34.5067 152.352 33.702 151.808 33.022C151.287 32.342 150.493 32.002 149.428 32.002ZM169.318 45.16V58.93H148.782V45.16H153.032V48.764H165.068V45.16H169.318ZM162.654 33.634H165.238V27.276H169.318V43.732H165.238V37.306H162.654V43.664H158.608V27.684H162.654V33.634ZM165.068 55.36V52.3H153.032V55.36H165.068ZM208.015 44.48V53.456H192.341V55.802H208.967V59.202H188.193V50.226H203.867V47.88H188.023V44.48H208.015ZM191.389 37.646C191.276 37.9407 191.004 38.3033 190.573 38.734C190.165 39.1647 189.667 39.618 189.077 40.094C188.352 40.6833 187.604 41.2953 186.833 41.93C186.063 42.542 185.167 43.2107 184.147 43.936L181.665 40.808C182.708 40.0827 183.603 39.4253 184.351 38.836C185.122 38.224 185.893 37.5893 186.663 36.932C187.525 36.184 188.137 35.4133 188.499 34.62C188.862 33.8267 189.043 32.92 189.043 31.9V28.058H193.395V31.832C193.395 32.376 193.429 32.8633 193.497 33.294C193.565 33.7247 193.69 34.1327 193.871 34.518C194.053 34.8807 194.291 35.232 194.585 35.572C194.903 35.912 195.299 36.2747 195.775 36.66C196.047 36.864 196.365 37.102 196.727 37.374C197.113 37.646 197.509 37.9293 197.917 38.224C198.325 38.5187 198.745 38.8133 199.175 39.108C199.629 39.38 200.059 39.652 200.467 39.924L198.087 42.882C196.659 41.9527 195.231 40.9553 193.803 39.89C193.123 39.3687 192.579 38.938 192.171 38.598C191.786 38.2353 191.537 37.918 191.423 37.646H191.389ZM203.731 36.014H198.155V32.376H203.731V27.276H208.015V43.052H203.731V36.014ZM214.005 31.628H220.669V27.446H225.021V31.628H231.379V35.3H225.021V37.918C225.021 38.5753 225.066 39.176 225.157 39.72C225.247 40.264 225.383 40.7853 225.565 41.284C225.769 41.76 226.029 42.2247 226.347 42.678C226.664 43.1313 227.049 43.6073 227.503 44.106C227.797 44.446 228.137 44.82 228.523 45.228C228.931 45.6133 229.35 46.0213 229.781 46.452C230.211 46.86 230.642 47.2793 231.073 47.71C231.526 48.118 231.968 48.5147 232.399 48.9L229.645 51.756C228.919 51.076 228.194 50.3847 227.469 49.682C226.743 48.9567 226.063 48.2653 225.429 47.608C224.749 46.9053 224.182 46.3047 223.729 45.806C223.298 45.2847 223.026 44.888 222.913 44.616H222.845C222.686 44.9333 222.357 45.3867 221.859 45.976C221.36 46.5653 220.827 47.1547 220.261 47.744C219.626 48.4013 218.969 49.0813 218.289 49.784C217.609 50.464 216.793 51.2347 215.841 52.096L213.019 49.206C214.877 47.5513 216.555 45.908 218.051 44.276C218.549 43.7093 218.969 43.188 219.309 42.712C219.649 42.236 219.921 41.76 220.125 41.284C220.329 40.7853 220.465 40.2753 220.533 39.754C220.623 39.21 220.669 38.598 220.669 37.918V35.3H214.005V31.628ZM239.335 58.896H235.017V27.276H239.335V58.896Z" fill="white"/>
</svg>
