<svg width="474" height="198" viewBox="0 0 474 198" fill="none" xmlns="http://www.w3.org/2000/svg">
<g filter="url(#filter0_i)">
<rect x="10" y="35" width="377" height="39" rx="19.5" fill="#113584"/>
</g>
<g filter="url(#filter1_i)">
<rect x="10" y="87" width="377" height="39" rx="19.5" fill="#123A8C"/>
</g>
<g filter="url(#filter2_d)">
<rect x="10" y="146" width="240" height="44" rx="22" fill="#406FCD"/>
</g>
<rect x="10" y="35" width="161" height="39" rx="19.5" fill="white"/>
<path d="M37.1885 59.48V57.536H39.6845V47.264H37.4285V45.32H50.1005V47.264H47.9645V57.44C48.8925 57.392 49.8205 57.32 50.7485 57.224L50.9165 59.144C49.7485 59.272 48.4765 59.36 47.1005 59.408C45.7245 59.456 44.1885 59.48 42.4925 59.48H37.1885ZM57.8765 53.288H54.4685V65.36H52.0925V43.232H54.4685V51.224H57.8765V53.288ZM43.1645 57.536C43.5485 57.536 43.9485 57.536 44.3645 57.536C44.7805 57.536 45.2045 57.528 45.6365 57.512V47.264H42.0125V57.536H43.1645ZM83.6323 56.744H68.6803V44.888H83.2963V46.904H71.0563V49.832H83.1283V51.8H71.0563V54.728H83.6323V56.744ZM86.2483 60.392V62.408H65.9443V60.392H86.2483ZM110.612 65.36V51.848H104.564V49.76H110.612V43.232H112.988V65.36H110.612ZM98.708 57.248H99.908C101.476 57.248 102.956 57.2 104.348 57.104C105.756 57.008 107.116 56.848 108.428 56.624L108.692 58.664C107.268 58.92 105.82 59.096 104.348 59.192C102.892 59.288 101.268 59.336 99.476 59.336H96.332V45.08H98.708V57.248ZM143.856 60.392V62.408H123.552V60.392H143.856ZM133.704 51.608C133.576 51.88 133.272 52.224 132.792 52.64C132.328 53.056 131.688 53.52 130.872 54.032C130.168 54.48 129.424 54.944 128.64 55.424C127.856 55.888 126.96 56.4 125.952 56.96L124.776 55.088C125.736 54.56 126.616 54.064 127.416 53.6C128.216 53.136 129.016 52.632 129.816 52.088C130.36 51.72 130.808 51.368 131.16 51.032C131.512 50.696 131.784 50.344 131.976 49.976C132.184 49.608 132.32 49.208 132.384 48.776C132.464 48.328 132.504 47.808 132.504 47.216V44.792H134.904V47.216C134.904 47.808 134.936 48.328 135 48.776C135.064 49.208 135.2 49.616 135.408 50C135.616 50.368 135.912 50.728 136.296 51.08C136.68 51.432 137.2 51.824 137.856 52.256C138.608 52.752 139.36 53.216 140.112 53.648C140.864 54.08 141.712 54.552 142.656 55.064L141.504 56.912C140.608 56.4 139.736 55.904 138.888 55.424C138.04 54.928 137.256 54.448 136.536 53.984C135.752 53.488 135.12 53.04 134.64 52.64C134.16 52.224 133.856 51.88 133.728 51.608H133.704Z" fill="#0E48C4"/>
<rect x="10" y="86.5" width="162" height="39" rx="19.5" fill="white"/>
<path d="M42.7746 106.084C42.6946 106.324 42.5586 106.58 42.3666 106.852C42.1906 107.108 41.9826 107.38 41.7426 107.668C41.2626 108.244 40.7266 108.852 40.1346 109.492C39.5426 110.132 38.9266 110.78 38.2866 111.436L36.6786 109.828C37.3986 109.14 38.0706 108.468 38.6946 107.812C39.3186 107.156 39.8866 106.492 40.3986 105.82C40.8786 105.196 41.1986 104.58 41.3586 103.972C41.5186 103.364 41.5986 102.716 41.5986 102.028V98.86H37.8066V96.868H47.4546V98.86H43.9026V102.028C43.9026 102.716 43.9906 103.356 44.1666 103.948C44.3586 104.54 44.6946 105.148 45.1746 105.772C45.6866 106.428 46.2146 107.052 46.7586 107.644C47.3026 108.236 47.9346 108.876 48.6546 109.564L47.0466 111.148C46.4066 110.508 45.8226 109.916 45.2946 109.372C44.7826 108.812 44.2866 108.244 43.8066 107.668C43.5666 107.38 43.3586 107.108 43.1826 106.852C43.0066 106.58 42.8786 106.324 42.7986 106.084H42.7746ZM49.7106 95.188H52.0386V115.78H49.7106V104.044H46.3506V101.98H49.7106V95.188ZM56.4306 116.86H54.1026V94.732H56.4306V116.86ZM62.4104 103.42C62.4104 102.908 62.5464 102.428 62.8184 101.98C63.1064 101.532 63.5304 101.148 64.0904 100.828C64.6664 100.492 65.3704 100.236 66.2024 100.06C67.0504 99.868 68.0344 99.772 69.1544 99.772C70.2744 99.772 71.2504 99.868 72.0824 100.06C72.9304 100.236 73.6344 100.492 74.1944 100.828C74.7704 101.148 75.1944 101.532 75.4664 101.98C75.7544 102.428 75.8984 102.908 75.8984 103.42V103.996C75.8984 104.508 75.7544 104.988 75.4664 105.436C75.1944 105.884 74.7704 106.276 74.1944 106.612C73.6344 106.932 72.9304 107.188 72.0824 107.38C71.2504 107.556 70.2744 107.644 69.1544 107.644C68.0344 107.644 67.0504 107.556 66.2024 107.38C65.3704 107.188 64.6664 106.932 64.0904 106.612C63.5304 106.276 63.1064 105.884 62.8184 105.436C62.5464 104.988 62.4104 104.508 62.4104 103.996V103.42ZM71.8184 116.86V110.836H66.4904V116.86H64.1144V110.836H59.0024V108.82H79.3064V110.836H74.1944V116.86H71.8184ZM70.3784 96.82H77.4104V98.812H60.8984V96.82H67.9304V94.3H70.3784V96.82ZM64.7624 103.876C64.7624 104.068 64.8424 104.276 65.0024 104.5C65.1784 104.724 65.4424 104.924 65.7944 105.1C66.1624 105.276 66.6184 105.428 67.1624 105.556C67.7224 105.668 68.3864 105.724 69.1544 105.724C69.9224 105.724 70.5784 105.668 71.1224 105.556C71.6824 105.428 72.1384 105.276 72.4904 105.1C72.8584 104.924 73.1224 104.724 73.2824 104.5C73.4584 104.276 73.5464 104.068 73.5464 103.876V103.54C73.5464 103.348 73.4584 103.14 73.2824 102.916C73.1224 102.692 72.8584 102.492 72.4904 102.316C72.1384 102.14 71.6824 101.996 71.1224 101.884C70.5784 101.756 69.9224 101.692 69.1544 101.692C68.3864 101.692 67.7224 101.756 67.1624 101.884C66.6184 101.996 66.1624 102.14 65.7944 102.316C65.4424 102.492 65.1784 102.692 65.0024 102.916C64.8424 103.14 64.7624 103.348 64.7624 103.54V103.876ZM85.8381 112.3C85.8381 111.724 85.9901 111.18 86.2941 110.668C86.6141 110.156 87.0621 109.708 87.6381 109.324C88.2301 108.94 88.9421 108.636 89.7741 108.412C90.6221 108.188 91.5741 108.076 92.6301 108.076C93.6861 108.076 94.6301 108.188 95.4621 108.412C96.3101 108.636 97.0221 108.94 97.5981 109.324C98.1901 109.708 98.6381 110.156 98.9421 110.668C99.2621 111.18 99.4221 111.724 99.4221 112.3V113.26C99.4221 113.836 99.2621 114.38 98.9421 114.892C98.6381 115.404 98.1901 115.852 97.5981 116.236C97.0221 116.62 96.3101 116.924 95.4621 117.148C94.6301 117.372 93.6861 117.484 92.6301 117.484C91.5741 117.484 90.6221 117.372 89.7741 117.148C88.9421 116.924 88.2301 116.62 87.6381 116.236C87.0621 115.852 86.6141 115.404 86.2941 114.892C85.9901 114.38 85.8381 113.836 85.8381 113.26V112.3ZM92.5341 101.644C92.5341 102.172 92.4221 102.724 92.1981 103.3C91.9901 103.876 91.6541 104.404 91.1901 104.884C90.7421 105.348 90.1741 105.732 89.4861 106.036C88.7981 106.34 87.9821 106.492 87.0381 106.492C86.0941 106.492 85.2781 106.34 84.5901 106.036C83.9021 105.732 83.3261 105.348 82.8621 104.884C82.4141 104.404 82.0781 103.876 81.8541 103.3C81.6461 102.724 81.5421 102.172 81.5421 101.644V100.42C81.5421 99.892 81.6461 99.34 81.8541 98.764C82.0781 98.188 82.4141 97.668 82.8621 97.204C83.3261 96.724 83.9021 96.332 84.5901 96.028C85.2781 95.724 86.0941 95.572 87.0381 95.572C87.9821 95.572 88.7981 95.724 89.4861 96.028C90.1741 96.332 90.7421 96.724 91.1901 97.204C91.6541 97.668 91.9901 98.188 92.1981 98.764C92.4221 99.34 92.5341 99.892 92.5341 100.42V101.644ZM96.9981 107.788V104.524H93.5181V102.484H96.9981V99.532H93.5181V97.492H96.9981V94.732H99.3261V107.788H96.9981ZM97.0941 112.444C97.0941 112.156 96.9901 111.868 96.7821 111.58C96.5741 111.276 96.2781 111.012 95.8941 110.788C95.5101 110.564 95.0381 110.38 94.4781 110.236C93.9341 110.092 93.3181 110.02 92.6301 110.02C91.9421 110.02 91.3181 110.092 90.7581 110.236C90.2141 110.38 89.7501 110.564 89.3661 110.788C88.9821 111.012 88.6861 111.276 88.4781 111.58C88.2701 111.868 88.1661 112.156 88.1661 112.444V113.116C88.1661 113.404 88.2701 113.692 88.4781 113.98C88.6861 114.284 88.9821 114.548 89.3661 114.772C89.7501 114.996 90.2141 115.18 90.7581 115.324C91.3181 115.468 91.9421 115.54 92.6301 115.54C93.3181 115.54 93.9341 115.468 94.4781 115.324C95.0381 115.18 95.5101 114.996 95.8941 114.772C96.2781 114.548 96.5741 114.284 96.7821 113.98C96.9901 113.692 97.0941 113.404 97.0941 113.116V112.444ZM90.2541 100.54C90.2541 100.188 90.1901 99.844 90.0621 99.508C89.9341 99.156 89.7341 98.844 89.4621 98.572C89.2061 98.284 88.8701 98.06 88.4541 97.9C88.0541 97.724 87.5821 97.636 87.0381 97.636C86.4781 97.636 85.9981 97.724 85.5981 97.9C85.1981 98.06 84.8621 98.284 84.5901 98.572C84.3341 98.844 84.1421 99.156 84.0141 99.508C83.8861 99.844 83.8221 100.188 83.8221 100.54V101.524C83.8221 101.876 83.8861 102.228 84.0141 102.58C84.1421 102.916 84.3341 103.228 84.5901 103.516C84.8621 103.788 85.1981 104.012 85.5981 104.188C85.9981 104.348 86.4781 104.428 87.0381 104.428C87.5821 104.428 88.0541 104.348 88.4541 104.188C88.8701 104.012 89.2061 103.788 89.4621 103.516C89.7341 103.228 89.9341 102.916 90.0621 102.58C90.1901 102.228 90.2541 101.876 90.2541 101.524V100.54ZM118.818 106.06V101.572H114.33C114.266 102.084 114.098 102.588 113.826 103.084C113.57 103.58 113.21 104.02 112.746 104.404C112.298 104.788 111.746 105.1 111.09 105.34C110.45 105.564 109.714 105.676 108.882 105.676C107.97 105.676 107.17 105.54 106.482 105.268C105.794 104.996 105.218 104.644 104.754 104.212C104.306 103.764 103.962 103.268 103.722 102.724C103.498 102.164 103.386 101.604 103.386 101.044V100.132C103.386 99.572 103.498 99.02 103.722 98.476C103.962 97.916 104.306 97.42 104.754 96.988C105.218 96.54 105.794 96.18 106.482 95.908C107.17 95.636 107.97 95.5 108.882 95.5C109.714 95.5 110.45 95.62 111.09 95.86C111.73 96.084 112.274 96.388 112.722 96.772C113.186 97.14 113.546 97.564 113.802 98.044C114.074 98.524 114.25 99.02 114.33 99.532H118.818V94.732H121.17V106.06H118.818ZM121.17 107.14V116.86H107.37V107.14H109.722V109.948H118.818V107.14H121.17ZM108.882 103.636C109.394 103.636 109.85 103.556 110.25 103.396C110.65 103.236 110.986 103.028 111.258 102.772C111.53 102.516 111.738 102.228 111.882 101.908C112.026 101.588 112.098 101.26 112.098 100.924V100.252C112.098 99.916 112.026 99.588 111.882 99.268C111.738 98.948 111.53 98.668 111.258 98.428C110.986 98.172 110.65 97.964 110.25 97.804C109.85 97.644 109.394 97.564 108.882 97.564C108.37 97.564 107.914 97.644 107.514 97.804C107.114 97.964 106.778 98.172 106.506 98.428C106.234 98.668 106.026 98.948 105.882 99.268C105.738 99.588 105.666 99.916 105.666 100.252V100.924C105.666 101.26 105.738 101.588 105.882 101.908C106.026 102.228 106.234 102.516 106.506 102.772C106.778 103.028 107.114 103.236 107.514 103.396C107.914 103.556 108.37 103.636 108.882 103.636ZM118.818 114.844V111.94H109.722V114.844H118.818ZM140.446 105.748V94.732H142.798V105.748H140.446ZM129.094 117.004V110.956H140.47V108.82H128.974V106.852H142.798V112.876H131.422V115.036H143.422V117.004H129.094ZM131.446 101.356C131.398 101.548 131.23 101.812 130.942 102.148C130.654 102.468 130.286 102.828 129.838 103.228C129.326 103.676 128.726 104.18 128.038 104.74C127.366 105.284 126.694 105.788 126.022 106.252L124.654 104.572C125.422 103.996 126.166 103.428 126.886 102.868C127.606 102.292 128.182 101.804 128.614 101.404C129.206 100.86 129.614 100.324 129.838 99.796C130.062 99.252 130.174 98.556 130.174 97.708V95.284H132.574V97.612C132.574 97.98 132.59 98.316 132.622 98.62C132.654 98.908 132.71 99.18 132.79 99.436C132.886 99.676 133.014 99.916 133.174 100.156C133.334 100.38 133.55 100.612 133.822 100.852C134.382 101.364 134.998 101.868 135.67 102.364C136.358 102.844 137.046 103.316 137.734 103.78L136.366 105.508C135.758 105.06 135.158 104.62 134.566 104.188C133.974 103.756 133.398 103.3 132.838 102.82C132.518 102.548 132.222 102.284 131.95 102.028C131.694 101.756 131.534 101.532 131.47 101.356H131.446Z" fill="#0E48C4"/>
<path d="M217.582 64.624V50.104L213.526 52.504L212.398 50.584L217.966 47.32H219.958V64.624H217.582ZM236.118 50.248C235.574 49.928 234.99 49.68 234.366 49.504C233.742 49.328 233.086 49.24 232.398 49.24C231.806 49.24 231.262 49.344 230.766 49.552C230.286 49.744 229.862 50.072 229.494 50.536C229.142 51 228.854 51.616 228.63 52.384C228.422 53.152 228.294 54.104 228.246 55.24C228.39 54.984 228.59 54.744 228.846 54.52C229.118 54.28 229.43 54.072 229.782 53.896C230.15 53.704 230.55 53.552 230.982 53.44C231.43 53.328 231.894 53.272 232.374 53.272C233.142 53.272 233.854 53.4 234.51 53.656C235.182 53.912 235.758 54.28 236.238 54.76C236.734 55.24 237.118 55.824 237.39 56.512C237.678 57.184 237.822 57.944 237.822 58.792V59.32C237.822 60.152 237.678 60.912 237.39 61.6C237.102 62.272 236.702 62.856 236.19 63.352C235.678 63.832 235.054 64.208 234.318 64.48C233.598 64.752 232.798 64.888 231.918 64.888C229.966 64.888 228.47 64.288 227.43 63.088C226.406 61.872 225.894 60.096 225.894 57.76V56.872C225.894 54.984 226.054 53.408 226.374 52.144C226.71 50.88 227.166 49.872 227.742 49.12C228.334 48.368 229.038 47.84 229.854 47.536C230.67 47.216 231.566 47.056 232.542 47.056C233.326 47.056 234.102 47.152 234.87 47.344C235.654 47.536 236.374 47.832 237.03 48.232L236.118 50.248ZM228.318 59.08C228.318 60.2 228.63 61.088 229.254 61.744C229.878 62.4 230.734 62.728 231.822 62.728C232.942 62.728 233.822 62.424 234.462 61.816C235.118 61.208 235.446 60.336 235.446 59.2V58.888C235.446 57.736 235.118 56.864 234.462 56.272C233.806 55.68 232.95 55.384 231.894 55.384C231.366 55.384 230.878 55.472 230.43 55.648C229.998 55.824 229.622 56.064 229.302 56.368C228.998 56.656 228.758 57.008 228.582 57.424C228.406 57.824 228.318 58.264 228.318 58.744V59.08ZM250.767 50.248C250.223 49.928 249.639 49.68 249.015 49.504C248.391 49.328 247.735 49.24 247.047 49.24C246.455 49.24 245.911 49.344 245.415 49.552C244.935 49.744 244.511 50.072 244.143 50.536C243.791 51 243.503 51.616 243.279 52.384C243.071 53.152 242.943 54.104 242.895 55.24C243.039 54.984 243.239 54.744 243.495 54.52C243.767 54.28 244.079 54.072 244.431 53.896C244.799 53.704 245.199 53.552 245.631 53.44C246.079 53.328 246.543 53.272 247.023 53.272C247.791 53.272 248.503 53.4 249.159 53.656C249.831 53.912 250.407 54.28 250.887 54.76C251.383 55.24 251.767 55.824 252.039 56.512C252.327 57.184 252.471 57.944 252.471 58.792V59.32C252.471 60.152 252.327 60.912 252.039 61.6C251.751 62.272 251.351 62.856 250.839 63.352C250.327 63.832 249.703 64.208 248.967 64.48C248.247 64.752 247.447 64.888 246.567 64.888C244.615 64.888 243.119 64.288 242.079 63.088C241.055 61.872 240.543 60.096 240.543 57.76V56.872C240.543 54.984 240.703 53.408 241.023 52.144C241.359 50.88 241.815 49.872 242.391 49.12C242.983 48.368 243.687 47.84 244.503 47.536C245.319 47.216 246.215 47.056 247.191 47.056C247.975 47.056 248.751 47.152 249.519 47.344C250.303 47.536 251.023 47.832 251.679 48.232L250.767 50.248ZM242.967 59.08C242.967 60.2 243.279 61.088 243.903 61.744C244.527 62.4 245.383 62.728 246.471 62.728C247.591 62.728 248.471 62.424 249.111 61.816C249.767 61.208 250.095 60.336 250.095 59.2V58.888C250.095 57.736 249.767 56.864 249.111 56.272C248.455 55.68 247.599 55.384 246.543 55.384C246.015 55.384 245.527 55.472 245.079 55.648C244.647 55.824 244.271 56.064 243.951 56.368C243.647 56.656 243.407 57.008 243.231 57.424C243.055 57.824 242.967 58.264 242.967 58.744V59.08ZM265.415 50.248C264.871 49.928 264.287 49.68 263.663 49.504C263.039 49.328 262.383 49.24 261.695 49.24C261.103 49.24 260.559 49.344 260.063 49.552C259.583 49.744 259.159 50.072 258.791 50.536C258.439 51 258.151 51.616 257.927 52.384C257.719 53.152 257.591 54.104 257.543 55.24C257.687 54.984 257.887 54.744 258.143 54.52C258.415 54.28 258.727 54.072 259.079 53.896C259.447 53.704 259.847 53.552 260.279 53.44C260.727 53.328 261.191 53.272 261.671 53.272C262.439 53.272 263.151 53.4 263.807 53.656C264.479 53.912 265.055 54.28 265.535 54.76C266.031 55.24 266.415 55.824 266.687 56.512C266.975 57.184 267.119 57.944 267.119 58.792V59.32C267.119 60.152 266.975 60.912 266.687 61.6C266.399 62.272 265.999 62.856 265.487 63.352C264.975 63.832 264.351 64.208 263.615 64.48C262.895 64.752 262.095 64.888 261.215 64.888C259.263 64.888 257.767 64.288 256.727 63.088C255.703 61.872 255.191 60.096 255.191 57.76V56.872C255.191 54.984 255.351 53.408 255.671 52.144C256.007 50.88 256.463 49.872 257.039 49.12C257.631 48.368 258.335 47.84 259.151 47.536C259.967 47.216 260.863 47.056 261.839 47.056C262.623 47.056 263.399 47.152 264.167 47.344C264.951 47.536 265.671 47.832 266.327 48.232L265.415 50.248ZM257.615 59.08C257.615 60.2 257.927 61.088 258.551 61.744C259.175 62.4 260.031 62.728 261.119 62.728C262.239 62.728 263.119 62.424 263.759 61.816C264.415 61.208 264.743 60.336 264.743 59.2V58.888C264.743 57.736 264.415 56.864 263.759 56.272C263.103 55.68 262.247 55.384 261.191 55.384C260.663 55.384 260.175 55.472 259.727 55.648C259.295 55.824 258.919 56.064 258.599 56.368C258.295 56.656 258.055 57.008 257.879 57.424C257.703 57.824 257.615 58.264 257.615 58.744V59.08ZM270.512 62.848H273.248V65.608H270.512V62.848ZM288.822 59.416C288.822 60.056 288.71 60.704 288.486 61.36C288.262 62 287.91 62.584 287.43 63.112C286.95 63.64 286.326 64.064 285.558 64.384C284.79 64.72 283.87 64.888 282.798 64.888C281.614 64.888 280.542 64.728 279.582 64.408C278.622 64.104 277.734 63.624 276.918 62.968L278.094 61.072C278.926 61.728 279.718 62.168 280.47 62.392C281.238 62.616 282.03 62.728 282.846 62.728C283.47 62.728 284.006 62.632 284.454 62.44C284.918 62.248 285.294 62 285.582 61.696C285.886 61.376 286.102 61.016 286.23 60.616C286.374 60.216 286.446 59.816 286.446 59.416V59.128C286.446 57.976 286.142 57.12 285.534 56.56C284.926 55.984 284.07 55.696 282.966 55.696C282.23 55.696 281.574 55.832 280.998 56.104C280.438 56.376 279.966 56.696 279.582 57.064H277.758L278.31 47.32H287.694V49.36H280.47L280.206 54.76C280.59 54.472 281.078 54.224 281.67 54.016C282.278 53.808 282.942 53.704 283.662 53.704C284.478 53.704 285.206 53.848 285.846 54.136C286.486 54.408 287.022 54.792 287.454 55.288C287.902 55.768 288.238 56.336 288.462 56.992C288.702 57.632 288.822 58.32 288.822 59.056V59.416ZM301.767 50.248C301.223 49.928 300.639 49.68 300.015 49.504C299.391 49.328 298.735 49.24 298.047 49.24C297.455 49.24 296.911 49.344 296.415 49.552C295.935 49.744 295.511 50.072 295.143 50.536C294.791 51 294.503 51.616 294.279 52.384C294.071 53.152 293.943 54.104 293.895 55.24C294.039 54.984 294.239 54.744 294.495 54.52C294.767 54.28 295.079 54.072 295.431 53.896C295.799 53.704 296.199 53.552 296.631 53.44C297.079 53.328 297.543 53.272 298.023 53.272C298.791 53.272 299.503 53.4 300.159 53.656C300.831 53.912 301.407 54.28 301.887 54.76C302.383 55.24 302.767 55.824 303.039 56.512C303.327 57.184 303.471 57.944 303.471 58.792V59.32C303.471 60.152 303.327 60.912 303.039 61.6C302.751 62.272 302.351 62.856 301.839 63.352C301.327 63.832 300.703 64.208 299.967 64.48C299.247 64.752 298.447 64.888 297.567 64.888C295.615 64.888 294.119 64.288 293.079 63.088C292.055 61.872 291.543 60.096 291.543 57.76V56.872C291.543 54.984 291.703 53.408 292.023 52.144C292.359 50.88 292.815 49.872 293.391 49.12C293.983 48.368 294.687 47.84 295.503 47.536C296.319 47.216 297.215 47.056 298.191 47.056C298.975 47.056 299.751 47.152 300.519 47.344C301.303 47.536 302.023 47.832 302.679 48.232L301.767 50.248ZM293.967 59.08C293.967 60.2 294.279 61.088 294.903 61.744C295.527 62.4 296.383 62.728 297.471 62.728C298.591 62.728 299.471 62.424 300.111 61.816C300.767 61.208 301.095 60.336 301.095 59.2V58.888C301.095 57.736 300.767 56.864 300.111 56.272C299.455 55.68 298.599 55.384 297.543 55.384C297.015 55.384 296.527 55.472 296.079 55.648C295.647 55.824 295.271 56.064 294.951 56.368C294.647 56.656 294.407 57.008 294.231 57.424C294.055 57.824 293.967 58.264 293.967 58.744V59.08ZM312.527 64.624V50.104L308.471 52.504L307.343 50.584L312.911 47.32H314.903V64.624H312.527ZM332.768 59.416C332.768 60.056 332.656 60.704 332.432 61.36C332.208 62 331.856 62.584 331.376 63.112C330.896 63.64 330.272 64.064 329.504 64.384C328.736 64.72 327.816 64.888 326.744 64.888C325.56 64.888 324.488 64.728 323.528 64.408C322.568 64.104 321.68 63.624 320.864 62.968L322.04 61.072C322.872 61.728 323.664 62.168 324.416 62.392C325.184 62.616 325.976 62.728 326.792 62.728C327.416 62.728 327.952 62.632 328.4 62.44C328.864 62.248 329.24 62 329.528 61.696C329.832 61.376 330.048 61.016 330.176 60.616C330.32 60.216 330.392 59.816 330.392 59.416V59.128C330.392 57.976 330.088 57.12 329.48 56.56C328.872 55.984 328.016 55.696 326.912 55.696C326.176 55.696 325.52 55.832 324.944 56.104C324.384 56.376 323.912 56.696 323.528 57.064H321.704L322.256 47.32H331.64V49.36H324.416L324.152 54.76C324.536 54.472 325.024 54.224 325.616 54.016C326.224 53.808 326.888 53.704 327.608 53.704C328.424 53.704 329.152 53.848 329.792 54.136C330.432 54.408 330.968 54.792 331.4 55.288C331.848 55.768 332.184 56.336 332.408 56.992C332.648 57.632 332.768 58.32 332.768 59.056V59.416Z" fill="white"/>
<path d="M206.198 108.304C206.198 110.752 205.694 112.632 204.686 113.944C203.694 115.24 202.158 115.888 200.078 115.888C198.014 115.888 196.478 115.232 195.47 113.92C194.462 112.608 193.958 110.736 193.958 108.304V105.616C193.958 103.184 194.47 101.32 195.494 100.024C196.518 98.712 198.046 98.056 200.078 98.056C202.126 98.056 203.654 98.712 204.662 100.024C205.686 101.32 206.198 103.184 206.198 105.616V108.304ZM203.774 105.592C203.774 104.536 203.678 103.664 203.486 102.976C203.31 102.288 203.054 101.744 202.718 101.344C202.382 100.944 201.99 100.664 201.542 100.504C201.094 100.344 200.606 100.264 200.078 100.264C199.566 100.264 199.086 100.344 198.638 100.504C198.19 100.664 197.798 100.952 197.462 101.368C197.126 101.768 196.862 102.312 196.67 103C196.478 103.672 196.382 104.536 196.382 105.592V108.328C196.382 109.384 196.478 110.264 196.67 110.968C196.862 111.656 197.126 112.2 197.462 112.6C197.798 113 198.19 113.28 198.638 113.44C199.086 113.6 199.566 113.68 200.078 113.68C200.606 113.68 201.094 113.6 201.542 113.44C201.99 113.28 202.382 113 202.718 112.6C203.054 112.2 203.31 111.656 203.486 110.968C203.678 110.28 203.774 109.4 203.774 108.328V105.592ZM215.23 115.624V101.104L211.174 103.504L210.046 101.584L215.614 98.32H217.606V115.624H215.23ZM235.495 108.304C235.495 110.752 234.991 112.632 233.983 113.944C232.991 115.24 231.455 115.888 229.375 115.888C227.311 115.888 225.775 115.232 224.767 113.92C223.759 112.608 223.255 110.736 223.255 108.304V105.616C223.255 103.184 223.767 101.32 224.791 100.024C225.815 98.712 227.343 98.056 229.375 98.056C231.423 98.056 232.951 98.712 233.959 100.024C234.983 101.32 235.495 103.184 235.495 105.616V108.304ZM233.071 105.592C233.071 104.536 232.975 103.664 232.783 102.976C232.607 102.288 232.351 101.744 232.015 101.344C231.679 100.944 231.287 100.664 230.839 100.504C230.391 100.344 229.903 100.264 229.375 100.264C228.863 100.264 228.383 100.344 227.935 100.504C227.487 100.664 227.095 100.952 226.759 101.368C226.423 101.768 226.159 102.312 225.967 103C225.775 103.672 225.679 104.536 225.679 105.592V108.328C225.679 109.384 225.775 110.264 225.967 110.968C226.159 111.656 226.423 112.2 226.759 112.6C227.095 113 227.487 113.28 227.935 113.44C228.383 113.6 228.863 113.68 229.375 113.68C229.903 113.68 230.391 113.6 230.839 113.44C231.287 113.28 231.679 113 232.015 112.6C232.351 112.2 232.607 111.656 232.783 110.968C232.975 110.28 233.071 109.4 233.071 108.328V105.592ZM238.863 113.848H241.599V116.608H238.863V113.848ZM251.75 106.624C252.246 106.08 252.638 105.608 252.926 105.208C253.214 104.808 253.43 104.456 253.574 104.152C253.718 103.832 253.806 103.552 253.838 103.312C253.886 103.056 253.91 102.816 253.91 102.592V102.4C253.91 101.712 253.638 101.176 253.094 100.792C252.566 100.392 251.846 100.192 250.934 100.192C250.614 100.192 250.286 100.232 249.95 100.312C249.63 100.376 249.31 100.504 248.99 100.696C248.67 100.888 248.358 101.152 248.054 101.488C247.75 101.808 247.454 102.216 247.166 102.712L245.342 101.536C245.55 101.168 245.806 100.784 246.11 100.384C246.414 99.968 246.782 99.592 247.214 99.256C247.662 98.904 248.182 98.616 248.774 98.392C249.382 98.168 250.086 98.056 250.886 98.056C251.766 98.056 252.542 98.168 253.214 98.392C253.886 98.6 254.446 98.896 254.894 99.28C255.358 99.664 255.702 100.128 255.926 100.672C256.166 101.2 256.286 101.776 256.286 102.4V102.64C256.286 103.584 256.038 104.472 255.542 105.304C255.046 106.136 254.406 106.968 253.622 107.8L248.222 113.56H256.91V115.624H245.294V113.632L251.75 106.624ZM264.91 115.624H262.318L269.182 100.384H259.774V98.32H271.75V100.144L264.91 115.624ZM286.471 110.416C286.471 111.056 286.359 111.704 286.135 112.36C285.911 113 285.559 113.584 285.079 114.112C284.599 114.64 283.975 115.064 283.207 115.384C282.439 115.72 281.519 115.888 280.447 115.888C279.263 115.888 278.191 115.728 277.231 115.408C276.271 115.104 275.383 114.624 274.567 113.968L275.743 112.072C276.575 112.728 277.367 113.168 278.119 113.392C278.887 113.616 279.679 113.728 280.495 113.728C281.119 113.728 281.655 113.632 282.103 113.44C282.567 113.248 282.943 113 283.231 112.696C283.535 112.376 283.751 112.016 283.879 111.616C284.023 111.216 284.095 110.816 284.095 110.416V110.128C284.095 108.976 283.791 108.12 283.183 107.56C282.575 106.984 281.719 106.696 280.615 106.696C279.879 106.696 279.223 106.832 278.647 107.104C278.087 107.376 277.615 107.696 277.231 108.064H275.407L275.959 98.32H285.343V100.36H278.119L277.855 105.76C278.239 105.472 278.727 105.224 279.319 105.016C279.927 104.808 280.591 104.704 281.311 104.704C282.127 104.704 282.855 104.848 283.495 105.136C284.135 105.408 284.671 105.792 285.103 106.288C285.551 106.768 285.887 107.336 286.111 107.992C286.351 108.632 286.471 109.32 286.471 110.056V110.416ZM295.527 115.624V101.104L291.471 103.504L290.343 101.584L295.911 98.32H297.903V115.624H295.527ZM304.512 113.848H307.248V116.608H304.512V113.848ZM315.91 115.624H313.318L320.182 100.384H310.774V98.32H322.75V100.144L315.91 115.624ZM326.983 112.648C327.527 112.968 328.111 113.224 328.735 113.416C329.359 113.608 330.015 113.704 330.703 113.704C331.295 113.704 331.839 113.608 332.335 113.416C332.847 113.224 333.279 112.904 333.631 112.456C333.999 111.992 334.287 111.384 334.495 110.632C334.703 109.88 334.823 108.936 334.855 107.8C334.711 108.056 334.503 108.304 334.231 108.544C333.959 108.768 333.639 108.976 333.271 109.168C332.919 109.344 332.527 109.488 332.095 109.6C331.663 109.712 331.207 109.768 330.727 109.768C329.959 109.768 329.239 109.64 328.567 109.384C327.911 109.128 327.335 108.76 326.839 108.28C326.359 107.8 325.975 107.224 325.687 106.552C325.415 105.864 325.279 105.096 325.279 104.248V103.72C325.279 102.888 325.423 102.128 325.711 101.44C325.999 100.752 326.399 100.16 326.911 99.664C327.423 99.152 328.039 98.76 328.759 98.488C329.495 98.2 330.303 98.056 331.183 98.056C333.119 98.056 334.607 98.648 335.647 99.832C336.687 101 337.207 102.752 337.207 105.088V105.976C337.207 107.88 337.063 109.464 336.775 110.728C336.487 111.992 336.055 113.008 335.479 113.776C334.919 114.544 334.223 115.088 333.391 115.408C332.575 115.728 331.631 115.888 330.559 115.888C329.775 115.888 328.991 115.784 328.207 115.576C327.439 115.368 326.727 115.064 326.071 114.664L326.983 112.648ZM334.783 103.912C334.783 102.792 334.471 101.896 333.847 101.224C333.223 100.552 332.367 100.216 331.279 100.216C330.159 100.216 329.271 100.528 328.615 101.152C327.975 101.776 327.655 102.656 327.655 103.792V104.104C327.655 105.256 327.991 106.136 328.663 106.744C329.335 107.352 330.183 107.656 331.207 107.656C331.735 107.656 332.215 107.568 332.647 107.392C333.095 107.216 333.471 106.976 333.775 106.672C334.095 106.352 334.343 105.992 334.519 105.592C334.695 105.176 334.783 104.728 334.783 104.248V103.912ZM343.143 103.024C343.143 103.888 343.415 104.56 343.959 105.04C344.519 105.52 345.207 105.76 346.023 105.76C346.839 105.76 347.519 105.52 348.063 105.04C348.623 104.56 348.903 103.888 348.903 103.024V102.76C348.903 101.944 348.639 101.304 348.111 100.84C347.583 100.376 346.887 100.144 346.023 100.144C345.159 100.144 344.463 100.376 343.935 100.84C343.407 101.304 343.143 101.944 343.143 102.76V103.024ZM342.687 111.016C342.687 111.832 342.983 112.496 343.575 113.008C344.183 113.504 345.007 113.752 346.047 113.752C347.087 113.752 347.895 113.504 348.471 113.008C349.063 112.496 349.359 111.832 349.359 111.016V110.752C349.359 109.808 349.047 109.088 348.423 108.592C347.799 108.096 347.007 107.848 346.047 107.848C345.583 107.848 345.143 107.912 344.727 108.04C344.327 108.152 343.975 108.336 343.671 108.592C343.367 108.832 343.127 109.136 342.951 109.504C342.775 109.856 342.687 110.272 342.687 110.752V111.016ZM340.239 110.728C340.239 110.248 340.311 109.8 340.455 109.384C340.615 108.952 340.831 108.568 341.103 108.232C341.375 107.88 341.687 107.576 342.039 107.32C342.407 107.064 342.799 106.872 343.215 106.744C342.383 106.344 341.759 105.792 341.343 105.088C340.943 104.384 340.743 103.664 340.743 102.928V102.592C340.743 101.968 340.855 101.384 341.079 100.84C341.319 100.296 341.663 99.816 342.111 99.4C342.559 98.984 343.111 98.656 343.767 98.416C344.423 98.176 345.175 98.056 346.023 98.056C346.855 98.056 347.599 98.176 348.255 98.416C348.911 98.656 349.463 98.984 349.911 99.4C350.359 99.816 350.703 100.296 350.943 100.84C351.183 101.384 351.303 101.968 351.303 102.592V102.928C351.303 103.664 351.103 104.376 350.703 105.064C350.303 105.752 349.679 106.312 348.831 106.744C349.679 107 350.383 107.488 350.943 108.208C351.519 108.928 351.807 109.768 351.807 110.728V111.136C351.807 111.824 351.671 112.464 351.399 113.056C351.143 113.632 350.767 114.128 350.271 114.544C349.775 114.96 349.167 115.288 348.447 115.528C347.743 115.768 346.935 115.888 346.023 115.888C345.111 115.888 344.295 115.768 343.575 115.528C342.871 115.288 342.271 114.96 341.775 114.544C341.279 114.128 340.895 113.632 340.623 113.056C340.367 112.464 340.239 111.824 340.239 111.136V110.728ZM366.768 110.416C366.768 111.056 366.656 111.704 366.432 112.36C366.208 113 365.856 113.584 365.376 114.112C364.896 114.64 364.272 115.064 363.504 115.384C362.736 115.72 361.816 115.888 360.744 115.888C359.56 115.888 358.488 115.728 357.528 115.408C356.568 115.104 355.68 114.624 354.864 113.968L356.04 112.072C356.872 112.728 357.664 113.168 358.416 113.392C359.184 113.616 359.976 113.728 360.792 113.728C361.416 113.728 361.952 113.632 362.4 113.44C362.864 113.248 363.24 113 363.528 112.696C363.832 112.376 364.048 112.016 364.176 111.616C364.32 111.216 364.392 110.816 364.392 110.416V110.128C364.392 108.976 364.088 108.12 363.48 107.56C362.872 106.984 362.016 106.696 360.912 106.696C360.176 106.696 359.52 106.832 358.944 107.104C358.384 107.376 357.912 107.696 357.528 108.064H355.704L356.256 98.32H365.64V100.36H358.416L358.152 105.76C358.536 105.472 359.024 105.224 359.616 105.016C360.224 104.808 360.888 104.704 361.608 104.704C362.424 104.704 363.152 104.848 363.792 105.136C364.432 105.408 364.968 105.792 365.4 106.288C365.848 106.768 366.184 107.336 366.408 107.992C366.648 108.632 366.768 109.32 366.768 110.056V110.416Z" fill="white"/>
<path d="M24.2223 174.48V172.536H26.7183V162.264H24.4623V160.32H37.1343V162.264H34.9983V172.44C35.9263 172.392 36.8543 172.32 37.7823 172.224L37.9503 174.144C36.7823 174.272 35.5103 174.36 34.1343 174.408C32.7583 174.456 31.2223 174.48 29.5263 174.48H24.2223ZM44.9103 168.288H41.5023V180.36H39.1263V158.232H41.5023V166.224H44.9103V168.288ZM30.1983 172.536C30.5823 172.536 30.9823 172.536 31.3983 172.536C31.8143 172.536 32.2383 172.528 32.6703 172.512V162.264H29.0463V172.536H30.1983ZM63.706 171.744H48.754V159.888H63.37V161.904H51.13V164.832H63.202V166.8H51.13V169.728H63.706V171.744ZM66.322 175.392V177.408H46.018V175.392H66.322ZM83.7258 180.36V166.848H77.6778V164.76H83.7258V158.232H86.1018V180.36H83.7258ZM71.8218 172.248H73.0218C74.5898 172.248 76.0698 172.2 77.4618 172.104C78.8698 172.008 80.2298 171.848 81.5418 171.624L81.8058 173.664C80.3818 173.92 78.9338 174.096 77.4618 174.192C76.0058 174.288 74.3818 174.336 72.5898 174.336H69.4458V160.08H71.8218V172.248ZM110.01 175.392V177.408H89.7055V175.392H110.01ZM99.8575 166.608C99.7295 166.88 99.4255 167.224 98.9455 167.64C98.4815 168.056 97.8415 168.52 97.0255 169.032C96.3215 169.48 95.5775 169.944 94.7935 170.424C94.0095 170.888 93.1135 171.4 92.1055 171.96L90.9295 170.088C91.8895 169.56 92.7695 169.064 93.5695 168.6C94.3695 168.136 95.1695 167.632 95.9695 167.088C96.5135 166.72 96.9615 166.368 97.3135 166.032C97.6655 165.696 97.9375 165.344 98.1295 164.976C98.3375 164.608 98.4735 164.208 98.5375 163.776C98.6175 163.328 98.6575 162.808 98.6575 162.216V159.792H101.057V162.216C101.057 162.808 101.089 163.328 101.154 163.776C101.218 164.208 101.354 164.616 101.562 165C101.77 165.368 102.066 165.728 102.45 166.08C102.834 166.432 103.354 166.824 104.01 167.256C104.762 167.752 105.514 168.216 106.266 168.648C107.018 169.08 107.866 169.552 108.81 170.064L107.658 171.912C106.762 171.4 105.89 170.904 105.042 170.424C104.194 169.928 103.41 169.448 102.69 168.984C101.906 168.488 101.274 168.04 100.794 167.64C100.314 167.224 100.01 166.88 99.8815 166.608H99.8575ZM118.173 173.856C119.533 173.104 120.669 172.432 121.581 171.84C122.509 171.248 123.269 170.712 123.861 170.232C124.453 169.736 124.901 169.28 125.205 168.864C125.509 168.432 125.725 168.008 125.853 167.592L118.197 167.808L118.125 165.816L126.021 165.672V162.24H118.581V160.224H128.373V164.904C128.373 165.592 128.357 166.224 128.325 166.8C128.293 167.376 128.189 167.928 128.013 168.456C127.837 168.968 127.565 169.488 127.197 170.016C126.829 170.528 126.309 171.072 125.637 171.648C124.965 172.208 124.117 172.824 123.093 173.496C122.069 174.168 120.813 174.92 119.325 175.752L118.173 173.856ZM138.285 168.384H134.877V180.36H132.501V158.232H134.877V166.32H138.285V168.384ZM140.017 173.856C141.377 173.104 142.513 172.432 143.425 171.84C144.353 171.248 145.113 170.712 145.705 170.232C146.297 169.736 146.745 169.28 147.049 168.864C147.353 168.432 147.569 168.008 147.697 167.592L140.041 167.808L139.969 165.816L147.865 165.672V162.24H140.425V160.224H150.217V164.904C150.217 165.592 150.201 166.224 150.169 166.8C150.137 167.376 150.033 167.928 149.857 168.456C149.681 168.968 149.409 169.488 149.041 170.016C148.673 170.528 148.153 171.072 147.481 171.648C146.809 172.208 145.961 172.824 144.937 173.496C143.913 174.168 142.657 174.92 141.169 175.752L140.017 173.856ZM160.129 168.384H156.721V180.36H154.345V158.232H156.721V166.32H160.129V168.384ZM181.541 175.392V177.408H161.237V175.392H170.189V171.36C169.309 171.264 168.485 171.08 167.717 170.808C166.965 170.52 166.309 170.152 165.749 169.704C165.189 169.24 164.749 168.696 164.429 168.072C164.109 167.448 163.949 166.76 163.949 166.008V164.856C163.949 164.024 164.141 163.272 164.525 162.6C164.925 161.928 165.461 161.36 166.133 160.896C166.821 160.432 167.613 160.072 168.509 159.816C169.421 159.56 170.381 159.432 171.389 159.432C172.397 159.432 173.349 159.56 174.245 159.816C175.157 160.072 175.949 160.432 176.621 160.896C177.309 161.36 177.845 161.928 178.229 162.6C178.629 163.272 178.829 164.024 178.829 164.856V166.008C178.829 166.76 178.661 167.448 178.325 168.072C178.005 168.696 177.565 169.24 177.005 169.704C176.445 170.152 175.781 170.52 175.013 170.808C174.261 171.08 173.445 171.264 172.565 171.36V175.392H181.541ZM171.389 161.496C170.701 161.496 170.045 161.576 169.421 161.736C168.813 161.896 168.269 162.128 167.789 162.432C167.325 162.736 166.957 163.104 166.685 163.536C166.413 163.968 166.277 164.448 166.277 164.976V165.888C166.277 166.416 166.413 166.896 166.685 167.328C166.957 167.76 167.325 168.128 167.789 168.432C168.269 168.736 168.813 168.968 169.421 169.128C170.045 169.288 170.701 169.368 171.389 169.368C172.077 169.368 172.725 169.288 173.333 169.128C173.957 168.968 174.501 168.736 174.965 168.432C175.445 168.128 175.821 167.76 176.093 167.328C176.365 166.896 176.501 166.416 176.501 165.888V164.976C176.501 164.448 176.365 163.968 176.093 163.536C175.821 163.104 175.445 162.736 174.965 162.432C174.501 162.128 173.957 161.896 173.333 161.736C172.725 161.576 172.077 161.496 171.389 161.496ZM206.433 167.208H192.033V159.096H206.433V167.208ZM198.321 175.584V171.312H189.081V169.296H209.385V171.312H200.721V175.584H198.321ZM194.385 178.056H206.889V180.12H192.009V173.592H194.385V178.056ZM204.081 161.088H194.385V165.216H204.081V161.088ZM218.412 170.376C217.5 170.376 216.684 170.24 215.964 169.968C215.244 169.696 214.628 169.336 214.116 168.888C213.604 168.44 213.212 167.928 212.94 167.352C212.668 166.776 212.532 166.176 212.532 165.552V164.448C212.532 163.824 212.668 163.224 212.94 162.648C213.212 162.072 213.604 161.56 214.116 161.112C214.628 160.664 215.244 160.304 215.964 160.032C216.684 159.76 217.5 159.624 218.412 159.624C219.324 159.624 220.14 159.76 220.86 160.032C221.58 160.304 222.196 160.664 222.708 161.112C223.22 161.56 223.612 162.072 223.884 162.648C224.156 163.224 224.292 163.824 224.292 164.448V165.552C224.292 166.176 224.156 166.776 223.884 167.352C223.612 167.928 223.22 168.44 222.708 168.888C222.196 169.336 221.58 169.696 220.86 169.968C220.14 170.24 219.324 170.376 218.412 170.376ZM218.412 168.312C218.908 168.312 219.372 168.232 219.804 168.072C220.252 167.912 220.636 167.704 220.956 167.448C221.292 167.176 221.548 166.864 221.724 166.512C221.916 166.16 222.012 165.792 222.012 165.408V164.592C222.012 164.192 221.916 163.816 221.724 163.464C221.548 163.096 221.292 162.784 220.956 162.528C220.636 162.272 220.252 162.072 219.804 161.928C219.372 161.768 218.908 161.688 218.412 161.688C217.9 161.688 217.428 161.768 216.996 161.928C216.564 162.072 216.18 162.272 215.844 162.528C215.524 162.784 215.268 163.096 215.076 163.464C214.9 163.816 214.812 164.192 214.812 164.592V165.408C214.812 165.792 214.9 166.16 215.076 166.512C215.268 166.864 215.524 167.176 215.844 167.448C216.18 167.704 216.564 167.912 216.996 168.072C217.428 168.232 217.9 168.312 218.412 168.312ZM226.02 175.176C225.012 175.272 223.98 175.36 222.924 175.44C221.868 175.504 220.748 175.56 219.564 175.608C218.396 175.656 217.14 175.696 215.796 175.728C214.468 175.744 213.02 175.752 211.452 175.752V173.688C213.036 173.688 214.484 173.68 215.796 173.664C217.124 173.648 218.364 173.624 219.516 173.592C220.668 173.544 221.756 173.488 222.78 173.424C223.804 173.36 224.812 173.28 225.804 173.184L226.02 175.176ZM227.172 180.36V158.232H229.524V180.36H227.172Z" fill="white"/>
<defs>
<filter id="filter0_i" x="10" y="35" width="377" height="43" filterUnits="userSpaceOnUse" color-interpolation-filters="sRGB">
<feFlood flood-opacity="0" result="BackgroundImageFix"/>
<feBlend mode="normal" in="SourceGraphic" in2="BackgroundImageFix" result="shape"/>
<feColorMatrix in="SourceAlpha" type="matrix" values="0 0 0 0 0 0 0 0 0 0 0 0 0 0 0 0 0 0 127 0" result="hardAlpha"/>
<feOffset dy="4"/>
<feGaussianBlur stdDeviation="2"/>
<feComposite in2="hardAlpha" operator="arithmetic" k2="-1" k3="1"/>
<feColorMatrix type="matrix" values="0 0 0 0 0.0371528 0 0 0 0 0.141497 0 0 0 0 0.445833 0 0 0 1 0"/>
<feBlend mode="normal" in2="shape" result="effect1_innerShadow"/>
</filter>
<filter id="filter1_i" x="10" y="87" width="377" height="43" filterUnits="userSpaceOnUse" color-interpolation-filters="sRGB">
<feFlood flood-opacity="0" result="BackgroundImageFix"/>
<feBlend mode="normal" in="SourceGraphic" in2="BackgroundImageFix" result="shape"/>
<feColorMatrix in="SourceAlpha" type="matrix" values="0 0 0 0 0 0 0 0 0 0 0 0 0 0 0 0 0 0 127 0" result="hardAlpha"/>
<feOffset dy="4"/>
<feGaussianBlur stdDeviation="2"/>
<feComposite in2="hardAlpha" operator="arithmetic" k2="-1" k3="1"/>
<feColorMatrix type="matrix" values="0 0 0 0 0.0371528 0 0 0 0 0.141497 0 0 0 0 0.445833 0 0 0 1 0"/>
<feBlend mode="normal" in2="shape" result="effect1_innerShadow"/>
</filter>
<filter id="filter2_d" x="6" y="146" width="248" height="52" filterUnits="userSpaceOnUse" color-interpolation-filters="sRGB">
<feFlood flood-opacity="0" result="BackgroundImageFix"/>
<feColorMatrix in="SourceAlpha" type="matrix" values="0 0 0 0 0 0 0 0 0 0 0 0 0 0 0 0 0 0 127 0"/>
<feOffset dy="4"/>
<feGaussianBlur stdDeviation="2"/>
<feColorMatrix type="matrix" values="0 0 0 0 0.0789931 0 0 0 0 0.155633 0 0 0 0 0.379167 0 0 0 1 0"/>
<feBlend mode="normal" in2="BackgroundImageFix" result="effect1_dropShadow"/>
<feBlend mode="normal" in="SourceGraphic" in2="effect1_dropShadow" result="shape"/>
</filter>
</defs>
</svg>
