<svg width="224" height="45" viewBox="0 0 224 45" fill="none" xmlns="http://www.w3.org/2000/svg">
<path d="M22.3423 0C10.037 0 0 10.0454 0 22.361C0 34.7049 10.037 44.7219 22.3423 44.7219H200.967C213.301 44.7219 223.309 34.6765 223.309 22.361C223.309 10.017 213.272 0 200.967 0H22.3423Z" fill="white"/>
<path d="M32.198 6.895H42.26C43.846 6.895 45.224 7.103 46.394 7.519C47.564 7.909 48.526 8.468 49.28 9.196C50.06 9.898 50.632 10.743 50.996 11.731C51.386 12.719 51.581 13.785 51.581 14.929V15.748C51.581 16.892 51.373 17.971 50.957 18.985C50.567 19.973 49.982 20.844 49.202 21.598C48.422 22.352 47.447 22.95 46.277 23.392C45.133 23.834 43.794 24.055 42.26 24.055H36.059V35.014H32.198V6.895ZM36.059 10.249V20.701H41.597C45.653 20.701 47.681 19.024 47.681 15.67V14.968C47.681 13.356 47.187 12.173 46.199 11.419C45.237 10.639 43.846 10.249 42.026 10.249H36.059ZM67.7343 17.386C67.3703 17.23 66.9673 17.113 66.5253 17.035C66.1093 16.931 65.6413 16.879 65.1213 16.879C64.4193 16.879 63.7433 17.022 63.0933 17.308C62.4693 17.568 61.9233 17.958 61.4553 18.478C60.9873 18.972 60.6103 19.57 60.3243 20.272C60.0383 20.974 59.8953 21.741 59.8953 22.573V35.014H56.1123V13.681H59.7783V17.074H59.8173C60.4413 15.878 61.2473 14.955 62.2353 14.305C63.2493 13.629 64.5363 13.291 66.0963 13.291C67.0323 13.291 67.9553 13.434 68.8653 13.72L67.7343 17.386ZM80.3338 16.528C79.5538 16.528 78.8258 16.671 78.1498 16.957C77.4998 17.217 76.9278 17.594 76.4338 18.088C75.9658 18.556 75.5888 19.141 75.3028 19.843C75.0428 20.519 74.9128 21.26 74.9128 22.066V22.612H85.5988V21.91C85.5988 20.272 85.1308 18.972 84.1948 18.01C83.2588 17.022 81.9718 16.528 80.3338 16.528ZM88.7578 32.986C87.8218 33.636 86.7038 34.182 85.4038 34.624C84.1038 35.092 82.4788 35.326 80.5288 35.326C79.2028 35.326 77.9678 35.131 76.8238 34.741C75.7058 34.377 74.7178 33.805 73.8598 33.025C73.0278 32.219 72.3648 31.192 71.8708 29.944C71.4028 28.696 71.1688 27.214 71.1688 25.498V23.08C71.1688 21.468 71.3898 20.051 71.8318 18.829C72.2998 17.607 72.9368 16.593 73.7428 15.787C74.5748 14.955 75.5498 14.331 76.6678 13.915C77.7858 13.499 79.0078 13.291 80.3338 13.291C83.0638 13.291 85.2348 14.123 86.8468 15.787C88.4588 17.451 89.2647 19.804 89.2647 22.846V25.693H74.9128V25.849C74.9128 27.877 75.4458 29.424 76.5118 30.49C77.5778 31.53 78.9688 32.05 80.6847 32.05C82.0888 32.05 83.2848 31.881 84.2728 31.543C85.2868 31.205 86.2488 30.737 87.1588 30.139L88.7578 32.986ZM123.449 35.014H119.666V22.222C119.666 18.556 118.327 16.723 115.649 16.723C115.051 16.723 114.453 16.827 113.855 17.035C113.283 17.217 112.763 17.516 112.295 17.932C111.827 18.322 111.437 18.842 111.125 19.492C110.839 20.116 110.696 20.857 110.696 21.715V35.014H106.913V22.222C106.913 18.556 105.574 16.723 102.896 16.723C102.298 16.723 101.7 16.814 101.102 16.996C100.53 17.178 100.01 17.464 99.5422 17.854C99.0742 18.244 98.6842 18.751 98.3722 19.375C98.0862 19.973 97.9432 20.688 97.9432 21.52V35.014H94.1602V13.681H97.9042V16.567H97.9432C98.3592 15.631 99.0352 14.851 99.9712 14.227C100.933 13.603 102.155 13.291 103.637 13.291C105.067 13.291 106.302 13.603 107.342 14.227C108.408 14.825 109.214 15.696 109.76 16.84C110.436 15.8 111.281 14.955 112.295 14.305C113.335 13.629 114.7 13.291 116.39 13.291C118.6 13.291 120.329 13.967 121.577 15.319C122.825 16.645 123.449 18.543 123.449 21.013V35.014ZM133.137 13.681V35.014H129.354V13.681H133.137ZM133.254 6.037V10.171H129.237V6.037H133.254ZM139.018 13.681H142.801V26.941C142.801 28.735 143.165 30.035 143.893 30.841C144.621 31.647 145.778 32.05 147.364 32.05C148.014 32.05 148.651 31.946 149.275 31.738C149.899 31.504 150.458 31.179 150.952 30.763C151.472 30.321 151.888 29.775 152.2 29.125C152.512 28.475 152.668 27.734 152.668 26.902V13.681H156.451V35.014H152.785V32.323H152.746C152.096 33.311 151.251 34.065 150.211 34.585C149.171 35.131 147.91 35.404 146.428 35.404C145.388 35.404 144.413 35.248 143.503 34.936C142.619 34.624 141.839 34.156 141.163 33.532C140.513 32.908 139.993 32.128 139.603 31.192C139.213 30.23 139.018 29.099 139.018 27.799V13.681ZM191.813 35.014H188.03V22.222C188.03 18.556 186.691 16.723 184.013 16.723C183.415 16.723 182.817 16.827 182.219 17.035C181.647 17.217 181.127 17.516 180.659 17.932C180.191 18.322 179.801 18.842 179.489 19.492C179.203 20.116 179.06 20.857 179.06 21.715V35.014H175.277V22.222C175.277 18.556 173.938 16.723 171.26 16.723C170.662 16.723 170.064 16.814 169.466 16.996C168.894 17.178 168.374 17.464 167.906 17.854C167.438 18.244 167.048 18.751 166.736 19.375C166.45 19.973 166.307 20.688 166.307 21.52V35.014H162.524V13.681H166.268V16.567H166.307C166.723 15.631 167.399 14.851 168.335 14.227C169.297 13.603 170.519 13.291 172.001 13.291C173.431 13.291 174.666 13.603 175.706 14.227C176.772 14.825 177.578 15.696 178.124 16.84C178.8 15.8 179.645 14.955 180.659 14.305C181.699 13.629 183.064 13.291 184.754 13.291C186.964 13.291 188.693 13.967 189.941 15.319C191.189 16.645 191.813 18.543 191.813 21.013V35.014Z" fill="#0534BF"/>
</svg>
