<svg width="581" height="419" viewBox="0 0 581 419" fill="none" xmlns="http://www.w3.org/2000/svg">
<path d="M84.0561 339.711C196.131 398.205 377.827 398.205 489.902 339.711C601.977 281.216 601.977 186.365 489.902 127.871C377.827 69.3764 196.131 69.3764 84.0561 127.871C-28.0187 186.365 -28.0187 281.203 84.0561 339.711Z" fill="#0B41BC"/>
<path d="M48.2578 276C48.2578 276 52.9001 263.258 53.9288 249.356C54.9575 235.454 48.2314 214.172 35.8739 207.056C23.5164 199.927 16.8563 208.743 20.9842 216.333C25.1254 223.923 39.0919 245.258 39.2633 263.719L48.2578 276Z" fill="#82ACDE"/>
<path d="M43.9584 275.697C43.9188 275.697 43.8925 275.697 43.8529 275.684C43.4968 275.632 43.2462 275.289 43.3122 274.933L43.3386 274.762C44.3804 268.489 45.7916 259.911 43.932 244.217C41.8351 226.559 36.0586 218.389 30.6909 212.723C30.4403 212.459 30.4535 212.037 30.7173 211.787C30.981 211.537 31.4031 211.55 31.6537 211.813C37.1664 217.638 43.1012 226.019 45.2377 244.058C47.1236 259.937 45.6861 268.634 44.6442 274.973L44.6178 275.144C44.5519 275.473 44.2749 275.697 43.9584 275.697Z" fill="white"/>
<path d="M41.2284 283.907C39.9491 277.397 35.0826 270.071 25.8112 265.775C16.5398 261.466 7.01775 258.962 5.29007 253.414C3.56239 247.867 9.43122 241.449 21.4986 244.138C33.5659 246.826 46.5037 264.747 45.818 276.817L41.2284 283.907Z" fill="#82ACDE"/>
<path d="M43.9584 280.362C43.6419 280.362 43.3517 280.125 43.3121 279.809C40.8459 263.469 26.9717 250.99 16.065 250.015C15.7089 249.988 15.4319 249.659 15.4715 249.303C15.4979 248.934 15.8276 248.684 16.1837 248.71C27.5784 249.725 42.0593 262.678 44.6178 279.611C44.6706 279.967 44.42 280.309 44.0639 280.362C44.0243 280.362 43.9848 280.362 43.9584 280.362Z" fill="white"/>
<path d="M493.234 158.748C493.234 158.748 487.075 145.149 488.09 133.5C489.119 121.575 493.379 110.413 503.494 102.573C513.597 94.7323 521.47 98.2902 523.132 101.15C524.794 104.022 524.833 109.675 517.303 115.829C509.772 121.983 501.542 138.784 503.877 155.572L500.421 165.389L493.234 158.748Z" fill="#82ACDE"/>
<path d="M496.953 160.039C496.715 160.039 496.491 159.921 496.373 159.697C493.801 154.979 493.418 135.384 497.56 124.421C502.597 111.085 511.671 103.548 518.49 100.939C518.819 100.807 519.215 100.978 519.347 101.321C519.479 101.664 519.307 102.046 518.964 102.177C512.41 104.681 503.679 111.968 498.799 124.882C494.843 135.345 495.133 154.637 497.546 159.064C497.718 159.381 497.599 159.789 497.283 159.96C497.177 160.013 497.058 160.039 496.953 160.039Z" fill="white"/>
<path d="M522.34 187.106C523.369 180.333 523.541 176.169 529.858 172.018C536.175 167.867 541.793 164.928 542.255 159.012C542.703 153.095 538.799 146.414 538.997 141.262C539.195 136.096 542.36 133.671 549.034 129.138C555.707 124.592 562.552 116.857 555.997 111.323C549.443 105.801 539.67 110.927 535.212 114.788C530.755 118.649 527.141 120.072 520.309 118.254C513.478 116.435 506.791 121.166 508.427 129.876C510.049 138.587 509.205 142.54 503.718 142.237C498.219 141.934 490.161 147.639 496.61 160.777L522.34 187.106Z" fill="#82ACDE"/>
<path d="M508.427 173.52C508.4 173.52 508.374 173.52 508.348 173.52C507.991 173.48 507.728 173.151 507.767 172.782C510.906 146.493 537.006 118.267 548.889 114.156C549.218 114.037 549.601 114.222 549.733 114.564C549.851 114.907 549.667 115.289 549.324 115.408C537.718 119.427 512.159 147.112 509.086 172.94C509.033 173.283 508.756 173.52 508.427 173.52Z" fill="white"/>
<path d="M519.729 144.49C519.452 144.49 519.188 144.306 519.096 144.029C516.313 134.923 515.351 126.029 515.337 125.936C515.298 125.581 515.562 125.251 515.918 125.212C516.274 125.172 516.604 125.436 516.643 125.791C516.656 125.884 517.606 134.66 520.349 143.634C520.455 143.976 520.257 144.345 519.914 144.451C519.861 144.477 519.795 144.49 519.729 144.49Z" fill="white"/>
<path d="M512.357 158.708C512.106 158.708 511.856 158.564 511.75 158.313C511.605 157.984 511.75 157.588 512.093 157.443C523.936 152.225 534.962 155.915 535.423 156.073C535.766 156.192 535.951 156.561 535.832 156.916C535.714 157.259 535.344 157.443 535.001 157.325C534.896 157.285 523.989 153.648 512.634 158.656C512.542 158.695 512.449 158.708 512.357 158.708Z" fill="white"/>
<path d="M335.87 27.8175L303.73 9.27689L271.603 27.8175L303.73 46.3581L335.87 27.8175Z" fill="#F5F5F5"/>
<path d="M303.73 83.4392L335.87 64.8987V27.8175L303.73 46.3581V83.4392Z" fill="#EBEBEB"/>
<path d="M309.928 71.1447C309.757 71.1447 309.599 71.1052 309.441 71.013C309.058 70.7889 308.834 70.3014 308.834 69.6821V65.7552C308.834 65.7552 308.834 65.7552 308.834 65.742V65.4521L309.032 65.4916L312.118 63.6863V68.0744C312.118 69.1945 311.445 70.4463 310.601 70.9471C310.377 71.0657 310.139 71.1447 309.928 71.1447ZM309.335 66.0451V69.6821C309.335 70.1301 309.467 70.4595 309.691 70.5913C309.915 70.7231 310.179 70.6176 310.364 70.5122C311.049 70.1169 311.63 68.9968 311.63 68.0744V67.7581H310.482L310.258 66.2164L309.335 66.0451ZM310.918 67.2574H311.63V64.5429L309.797 65.6234L310.707 65.7815L310.918 67.2574Z" fill="white"/>
<path d="M310.482 74.2678C310.35 74.2678 310.232 74.1624 310.232 74.0174V70.7231C310.232 70.5913 310.337 70.4727 310.482 70.4727C310.627 70.4727 310.733 70.5781 310.733 70.7231V74.0174C310.733 74.1624 310.614 74.2678 310.482 74.2678Z" fill="white"/>
<path d="M309.045 75.0979C308.966 75.0979 308.873 75.0584 308.834 74.9793C308.768 74.8607 308.808 74.7158 308.926 74.6367L311.801 72.9764C311.92 72.9105 312.065 72.95 312.144 73.0686C312.21 73.1872 312.171 73.3322 312.052 73.4112L309.177 75.0716C309.137 75.0848 309.084 75.0979 309.045 75.0979Z" fill="white"/>
<path d="M319.279 69.4185C319.187 69.4185 319.094 69.3921 319.015 69.3526C318.831 69.2472 318.725 69.0232 318.725 68.7596V68.0876C318.725 67.9558 318.831 67.8372 318.976 67.8372C319.108 67.8372 319.226 67.9426 319.226 68.0876V68.7596C319.226 68.865 319.253 68.9177 319.279 68.9177C319.305 68.9177 319.358 68.9309 319.437 68.8782C319.648 68.7464 319.899 68.2589 319.899 67.7581V63.3701C319.899 63.2383 320.004 63.1197 320.149 63.1197C320.281 63.1197 320.4 63.2251 320.4 63.3701V67.7581C320.4 68.4038 320.097 69.0627 319.701 69.2999C319.53 69.379 319.398 69.4185 319.279 69.4185Z" fill="white"/>
<path d="M316.668 65.5707V65.149C316.668 63.1329 318.092 60.6819 319.833 59.6804C320.73 59.1665 321.574 59.0874 322.233 59.4695C322.893 59.8517 323.249 60.616 323.249 61.6438V61.7888L316.668 65.5707ZM321.31 59.7199C320.941 59.7199 320.519 59.8517 320.084 60.1021C318.606 60.9586 317.38 62.9484 317.195 64.701L322.748 61.4989C322.721 60.7214 322.444 60.1548 321.983 59.8912C321.785 59.7726 321.561 59.7199 321.31 59.7199Z" fill="white"/>
<path d="M328.155 64.3584C328.023 64.3584 327.904 64.253 327.904 64.108V55.7008C327.904 55.5691 328.01 55.4505 328.155 55.4505C328.287 55.4505 328.405 55.5559 328.405 55.7008V64.108C328.405 64.2398 328.3 64.3584 328.155 64.3584Z" fill="white"/>
<path d="M327.429 57.6247C327.39 57.6247 327.363 57.6247 327.337 57.5984C327.205 57.5457 327.152 57.4007 327.205 57.2689L328.089 55.2396L329.065 56.3729C329.157 56.4783 329.144 56.6364 329.038 56.7155C328.933 56.8077 328.775 56.7946 328.695 56.6891L328.234 56.1489L327.667 57.4534C327.614 57.5588 327.535 57.6247 327.429 57.6247Z" fill="white"/>
<path d="M330.45 63.0538C330.318 63.0538 330.199 62.9484 330.199 62.8034V54.3963C330.199 54.2645 330.305 54.1459 330.45 54.1459C330.595 54.1459 330.7 54.2513 330.7 54.3963V62.8034C330.687 62.9484 330.581 63.0538 330.45 63.0538Z" fill="white"/>
<path d="M329.724 56.3202C329.685 56.3202 329.658 56.3202 329.632 56.2938C329.5 56.2411 329.447 56.0961 329.5 55.9644L330.384 53.9351L331.36 55.0683C331.452 55.1737 331.439 55.3319 331.333 55.4109C331.228 55.5032 331.069 55.49 330.99 55.3846L330.529 54.8443L329.962 56.1489C329.909 56.2543 329.817 56.3202 329.724 56.3202Z" fill="white"/>
<path d="M303.73 83.4392L271.59 64.8987L271.603 27.8175L303.73 46.3581V83.4392Z" fill="#E0E0E0"/>
<path d="M289.407 38.0958L321.534 19.5421L317.894 17.4469L285.767 35.9875L289.407 38.0958Z" fill="white"/>
<path d="M276.483 49.0726L287.983 55.714C289.249 56.4388 290.265 58.2177 290.265 59.6672V66.7567C290.265 68.2062 289.236 68.7992 287.983 68.0744L276.483 61.433C275.217 60.7082 274.201 58.9293 274.201 57.4798V50.3903C274.188 48.9408 275.217 48.3478 276.483 49.0726Z" fill="#82ACDE"/>
<path d="M275.586 50.8516L276.021 51.1019V58.9688L275.586 58.7185V50.8516Z" fill="#82ACDE"/>
<path d="M277.366 51.8794L278.118 52.3143V60.1943L277.366 59.7463V51.8794Z" fill="#82ACDE"/>
<path d="M279.147 52.894L279.582 53.1576V61.0245L279.147 60.7741V52.894Z" fill="#82ACDE"/>
<path d="M280.492 53.6583L281.362 54.1722V62.0523L280.492 61.5384V53.6583Z" fill="#82ACDE"/>
<path d="M282.708 54.9497L283.143 55.2001V63.0802L282.708 62.8298V54.9497Z" fill="#82ACDE"/>
<path d="M283.987 55.6745L284.923 56.2279V64.108L283.987 63.5546V55.6745Z" fill="#82ACDE"/>
<path d="M286.269 57.0054L286.704 57.2558V65.1359L286.255 64.8723L286.269 57.0054Z" fill="#82ACDE"/>
<path d="M287.271 57.5852L287.495 57.7038V65.5839L287.271 65.4521V57.5852Z" fill="#82ACDE"/>
<path d="M285.451 56.5705L285.675 56.7023V64.5692L285.451 64.4506V56.5705Z" fill="#82ACDE"/>
<path d="M281.864 54.4753L282.088 54.6071V62.474L281.864 62.3554V54.4753Z" fill="#82ACDE"/>
<path d="M279.898 53.3553L280.123 53.4739V61.3539L279.898 61.2222V53.3553Z" fill="#82ACDE"/>
<path d="M278.501 52.5778L278.712 52.6964V60.5765L278.501 60.4447V52.5778Z" fill="#82ACDE"/>
<path d="M276.588 51.4182L276.799 51.5368V59.4169L276.588 59.2851V51.4182Z" fill="#82ACDE"/>
<path d="M288.036 58.0332L288.484 58.2836V66.1505L288.036 65.9001V58.0332Z" fill="#82ACDE"/>
<path d="M293.021 21.6373L255.513 0L218.019 21.6373L255.513 43.2614L293.021 21.6373Z" fill="#F5F5F5"/>
<path d="M239.45 33.9977L276.944 12.3604L273.304 10.2652L235.81 31.8893L239.45 33.9977Z" fill="white"/>
<path d="M255.513 111.257L293.021 89.6194V21.6373L255.513 43.2614V111.257Z" fill="#EBEBEB"/>
<path d="M261.712 98.949C261.54 98.949 261.382 98.9095 261.224 98.8172C260.841 98.5932 260.617 98.1057 260.617 97.4863V93.5595C260.617 93.5595 260.617 93.5595 260.617 93.5463V93.2564L260.815 93.2959L263.901 91.4906V95.8787C263.901 96.9988 263.228 98.2506 262.384 98.7514C262.16 98.8831 261.923 98.949 261.712 98.949ZM261.118 93.8494V97.4863C261.118 97.9344 261.25 98.2638 261.474 98.3956C261.699 98.5273 261.962 98.4219 262.147 98.3165C262.833 97.9212 263.413 96.8011 263.413 95.8787V95.5624H262.266L262.042 94.0207L261.118 93.8494ZM262.701 95.0617H263.413V92.3471L261.58 93.4277L262.49 93.5858L262.701 95.0617Z" fill="white"/>
<path d="M262.266 102.085C262.134 102.085 262.015 101.98 262.015 101.835V98.5405C262.015 98.4088 262.121 98.2902 262.266 98.2902C262.411 98.2902 262.516 98.3956 262.516 98.5405V101.835C262.516 101.98 262.398 102.085 262.266 102.085Z" fill="white"/>
<path d="M260.828 102.915C260.749 102.915 260.657 102.876 260.617 102.797C260.551 102.678 260.591 102.533 260.709 102.454L263.585 100.794C263.703 100.728 263.848 100.768 263.927 100.886C263.993 101.005 263.954 101.15 263.835 101.229L260.96 102.889C260.92 102.902 260.881 102.915 260.828 102.915Z" fill="white"/>
<path d="M271.062 97.2228C270.97 97.2228 270.878 97.1964 270.799 97.1569C270.614 97.0515 270.508 96.8275 270.508 96.5639V95.8919C270.508 95.7601 270.614 95.6415 270.759 95.6415C270.891 95.6415 271.01 95.7469 271.01 95.8919V96.5639C271.01 96.6693 271.036 96.722 271.062 96.7352C271.089 96.7484 271.141 96.7484 271.221 96.6957C271.445 96.5639 271.682 96.0763 271.682 95.5756V91.1875C271.682 91.0558 271.788 90.9372 271.933 90.9372C272.078 90.9372 272.183 91.0426 272.183 91.1875V95.5756C272.183 96.2213 271.88 96.8802 271.484 97.1174C271.326 97.1964 271.181 97.2228 271.062 97.2228Z" fill="white"/>
<path d="M268.464 93.3882V92.9665C268.464 90.9503 269.889 88.4993 271.629 87.4979C272.526 86.9839 273.37 86.9049 274.03 87.287C274.689 87.6692 275.045 88.4335 275.045 89.4613V89.6062L268.464 93.3882ZM273.107 87.5374C272.737 87.5374 272.315 87.6692 271.88 87.9195C270.403 88.7761 269.176 90.7659 268.992 92.5184L274.544 89.3163C274.518 88.5389 274.241 87.9722 273.779 87.7087C273.568 87.5901 273.344 87.5374 273.107 87.5374Z" fill="white"/>
<path d="M279.938 92.1759C279.806 92.1759 279.688 92.0704 279.688 91.9255V83.5183C279.688 83.3865 279.793 83.2679 279.938 83.2679C280.07 83.2679 280.189 83.3734 280.189 83.5183V91.9255C280.189 92.0573 280.083 92.1759 279.938 92.1759Z" fill="white"/>
<path d="M279.213 85.429C279.173 85.429 279.147 85.429 279.12 85.4027C278.989 85.3499 278.936 85.205 278.989 85.0732L279.872 83.0439L280.848 84.1772C280.94 84.2826 280.927 84.4407 280.822 84.5198C280.716 84.612 280.558 84.5988 280.479 84.4934L280.017 83.9531L279.45 85.2577C279.411 85.3763 279.318 85.429 279.213 85.429Z" fill="white"/>
<path d="M282.233 90.8713C282.101 90.8713 281.982 90.7659 281.982 90.6209V82.2137C281.982 82.082 282.088 81.9634 282.233 81.9634C282.365 81.9634 282.483 82.0688 282.483 82.2137V90.6209C282.47 90.7527 282.365 90.8713 282.233 90.8713Z" fill="white"/>
<path d="M281.507 84.1245C281.468 84.1245 281.442 84.1245 281.415 84.0981C281.283 84.0454 281.231 83.9004 281.283 83.7687L282.167 81.7393L283.143 82.8726C283.235 82.978 283.222 83.1362 283.116 83.2152C283.011 83.3075 282.853 83.2943 282.774 83.1889L282.312 82.6486L281.745 83.9532C281.692 84.0718 281.6 84.1245 281.507 84.1245Z" fill="white"/>
<path d="M255.513 111.257L218.019 89.6194V21.6373L255.513 43.2614V111.257Z" fill="#E0E0E0"/>
<path d="M225.642 75.4801L237.142 82.1215C238.408 82.8463 239.423 84.6252 239.423 86.0747V93.1642C239.423 94.6137 238.395 95.2067 237.142 94.4819L225.642 87.8405C224.375 87.1157 223.36 85.3368 223.36 83.8873V76.7978C223.36 75.3483 224.389 74.7553 225.642 75.4801Z" fill="#F5F5F5"/>
<path d="M224.758 77.259L225.193 77.5094V85.3895L224.758 85.1259V77.259Z" fill="#E0E0E0"/>
<path d="M226.538 78.2869L227.29 78.7218V86.6018L226.538 86.1538V78.2869Z" fill="#E0E0E0"/>
<path d="M228.319 79.3015L228.754 79.5651V87.432L228.319 87.1816V79.3015Z" fill="#E0E0E0"/>
<path d="M229.651 80.0658L230.535 80.5797V88.4598L229.651 87.9459V80.0658Z" fill="#E0E0E0"/>
<path d="M231.88 81.3572L232.315 81.6076V89.4877L231.88 89.2373V81.3572Z" fill="#E0E0E0"/>
<path d="M233.159 82.082L234.095 82.6354V90.5155L233.159 89.962V82.082Z" fill="#E0E0E0"/>
<path d="M235.427 83.4129L235.863 83.6633V91.5434L235.427 91.293V83.4129Z" fill="#E0E0E0"/>
<path d="M236.443 83.9927L236.667 84.1113V91.9913L236.443 91.8596V83.9927Z" fill="#E0E0E0"/>
<path d="M234.623 82.978L234.834 83.1098V90.9899L234.623 90.8581V82.978Z" fill="#E0E0E0"/>
<path d="M231.036 80.8828L231.26 81.0146V88.8815L231.036 88.7629V80.8828Z" fill="#E0E0E0"/>
<path d="M229.07 79.7628L229.295 79.8814V87.7614L229.07 87.6297V79.7628Z" fill="#E0E0E0"/>
<path d="M227.659 78.9853L227.884 79.1039V86.984L227.659 86.8522V78.9853Z" fill="#E0E0E0"/>
<path d="M225.747 77.8257L225.971 77.9443V85.8243L225.747 85.6926V77.8257Z" fill="#E0E0E0"/>
<path d="M237.208 84.4407L237.643 84.6911V92.558L237.208 92.3076V84.4407Z" fill="#E0E0E0"/>
<path d="M235.81 40.6654L239.45 42.7606V33.9977L235.81 31.8893V40.6654Z" fill="#F0F0F0"/>
<path d="M180.524 92.7161L153.725 77.259L116.231 98.8963L143.016 114.34L180.524 92.7161Z" fill="#F5F5F5"/>
<path d="M143.016 176.155L180.524 154.518V92.7161L143.016 114.34V176.155Z" fill="#EBEBEB"/>
<path d="M149.215 163.848C149.044 163.848 148.886 163.808 148.727 163.716C148.345 163.492 148.121 163.004 148.121 162.385V158.458C148.121 158.458 148.121 158.458 148.121 158.445V158.155L148.318 158.195L151.405 156.389V160.777C151.405 161.897 150.732 163.149 149.888 163.65C149.664 163.782 149.426 163.848 149.215 163.848ZM148.622 158.748V162.385C148.622 162.833 148.754 163.162 148.978 163.294C149.202 163.426 149.466 163.321 149.651 163.215C150.336 162.82 150.917 161.7 150.917 160.777V160.461H149.769L149.545 158.919L148.622 158.748ZM150.204 159.96H150.917V157.246L149.083 158.326L149.993 158.484L150.204 159.96Z" fill="white"/>
<path d="M149.769 166.984C149.637 166.984 149.518 166.878 149.518 166.734V163.426C149.518 163.294 149.624 163.176 149.769 163.176C149.901 163.176 150.019 163.281 150.019 163.426V166.734C150.019 166.878 149.901 166.984 149.769 166.984Z" fill="white"/>
<path d="M148.331 167.814C148.252 167.814 148.16 167.775 148.12 167.695C148.054 167.577 148.094 167.432 148.213 167.353L151.088 165.693C151.206 165.627 151.351 165.666 151.431 165.785C151.496 165.903 151.457 166.048 151.338 166.127L148.463 167.788C148.41 167.801 148.371 167.814 148.331 167.814Z" fill="white"/>
<path d="M158.566 162.121C158.473 162.121 158.381 162.095 158.302 162.056C158.117 161.95 158.012 161.726 158.012 161.463V160.791C158.012 160.659 158.117 160.54 158.262 160.54C158.407 160.54 158.513 160.646 158.513 160.791V161.463C158.513 161.568 158.539 161.621 158.566 161.621C158.579 161.634 158.645 161.634 158.724 161.581C158.948 161.449 159.185 160.962 159.185 160.461V156.073C159.185 155.941 159.291 155.823 159.436 155.823C159.581 155.823 159.687 155.928 159.687 156.073V160.461C159.687 161.107 159.383 161.766 158.988 162.003C158.816 162.082 158.684 162.121 158.566 162.121Z" fill="white"/>
<path d="M155.954 158.287V157.865C155.954 155.849 157.379 153.398 159.119 152.397C160.016 151.883 160.86 151.804 161.52 152.186C162.179 152.568 162.535 153.332 162.535 154.36V154.505L155.954 158.287ZM160.597 152.436C160.227 152.436 159.805 152.568 159.37 152.818C157.893 153.675 156.666 155.664 156.482 157.417L162.034 154.215C162.008 153.438 161.731 152.871 161.269 152.607C161.071 152.489 160.847 152.436 160.597 152.436Z" fill="white"/>
<path d="M167.441 157.074C167.309 157.074 167.191 156.969 167.191 156.824V148.417C167.191 148.285 167.296 148.167 167.441 148.167C167.573 148.167 167.692 148.272 167.692 148.417V156.824C167.692 156.956 167.573 157.074 167.441 157.074Z" fill="white"/>
<path d="M166.716 150.328C166.676 150.328 166.65 150.328 166.624 150.301C166.492 150.249 166.439 150.104 166.492 149.972L167.375 147.943L168.351 149.076C168.444 149.181 168.43 149.339 168.325 149.418C168.219 149.511 168.061 149.497 167.982 149.392L167.52 148.852L166.953 150.156C166.901 150.275 166.808 150.328 166.716 150.328Z" fill="white"/>
<path d="M169.723 155.77C169.591 155.77 169.472 155.664 169.472 155.52V147.112C169.472 146.981 169.578 146.862 169.723 146.862C169.868 146.862 169.973 146.967 169.973 147.112V155.52C169.973 155.651 169.868 155.77 169.723 155.77Z" fill="white"/>
<path d="M169.011 149.023C168.971 149.023 168.945 149.023 168.918 148.997C168.786 148.944 168.734 148.799 168.786 148.667L169.67 146.638L170.646 147.771C170.738 147.877 170.725 148.035 170.62 148.114C170.514 148.206 170.356 148.193 170.277 148.087L169.815 147.547L169.248 148.852C169.195 148.97 169.103 149.023 169.011 149.023Z" fill="white"/>
<path d="M143.016 176.155L116.231 160.698V98.8963L143.016 114.34V176.155Z" fill="#E0E0E0"/>
<path d="M128.667 114.841L132.307 116.936V108.16L128.667 106.065V114.841Z" fill="#F5F5F5"/>
<path d="M132.307 108.16L169.802 86.5359L166.162 84.4407L128.667 106.065L132.307 108.16Z" fill="white"/>
<path d="M132.307 145.254L84.0907 117.437L35.874 145.254L84.0907 173.059L132.307 145.254Z" fill="#F5F5F5"/>
<path d="M84.0908 210.153L132.307 182.336V145.254L84.0908 173.059V210.153Z" fill="#EBEBEB"/>
<path d="M90.2765 197.845C90.1051 197.845 89.9468 197.806 89.7885 197.714C89.4061 197.49 89.1819 197.002 89.1819 196.383V192.456C89.1819 192.456 89.1819 192.456 89.1819 192.443V192.153L89.3797 192.192L92.4658 190.387V194.775C92.4658 195.895 91.7932 197.147 90.9491 197.648C90.7249 197.779 90.5007 197.845 90.2765 197.845ZM89.6962 192.746V196.383C89.6962 196.831 89.8281 197.16 90.0523 197.292C90.2765 197.424 90.5403 197.318 90.7249 197.213C91.4107 196.818 91.991 195.697 91.991 194.775V194.459H90.8436L90.6194 192.917L89.6962 192.746ZM91.2788 193.958H91.991V191.243L90.1578 192.324L91.0678 192.482L91.2788 193.958Z" fill="white"/>
<path d="M90.8432 200.982C90.7113 200.982 90.5926 200.876 90.5926 200.731V197.437C90.5926 197.305 90.6981 197.186 90.8432 197.186C90.9751 197.186 91.0938 197.292 91.0938 197.437V200.731C91.0806 200.863 90.9751 200.982 90.8432 200.982Z" fill="white"/>
<path d="M89.4057 201.812C89.3266 201.812 89.2342 201.772 89.1947 201.693C89.1287 201.575 89.1683 201.43 89.287 201.351L92.162 199.69C92.2807 199.624 92.4258 199.664 92.5049 199.782C92.5709 199.901 92.5313 200.046 92.4126 200.125L89.5376 201.785C89.4848 201.799 89.4452 201.812 89.4057 201.812Z" fill="white"/>
<path d="M99.6399 196.119C99.5475 196.119 99.4552 196.093 99.3629 196.053C99.1783 195.948 99.0728 195.724 99.0728 195.46V194.788C99.0728 194.656 99.1783 194.538 99.3233 194.538C99.4552 194.538 99.5739 194.643 99.5739 194.788V195.46C99.5739 195.566 99.6003 195.618 99.6267 195.632C99.6399 195.645 99.7058 195.632 99.7849 195.592C100.009 195.46 100.247 194.973 100.247 194.472V190.084C100.247 189.952 100.352 189.833 100.497 189.833C100.629 189.833 100.748 189.939 100.748 190.084V194.472C100.748 195.118 100.444 195.776 100.049 196.014C99.8904 196.08 99.7585 196.119 99.6399 196.119Z" fill="white"/>
<path d="M97.0286 192.284V191.85C97.0286 189.833 98.4529 187.382 100.194 186.381C101.091 185.867 101.935 185.788 102.594 186.17C103.253 186.552 103.61 187.317 103.61 188.344V188.489L97.0286 192.284ZM101.671 186.421C101.302 186.421 100.88 186.552 100.431 186.803C98.9541 187.659 97.7275 189.649 97.5429 191.402L103.095 188.2C103.069 187.422 102.792 186.855 102.33 186.592C102.146 186.486 101.921 186.421 101.671 186.421Z" fill="white"/>
<path d="M108.516 191.059C108.384 191.059 108.265 190.954 108.265 190.809V182.401C108.265 182.27 108.371 182.151 108.516 182.151C108.661 182.151 108.766 182.256 108.766 182.401V190.809C108.766 190.954 108.648 191.059 108.516 191.059Z" fill="white"/>
<path d="M107.79 184.325C107.751 184.325 107.724 184.325 107.698 184.299C107.566 184.246 107.513 184.101 107.566 183.97L108.45 181.94L109.426 183.073C109.518 183.179 109.505 183.337 109.399 183.416C109.294 183.508 109.135 183.495 109.056 183.39L108.595 182.849L108.028 184.154C107.975 184.273 107.883 184.325 107.79 184.325Z" fill="white"/>
<path d="M110.797 189.754C110.665 189.754 110.547 189.649 110.547 189.504V181.097C110.547 180.965 110.652 180.846 110.797 180.846C110.929 180.846 111.048 180.952 111.048 181.097V189.504C111.048 189.649 110.942 189.754 110.797 189.754Z" fill="white"/>
<path d="M110.072 183.021C110.032 183.021 110.006 183.021 109.979 182.994C109.848 182.942 109.795 182.797 109.848 182.665L110.731 180.636L111.707 181.769C111.799 181.874 111.786 182.032 111.681 182.112C111.575 182.204 111.417 182.191 111.338 182.085L110.876 181.545L110.309 182.849C110.27 182.968 110.177 183.021 110.072 183.021Z" fill="white"/>
<path d="M84.0907 210.153L35.874 182.336V145.254L84.0907 173.059V210.153Z" fill="#E0E0E0"/>
<path d="M58.1624 166.878L61.8023 168.974V160.198L58.1624 158.102V166.878Z" fill="#F5F5F5"/>
<path d="M61.8023 160.211L110.019 132.393L106.379 130.298L58.1624 158.102L61.8023 160.211Z" fill="white"/>
<path d="M43.5101 168.196L55.0104 174.838C56.2765 175.562 57.292 177.341 57.292 178.791V185.88C57.292 187.33 56.2633 187.923 55.0104 187.198L43.5101 180.557C42.244 179.832 41.2285 178.053 41.2285 176.603V169.514C41.2285 168.064 42.2572 167.471 43.5101 168.196Z" fill="#F5F5F5"/>
<path d="M42.6265 169.975L43.0617 170.226V178.092L42.6265 177.842V169.975Z" fill="#E0E0E0"/>
<path d="M44.4069 171.003L45.1587 171.438V179.318L44.4069 178.87V171.003Z" fill="#E0E0E0"/>
<path d="M46.1873 172.018L46.6225 172.281V180.148L46.1873 179.898V172.018Z" fill="#E0E0E0"/>
<path d="M47.5194 172.782L48.403 173.296V181.176L47.5194 180.662V172.782Z" fill="#E0E0E0"/>
<path d="M49.7482 174.073L50.1834 174.324V182.204L49.7482 181.953V174.073Z" fill="#E0E0E0"/>
<path d="M51.0275 174.798L51.9638 175.352V183.232L51.0275 182.678V174.798Z" fill="#E0E0E0"/>
<path d="M53.2958 176.129L53.7311 176.379V184.259L53.2958 183.996V176.129Z" fill="#E0E0E0"/>
<path d="M54.3114 176.709L54.5356 176.827V184.707L54.3114 184.576V176.709Z" fill="#E0E0E0"/>
<path d="M52.4914 175.694L52.7024 175.826V183.693L52.4914 183.574V175.694Z" fill="#E0E0E0"/>
<path d="M48.9041 173.599L49.1283 173.731V181.598L48.9041 181.479V173.599Z" fill="#E0E0E0"/>
<path d="M46.939 172.479L47.1632 172.597V180.478L46.939 180.346V172.479Z" fill="#E0E0E0"/>
<path d="M45.528 171.701L45.7522 171.82V179.7L45.528 179.568V171.701Z" fill="#E0E0E0"/>
<path d="M43.6157 170.542L43.8399 170.66V178.54L43.6157 178.409V170.542Z" fill="#E0E0E0"/>
<path d="M55.0763 177.157L55.5115 177.407V185.274L55.0763 185.024V177.157Z" fill="#E0E0E0"/>
<path d="M121.585 71.0788L84.0907 49.4416L46.583 71.0788L84.0907 92.7161L121.585 71.0788Z" fill="#F5F5F5"/>
<path d="M84.0908 166.878L121.585 145.254V71.0788L84.0908 92.7161V166.878Z" fill="#EBEBEB"/>
<path d="M90.2765 154.584C90.1051 154.584 89.9468 154.544 89.7885 154.452C89.4061 154.228 89.1819 153.741 89.1819 153.121V149.194C89.1819 149.194 89.1819 149.194 89.1819 149.181V148.891L89.3797 148.931L92.4658 147.126V151.514C92.4658 152.634 91.7932 153.886 90.9491 154.386C90.7249 154.518 90.5007 154.584 90.2765 154.584ZM89.6962 149.484V153.121C89.6962 153.569 89.8281 153.899 90.0523 154.031C90.2765 154.162 90.5403 154.057 90.7249 153.951C91.4107 153.556 91.991 152.436 91.991 151.514V151.197H90.8436L90.6194 149.656L89.6962 149.484ZM91.2788 150.697H91.991V147.982L90.1578 149.063L91.0678 149.221L91.2788 150.697Z" fill="white"/>
<path d="M90.8432 157.707C90.7113 157.707 90.5926 157.602 90.5926 157.457V154.149C90.5926 154.017 90.6981 153.899 90.8432 153.899C90.9751 153.899 91.0938 154.004 91.0938 154.149V157.457C91.0806 157.602 90.9751 157.707 90.8432 157.707Z" fill="white"/>
<path d="M89.4057 158.537C89.3266 158.537 89.2342 158.498 89.1947 158.419C89.1287 158.3 89.1683 158.155 89.287 158.076L92.162 156.416C92.2807 156.35 92.4258 156.389 92.5049 156.508C92.5709 156.626 92.5313 156.771 92.4126 156.85L89.5376 158.511C89.4848 158.524 89.4452 158.537 89.4057 158.537Z" fill="white"/>
<path d="M99.6399 152.858C99.5475 152.858 99.4552 152.831 99.3629 152.792C99.1783 152.686 99.0728 152.462 99.0728 152.199V151.527C99.0728 151.395 99.1783 151.276 99.3233 151.276C99.4552 151.276 99.5739 151.382 99.5739 151.527V152.199C99.5739 152.304 99.6003 152.357 99.6267 152.357C99.653 152.37 99.7058 152.37 99.7849 152.317C99.9959 152.186 100.247 151.698 100.247 151.197V146.809C100.247 146.678 100.352 146.559 100.497 146.559C100.629 146.559 100.748 146.664 100.748 146.809V151.197C100.748 151.843 100.444 152.502 100.049 152.739C99.8904 152.818 99.7585 152.858 99.6399 152.858Z" fill="white"/>
<path d="M97.0286 149.023V148.601C97.0286 146.585 98.4529 144.134 100.194 143.133C101.091 142.619 101.935 142.54 102.594 142.922C103.253 143.304 103.61 144.068 103.61 145.096V145.241L97.0286 149.023ZM101.671 143.159C101.302 143.159 100.88 143.291 100.431 143.541C98.9541 144.398 97.7275 146.388 97.5429 148.14L103.095 144.938C103.069 144.161 102.792 143.594 102.33 143.33C102.146 143.212 101.921 143.159 101.671 143.159Z" fill="white"/>
<path d="M108.516 147.798C108.384 147.798 108.265 147.692 108.265 147.547V139.14C108.265 139.008 108.371 138.89 108.516 138.89C108.661 138.89 108.766 138.995 108.766 139.14V147.547C108.766 147.692 108.648 147.798 108.516 147.798Z" fill="white"/>
<path d="M107.79 141.064C107.751 141.064 107.724 141.064 107.698 141.038C107.566 140.985 107.513 140.84 107.566 140.708L108.45 138.679L109.426 139.812C109.518 139.918 109.505 140.076 109.399 140.155C109.294 140.247 109.135 140.234 109.056 140.128L108.595 139.588L108.028 140.893C107.975 140.998 107.883 141.064 107.79 141.064Z" fill="white"/>
<path d="M110.797 146.493C110.665 146.493 110.547 146.388 110.547 146.243V137.835C110.547 137.704 110.652 137.585 110.797 137.585C110.929 137.585 111.048 137.691 111.048 137.835V146.243C111.048 146.388 110.942 146.493 110.797 146.493Z" fill="white"/>
<path d="M110.072 139.759C110.032 139.759 110.006 139.759 109.979 139.733C109.848 139.68 109.795 139.535 109.848 139.404L110.731 137.374L111.707 138.508C111.799 138.613 111.786 138.771 111.681 138.85C111.575 138.942 111.417 138.929 111.338 138.824L110.876 138.284L110.309 139.588C110.27 139.707 110.177 139.759 110.072 139.759Z" fill="white"/>
<path d="M84.0908 166.878L46.5962 145.254L46.583 71.0788L84.0908 92.7161V166.878Z" fill="#E0E0E0"/>
<path d="M64.3873 90.1202L68.0141 92.2154V83.4392L64.3873 81.344V90.1202Z" fill="#F5F5F5"/>
<path d="M68.0141 83.4392L105.522 61.802L101.882 59.7068L64.3873 81.344L68.0141 83.4392Z" fill="white"/>
<path d="M54.219 131.115L65.7193 137.756C66.9854 138.481 68.0009 140.26 68.0009 141.71V148.799C68.0009 150.249 66.9722 150.842 65.7193 150.117L54.219 143.475C52.9529 142.751 51.9374 140.972 51.9374 139.522V132.433C51.9374 130.97 52.9529 130.377 54.219 131.115Z" fill="#F5F5F5"/>
<path d="M53.3223 132.881L53.7707 133.131V141.011L53.3223 140.761V132.881Z" fill="#E0E0E0"/>
<path d="M55.1027 133.909L55.8545 134.357V142.224L55.1027 141.789V133.909Z" fill="#E0E0E0"/>
<path d="M56.8831 134.936L57.3183 135.187V143.067L56.8831 142.803V134.936Z" fill="#E0E0E0"/>
<path d="M58.2283 135.688L59.0988 136.215V144.082L58.2283 143.568V135.688Z" fill="#E0E0E0"/>
<path d="M60.444 136.992L60.8792 137.243V145.109L60.444 144.859V136.992Z" fill="#E0E0E0"/>
<path d="M61.7233 137.704L62.6597 138.27V146.137L61.7233 145.584V137.704Z" fill="#E0E0E0"/>
<path d="M64.0049 139.035L64.4401 139.285V147.165L64.0049 146.915V139.035Z" fill="#E0E0E0"/>
<path d="M65.0204 139.614L65.2314 139.746V147.613L65.0204 147.495V139.614Z" fill="#E0E0E0"/>
<path d="M63.1872 138.613L63.4114 138.732V146.612L63.1872 146.48V138.613Z" fill="#E0E0E0"/>
<path d="M59.6131 136.518L59.8241 136.636V144.516L59.6131 144.385V136.518Z" fill="#E0E0E0"/>
<path d="M57.6481 135.385L57.8591 135.516V143.383L57.6481 143.265V135.385Z" fill="#E0E0E0"/>
<path d="M56.2369 134.607L56.4479 134.739V142.606L56.2369 142.487V134.607Z" fill="#E0E0E0"/>
<path d="M54.3246 133.447L54.5488 133.579L54.5356 141.446L54.3246 141.327V133.447Z" fill="#E0E0E0"/>
<path d="M65.7853 140.062L66.2205 140.313V148.193L65.7853 147.943V140.062Z" fill="#E0E0E0"/>
<path d="M46.939 275.249L190.877 358.28C194.029 360.099 199.146 360.099 202.298 358.28L517.672 176.366C520.824 174.548 520.824 171.596 517.672 169.778L373.734 86.7468C370.582 84.9283 365.465 84.9283 362.313 86.7468L46.939 268.661C43.787 270.479 43.787 273.431 46.939 275.249Z" fill="#454864"/>
<path d="M124.737 313.82C129.116 316.35 136.224 316.35 140.603 313.82C144.981 311.289 144.981 307.191 140.603 304.674C136.224 302.158 129.116 302.144 124.737 304.674C120.359 307.205 120.359 311.289 124.737 313.82Z" fill="#262838"/>
<path d="M193.515 358.28L49.5767 275.249C46.7543 273.629 46.4642 271.098 48.693 269.28C45.963 271.349 43.8661 275.263 43.8661 278.544V283.907C43.8661 287.544 46.4246 291.971 49.5767 293.79L193.515 376.821C195.097 377.73 197.155 378.191 199.225 378.191V359.651C197.155 359.637 195.084 359.189 193.515 358.28Z" fill="#37394F"/>
<path d="M517.672 194.907C520.824 193.088 523.382 188.661 523.382 185.024V179.661C523.382 176.366 521.285 172.453 518.555 170.384C520.784 172.202 520.494 174.732 517.672 176.366L202.298 358.28C200.715 359.189 198.658 359.651 196.588 359.651V378.191C198.658 378.191 200.715 377.73 202.298 376.821L517.672 194.907Z" fill="#262838"/>
<path d="M214.59 341.07L76.8238 261.558C74.9379 260.464 74.9379 258.699 76.8238 257.605L343.124 103.943C345.023 102.85 348.082 102.85 349.981 103.943L487.8 183.442C489.686 184.536 489.686 186.302 487.8 187.396L221.448 341.07C219.548 342.164 216.489 342.164 214.59 341.07Z" fill="white"/>
<path d="M159.093 296.676L175.156 287.412L169.802 284.315L153.738 293.592L159.093 296.676Z" fill="#82ACDE"/>
<path d="M351.947 185.419L368.023 176.155L362.669 173.059L346.592 182.336L351.947 185.419Z" fill="#82ACDE"/>
<path d="M384.1 166.878L400.163 157.615L394.809 154.518L378.732 163.795L384.1 166.878Z" fill="#82ACDE"/>
<path d="M435.68 134.396C436.787 135.042 438.594 135.042 439.702 134.396C440.81 133.751 440.81 132.723 439.702 132.077C438.594 131.431 436.787 131.431 435.68 132.077C434.572 132.723 434.572 133.751 435.68 134.396Z" fill="#262838"/>
<path d="M442.102 152.594C444.318 153.872 447.918 153.872 450.134 152.594C452.35 151.316 452.35 149.234 450.134 147.956C447.918 146.678 444.318 146.678 442.102 147.956C439.887 149.247 439.887 151.316 442.102 152.594Z" fill="#262838"/>
<path d="M436.431 144.53C437.908 143.673 437.829 142.25 436.26 141.341L409.83 126.094C408.248 125.185 405.782 125.133 404.291 125.989C402.814 126.846 402.893 128.269 404.463 129.178L430.892 144.424C432.475 145.347 434.954 145.386 436.431 144.53Z" fill="#262838"/>
<path d="M181.724 285.844C195.058 293.513 226.314 287.939 251.544 273.378L320.835 233.411C346.065 218.85 355.692 200.85 342.332 193.194C328.972 185.538 297.69 191.138 272.46 205.686L203.287 245.587C178.045 260.161 168.404 278.175 181.724 285.844Z" fill="#F0F0F0"/>
<path d="M398.04 198.992L334.564 163.597C315.692 153.069 311.88 135.938 326.071 125.33C340.262 114.722 367.06 114.656 385.946 125.172L449.422 160.567C468.294 171.095 472.106 188.226 457.915 198.834C443.725 209.441 416.913 209.52 398.04 198.992Z" fill="#D6D6D6"/>
<path d="M334.551 163.11C315.679 152.581 311.867 135.45 326.058 124.843C340.248 114.235 367.047 114.169 385.933 124.684L449.409 160.079C468.281 170.608 472.093 187.738 457.902 198.346C443.711 208.954 416.913 209.02 398.027 198.504L334.551 163.11Z" fill="#D5D5D5"/>
<path d="M334.551 162.609C315.679 152.08 311.867 134.95 326.058 124.342C340.248 113.734 367.047 113.668 385.933 124.184L449.409 159.578C468.281 170.107 472.093 187.238 457.902 197.845C443.711 208.453 416.913 208.519 398.027 198.003L334.551 162.609Z" fill="#D4D4D4"/>
<path d="M334.538 162.121C315.665 151.593 311.854 134.462 326.045 123.854C340.235 113.246 367.034 113.181 385.92 123.696L449.395 159.091C468.268 169.619 472.079 186.75 457.889 197.358C443.698 207.966 416.899 208.031 398.014 197.516L334.538 162.121Z" fill="#D3D3D3"/>
<path d="M334.538 161.621C315.665 151.092 311.854 133.961 326.045 123.354C340.235 112.746 367.034 112.68 385.92 123.195L449.395 158.59C468.268 169.119 472.079 186.249 457.889 196.857C443.698 207.465 416.899 207.531 398.014 197.015L334.538 161.621Z" fill="#D2D2D2"/>
<path d="M334.525 161.133C315.652 150.604 311.841 133.474 326.032 122.866C340.222 112.258 367.021 112.192 385.907 122.708L449.382 158.102C468.255 168.631 472.066 185.762 457.876 196.369C443.685 206.977 416.886 207.043 398 196.528L334.525 161.133Z" fill="#D1D1D1"/>
<path d="M334.525 160.646C315.652 150.117 311.841 132.986 326.032 122.378C340.222 111.771 367.021 111.705 385.907 122.22L449.382 157.615C468.255 168.144 472.066 185.274 457.876 195.882C443.685 206.49 416.886 206.556 398 196.04L334.525 160.646Z" fill="#D0D0D0"/>
<path d="M334.512 160.145C315.639 149.616 311.828 132.485 326.018 121.878C340.209 111.27 367.008 111.204 385.894 121.72L449.369 157.114C468.242 167.643 472.053 184.773 457.863 195.381C443.672 205.989 416.873 206.055 397.987 195.539L334.512 160.145Z" fill="#CFCFCF"/>
<path d="M334.512 159.657C315.639 149.129 311.828 131.998 326.018 121.39C340.209 110.782 367.008 110.716 385.894 121.232L449.369 156.626C468.242 167.155 472.053 184.286 457.863 194.894C443.672 205.501 416.873 205.567 397.987 195.052L334.512 159.657Z" fill="#CECECE"/>
<path d="M334.498 159.157C315.626 148.628 311.814 131.497 326.005 120.889C340.196 110.282 366.995 110.216 385.88 120.731L449.356 156.126C468.229 166.654 472.04 183.785 457.849 194.393C443.659 205.001 416.86 205.067 397.974 194.551L334.498 159.157Z" fill="#CDCDCD"/>
<path d="M334.498 158.669C315.626 148.14 311.814 131.01 326.005 120.402C340.196 109.794 366.995 109.728 385.88 120.244L449.356 155.638C468.229 166.167 472.04 183.298 457.849 193.905C443.659 204.513 416.86 204.579 397.974 194.063L334.498 158.669Z" fill="#CCCCCC"/>
<path d="M334.498 158.168C315.626 147.639 311.814 130.509 326.005 119.901C340.196 109.293 366.995 109.227 385.88 119.743L449.356 155.137C468.229 165.666 472.04 182.797 457.849 193.405C443.659 204.012 416.86 204.078 397.974 193.563L334.498 158.168Z" fill="#CBCBCB"/>
<path d="M334.485 157.681C315.613 147.152 311.801 130.021 325.992 119.414C340.183 108.806 366.981 108.74 385.867 119.255L449.343 154.65C468.215 165.179 472.027 182.309 457.836 192.917C443.645 203.525 416.847 203.591 397.961 193.075L334.485 157.681Z" fill="#CACACA"/>
<path d="M334.485 157.193C315.613 146.664 311.801 129.534 325.992 118.926C340.183 108.318 366.981 108.252 385.867 118.768L449.343 154.162C468.215 164.691 472.027 181.822 457.836 192.429C443.645 203.037 416.847 203.103 397.961 192.588L334.485 157.193Z" fill="#C9C9C9"/>
<path d="M334.472 156.692C315.6 146.164 311.788 129.033 325.979 118.425C340.169 107.817 366.968 107.752 385.854 118.267L449.33 153.662C468.202 164.19 472.014 181.321 457.823 191.929C443.632 202.536 416.833 202.602 397.948 192.087L334.472 156.692Z" fill="#C8C8C8"/>
<path d="M334.472 156.205C315.6 145.676 311.788 128.545 325.979 117.938C340.169 107.33 366.968 107.264 385.854 117.78L449.33 153.174C468.202 163.703 472.014 180.833 457.823 191.441C443.632 202.049 416.833 202.115 397.948 191.599L334.472 156.205Z" fill="#C7C7C7"/>
<path d="M334.459 155.704C315.586 145.175 311.775 128.045 325.966 117.437C340.156 106.829 366.955 106.763 385.841 117.279L449.316 152.673C468.189 163.202 472 180.333 457.81 190.94C443.619 201.548 416.82 201.614 397.934 191.099L334.459 155.704Z" fill="#C6C6C6"/>
<path d="M334.459 155.216C315.586 144.688 311.775 127.557 325.966 116.949C340.156 106.342 366.955 106.276 385.841 116.791L449.316 152.186C468.189 162.714 472 179.845 457.81 190.453C443.619 201.061 416.82 201.127 397.934 190.611L334.459 155.216Z" fill="#C6C6C6"/>
<path d="M334.459 154.716C315.586 144.187 311.775 127.056 325.966 116.449C340.156 105.841 366.955 105.775 385.841 116.29L449.316 151.685C468.189 162.214 472 179.344 457.81 189.952C443.619 200.56 416.82 200.626 397.934 190.11L334.459 154.716Z" fill="#C5C5C5"/>
<path d="M334.446 154.228C315.573 143.699 311.762 126.569 325.952 115.961C340.143 105.353 366.942 105.287 385.828 115.803L449.303 151.197C468.176 161.726 471.987 178.857 457.797 189.465C443.606 200.072 416.807 200.138 397.921 189.623L334.446 154.228Z" fill="#C4C4C4"/>
<path d="M334.446 153.741C315.573 143.212 311.762 126.081 325.952 115.473C340.143 104.866 366.942 104.8 385.828 115.315L449.303 150.71C468.176 161.239 471.987 178.369 457.797 188.977C443.606 199.585 416.807 199.651 397.921 189.135L334.446 153.741Z" fill="#C3C3C3"/>
<path d="M334.432 153.24C315.56 142.711 311.748 125.581 325.939 114.973C340.13 104.365 366.929 104.299 385.814 114.815L449.29 150.209C468.163 160.738 471.974 177.868 457.783 188.476C443.593 199.084 416.794 199.15 397.908 188.634L334.432 153.24Z" fill="#C2C2C2"/>
<path d="M334.432 152.752C315.56 142.224 311.748 125.093 325.939 114.485C340.13 103.877 366.929 103.811 385.814 114.327L449.29 149.722C468.163 160.25 471.974 177.381 457.783 187.989C443.593 198.596 416.794 198.662 397.908 188.147L334.432 152.752Z" fill="#C1C1C1"/>
<path d="M334.419 152.252C315.547 141.723 311.735 124.592 325.926 113.984C340.117 103.377 366.915 103.311 385.801 113.826L449.277 149.221C468.149 159.75 471.961 176.88 457.77 187.488C443.579 198.096 416.781 198.162 397.895 187.646L334.419 152.252Z" fill="#C0C0C0"/>
<path d="M334.419 151.764C315.547 141.235 311.735 124.105 325.926 113.497C340.117 102.889 366.915 102.823 385.801 113.339L449.277 148.733C468.149 159.262 471.961 176.393 457.77 187C443.579 197.608 416.781 197.674 397.895 187.158L334.419 151.764Z" fill="#BFBFBF"/>
<path d="M334.406 151.263C315.534 140.735 311.722 123.604 325.913 112.996C340.103 102.388 366.902 102.322 385.788 112.838L449.264 148.232C468.136 158.761 471.948 175.892 457.757 186.5C443.566 197.107 416.767 197.173 397.882 186.658L334.406 151.263Z" fill="#BEBEBE"/>
<path d="M334.406 150.776C315.534 140.247 311.722 123.116 325.913 112.509C340.103 101.901 366.902 101.835 385.788 112.35L449.264 147.745C468.136 158.274 471.948 175.404 457.757 186.012C443.566 196.62 416.767 196.686 397.882 186.17L334.406 150.776Z" fill="#BDBDBD"/>
<path d="M334.406 150.275C315.534 139.746 311.722 122.616 325.913 112.008C340.103 101.4 366.902 101.334 385.788 111.85L449.264 147.244C468.136 157.773 471.948 174.904 457.757 185.511C443.566 196.119 416.767 196.185 397.882 185.669L334.406 150.275Z" fill="#BCBCBC"/>
<path d="M334.393 149.787C315.52 139.259 311.709 122.128 325.9 111.52C340.09 100.912 366.889 100.847 385.775 111.362L449.25 146.757C468.123 157.285 471.934 174.416 457.744 185.024C443.553 195.632 416.754 195.697 397.869 185.182L334.393 149.787Z" fill="#BBBBBB"/>
<path d="M334.393 149.3C315.52 138.771 311.709 121.641 325.9 111.033C340.09 100.425 366.889 100.359 385.775 110.875L449.25 146.269C468.123 156.798 471.934 173.928 457.744 184.536C443.553 195.144 416.754 195.21 397.869 184.694L334.393 149.3Z" fill="#BABABA"/>
<path d="M334.38 148.799C315.507 138.27 311.696 121.14 325.886 110.532C340.077 99.9241 366.876 99.8583 385.762 110.374L449.237 145.768C468.11 156.297 471.921 173.428 457.731 184.035C443.54 194.643 416.741 194.709 397.855 184.194L334.38 148.799Z" fill="#B9B9B9"/>
<path d="M334.38 148.312C315.507 137.783 311.696 120.652 325.886 110.044C340.077 99.4366 366.876 99.3707 385.762 109.886L449.237 145.281C468.11 155.809 471.921 172.94 457.731 183.548C443.54 194.156 416.741 194.222 397.855 183.706L334.38 148.312Z" fill="#B8B8B8"/>
<path d="M334.367 147.811C315.494 137.282 311.683 120.151 325.873 109.544C340.064 98.9358 366.863 98.87 385.748 109.386L449.224 144.78C468.097 155.309 471.908 172.439 457.717 183.047C443.527 193.655 416.728 193.721 397.842 183.205L334.367 147.811Z" fill="#B7B7B7"/>
<path d="M334.367 147.323C315.494 136.794 311.683 119.664 325.873 109.056C340.064 98.4483 366.863 98.3824 385.748 108.898L449.224 144.292C468.097 154.821 471.908 171.952 457.717 182.56C443.527 193.167 416.728 193.233 397.842 182.718L334.367 147.323Z" fill="#B6B6B6"/>
<path d="M397.842 182.217L334.367 146.822C315.494 136.294 311.683 119.163 325.873 108.555C340.064 97.9475 366.863 97.8817 385.748 108.397L449.224 143.792C468.097 154.32 471.908 171.451 457.717 182.059C443.527 192.68 416.715 192.746 397.842 182.217Z" fill="#B5B5B5"/>
<path d="M397.842 182.217L334.367 146.822C315.494 136.294 311.683 119.163 325.873 108.555C340.064 97.9475 366.863 97.8817 385.748 108.397L449.224 143.792C468.097 154.32 471.908 171.451 457.717 182.059C443.527 192.68 416.715 192.746 397.842 182.217Z" fill="#D6D6D6"/>
<path d="M397.842 182.217L334.367 146.822C315.494 136.294 311.683 119.163 325.873 108.555C340.064 97.9475 366.863 97.8817 385.748 108.397L449.224 143.792C468.097 154.32 471.908 171.451 457.717 182.059C443.527 192.68 416.715 192.746 397.842 182.217Z" fill="#E2E2E2"/>
<path d="M460.052 168.145C461.819 155.656 446.904 143.223 426.738 140.374C406.572 137.525 388.792 145.34 387.025 157.829C385.258 170.317 400.173 182.751 420.339 185.599C440.504 188.448 458.285 180.633 460.052 168.145Z" fill="#536782"/>
<path d="M460.057 168.007C461.825 155.518 446.91 143.085 426.744 140.236C406.578 137.387 388.798 145.202 387.031 157.69C385.264 170.179 400.179 182.612 420.344 185.461C440.51 188.31 458.29 180.495 460.057 168.007Z" fill="#526782"/>
<path d="M460.049 167.866C461.816 155.378 446.901 142.944 426.735 140.095C406.57 137.247 388.789 145.061 387.022 157.55C385.255 170.038 400.17 182.472 420.336 185.321C440.502 188.169 458.282 180.355 460.049 167.866Z" fill="#516683"/>
<path d="M460.054 167.728C461.821 155.239 446.906 142.806 426.74 139.957C406.574 137.108 388.794 144.923 387.027 157.411C385.26 169.9 400.175 182.333 420.341 185.182C440.506 188.031 458.287 180.216 460.054 167.728Z" fill="#506683"/>
<path d="M460.044 167.6C461.811 155.112 446.896 142.678 426.73 139.829C406.564 136.981 388.784 144.795 387.017 157.284C385.25 169.773 400.165 182.206 420.331 185.055C440.496 187.903 458.277 180.089 460.044 167.6Z" fill="#4F6683"/>
<path d="M460.048 167.461C461.815 154.972 446.9 142.539 426.734 139.69C406.568 136.842 388.788 144.656 387.021 157.145C385.254 169.633 400.169 182.067 420.334 184.916C440.5 187.764 458.28 179.95 460.048 167.461Z" fill="#4E6684"/>
<path d="M401.495 178.646C417.677 187.672 440.652 187.607 452.811 178.514C464.971 169.422 461.713 154.729 445.531 145.716C429.349 136.689 406.375 136.755 394.215 145.847C382.056 154.94 385.326 169.619 401.495 178.646Z" fill="#4D6584"/>
<path d="M460.044 167.182C461.812 154.693 446.897 142.26 426.731 139.411C406.565 136.563 388.785 144.377 387.018 156.866C385.251 169.354 400.166 181.788 420.331 184.637C440.497 187.485 458.277 179.671 460.044 167.182Z" fill="#4C6584"/>
<path d="M460.05 167.044C461.817 154.555 446.902 142.122 426.736 139.273C406.57 136.424 388.79 144.239 387.023 156.727C385.256 169.216 400.171 181.649 420.336 184.498C440.502 187.347 458.282 179.532 460.05 167.044Z" fill="#4B6584"/>
<path d="M460.04 166.902C461.807 154.414 446.892 141.98 426.726 139.131C406.56 136.283 388.78 144.097 387.013 156.586C385.246 169.075 400.161 181.508 420.326 184.357C440.492 187.205 458.272 179.391 460.04 166.902Z" fill="#4A6585"/>
<path d="M460.045 166.764C461.813 154.276 446.898 141.842 426.732 138.993C406.566 136.145 388.786 143.959 387.019 156.448C385.252 168.937 400.167 181.37 420.332 184.219C440.498 187.067 458.278 179.253 460.045 166.764Z" fill="#496485"/>
<path d="M460.038 166.624C461.805 154.135 446.89 141.702 426.724 138.853C406.558 136.004 388.778 143.819 387.011 156.308C385.244 168.796 400.159 181.23 420.325 184.079C440.49 186.927 458.27 179.113 460.038 166.624Z" fill="#486485"/>
<path d="M460.04 166.498C461.807 154.009 446.892 141.576 426.726 138.727C406.56 135.878 388.78 143.693 387.013 156.182C385.246 168.67 400.161 181.103 420.326 183.952C440.492 186.801 458.272 178.986 460.04 166.498Z" fill="#476486"/>
<path d="M460.032 166.358C461.799 153.869 446.884 141.436 426.718 138.587C406.552 135.738 388.772 143.553 387.005 156.041C385.238 168.53 400.153 180.963 420.319 183.812C440.484 186.661 458.265 178.846 460.032 166.358Z" fill="#466486"/>
<path d="M460.036 166.219C461.803 153.73 446.888 141.297 426.723 138.448C406.557 135.599 388.777 143.414 387.009 155.902C385.242 168.391 400.157 180.824 420.323 183.673C440.489 186.522 458.269 178.707 460.036 166.219Z" fill="#456386"/>
<path d="M460.029 166.079C461.796 153.59 446.881 141.157 426.715 138.308C406.549 135.459 388.769 143.274 387.002 155.762C385.235 168.251 400.15 180.684 420.315 183.533C440.481 186.382 458.261 178.567 460.029 166.079Z" fill="#446387"/>
<path d="M460.031 165.939C461.799 153.45 446.884 141.017 426.718 138.168C406.552 135.319 388.772 143.134 387.005 155.623C385.238 168.111 400.153 180.545 420.318 183.393C440.484 186.242 458.264 178.428 460.031 165.939Z" fill="#436387"/>
<path d="M460.024 165.799C461.791 153.31 446.876 140.877 426.71 138.028C406.545 135.179 388.765 142.994 386.997 155.483C385.23 167.971 400.145 180.405 420.311 183.253C440.477 186.102 458.257 178.288 460.024 165.799Z" fill="#426287"/>
<path d="M460.029 165.661C461.796 153.172 446.881 140.739 426.716 137.89C406.55 135.041 388.77 142.856 387.003 155.344C385.235 167.833 400.15 180.266 420.316 183.115C440.482 185.964 458.262 178.149 460.029 165.661Z" fill="#416287"/>
<path d="M460.02 165.52C461.787 153.031 446.872 140.598 426.707 137.749C406.541 134.9 388.761 142.715 386.994 155.203C385.226 167.692 400.141 180.125 420.307 182.974C440.473 185.823 458.253 178.008 460.02 165.52Z" fill="#406288"/>
<path d="M460.023 165.394C461.791 152.906 446.876 140.472 426.71 137.624C406.544 134.775 388.764 142.589 386.997 155.078C385.23 167.567 400.145 180 420.31 182.849C440.476 185.698 458.256 177.883 460.023 165.394Z" fill="#3F6288"/>
<path d="M460.015 165.254C461.782 152.765 446.867 140.332 426.701 137.483C406.536 134.634 388.755 142.449 386.988 154.937C385.221 167.426 400.136 179.859 420.302 182.708C440.468 185.557 458.248 177.742 460.015 165.254Z" fill="#3E6188"/>
<path d="M460.02 165.115C461.787 152.626 446.872 140.193 426.706 137.344C406.54 134.495 388.76 142.31 386.993 154.799C385.226 167.287 400.141 179.721 420.306 182.569C440.472 185.418 458.252 177.604 460.02 165.115Z" fill="#3D6189"/>
<path d="M460.024 164.976C461.791 152.487 446.876 140.054 426.71 137.205C406.544 134.356 388.764 142.171 386.997 154.66C385.23 167.148 400.145 179.582 420.31 182.43C440.476 185.279 458.256 177.465 460.024 164.976Z" fill="#3C6189"/>
<path d="M460.016 164.836C461.783 152.347 446.868 139.914 426.703 137.065C406.537 134.216 388.757 142.031 386.99 154.52C385.222 167.008 400.137 179.442 420.303 182.29C440.469 185.139 458.249 177.324 460.016 164.836Z" fill="#3B6189"/>
<path d="M460.02 164.697C461.787 152.208 446.872 139.775 426.706 136.926C406.541 134.077 388.76 141.892 386.993 154.38C385.226 166.869 400.141 179.302 420.307 182.151C440.473 185 458.253 177.185 460.02 164.697Z" fill="#3A608A"/>
<path d="M460.012 164.556C461.779 152.068 446.864 139.634 426.698 136.786C406.533 133.937 388.752 141.751 386.985 154.24C385.218 166.729 400.133 179.162 420.299 182.011C440.465 184.86 458.245 177.045 460.012 164.556Z" fill="#39608A"/>
<path d="M460.017 164.418C461.784 151.929 446.869 139.496 426.704 136.647C406.538 133.798 388.758 141.613 386.99 154.102C385.223 166.59 400.138 179.024 420.304 181.872C440.47 184.721 458.25 176.906 460.017 164.418Z" fill="#38608A"/>
<path d="M460.006 164.29C461.773 151.801 446.858 139.368 426.692 136.519C406.527 133.67 388.746 141.485 386.979 153.974C385.212 166.462 400.127 178.896 420.293 181.744C440.459 184.593 458.239 176.779 460.006 164.29Z" fill="#38608A"/>
<path d="M460.011 164.151C461.778 151.663 446.863 139.229 426.697 136.381C406.532 133.532 388.751 141.347 386.984 153.835C385.217 166.324 400.132 178.757 420.298 181.606C440.464 184.455 458.244 176.64 460.011 164.151Z" fill="#375F8B"/>
<path d="M460.002 164.011C461.769 151.522 446.854 139.089 426.689 136.24C406.523 133.391 388.743 141.206 386.976 153.694C385.208 166.183 400.123 178.616 420.289 181.465C440.455 184.314 458.235 176.499 460.002 164.011Z" fill="#365F8B"/>
<path d="M460.008 163.873C461.775 151.384 446.86 138.951 426.694 136.102C406.529 133.253 388.749 141.068 386.981 153.556C385.214 166.045 400.129 178.478 420.295 181.327C440.461 184.176 458.241 176.361 460.008 163.873Z" fill="#355F8B"/>
<path d="M459.999 163.731C461.766 151.243 446.851 138.809 426.685 135.961C406.519 133.112 388.739 140.927 386.972 153.415C385.205 165.904 400.12 178.337 420.286 181.186C440.451 184.035 458.232 176.22 459.999 163.731Z" fill="#345E8C"/>
<path d="M401.456 174.917C417.638 183.943 440.612 183.877 452.772 174.785C464.931 165.693 461.674 151 445.492 141.986C429.31 132.96 406.335 133.026 394.176 142.118C382.016 151.211 385.274 165.903 401.456 174.917Z" fill="#335E8C"/>
<path d="M459.996 163.453C461.763 150.964 446.848 138.531 426.682 135.682C406.516 132.833 388.736 140.648 386.969 153.136C385.202 165.625 400.117 178.058 420.283 180.907C440.448 183.756 458.229 175.941 459.996 163.453Z" fill="#325E8C"/>
<path d="M460 163.314C461.768 150.825 446.853 138.392 426.687 135.543C406.521 132.694 388.741 140.509 386.974 152.998C385.207 165.486 400.121 177.92 420.287 180.768C440.453 183.617 458.233 175.803 460 163.314Z" fill="#315E8D"/>
<path d="M459.99 163.186C461.757 150.698 446.842 138.264 426.676 135.416C406.511 132.567 388.73 140.382 386.963 152.87C385.196 165.359 400.111 177.792 420.277 180.641C440.443 183.49 458.223 175.675 459.99 163.186Z" fill="#305D8D"/>
<path d="M459.994 163.047C461.761 150.559 446.846 138.125 426.68 135.277C406.515 132.428 388.734 140.242 386.967 152.731C385.2 165.22 400.115 177.653 420.281 180.502C440.447 183.351 458.227 175.536 459.994 163.047Z" fill="#2F5D8D"/>
<path d="M401.443 174.231C417.625 183.258 440.599 183.192 452.759 174.1C464.918 165.007 461.661 150.315 445.479 141.301C429.296 132.275 406.322 132.341 394.163 141.433C382.003 150.525 385.274 165.218 401.443 174.231Z" fill="#2E5D8E"/>
<path d="M459.991 162.769C461.758 150.28 446.843 137.847 426.678 134.998C406.512 132.149 388.732 139.964 386.965 152.452C385.197 164.941 400.112 177.374 420.278 180.223C440.444 183.072 458.224 175.257 459.991 162.769Z" fill="#2D5D8E"/>
<path d="M459.996 162.63C461.763 150.141 446.848 137.708 426.682 134.859C406.516 132.01 388.736 139.825 386.969 152.314C385.202 164.802 400.117 177.236 420.283 180.084C440.448 182.933 458.229 175.118 459.996 162.63Z" fill="#2C5C8E"/>
<path d="M459.986 162.489C461.754 150 446.839 137.567 426.673 134.718C406.507 131.869 388.727 139.684 386.96 152.173C385.193 164.661 400.108 177.095 420.273 179.943C440.439 182.792 458.219 174.977 459.986 162.489Z" fill="#2B5C8E"/>
<path d="M459.992 162.351C461.759 149.862 446.844 137.429 426.678 134.58C406.513 131.731 388.733 139.546 386.965 152.034C385.198 164.523 400.113 176.956 420.279 179.805C440.445 182.654 458.225 174.839 459.992 162.351Z" fill="#2A5C8F"/>
<path d="M459.984 162.21C461.751 149.721 446.836 137.288 426.67 134.439C406.504 131.59 388.724 139.405 386.957 151.894C385.19 164.382 400.105 176.816 420.27 179.664C440.436 182.513 458.216 174.699 459.984 162.21Z" fill="#295B8F"/>
<path d="M459.986 162.084C461.754 149.596 446.839 137.162 426.673 134.314C406.507 131.465 388.727 139.28 386.96 151.768C385.193 164.257 400.108 176.69 420.273 179.539C440.439 182.388 458.219 174.573 459.986 162.084Z" fill="#285B8F"/>
<path d="M459.978 161.944C461.746 149.455 446.831 137.022 426.665 134.173C406.499 131.324 388.719 139.139 386.952 151.628C385.185 164.116 400.1 176.55 420.265 179.398C440.431 182.247 458.211 174.433 459.978 161.944Z" fill="#275B90"/>
<path d="M459.983 161.805C461.75 149.317 446.835 136.883 426.669 134.034C406.503 131.186 388.723 139 386.956 151.489C385.189 163.977 400.104 176.411 420.27 179.26C440.435 182.108 458.216 174.294 459.983 161.805Z" fill="#265B90"/>
<path d="M459.974 161.665C461.742 149.176 446.827 136.743 426.661 133.894C406.495 131.045 388.715 138.86 386.948 151.348C385.181 163.837 400.095 176.27 420.261 179.119C440.427 181.968 458.207 174.153 459.974 161.665Z" fill="#255A90"/>
<path d="M459.978 161.526C461.745 149.037 446.83 136.604 426.665 133.755C406.499 130.906 388.719 138.721 386.952 151.209C385.184 163.698 400.099 176.131 420.265 178.98C440.431 181.829 458.211 174.014 459.978 161.526Z" fill="#245A91"/>
<path d="M459.971 161.385C461.738 148.897 446.823 136.463 426.657 133.615C406.491 130.766 388.711 138.58 386.944 151.069C385.177 163.558 400.092 175.991 420.258 178.84C440.423 181.689 458.203 173.874 459.971 161.385Z" fill="#235A91"/>
<path d="M459.975 161.247C461.742 148.758 446.827 136.325 426.662 133.476C406.496 130.627 388.716 138.442 386.949 150.93C385.181 163.419 400.096 175.852 420.262 178.701C440.428 181.55 458.208 173.735 459.975 161.247Z" fill="#225A91"/>
<path d="M459.967 161.106C461.734 148.618 446.819 136.184 426.653 133.336C406.488 130.487 388.707 138.301 386.94 150.79C385.173 163.279 400.088 175.712 420.254 178.561C440.42 181.41 458.2 173.595 459.967 161.106Z" fill="#215991"/>
<path d="M459.97 160.981C461.737 148.492 446.822 136.059 426.657 133.21C406.491 130.361 388.711 138.176 386.944 150.665C385.176 163.153 400.091 175.587 420.257 178.435C440.423 181.284 458.203 173.469 459.97 160.981Z" fill="#205992"/>
<path d="M459.962 160.84C461.729 148.352 446.814 135.918 426.648 133.069C406.482 130.221 388.702 138.035 386.935 150.524C385.168 163.012 400.083 175.446 420.249 178.295C440.414 181.143 458.194 173.329 459.962 160.84Z" fill="#1F5992"/>
<path d="M459.966 160.701C461.734 148.213 446.819 135.779 426.653 132.931C406.487 130.082 388.707 137.897 386.94 150.385C385.173 162.874 400.088 175.307 420.253 178.156C440.419 181.005 458.199 173.19 459.966 160.701Z" fill="#1E5992"/>
<path d="M459.971 160.563C461.738 148.074 446.823 135.641 426.657 132.792C406.491 129.943 388.711 137.758 386.944 150.246C385.177 162.735 400.092 175.168 420.258 178.017C440.423 180.866 458.204 173.051 459.971 160.563Z" fill="#1D5893"/>
<path d="M459.964 160.423C461.731 147.934 446.816 135.501 426.65 132.652C406.484 129.803 388.704 137.618 386.937 150.106C385.17 162.595 400.085 175.028 420.251 177.877C440.416 180.726 458.197 172.911 459.964 160.423Z" fill="#1C5893"/>
<path d="M459.964 160.423C461.731 147.934 446.816 135.501 426.65 132.652C406.485 129.803 388.704 137.618 386.937 150.106C385.17 162.595 400.085 175.028 420.251 177.877C440.417 180.726 458.197 172.911 459.964 160.423Z" fill="#5393D3"/>
<path d="M365.781 126.279L363.407 127.346L354.241 122.655L352.672 123.367L358.831 126.516L353.16 129.073L340.697 122.681L339.484 123.222L352.632 129.955L350.338 130.983L334.103 122.668L339.8 120.099L352.263 126.49L353.45 125.963L340.855 119.506L343.15 118.478L349.48 121.72L351.05 121.008L341.884 116.317L344.258 115.249L365.781 126.279ZM354.993 113.036L361.455 116.343L363.658 115.355L366.836 116.989L364.634 117.977L371.096 121.285L368.735 122.352L362.273 119.045C361.917 119.203 361.732 119.4 361.732 119.611C361.732 119.835 361.917 120.125 362.313 120.481C363.051 121.127 363.763 121.733 364.449 122.299C365.148 122.866 365.887 123.472 366.691 124.105L363.684 124.75C362.827 124.078 362.049 123.459 361.363 122.866C360.664 122.286 359.978 121.706 359.306 121.127C358.791 120.692 358.449 120.336 358.277 120.059C358.106 119.782 358.027 119.572 358.079 119.427L358.053 119.414C357.736 119.427 357.301 119.374 356.721 119.269C356.141 119.163 355.415 118.979 354.558 118.702C353.411 118.346 352.25 117.977 351.076 117.608C349.916 117.239 348.663 116.818 347.318 116.37L348.874 114.96C350.127 115.381 351.3 115.777 352.408 116.132C353.503 116.488 354.703 116.857 355.982 117.252C357.367 117.661 358.409 117.714 359.095 117.411L352.632 114.103L354.993 113.036Z" fill="#5393D3"/>
<path d="M394.097 132.604L390.114 134.396C389.837 134.515 389.494 134.66 389.072 134.831C388.65 135.002 388.201 135.174 387.7 135.345C387.212 135.529 386.698 135.701 386.157 135.885C385.617 136.057 385.102 136.215 384.575 136.36L388.281 138.257L385.696 139.417L364.185 128.4L366.77 127.241L381.357 134.712C382.359 134.449 383.348 134.146 384.324 133.803C385.3 133.461 386.105 133.131 386.738 132.841L388.307 132.13L375.936 125.791L378.521 124.632L394.097 132.604ZM363.381 134.752L376.134 141.288L373.549 142.448L357.618 134.291L364.937 130.996L368.116 132.63L363.381 134.752Z" fill="#5393D3"/>
<path d="M184.639 275.5L200.715 266.223L195.348 263.139L179.284 272.403L184.639 275.5Z" fill="#82ACDE"/>
<path d="M216.779 256.959L232.856 247.682L227.501 244.599L211.424 253.862L216.779 256.959Z" fill="#82ACDE"/>
<path d="M210.185 253.217C210.185 260.965 204.751 270.387 198.038 274.248C194.464 276.317 191.246 276.383 189.031 274.828C189.031 274.814 189.017 274.814 189.017 274.814C187.395 273.681 186.301 271.691 185.971 268.977C186.419 268.779 186.868 268.542 187.329 268.278C194.042 264.418 199.476 254.996 199.476 247.247C199.476 246.641 199.449 246.061 199.37 245.521C201.903 244.375 204.197 244.269 206.017 245.047C208.576 246.14 210.185 249 210.185 253.217Z" fill="#262838"/>
<path d="M211.279 237.272C211.2 237.233 211.134 237.193 211.055 237.14C207.679 235.348 203.089 235.678 198.038 238.603C187.685 244.572 179.284 259.094 179.284 271.046C179.284 277.055 181.408 281.258 184.837 283.208C188.226 285.132 192.895 284.829 198.038 281.864C208.391 275.895 216.779 261.36 216.779 249.408C216.779 243.426 214.682 239.222 211.279 237.272ZM198.038 274.248C194.451 276.317 191.233 276.383 189.017 274.814C187.066 273.457 185.879 270.848 185.879 267.237C185.879 259.502 191.325 250.08 198.038 246.206C201.098 244.441 203.881 244.138 206.017 245.047C208.576 246.14 210.185 249 210.185 253.217C210.185 260.965 204.751 270.387 198.038 274.248Z" fill="#37394F"/>
<path d="M206.611 245.337C206.558 245.31 206.518 245.284 206.466 245.258C204.276 244.098 201.296 244.309 198.025 246.206C191.312 250.081 185.865 259.489 185.865 267.237C185.865 271.138 187.237 273.853 189.466 275.118C191.668 276.369 194.688 276.172 198.025 274.248C204.738 270.374 210.172 260.952 210.172 253.204C210.185 249.329 208.826 246.602 206.611 245.337ZM198.038 271.494C195.15 273.154 192.565 273.207 190.785 271.955C189.215 270.861 188.266 268.766 188.266 265.867C188.266 259.647 192.644 252.07 198.038 248.96C200.504 247.537 202.733 247.3 204.448 248.025C206.505 248.908 207.798 251.201 207.798 254.587C207.798 260.82 203.432 268.384 198.038 271.494Z" fill="#82ACDE"/>
<path d="M248.932 238.419L264.996 229.142L259.641 226.058L243.565 235.322L248.932 238.419Z" fill="#82ACDE"/>
<path d="M281.072 219.878L297.136 210.601L291.781 207.518L275.718 216.781L281.072 219.878Z" fill="#82ACDE"/>
<path d="M313.212 201.337L329.289 192.06L323.921 188.964L307.858 198.241L313.212 201.337Z" fill="#82ACDE"/>
<path d="M233.238 115.118C234.293 114.208 235.361 114.591 235.612 115.948C235.863 117.305 235.216 119.15 234.161 120.059C233.106 120.968 232.038 120.586 231.787 119.229C231.524 117.859 232.183 116.014 233.238 115.118Z" fill="#82ACDE"/>
<path d="M245.609 120.929L234.847 114.736L232.499 120.402L243.274 126.622L245.609 120.929Z" fill="#82ACDE"/>
<path d="M243.947 121.298C245.002 120.389 246.07 120.771 246.321 122.128C246.571 123.499 245.925 125.33 244.87 126.239C243.815 127.149 242.747 126.767 242.496 125.409C242.246 124.039 242.892 122.194 243.947 121.298Z" fill="#82ACDE"/>
<path d="M326.559 173.256C326.572 173.52 326.599 173.757 326.599 174.021C326.599 174.548 326.585 175.088 326.546 175.628C324.409 174.719 321.627 175.022 318.567 176.788C311.854 180.662 306.407 190.084 306.407 197.819C306.407 201.43 307.594 204.039 309.546 205.396C308.992 205.791 308.425 206.147 307.845 206.477C307.634 206.595 307.436 206.687 307.225 206.793L305.365 213.79L294.604 207.794C291.201 205.831 289.104 201.64 289.104 195.658C289.104 183.706 297.492 169.185 307.845 163.202C312.962 160.25 317.591 159.947 320.98 161.832V161.818L331.584 167.722C331.663 167.775 331.729 167.814 331.808 167.854L326.559 173.256Z" fill="#454864"/>
<path d="M331.808 167.854C331.729 167.814 331.663 167.775 331.584 167.722C328.208 165.93 323.618 166.259 318.567 169.185C308.214 175.154 299.813 189.675 299.813 201.627C299.813 207.636 301.936 211.84 305.365 213.79C308.755 215.714 313.423 215.411 318.567 212.446C328.92 206.477 337.308 191.942 337.308 179.99C337.308 174.007 335.211 169.804 331.808 167.854ZM318.567 204.829C314.98 206.898 311.762 206.964 309.546 205.396C307.594 204.039 306.407 201.43 306.407 197.819C306.407 190.084 311.854 180.662 318.567 176.788C321.627 175.022 324.409 174.719 326.546 175.628C329.104 176.722 330.713 179.581 330.713 183.798C330.713 191.547 325.28 200.968 318.567 204.829Z" fill="#37394F"/>
<path d="M330.713 183.798C330.713 191.547 325.28 200.968 318.567 204.829C314.993 206.898 311.775 206.964 309.559 205.409C309.559 205.396 309.546 205.396 309.546 205.396C307.924 204.263 306.829 202.273 306.499 199.558C306.948 199.361 307.396 199.124 307.858 198.86C314.571 194.999 320.004 185.577 320.004 177.829C320.004 177.223 319.978 176.643 319.899 176.103C322.431 174.956 324.726 174.851 326.546 175.628C329.104 176.722 330.713 179.581 330.713 183.798Z" fill="#262838"/>
<path d="M327.152 175.931C327.1 175.905 327.06 175.879 327.007 175.852C324.818 174.693 321.838 174.904 318.567 176.801C311.854 180.675 306.407 190.084 306.407 197.832C306.407 201.733 307.779 204.447 310.008 205.712C312.21 206.964 315.23 206.766 318.567 204.843C325.28 200.968 330.713 191.547 330.713 183.798C330.713 179.924 329.355 177.196 327.152 175.931ZM318.567 202.088C315.679 203.749 313.094 203.802 311.313 202.55C309.744 201.456 308.794 199.361 308.794 196.462C308.794 190.242 313.173 182.665 318.567 179.555C321.033 178.132 323.262 177.895 324.976 178.62C327.034 179.502 328.326 181.795 328.326 185.182C328.339 191.402 323.961 198.979 318.567 202.088Z" fill="#82ACDE"/>
<path d="M307.858 187.738C307.858 187.738 334.67 172.268 338.191 170.239C341.726 168.209 330.212 156.271 321.772 155.48C313.331 154.689 307.858 156.837 307.858 156.837C307.858 156.837 314.333 165.126 313.212 169.83C312.091 174.535 307.858 187.738 307.858 187.738Z" fill="#82ACDE"/>
<path d="M264.996 138.297C264.996 138.297 308.966 160.448 310.865 161.779C312.764 163.11 310.918 178.58 307.858 187.738C304.785 196.91 300.195 210.983 298.336 215.002C296.476 219.021 294.05 220.431 289.592 223.001C285.134 225.571 257.913 241.278 257.913 241.278L215.091 246.444L198.078 237.167L202.496 209.349C202.496 209.349 248.035 185.142 254.273 181.532C260.525 177.961 278.962 161.133 264.996 138.297Z" fill="#82ACDE"/>
<path opacity="0.2" d="M264.996 138.297C264.996 138.297 308.966 160.448 310.865 161.779C312.764 163.11 310.918 178.58 307.858 187.738C304.785 196.91 300.195 210.983 298.336 215.002C296.476 219.021 294.05 220.431 289.592 223.001C285.134 225.571 257.913 241.278 257.913 241.278L215.091 246.444L198.078 237.167L202.496 209.349C202.496 209.349 248.035 185.142 254.273 181.532C260.525 177.961 278.962 161.133 264.996 138.297Z" fill="black"/>
<path d="M311.709 182.467C315.639 171.846 318.62 163.031 318.118 157.101C317.512 150.051 314.887 144.279 303.242 141.393C291.597 138.494 275.309 138.534 275.309 138.534L270.35 141.393C270.35 141.393 303.796 160.764 307.594 162.873C309.915 164.164 312.395 169.988 307.858 187.738C307.858 187.738 308.201 187.936 308.636 188.186C309.058 188.437 310.443 185.88 311.709 182.467Z" fill="#82ACDE"/>
<path opacity="0.3" d="M311.709 182.467C315.639 171.846 318.62 163.031 318.118 157.101C317.512 150.051 314.887 144.279 303.242 141.393C291.597 138.494 275.309 138.534 275.309 138.534L270.35 141.393C270.35 141.393 303.796 160.764 307.594 162.873C309.915 164.164 312.395 169.988 307.858 187.738C307.858 187.738 308.201 187.936 308.636 188.186C309.058 188.437 310.443 185.88 311.709 182.467Z" fill="white"/>
<path d="M286.374 150.657L291.781 147.574C291.781 147.574 291.465 128.849 283.591 124.302C275.718 119.756 248.932 122.853 248.932 122.853L243.578 125.95L286.374 150.657Z" fill="#82ACDE"/>
<path d="M268.833 128.572C266.262 130.048 266.262 132.459 268.833 133.935C271.405 135.411 275.573 135.411 278.131 133.935C280.703 132.459 280.703 130.048 278.131 128.572C275.573 127.096 271.405 127.096 268.833 128.572Z" fill="#F0F0F0"/>
<path d="M277.076 137.519C275.256 138.573 275.256 140.26 277.076 141.314C278.896 142.369 281.837 142.369 283.657 141.314C285.477 140.26 285.477 138.573 283.657 137.519C281.837 136.478 278.883 136.478 277.076 137.519Z" fill="#F0F0F0"/>
<path d="M256.344 126.187C254.524 127.241 254.524 128.928 256.344 129.982C258.164 131.036 261.105 131.036 262.925 129.982C264.745 128.928 264.745 127.241 262.925 126.187C261.105 125.133 258.164 125.133 256.344 126.187Z" fill="#F0F0F0"/>
<path d="M287.152 145.215C288.207 144.306 289.275 144.688 289.526 146.045C289.777 147.415 289.13 149.247 288.075 150.156C287.02 151.066 285.952 150.683 285.701 149.326C285.451 147.956 286.097 146.124 287.152 145.215Z" fill="#82ACDE"/>
<path d="M299.523 151.039L288.761 144.833L286.414 150.512L297.188 156.732L299.523 151.039Z" fill="#82ACDE"/>
<path d="M297.861 151.395C298.916 150.486 299.984 150.868 300.235 152.225C300.486 153.596 299.839 155.427 298.784 156.337C297.729 157.246 296.661 156.864 296.41 155.506C296.16 154.136 296.806 152.304 297.861 151.395Z" fill="#82ACDE"/>
<path d="M297.861 151.395C298.916 150.486 299.984 150.868 300.235 152.225C300.486 153.596 299.839 155.427 298.784 156.337C297.729 157.246 296.661 156.864 296.41 155.506C296.16 154.136 296.806 152.304 297.861 151.395Z" fill="black"/>
<path d="M206.03 242.675C206.044 242.938 206.07 243.176 206.07 243.439C206.07 243.966 206.057 244.506 206.017 245.047C203.881 244.138 201.098 244.441 198.038 246.206C191.325 250.08 185.879 259.502 185.879 267.237C185.879 270.848 187.065 273.457 189.017 274.814C188.463 275.21 187.896 275.566 187.316 275.895C187.105 276.014 186.907 276.106 186.696 276.211L184.837 283.208L174.075 277.213C170.672 275.249 168.575 271.059 168.575 265.076C168.575 253.124 176.963 238.603 187.316 232.62C192.433 229.669 197.062 229.366 200.452 231.25V231.237L211.055 237.14C211.134 237.193 211.2 237.233 211.279 237.272L206.03 242.675Z" fill="#454864"/>
<path d="M173.93 221.736L165.885 249.553L181.962 258.817L190.283 231.171L173.93 221.736Z" fill="#82ACDE"/>
<path opacity="0.2" d="M173.93 221.736L165.885 249.553L181.962 258.817L190.283 231.171L173.93 221.736Z" fill="black"/>
<path d="M173.93 221.736C173.93 221.736 183.043 229.418 190.297 231.171C199.819 233.477 214.959 233.727 220.327 234.096C228.543 234.663 234.728 234.663 237.643 233.609C241.402 232.265 251.504 226.427 254.3 224.819C259.654 221.723 261.936 209.6 247.178 206.279C232.42 202.958 216.805 203.195 216.805 203.195L173.93 221.736Z" fill="#82ACDE"/>
<path d="M264.758 218.165C264.336 218.718 264.257 219.997 263.835 221.736C263.413 223.475 263.268 224.819 263.545 225.663C263.835 226.506 265.695 228.417 267.976 229.128C270.258 229.84 273.08 229.247 275.797 227.613C278.527 225.992 280.571 224.002 284.462 222.909C288.339 221.802 290.278 220.906 292.124 219.43C294.274 217.704 297.149 212.933 293.034 211.827C288.88 210.72 279.964 214.62 271.827 214.976L264.758 218.165Z" fill="#37394F"/>
<path d="M264.758 213.078V219.166C264.758 219.166 265.325 221.275 268.003 221.736C268.675 221.855 269.335 221.749 269.954 221.525C271.985 220.814 273.304 218.85 273.449 216.702L273.687 213.078H264.758Z" fill="#FFC0A7"/>
<path d="M276.404 175.417C276.443 182.994 274.267 215.74 274.267 215.74C274.267 215.74 271.168 219.667 264.429 215.74L262.147 179.16L276.404 175.417Z" fill="#37394F"/>
<path d="M241.059 207.728L262.134 195.566C263.716 194.656 264.982 192.535 264.982 190.822C264.982 189.109 263.703 187 262.121 186.078L246.4 177.012C244.817 176.103 242.272 176.103 240.689 177.012L219.614 189.175C218.032 190.084 216.766 192.205 216.766 193.905C216.766 195.605 218.045 197.727 219.628 198.636L235.348 207.702C236.931 208.638 239.489 208.638 241.059 207.728Z" fill="#82ACDE"/>
<path d="M241.059 207.728L262.134 195.566C263.716 194.656 264.982 192.535 264.982 190.822C264.982 189.109 263.703 187 262.121 186.078L246.4 177.012C244.817 176.103 242.272 176.103 240.689 177.012L219.614 189.175C218.032 190.084 216.766 192.205 216.766 193.905C216.766 195.605 218.045 197.727 219.628 198.636L235.348 207.702C236.931 208.638 239.489 208.638 241.059 207.728Z" fill="white"/>
<path d="M219.628 192.482L235.348 201.548C236.931 202.457 239.476 202.457 241.059 201.548L262.134 189.385C263.716 188.476 263.716 187 262.134 186.091L246.413 177.025C244.831 176.116 242.285 176.116 240.703 177.025L219.628 189.188C218.058 190.097 218.058 191.573 219.628 192.482Z" fill="#82ACDE"/>
<path d="M232.486 111.837L229.809 122.853L218.309 123.551L220.801 108.279L232.486 111.837Z" fill="#FFC0A7"/>
<path d="M243.63 103.522C243.63 103.522 244.883 108.2 244.409 108.45C243.934 108.713 241.903 108.463 241.903 108.463L243.63 103.522Z" fill="#F2AA8F"/>
<path d="M241.494 88.6311C243.354 90.8054 245.028 94.3765 243.736 103.1C242.312 112.667 240.544 113.774 239.107 114.696C237.26 115.895 229.809 115.263 227.712 113.734C225.193 111.902 221.303 106.091 220.379 100.359C219.298 93.6122 221.553 86.1406 226.512 84.8756C233.489 83.0966 239.925 86.7995 241.494 88.6311Z" fill="#FFC0A7"/>
<path d="M219.628 111.362C221.395 113.207 225.061 113.708 227.356 114.129C229.651 114.538 236.707 115.012 238.79 109.992C240.874 104.971 239.45 101.361 242.008 100.148C244.567 98.9359 247.125 98.1452 247.798 97.46C248.471 96.7879 248.484 88.5653 241.613 84.3353C234.742 80.1054 224.217 79.0116 217.293 87.7614C211.992 94.4687 214.194 105.709 219.628 111.362Z" fill="#454864"/>
<path d="M226.538 114.208C228.319 114.353 233.95 113.471 235.638 111.151C237.34 108.832 238.025 104.694 238.223 102.507C238.421 100.319 239.595 99.4498 241.283 98.9095C242.971 98.3692 246.743 96.5244 246.743 96.5244L246.769 95.4966C246.769 95.4966 249.605 95.3384 250.409 95.4834C251.201 95.6283 250.779 96.7879 248.761 97.829C246.756 98.8568 241.257 100.807 240.412 101.479C239.555 102.151 239.173 104.984 238.5 108.002C237.828 111.006 235.836 115.539 226.538 114.208Z" fill="#37394F"/>
<path d="M242.364 126.622L248.919 122.84C249.552 120.929 248.537 119.967 246.73 120.086C244.923 120.204 245.49 118.465 244.395 117.964C242.958 117.305 242.14 117.674 241.507 117.384C240.689 117.002 240.584 116.304 239.74 116.225C235.968 115.856 233.396 121.232 233.396 121.232L242.364 126.622Z" fill="#F2AA8F"/>
<path d="M197.616 175.062C197.616 175.062 226.749 160.632 231.84 158.274C236.931 155.915 244.883 152.555 249.117 152.555C252.19 152.555 255.276 155.572 255.434 159.012C255.592 162.451 254.999 166.615 254.999 166.615C254.999 166.615 242.72 170.792 230.561 172.848C218.401 174.904 197.616 175.062 197.616 175.062Z" fill="#37394F"/>
<path d="M200.781 166.734C200.795 172.703 200.214 178.923 202.707 183.298C205.12 187.527 218.691 197.806 231.418 195.671C239.727 194.274 264.389 182.929 264.389 182.929C264.389 182.929 276.338 178.554 276.404 175.431C276.483 170.832 276.166 164.348 265.734 164.625C256.239 164.876 228.187 170.726 228.187 170.726L200.781 166.734Z" fill="#454864"/>
<path d="M208.932 119.334C213.442 114.617 216.489 114.235 218.652 114.801C226.182 116.791 231.484 119.927 233.014 120.547C233.014 120.547 231.273 137.387 239.516 142.25V168.486C239.516 168.486 239.265 171.332 235.678 174.166C232.513 176.656 225.351 179.173 216.805 178.461C206.65 177.618 200.795 166.72 200.795 166.72C200.795 166.72 200.531 145.254 201.968 136.729C203.643 126.793 207.362 120.955 208.932 119.334Z" fill="#454864"/>
<path d="M239.502 143.515C239.502 143.515 234.517 139.601 233.001 134.423C233.001 134.423 233.594 142.487 239.502 146.572V143.515Z" fill="#37394F"/>
<path d="M285.649 155.902C287.6 156.165 290.713 155.137 292.23 153.872C292.23 153.872 294.524 149.418 297.347 149.787C297.347 149.787 297.848 147.903 296.687 147.271C295.527 146.638 295.026 146.822 294.564 146.177C294.089 145.531 294.036 144.279 291.966 144.279C291.095 144.279 291.227 143.66 289.104 143.41C286.994 143.159 284.91 148.022 283.367 148.022L285.649 155.902Z" fill="#FFC0A7"/>
<path d="M233.001 120.547C240.241 121.667 242.866 123.815 245.503 126.253C248.26 128.809 264.283 144.872 264.283 144.872L283.829 147.679C283.829 147.679 285.2 148.601 285.992 150.894C286.783 153.187 286.071 155.678 285.319 156.284C285.319 156.284 265.932 157.43 262.121 156.719C258.309 156.007 239.437 143.462 239.437 143.462C239.437 143.462 234.082 140.049 232.842 132.103C231.616 124.157 233.001 120.547 233.001 120.547Z" fill="#454864"/>
<path d="M215.632 190.163L185.641 226.691C185.311 226.73 184.982 226.757 184.639 226.757C183.399 226.757 182.173 226.48 181.223 225.953C181.21 225.94 155.928 211.352 155.928 211.352C155.928 211.352 155.163 210.904 154.213 210.364C153.264 209.824 152.499 207.61 152.499 205.422V199.269C152.499 186.394 159.37 174.508 170.514 168.078L200.715 150.657L232.856 169.198L215.632 190.163Z" fill="#82ACDE"/>
<g opacity="0.1">
<path opacity="0.1" d="M215.632 190.163L185.641 226.691C185.311 226.73 184.982 226.757 184.639 226.757C183.399 226.757 182.173 226.48 181.223 225.953C181.21 225.94 155.928 211.352 155.928 211.352C155.928 211.352 155.163 210.904 154.213 210.364C153.264 209.824 152.499 207.61 152.499 205.422V199.269C152.499 186.394 159.37 174.508 170.514 168.078L200.715 150.657L232.856 169.198L215.632 190.163Z" fill="black"/>
</g>
<path d="M205.305 202.747L232.856 169.198L200.715 150.657L170.527 168.078C166.558 170.371 163.142 173.362 160.372 176.827L205.305 202.747Z" fill="#82ACDE"/>
<path d="M232.856 196.145C232.856 198.333 232.091 200.547 231.141 201.087L229.427 202.075L188.068 225.94C187.356 226.335 186.525 226.585 185.641 226.691C185.312 226.73 184.982 226.757 184.639 226.757V217.809C184.639 204.935 191.51 193.049 202.667 186.618L206.083 184.655L232.856 169.198V196.145Z" fill="#82ACDE"/>
<g opacity="0.2">
<path opacity="0.2" d="M232.856 196.145C232.856 198.333 232.091 200.547 231.141 201.087L229.427 202.075L188.068 225.94C187.356 226.335 186.525 226.585 185.641 226.691C185.312 226.73 184.982 226.757 184.639 226.757V217.809C184.639 204.935 191.51 193.049 202.667 186.618L206.083 184.655L232.856 169.198V196.145Z" fill="black"/>
</g>
<path d="M241.718 241.344L257.914 241.291L281.072 227.916L258.375 244.309L241.296 244.546L241.718 241.344Z" fill="#E0E0E0"/>
<path d="M202.43 264.338C202.43 264.338 231.603 253.349 234.056 252.057C237.221 250.384 242.312 246.035 242.312 246.035C243.34 245.099 243.301 242.359 241.876 241.331C241.876 241.331 229.981 240.79 226.96 241.713C225.259 242.24 197.814 251.029 197.814 251.029L202.43 264.338Z" fill="#E0E0E0"/>
<path d="M201.124 252.057C198.711 249.988 196.284 250.845 195.691 253.968C195.11 257.091 196.587 261.294 199.001 263.363C201.414 265.432 203.841 264.576 204.435 261.453C205.015 258.33 203.538 254.126 201.124 252.057Z" fill="#454864"/>
</svg>
