<svg width="408" height="314" viewBox="0 0 408 314" fill="none" xmlns="http://www.w3.org/2000/svg">
<path d="M213.89 313.64C320.972 313.64 407.78 308.572 407.78 302.32C407.78 296.068 320.972 291 213.89 291C106.808 291 20 296.068 20 302.32C20 308.572 106.808 313.64 213.89 313.64Z" fill="#153FD1"/>
<path d="M122.49 302H118.49" stroke="#8FAEF3" stroke-linecap="round" stroke-linejoin="round"/>
<path d="M110.93 302H8.78003" stroke="#8FAEF3" stroke-linecap="round" stroke-linejoin="round" stroke-dasharray="7.57 7.57"/>
<path d="M5 302H1" stroke="#8FAEF3" stroke-linecap="round" stroke-linejoin="round"/>
<path d="M332.393 82.7336L225.312 84.502L226.588 161.865L333.668 160.097L332.393 82.7336Z" fill="#7BA8FF"/>
<path opacity="0.3" d="M289.947 83.4255L225.207 84.4946L226.483 161.858L291.223 160.789L289.947 83.4255Z" fill="white"/>
<path opacity="0.3" d="M299.075 89.7L280.434 90.0078L280.52 95.2081L299.161 94.9002L299.075 89.7Z" fill="white"/>
<path opacity="0.3" d="M300.251 148.796L281.609 149.104L281.695 154.304L300.337 153.996L300.251 148.796Z" fill="white"/>
<path d="M312.681 132.22C318.724 132.22 323.623 126.674 323.623 119.831C323.623 112.989 318.724 107.442 312.681 107.442C306.639 107.442 301.74 112.989 301.74 119.831C301.74 126.674 306.639 132.22 312.681 132.22Z" stroke="white" stroke-miterlimit="10"/>
<path d="M313.136 109.328V111.408" stroke="white" stroke-miterlimit="10" stroke-linecap="round" stroke-linejoin="round"/>
<path d="M313.609 128.385V130.465" stroke="white" stroke-miterlimit="10" stroke-linecap="round" stroke-linejoin="round"/>
<path d="M303.457 119.423H305.545" stroke="white" stroke-miterlimit="10" stroke-linecap="round" stroke-linejoin="round"/>
<path d="M320.217 119.432H322.305" stroke="white" stroke-miterlimit="10" stroke-linecap="round" stroke-linejoin="round"/>
<path d="M313.127 119.423L313.136 113.015" stroke="white" stroke-width="0.5" stroke-miterlimit="10" stroke-linecap="round" stroke-linejoin="round"/>
<path d="M313.535 119.841L318.064 124.373" stroke="white" stroke-width="0.5" stroke-miterlimit="10" stroke-linecap="round" stroke-linejoin="round"/>
<path d="M314.138 119.432C314.138 119.989 313.684 120.445 313.127 120.445C312.57 120.445 312.115 119.989 312.115 119.432C312.115 118.875 312.57 118.42 313.127 118.42C313.684 118.42 314.138 118.866 314.138 119.432Z" fill="white"/>
<path opacity="0.3" d="M312.681 135.499C320.682 135.499 327.167 128.484 327.167 119.831C327.167 111.179 320.682 104.164 312.681 104.164C304.681 104.164 298.195 111.179 298.195 119.831C298.195 128.484 304.681 135.499 312.681 135.499Z" fill="white"/>
<path d="M192.375 255.701C193.981 256.946 226.396 253.454 218.016 195.893C218.016 195.893 233.393 199.802 235.045 199.542C235.045 199.542 257.614 234.155 241.179 251.309C224.753 268.453 200.273 269.465 200.273 269.465L192.375 255.701Z" fill="#7BA8FF"/>
<path opacity="0.3" d="M192.375 255.701C193.981 256.946 226.396 253.454 218.016 195.893C218.016 195.893 233.393 199.802 235.045 199.542C235.045 199.542 257.614 234.155 241.179 251.309C224.753 268.453 200.273 269.465 200.273 269.465L192.375 255.701Z" fill="black"/>
<path d="M228.298 204.799C228.382 204.817 219.241 204.975 216.179 201.158C213.116 197.341 211.084 190.561 216.624 185.881C222.164 181.191 254.876 161.177 270.281 159.598C285.686 158.019 302.158 167.985 302.158 167.985L282.002 182.9L238.59 193.413L228.298 204.799Z" fill="#263338"/>
<path d="M198.742 246.637L199.586 254.959L209.571 254.113L208.068 245.56L198.742 246.637Z" fill="#FFC3BD"/>
<path d="M196.802 254.355L211.288 254.15L212.318 261.469C212.318 261.469 198.751 261.664 193.174 260.911C187.596 260.159 188.459 257.262 188.459 257.262C188.459 257.262 195.002 257.419 196.802 254.355Z" fill="#263338"/>
<path d="M323.224 275.394C325.387 254.12 312.552 235.389 294.558 233.557C276.563 231.725 260.223 247.487 258.06 268.761C255.898 290.035 268.732 308.766 286.727 310.598C304.722 312.43 321.062 296.669 323.224 275.394Z" fill="#263338"/>
<path d="M267.878 153.673C267.878 153.673 269.381 188.194 249.308 189.178C229.236 190.162 207.688 187.961 207.688 187.961L214.017 249.953L195.197 251.104C195.197 251.104 181.694 198.484 179.569 185.259C177.444 172.034 179.291 162.682 193.239 156.822C207.196 150.962 267.878 153.673 267.878 153.673Z" fill="#7BA8FF"/>
<path d="M155.599 263.196L180.59 190.552L214.035 153.646C214.035 153.646 184.877 153.766 170.865 161.818C156.852 169.87 156.258 179.575 153.724 191.091C151.2 202.616 140.844 257.159 140.844 257.159L155.599 263.196Z" fill="#7BA8FF"/>
<path opacity="0.7" d="M267.878 153.673C267.878 153.673 236.817 152.289 214.035 153.645C214.035 153.645 184.877 153.766 170.865 161.818C156.852 169.87 156.258 179.575 153.724 191.091C151.2 202.616 140.844 257.159 140.844 257.159L155.599 263.196L180.59 190.552C184.794 210.687 195.197 251.113 195.197 251.113L214.017 249.962L207.688 187.97C207.688 187.97 229.236 190.162 249.308 189.187C269.381 188.193 267.878 153.673 267.878 153.673Z" fill="black"/>
<path d="M216.633 97.6909L205.098 99.0933C205.098 99.0933 203.085 120.314 201.229 124.428C201.229 124.428 165.751 129.313 151.219 128.886L143.841 133.901L143.591 142.622L150.82 142.835L153.149 137.31C153.149 137.31 158.03 137.105 159.153 134.347C159.153 134.347 196.848 143.458 210.731 133.065C210.731 133.065 219.102 120.76 216.633 97.6909Z" fill="#FFC3BD"/>
<path d="M249.67 40.8535C249.67 40.8535 253.289 45.4785 251.907 49.5277C250.524 53.5675 246.812 54.1991 246.812 54.1991C246.812 54.1991 246.135 60.635 242.339 60.8208C238.544 61.0065 239.833 46.6487 239.833 46.6487L249.67 40.8535Z" fill="#263338"/>
<path d="M220.447 153.831L217.905 112.345L202.184 101.888C202.184 101.888 207.288 83.7134 217.162 80.6672C227.027 77.6211 248.464 70.5443 261.465 74.0455C274.476 77.5468 272.982 92.9169 270.782 104.303L268.277 104.907C268.277 104.907 267.887 149.81 267.878 153.664L220.447 153.831Z" fill="#263338"/>
<path d="M248.733 76.6181C243.573 81.6052 233.068 84.5771 230.136 82.1067C227.194 79.6364 230.897 77.3517 233.625 74.547C235.11 73.0054 235.054 70.1171 234.711 67.8139C234.414 65.9007 233.913 64.387 233.913 64.387C224.271 63.8483 220.262 59.3441 219.872 51.4222C219.464 43.5003 223.13 34.1853 223.13 34.1853L229.95 28.3623C229.95 28.3623 239.193 29.7647 246.691 34.8726C251.099 37.8816 249.8 43.8067 247.963 48.1717C246.682 51.2364 245.142 53.5303 245.142 53.5303C244.084 64.4241 248.733 76.6181 248.733 76.6181Z" fill="#FFC3BD"/>
<path d="M225.273 53.5677C225.273 53.5677 228.985 53.7441 230.609 51.4409" stroke="#263338" stroke-miterlimit="10" stroke-linecap="round" stroke-linejoin="round"/>
<path d="M231.184 44.1693C231.166 44.8751 230.758 45.4323 230.266 45.4138C229.783 45.3952 229.403 44.8194 229.421 44.1136C229.44 43.4078 229.848 42.8505 230.34 42.8691C230.832 42.8877 231.212 43.4635 231.184 44.1693Z" fill="#263338"/>
<path d="M222.721 44.392C222.703 45.0978 222.294 45.655 221.802 45.6364C221.32 45.6178 220.939 45.042 220.958 44.3362C220.977 43.6304 221.385 43.0732 221.877 43.0918C222.369 43.1103 222.749 43.6954 222.721 44.392Z" fill="#263338"/>
<path d="M225.663 50.1593L225.282 44.4663L222.563 49.8714C222.563 49.8714 223.955 51.1344 225.663 50.1593Z" fill="#ED847E"/>
<path d="M230.739 39.7112C230.739 39.7112 233.245 38.9869 234.395 41.4108" stroke="#263338" stroke-miterlimit="10" stroke-linecap="round" stroke-linejoin="round"/>
<path d="M220.104 40.7609C220.104 40.7609 221.812 38.9127 223.816 39.3771" stroke="#263338" stroke-miterlimit="10" stroke-linecap="round" stroke-linejoin="round"/>
<path d="M247.972 48.1717H247.963C237.346 48.5525 236.029 36.4978 236.029 36.4978C230.785 39.2747 223.139 34.176 223.139 34.176L229.96 28.3438C229.96 28.3438 239.202 29.7461 246.701 34.854C251.109 37.8723 249.8 43.7975 247.972 48.1717Z" fill="#263338"/>
<path d="M219.733 37.7147C219.733 37.7147 214.239 34.0463 216.661 31.4181C219.093 28.7898 233.922 33.7956 245.012 39.9344C245.012 39.9344 219.603 22.939 212.708 28.3162C207.001 32.7647 219.659 38.9406 219.278 38.9313L219.733 37.7147Z" fill="#7BA8FF"/>
<path d="M250.719 36.4702C250.673 39.7485 249.642 42.0981 249.642 42.0981L224.689 30.0249C224.689 30.0249 225.913 28.4554 228.345 27.0716C229.607 26.3472 231.194 25.6879 233.096 25.3164C234.674 25.0099 236.456 24.8892 238.46 25.1213C247.601 26.1522 250.765 33.1918 250.719 36.4702Z" fill="#7BA8FF"/>
<path d="M193.406 147.516C191.772 149.225 170.772 144.86 167.106 146.81C165.556 147.636 164.879 150.553 163.329 153.71V153.72C161.204 158.038 157.427 162.774 147.516 163.09C130.367 163.638 132.436 146.225 131.081 140.56C131.081 140.56 114.841 137.597 113.997 134.755C113.134 131.923 114.182 131.468 114.182 131.468C114.182 131.468 134.227 135.164 138.106 130.112C138.106 130.112 138.867 129.239 140.695 128.375C140.705 128.375 140.705 128.366 140.714 128.366C142.254 127.641 144.546 126.936 147.757 126.768C154.819 126.406 163.441 128.394 165.844 132.861C170.744 141.999 191.754 139.947 193.712 142.334C195.661 144.739 195.039 145.816 193.406 147.516Z" fill="#7BA8FF"/>
<path d="M140.25 159.403C140.25 159.403 112.076 198.418 135.276 258.459" stroke="#263338" stroke-miterlimit="10" stroke-linecap="round" stroke-linejoin="round"/>
<path d="M177.435 179.677C177.435 179.677 177.435 179.752 177.425 179.909C177.425 180.002 177.407 180.142 177.398 180.3V180.392C177.101 184.079 176.405 187.878 175.523 191.565C174.233 196.979 172.544 202.133 171.143 206.276C165.204 223.875 165.89 242.839 165.89 242.839C163.923 240.396 160.295 238.641 155.822 237.415C139.433 232.911 111.612 235.316 111.612 235.316C106.155 216.157 108.113 186.178 113.533 169.369C118.952 152.559 134.023 156.339 134.023 156.339C134.023 156.339 149.901 156.803 151.905 156.59C156.193 156.144 159.821 156.255 162.874 156.803C175.198 159.079 178.149 168.784 177.435 179.677Z" fill="#7BA8FF"/>
<path d="M299.754 252.748C271.887 277.898 218.174 280.535 178.214 277.749L155.812 237.415L146.737 221.079L175.894 181.748L177.435 179.677C177.435 179.677 177.435 179.761 177.416 179.909C177.416 180.002 177.398 180.142 177.388 180.299V180.392C176.989 187.404 174.409 243.675 194.983 257.447C195.039 257.485 195.104 257.531 195.15 257.559C197.86 259.333 200.96 260.373 204.523 260.475C242.348 261.58 241.29 212.145 231.676 201.613L297.295 188.416C297.295 188.426 310.269 221.061 299.754 252.748Z" fill="#7BA8FF"/>
<path d="M226.767 190.905C226.767 190.905 220.615 196.013 223.788 202.858C226.962 209.702 257.549 196.403 269.594 193.979C281.64 191.556 295.634 189.187 301.573 187.952C307.513 186.717 307.058 169.508 302.158 167.985C297.258 166.453 249.253 174.959 241.29 179.612C233.338 184.284 226.767 190.905 226.767 190.905Z" fill="#263338"/>
<path d="M242.172 52.4254C240.938 51.1717 240.845 49.1749 241.819 47.7076C243.295 45.4787 246.302 41.931 249.178 44.5778C253.197 48.2741 246.329 55.0444 243.471 53.4098C242.933 53.1034 242.506 52.769 242.172 52.4254Z" fill="#FFC2BD"/>
<path opacity="0.2" d="M219.733 37.7147C219.733 37.7147 214.239 34.0463 216.661 31.4181C217.738 30.2479 220.958 30.5265 225.31 31.7338C227.751 32.4118 230.591 33.3034 233.523 34.585C237.337 36.2474 241.402 38.3741 245.021 39.9436C245.021 39.9436 219.612 22.9482 212.717 28.3255C207.01 32.774 218.879 38.5413 219.288 38.9221L219.492 38.1791L219.733 37.7147Z" fill="black"/>
<path d="M222.341 36.1265C222.341 36.1265 216.754 37.0552 220.605 43.0546L222.341 36.1265Z" fill="#263338"/>
<path d="M227.677 32.4672C227.677 32.4672 219.278 29.5047 216.94 31.1763C214.61 32.848 217.042 36.0428 219.733 37.7145L221.877 37.9838L223.139 34.1761L226.415 33.7767L227.677 32.4672Z" fill="#263338"/>
<path opacity="0.3" d="M239.119 27.9261L237.105 30.9165L228.354 27.0809C229.616 26.3566 231.203 25.6972 233.105 25.3257L239.119 27.9261Z" fill="white"/>
<path opacity="0.1" d="M237.17 63.5605C237.17 63.5605 236.344 65.938 234.711 67.8047C234.414 65.8916 233.913 64.3778 233.913 64.3778C233.913 64.3778 236.038 64.2199 237.17 63.5605Z" fill="black"/>
<path d="M153.975 145.241C153.613 151.677 150.82 156.933 147.405 158.205C147.395 158.205 147.395 158.205 147.395 158.205C146.801 158.428 146.189 158.531 145.577 158.493C141.363 158.252 138.301 151.927 138.728 144.377C139.155 136.836 142.922 130.901 147.136 131.143C148.852 131.245 150.365 132.341 151.544 134.124C151.553 134.124 151.553 134.133 151.553 134.133C153.251 136.715 154.225 140.755 153.975 145.241Z" fill="#F5F5F5"/>
<path d="M153.975 145.241C153.613 151.677 150.82 156.933 147.405 158.205C147.395 158.205 147.395 158.205 147.395 158.205C143.507 157.983 140.667 152.141 141.066 145.176C141.465 138.201 144.946 132.731 148.834 132.954C149.808 133.01 150.727 133.427 151.534 134.124C151.544 134.124 151.544 134.133 151.544 134.133C153.251 136.715 154.225 140.755 153.975 145.241Z" fill="white"/>
<path d="M304.376 236.458C297.202 231.415 269.437 226.465 269.437 226.465C252.575 226.428 237.783 241.641 235.732 261.812C234.061 278.213 241.318 293.1 252.974 299.898C252.974 299.898 253.939 300.298 255.582 300.948C261.753 303.39 277.436 309.334 286.716 310.606" fill="#263338"/>
<path opacity="0.3" d="M323.224 275.394C325.387 254.12 312.552 235.389 294.558 233.557C276.563 231.725 260.223 247.487 258.06 268.761C255.898 290.035 268.732 308.766 286.727 310.598C304.722 312.43 321.062 296.669 323.224 275.394Z" fill="black"/>
<path d="M178.962 274.166C181.125 252.892 168.29 234.16 150.295 232.329C132.301 230.497 115.96 246.258 113.798 267.532C111.636 288.807 124.47 307.538 142.465 309.369C160.46 311.201 176.8 295.44 178.962 274.166Z" fill="#263338"/>
<path d="M166.392 239.44L149.78 309.158C147.395 309.548 144.946 309.632 142.458 309.381C142.394 309.371 142.329 309.371 142.273 309.362C139.09 308.545 140.51 309.427 137.317 308.368C129.197 305.684 117.402 300.93 117.402 300.93C104.912 294.856 97.8495 280.052 99.5663 263.15C101.645 242.672 116.326 227.376 133.605 228.629C133.605 228.629 141.818 230.143 150.254 232.354C153.919 233.31 157.631 234.397 160.731 235.548C160.74 235.548 160.749 235.548 160.749 235.558C162.754 236.616 164.638 237.926 166.392 239.44Z" fill="#263338"/>
<path opacity="0.3" d="M178.957 274.174C177.091 292.516 164.693 306.743 149.78 309.149C147.395 309.539 144.945 309.622 142.458 309.372C142.393 309.362 142.328 309.362 142.273 309.353C138.802 308.972 135.526 307.979 132.529 306.446C119.992 300.085 112.057 284.631 113.792 267.543C115.955 246.284 132.26 230.543 150.244 232.345H150.291C154.021 232.725 157.529 233.83 160.721 235.539C160.731 235.539 160.74 235.539 160.74 235.549C162.754 236.617 164.647 237.935 166.401 239.449C175.254 247.139 180.395 260.104 178.957 274.174Z" fill="black"/>
<path d="M174.437 249.711C174.085 248.922 173.138 247.975 172.618 247.278C168.48 241.604 158.986 239.495 152.778 239.988C147.999 240.378 143.488 242.161 139.489 244.761C134.96 247.696 131.712 252.182 127.23 255.283C118.711 261.162 105.784 261.004 97.2277 254.94C96.7359 254.596 96.2812 254.225 95.8543 253.816C94.9356 252.962 94.453 251.736 94.1839 250.519C93.8312 248.94 94.0076 247.389 94.5272 245.894C96.374 240.684 102.573 236.087 106.48 233.292C114.359 227.664 123.704 224.478 133.345 223.81C160.963 221.878 172.702 245.458 174.437 249.711Z" fill="#7BA8FF"/>
<path opacity="0.3" d="M172.526 250.454C166.596 241.891 158.986 239.495 152.778 239.988C147.999 240.378 143.489 242.161 139.489 244.761C134.96 247.696 131.712 252.181 127.23 255.283C118.711 261.162 105.784 261.004 97.2277 254.94C96.7359 254.596 96.2812 254.225 95.8543 253.816C94.9356 252.962 94.453 251.736 94.1839 250.519C93.8312 248.94 94.0076 247.389 94.5272 245.894C97.3948 249.21 105.747 257.197 117.05 253.296C131.155 248.42 134.598 233.932 149.688 234.062C161.659 234.155 169.036 243.507 172.526 250.454Z" fill="black"/>
<g opacity="0.3">
<path opacity="0.3" d="M110.47 230.71C114.424 227.794 119.045 225.843 123.806 224.59C128.585 223.364 133.587 222.964 138.505 223.382C140.964 223.633 143.414 224.014 145.799 224.655C148.184 225.277 150.551 226.029 152.806 227.023L154.495 227.766L156.146 228.592C157.26 229.112 158.309 229.763 159.385 230.357C160.443 230.979 161.455 231.685 162.485 232.344C163.496 233.041 164.471 233.784 165.464 234.508C161.371 231.815 157.065 229.465 152.537 227.691C148.017 225.899 143.257 224.71 138.431 224.311C133.605 223.828 128.715 224.227 123.973 225.286C121.606 225.816 119.268 226.54 117.013 227.441C114.748 228.332 112.54 229.391 110.47 230.71Z" fill="black"/>
</g>
<g opacity="0.3">
<path opacity="0.3" d="M140.547 224.069C139.257 220.234 138.821 216.185 138.477 212.173C138.171 208.151 138.115 204.112 138.19 200.072C138.31 196.041 138.552 192.01 138.923 187.998L139.591 181.99C139.888 179.993 140.148 178.006 140.473 176.018L139.628 188.054L139.294 194.072C139.238 196.078 139.118 198.084 139.108 200.09C138.951 204.102 139.025 208.114 139.173 212.126C139.238 214.132 139.396 216.129 139.591 218.126C139.814 220.113 140.064 222.11 140.547 224.069Z" fill="black"/>
</g>
<path opacity="0.3" d="M194.992 257.447C175.616 244.966 174.846 212.795 175.523 191.565C175.634 187.915 175.792 184.599 175.903 181.748C176.052 177.866 176.126 174.885 175.894 173.176C173.88 158.568 162.828 156.813 162.828 156.813C162.847 156.813 162.856 156.803 162.865 156.803C175.198 159.069 178.149 168.774 177.435 179.668C177.435 179.668 177.435 179.752 177.416 179.9C177.416 179.993 177.398 180.132 177.388 180.29V180.383C176.989 187.404 174.409 243.675 194.992 257.447Z" fill="black"/>
<path opacity="0.2" d="M193.406 147.516C191.772 149.225 170.772 144.86 167.106 146.81C165.556 147.636 164.879 150.553 163.329 153.71V153.72C163.32 153.729 163.32 153.738 163.311 153.738C158.93 160.713 152.778 161.799 152.397 161.855C159.747 156.301 161.798 142.872 158.151 134.393C154.522 125.988 141.456 128.115 140.714 128.366C142.254 127.641 144.546 126.936 147.757 126.768C154.819 126.406 163.441 128.394 165.844 132.861C170.744 141.999 191.754 139.947 193.712 142.334C195.661 144.739 195.039 145.816 193.406 147.516Z" fill="black"/>
<path d="M176.971 139.408C176.971 139.408 175.013 142.519 175.514 147.135L193.304 149.141C193.304 149.141 196.134 146.336 195.568 141.396C195.559 141.386 177.936 139.613 176.971 139.408Z" fill="#263338"/>
<path d="M122.952 138.749C122.952 138.749 121.179 134.979 123.304 132.601C118.553 132.174 115.611 131.7 112.549 131.217C112.103 132.601 111.872 133.938 113.468 136.037C115.064 138.145 122.952 138.749 122.952 138.749Z" fill="#263338"/>
<path d="M113.069 162.348C109.988 167.372 107.352 175.415 107.12 188.259" stroke="#7BA8FF" stroke-miterlimit="10" stroke-linecap="round" stroke-linejoin="round"/>
<path d="M123.212 154.063C123.212 154.063 120.474 154.454 117.245 157.286" stroke="#7BA8FF" stroke-miterlimit="10" stroke-linecap="round" stroke-linejoin="round"/>
<path d="M261.604 105.65L249.893 107.08C249.893 107.08 247.851 128.626 245.958 132.805C245.958 132.805 209.933 137.765 195.178 137.328L187.689 142.418L187.429 151.277L194.77 151.491L197.136 145.882C197.136 145.882 202.092 145.668 203.233 142.873C203.233 142.873 241.504 152.123 255.6 141.572C255.6 141.572 264.101 129.081 261.604 105.65Z" fill="#FFC3BD"/>
<path opacity="0.2" d="M166.243 271.387C165.9 283.07 158.262 292.32 149.159 292.06C147.915 292.023 146.709 291.819 145.558 291.438C138.255 289.116 133.011 280.516 133.299 270.431C133.587 260.688 138.951 252.627 146.013 250.38C147.414 249.934 148.88 249.711 150.384 249.757C159.497 250.018 166.586 259.704 166.243 271.387Z" fill="#FAFAFA"/>
<path d="M157.863 271.359C157.576 281.324 152.323 289.525 145.558 291.438C138.255 289.116 133.011 280.516 133.299 270.431C133.587 260.689 138.951 252.627 146.013 250.38C153.038 252.274 158.17 261.023 157.863 271.359Z" fill="#263338"/>
<path opacity="0.2" d="M309.229 272.297C308.886 283.98 301.249 293.23 292.145 292.97C290.901 292.933 289.695 292.729 288.544 292.348C281.241 290.026 275.998 281.426 276.285 271.341C276.573 261.599 281.937 253.537 288.999 251.29C290.4 250.844 291.866 250.621 293.37 250.668C302.473 250.937 309.563 260.614 309.229 272.297Z" fill="#FAFAFA"/>
<path d="M300.849 272.279C300.562 282.244 295.309 290.444 288.544 292.358C281.241 290.036 275.998 281.436 276.285 271.35C276.573 261.608 281.937 253.547 288.999 251.299C296.024 253.194 301.146 261.942 300.849 272.279Z" fill="#263338"/>
<path d="M323.576 241.501C323.734 252.989 306.26 260.596 277.018 265.388C267.441 266.957 259.507 266.706 253.16 265.666C240.14 263.521 233.829 258.032 233.829 258.032C233.829 258.032 237.133 218.321 269.826 213.296C292.071 209.879 308.858 218.85 317.359 228.546C321.358 233.096 323.53 237.824 323.576 241.501Z" fill="#7BA8FF"/>
<path opacity="0.3" d="M323.576 241.502C323.734 252.99 306.26 260.596 277.018 265.388C267.441 266.958 259.507 266.707 253.16 265.667C254.561 254.884 260.853 226.605 288.201 223.67C300.608 222.342 310.185 224.841 317.349 228.546C321.358 233.097 323.53 237.824 323.576 241.502Z" fill="black"/>
<g opacity="0.3">
<path opacity="0.3" d="M235.722 258.199C236.27 252.794 237.653 247.482 239.564 242.374C241.476 237.266 244.093 232.409 247.387 228.035C249.048 225.852 250.932 223.846 252.974 222.026C255.006 220.197 257.215 218.544 259.618 217.234C264.351 214.467 269.734 212.962 275.116 212.405C272.453 212.925 269.789 213.445 267.274 214.429C265.984 214.819 264.769 215.423 263.525 215.934C262.337 216.565 261.112 217.123 259.98 217.856C258.811 218.525 257.735 219.333 256.63 220.085C255.582 220.921 254.505 221.729 253.54 222.658C251.554 224.469 249.735 226.456 248.13 228.601C244.835 232.846 242.265 237.638 240.233 242.634C239.202 245.132 238.321 247.686 237.578 250.287C236.799 252.887 236.177 255.525 235.722 258.199Z" fill="black"/>
</g>
<path d="M191.856 245.086L193.777 251.643L214.017 249.952L214.286 240.786L191.856 245.086Z" fill="#7BA8FF"/>
</svg>
