<svg width="464" height="346" viewBox="0 0 464 346" fill="none" xmlns="http://www.w3.org/2000/svg">
<path d="M464 304.059H0V304.292H464V304.059Z" fill="#EBEBEB"/>
<path d="M127.748 310.384H97.0131V310.616H127.748V310.384Z" fill="#EBEBEB"/>
<path d="M196.634 318.891H158.818V319.123H196.634V318.891Z" fill="#EBEBEB"/>
<path d="M96.0851 315.984H48.6829V316.216H96.0851V315.984Z" fill="#EBEBEB"/>
<path d="M417.507 311.944H331.073V312.176H417.507V311.944Z" fill="#EBEBEB"/>
<path d="M322.814 311.944H316.94V312.176H322.814V311.944Z" fill="#EBEBEB"/>
<path d="M296.44 315.863H257.251V316.096H296.44V315.863Z" fill="#EBEBEB"/>
<path d="M219.936 262.639H40.7484C37.8252 262.63 35.4588 260.262 35.4588 257.336V5.2565C35.4866 2.34963 37.8438 0.00928709 40.7484 0H219.936C222.859 0 225.235 2.3775 225.235 5.30293V257.336C225.235 260.262 222.859 262.639 219.936 262.639ZM40.7484 0.185742C37.9551 0.195029 35.6908 2.46108 35.6908 5.2565V257.336C35.6908 260.132 37.9551 262.398 40.7484 262.407H219.936C222.729 262.398 224.994 260.132 225.003 257.336V5.2565C224.994 2.46108 222.729 0.195029 219.936 0.185742H40.7484Z" fill="#EBEBEB"/>
<path d="M420.672 262.639H241.475C238.552 262.63 236.185 260.262 236.176 257.336V5.2565C236.204 2.34963 238.57 0.00928709 241.475 0H420.672C423.576 0.00928709 425.924 2.34963 425.952 5.2565V257.336C425.952 260.262 423.595 262.63 420.672 262.639ZM241.475 0.185742C238.682 0.195029 236.417 2.46108 236.408 5.2565V257.336C236.417 260.132 238.682 262.398 241.475 262.407H420.672C423.465 262.398 425.729 260.132 425.739 257.336V5.2565C425.729 2.46108 423.465 0.195029 420.672 0.185742H241.475Z" fill="#EBEBEB"/>
<path d="M65.5818 107.823H146.086C146.086 107.823 141.752 97.7374 127.285 100.876C127.285 100.876 124.241 89.4068 113.188 90.9949C113.188 90.9949 104.047 81.0856 90.712 84.9304C77.3859 88.7753 78.5274 100.886 78.5274 100.886C78.5274 100.886 68.6349 98.2946 65.5818 107.823Z" fill="#FAFAFA"/>
<path d="M281.082 46.3798H200.578C200.578 46.3798 204.912 36.294 219.379 39.433C219.379 39.433 222.423 27.9635 233.475 29.5516C233.475 29.5516 242.616 19.6422 255.952 23.4871C269.278 27.3319 268.136 39.4423 268.136 39.4423C268.136 39.4423 278.038 36.8512 281.082 46.3798Z" fill="#FAFAFA"/>
<path d="M340.455 43.7515H402.056C402.056 43.7515 399.699 35.2631 390.781 38.0399C390.781 38.0399 392.618 26.654 386.067 25.3445C379.515 24.035 377.418 32.6906 377.418 32.6906C377.418 32.6906 372.703 26.9233 365.094 29.0222C357.493 31.1211 356.185 38.0399 356.185 38.0399C356.185 38.0399 345.17 31.734 340.455 43.7515Z" fill="#FAFAFA"/>
<path d="M117.578 155.252H42.6509V303.818H117.578V155.252Z" fill="#E6E6E6"/>
<path d="M103.955 155.252H42.6509V303.818H103.955V155.252Z" fill="#F0F0F0"/>
<path d="M118.459 155.252H41.0361V157.676H118.459V155.252Z" fill="#E0E0E0"/>
<path d="M118.459 150.404H41.0361V152.828H118.459V150.404Z" fill="#E0E0E0"/>
<path d="M116.835 152.828H42.6509V155.252H116.835V152.828Z" fill="#F0F0F0"/>
<path d="M59.9859 163.992H48.4694V175.693H59.9859V163.992Z" fill="#E6E6E6"/>
<path d="M59.9766 163.992H49.481V175.693H59.9766V163.992Z" fill="#F5F5F5"/>
<path d="M77.423 163.992H65.9066V175.693H77.423V163.992Z" fill="#E6E6E6"/>
<path d="M77.4138 163.992H66.9181V175.693H77.4138V163.992Z" fill="#F5F5F5"/>
<path d="M94.8601 163.992H83.3436V175.693H94.8601V163.992Z" fill="#E6E6E6"/>
<path d="M94.8508 163.992H84.3552V175.693H94.8508V163.992Z" fill="#F5F5F5"/>
<path d="M59.9859 181.219H48.4694V192.921H59.9859V181.219Z" fill="#E6E6E6"/>
<path d="M59.9766 181.219H49.481V192.921H59.9766V181.219Z" fill="#F5F5F5"/>
<path d="M77.423 181.219H65.9066V192.921H77.423V181.219Z" fill="#E6E6E6"/>
<path d="M77.4138 181.219H66.9181V192.921H77.4138V181.219Z" fill="#F5F5F5"/>
<path d="M94.8601 181.219H83.3436V192.921H94.8601V181.219Z" fill="#E6E6E6"/>
<path d="M94.8508 181.219H84.3552V192.921H94.8508V181.219Z" fill="#F5F5F5"/>
<path d="M59.9859 212.767H48.4694V224.469H59.9859V212.767Z" fill="#E6E6E6"/>
<path d="M59.9766 212.767H49.481V224.469H59.9766V212.767Z" fill="#F5F5F5"/>
<path d="M77.423 212.767H65.9066V224.469H77.423V212.767Z" fill="#E6E6E6"/>
<path d="M77.4138 212.767H66.9181V224.469H77.4138V212.767Z" fill="#F5F5F5"/>
<path d="M94.8601 212.767H83.3436V224.469H94.8601V212.767Z" fill="#E6E6E6"/>
<path d="M94.8508 212.767H84.3552V224.469H94.8508V212.767Z" fill="#F5F5F5"/>
<path d="M59.9859 229.995H48.4694V241.697H59.9859V229.995Z" fill="#E6E6E6"/>
<path d="M59.9766 229.995H49.481V241.697H59.9766V229.995Z" fill="#F5F5F5"/>
<path d="M77.423 229.995H65.9066V241.697H77.423V229.995Z" fill="#E6E6E6"/>
<path d="M77.4138 229.995H66.9181V241.697H77.4138V229.995Z" fill="#F5F5F5"/>
<path d="M94.8601 229.995H83.3436V241.697H94.8601V229.995Z" fill="#E6E6E6"/>
<path d="M94.8508 229.995H84.3552V241.697H94.8508V229.995Z" fill="#F5F5F5"/>
<path d="M59.9859 265.054H48.4694V276.755H59.9859V265.054Z" fill="#E6E6E6"/>
<path d="M59.9766 265.054H49.481V276.755H59.9766V265.054Z" fill="#F5F5F5"/>
<path d="M77.423 265.054H65.9066V276.755H77.423V265.054Z" fill="#E6E6E6"/>
<path d="M77.4138 265.054H66.9181V276.755H77.4138V265.054Z" fill="#F5F5F5"/>
<path d="M94.8601 265.054H83.3436V276.755H94.8601V265.054Z" fill="#E6E6E6"/>
<path d="M94.8508 265.054H84.3552V276.755H94.8508V265.054Z" fill="#F5F5F5"/>
<path d="M59.9859 282.281H48.4694V293.983H59.9859V282.281Z" fill="#E6E6E6"/>
<path d="M59.9766 282.281H49.481V293.983H59.9766V282.281Z" fill="#F5F5F5"/>
<path d="M77.423 282.281H65.9066V293.983H77.423V282.281Z" fill="#E6E6E6"/>
<path d="M77.4138 282.281H66.9181V293.983H77.4138V282.281Z" fill="#F5F5F5"/>
<path d="M94.8601 282.281H83.3436V293.983H94.8601V282.281Z" fill="#E6E6E6"/>
<path d="M94.8508 282.281H84.3552V293.983H94.8508V282.281Z" fill="#F5F5F5"/>
<path d="M117.578 201.149H42.6509V202.236H117.578V201.149Z" fill="#E0E0E0"/>
<path d="M117.578 255.07H42.6509V256.157H117.578V255.07Z" fill="#E0E0E0"/>
<path d="M412.218 124.596H338.191V304.867H412.218V124.596Z" fill="#E0E0E0"/>
<path d="M391.133 124.596H338.191V304.867H391.133V124.596Z" fill="#F0F0F0"/>
<path d="M363.349 139.409H343.648V148.984H363.349V139.409Z" fill="#E6E6E6"/>
<path d="M363.349 139.409H344.956V148.984H363.349V139.409Z" fill="#F5F5F5"/>
<path d="M386.141 139.409H366.439V148.984H386.141V139.409Z" fill="#E6E6E6"/>
<path d="M386.141 139.409H367.748V148.984H386.141V139.409Z" fill="#F5F5F5"/>
<path d="M363.349 157.426H343.648V167.001H363.349V157.426Z" fill="#E6E6E6"/>
<path d="M363.349 157.426H344.956V167.001H363.349V157.426Z" fill="#F5F5F5"/>
<path d="M386.141 157.426H366.439V167.001H386.141V157.426Z" fill="#E6E6E6"/>
<path d="M386.141 157.426H367.748V167.001H386.141V157.426Z" fill="#F5F5F5"/>
<path d="M363.349 180.448H343.648V190.023H363.349V180.448Z" fill="#E6E6E6"/>
<path d="M363.349 180.448H344.956V190.023H363.349V180.448Z" fill="#F5F5F5"/>
<path d="M386.141 180.448H366.439V190.023H386.141V180.448Z" fill="#E6E6E6"/>
<path d="M386.141 180.448H367.748V190.023H386.141V180.448Z" fill="#F5F5F5"/>
<path d="M363.349 193.682H343.648V203.257H363.349V193.682Z" fill="#E6E6E6"/>
<path d="M363.349 193.682H344.956V203.257H363.349V193.682Z" fill="#F5F5F5"/>
<path d="M386.141 193.682H366.439V203.257H386.141V193.682Z" fill="#E6E6E6"/>
<path d="M386.141 193.682H367.748V203.257H386.141V193.682Z" fill="#F5F5F5"/>
<path d="M363.349 215.423H343.648V224.998H363.349V215.423Z" fill="#E6E6E6"/>
<path d="M363.349 215.423H344.956V224.998H363.349V215.423Z" fill="#F5F5F5"/>
<path d="M386.141 215.423H366.439V224.998H386.141V215.423Z" fill="#E6E6E6"/>
<path d="M386.141 215.423H367.748V224.998H386.141V215.423Z" fill="#F5F5F5"/>
<path d="M363.349 228.648H343.648V238.223H363.349V228.648Z" fill="#E6E6E6"/>
<path d="M363.349 228.648H344.956V238.223H363.349V228.648Z" fill="#F5F5F5"/>
<path d="M386.141 228.648H366.439V238.223H386.141V228.648Z" fill="#E6E6E6"/>
<path d="M386.141 228.648H367.748V238.223H386.141V228.648Z" fill="#F5F5F5"/>
<path d="M363.349 252.312H343.648V261.887H363.349V252.312Z" fill="#E6E6E6"/>
<path d="M363.349 252.312H344.956V261.887H363.349V252.312Z" fill="#F5F5F5"/>
<path d="M386.141 252.312H366.439V261.887H386.141V252.312Z" fill="#E6E6E6"/>
<path d="M386.141 252.312H367.748V261.887H386.141V252.312Z" fill="#F5F5F5"/>
<path d="M363.349 269.781H343.648V279.356H363.349V269.781Z" fill="#E6E6E6"/>
<path d="M363.349 269.781H344.956V279.356H363.349V269.781Z" fill="#F5F5F5"/>
<path d="M386.141 269.781H366.439V279.356H386.141V269.781Z" fill="#E6E6E6"/>
<path d="M386.141 269.781H367.748V279.356H386.141V269.781Z" fill="#F5F5F5"/>
<path opacity="0.05" d="M412.218 172.898H338.191V174.542H412.218V172.898Z" fill="black"/>
<path opacity="0.05" d="M412.218 208.514H338.191V210.158H412.218V208.514Z" fill="black"/>
<path opacity="0.05" d="M412.218 244.446H338.191V246.089H412.218V244.446Z" fill="black"/>
<path d="M412.218 119.265H334.702V125.023H412.218V119.265Z" fill="#E0E0E0"/>
<path opacity="0.05" d="M412.218 119.265H394.502V125.023H412.218V119.265Z" fill="black"/>
<path d="M232.761 84.1226H149.074V301.793H232.761V84.1226Z" fill="#E6E6E6"/>
<path d="M201.794 84.1226H118.097V301.793H201.794V84.1226Z" fill="#F0F0F0"/>
<path d="M194.49 98.8983H125.401V109.987H194.49V98.8983Z" fill="#E6E6E6"/>
<path d="M194.49 98.8983H128.083V109.987H194.49V98.8983Z" fill="#F5F5F5"/>
<path d="M194.49 117.565H125.401V128.654H194.49V117.565Z" fill="#E6E6E6"/>
<path d="M194.49 117.565H128.083V128.654H194.49V117.565Z" fill="#F5F5F5"/>
<path d="M194.49 136.957H125.401V148.046H194.49V136.957Z" fill="#E6E6E6"/>
<path d="M194.49 136.957H128.083V148.046H194.49V136.957Z" fill="#F5F5F5"/>
<path d="M194.49 156.358H125.401V167.446H194.49V156.358Z" fill="#E6E6E6"/>
<path d="M194.49 156.358H128.083V167.446H194.49V156.358Z" fill="#F5F5F5"/>
<path d="M194.49 175.749H125.401V186.838H194.49V175.749Z" fill="#E6E6E6"/>
<path d="M194.49 175.749H128.083V186.838H194.49V175.749Z" fill="#F5F5F5"/>
<path d="M194.49 195.15H125.401V206.239H194.49V195.15Z" fill="#E6E6E6"/>
<path d="M194.49 195.15H128.083V206.239H194.49V195.15Z" fill="#F5F5F5"/>
<path d="M194.49 216.529H125.401V227.617H194.49V216.529Z" fill="#E6E6E6"/>
<path d="M194.49 216.529H128.083V227.617H194.49V216.529Z" fill="#F5F5F5"/>
<path d="M194.49 237.898H125.401V248.987H194.49V237.898Z" fill="#E6E6E6"/>
<path d="M194.49 237.898H128.083V248.987H194.49V237.898Z" fill="#F5F5F5"/>
<path d="M194.49 259.277H125.401V270.366H194.49V259.277Z" fill="#E6E6E6"/>
<path d="M194.49 259.277H128.083V270.366H194.49V259.277Z" fill="#F5F5F5"/>
<path d="M194.49 280.656H125.401V291.745H194.49V280.656Z" fill="#E6E6E6"/>
<path d="M194.49 280.656H128.083V291.745H194.49V280.656Z" fill="#F5F5F5"/>
<path d="M234.942 81.9308H115.731V87.243H234.942V81.9308Z" fill="#F5F5F5"/>
<path d="M234.942 72.3465H115.731V77.6587H234.942V72.3465Z" fill="#F5F5F5"/>
<path d="M230.979 76.6185H118.097V81.9308H230.979V76.6185Z" fill="#F0F0F0"/>
<path d="M232.77 98.8983H209.45V109.987H232.77V98.8983Z" fill="#E0E0E0"/>
<path d="M232.77 117.147H209.45V128.236H232.77V117.147Z" fill="#E0E0E0"/>
<path d="M232.77 135.397H209.45V146.485H232.77V135.397Z" fill="#E0E0E0"/>
<path d="M232.77 156.348H209.45V167.437H232.77V156.348Z" fill="#E0E0E0"/>
<path d="M232.77 175.749H209.45V186.838H232.77V175.749Z" fill="#E0E0E0"/>
<path d="M232.77 195.15H209.45V206.239H232.77V195.15Z" fill="#E0E0E0"/>
<path d="M232.77 216.519H209.45V227.608H232.77V216.519Z" fill="#E0E0E0"/>
<path d="M232.77 237.898H209.45V248.987H232.77V237.898Z" fill="#E0E0E0"/>
<path d="M232.77 259.277H209.45V270.366H232.77V259.277Z" fill="#E0E0E0"/>
<path d="M232.77 280.656H209.45V291.745H232.77V280.656Z" fill="#E0E0E0"/>
<path d="M340.344 160.193H331.138V174.607H340.344V160.193Z" fill="#E0E0E0"/>
<path d="M340.344 183.782H331.138V198.196H340.344V183.782Z" fill="#E0E0E0"/>
<path d="M340.344 206.712H331.138V221.126H340.344V206.712Z" fill="#E0E0E0"/>
<path d="M340.344 230.952H331.138V245.365H340.344V230.952Z" fill="#E0E0E0"/>
<path d="M340.344 254.541H331.138V268.954H340.344V254.541Z" fill="#E0E0E0"/>
<path d="M340.344 145.705H243.47V293.147H340.344V145.705Z" fill="#E6E6E6"/>
<path d="M323.985 145.705H243.481V293.147H323.985V145.705Z" fill="#F0F0F0"/>
<path d="M316.179 160.202H250.718V174.616H316.179V160.202Z" fill="#EBEBEB"/>
<path d="M316.179 183.782H250.718V198.196H316.179V183.782Z" fill="#EBEBEB"/>
<path d="M316.179 207.372H250.718V221.785H316.179V207.372Z" fill="#EBEBEB"/>
<path d="M316.179 230.952H250.718V245.365H316.179V230.952Z" fill="#EBEBEB"/>
<path d="M316.179 254.541H250.718V268.954H316.179V254.541Z" fill="#EBEBEB"/>
<path d="M316.179 160.202H253.13V174.616H316.179V160.202Z" fill="#F5F5F5"/>
<path d="M316.179 183.782H253.13V198.196H316.179V183.782Z" fill="#F5F5F5"/>
<path d="M316.179 207.372H253.13V221.785H316.179V207.372Z" fill="#F5F5F5"/>
<path d="M316.179 230.952H253.13V245.365H316.179V230.952Z" fill="#F5F5F5"/>
<path d="M316.179 254.541H253.13V268.954H316.179V254.541Z" fill="#F5F5F5"/>
<path d="M232 346C331.373 346 411.93 341.293 411.93 335.487C411.93 329.681 331.373 324.974 232 324.974C132.627 324.974 52.0701 329.681 52.0701 335.487C52.0701 341.293 132.627 346 232 346Z" fill="#F5F5F5"/>
<path d="M129.669 335.487H125.957" stroke="#407BFF" stroke-linecap="round" stroke-linejoin="round"/>
<path d="M118.942 335.487H24.1465" stroke="#407BFF" stroke-linecap="round" stroke-linejoin="round" stroke-dasharray="7.57 7.57"/>
<path d="M20.6387 335.487H16.9267" stroke="#407BFF" stroke-linecap="round" stroke-linejoin="round"/>
<path d="M350.562 113.214L243.481 114.982L244.757 192.345L351.838 190.577L350.562 113.214Z" fill="#7BA8FF"/>
<path opacity="0.3" d="M308.116 113.906L243.376 114.975L244.652 192.338L309.392 191.269L308.116 113.906Z" fill="white"/>
<path opacity="0.3" d="M317.245 120.18L298.603 120.488L298.689 125.689L317.33 125.381L317.245 120.18Z" fill="white"/>
<path opacity="0.3" d="M318.42 179.276L299.779 179.584L299.864 184.784L318.506 184.477L318.42 179.276Z" fill="white"/>
<path d="M330.851 162.701C336.893 162.701 341.792 157.154 341.792 150.312C341.792 143.469 336.893 137.923 330.851 137.923C324.808 137.923 319.909 143.469 319.909 150.312C319.909 157.154 324.808 162.701 330.851 162.701Z" stroke="white" stroke-miterlimit="10"/>
<path d="M331.305 139.808V141.888" stroke="white" stroke-miterlimit="10" stroke-linecap="round" stroke-linejoin="round"/>
<path d="M331.778 158.865V160.945" stroke="white" stroke-miterlimit="10" stroke-linecap="round" stroke-linejoin="round"/>
<path d="M321.626 149.903H323.714" stroke="white" stroke-miterlimit="10" stroke-linecap="round" stroke-linejoin="round"/>
<path d="M338.386 149.912H340.474" stroke="white" stroke-miterlimit="10" stroke-linecap="round" stroke-linejoin="round"/>
<path d="M331.296 149.903L331.305 143.495" stroke="white" stroke-width="0.5" stroke-miterlimit="10" stroke-linecap="round" stroke-linejoin="round"/>
<path d="M331.704 150.321L336.233 154.853" stroke="white" stroke-width="0.5" stroke-miterlimit="10" stroke-linecap="round" stroke-linejoin="round"/>
<path d="M332.307 149.912C332.307 150.47 331.853 150.925 331.296 150.925C330.739 150.925 330.284 150.47 330.284 149.912C330.284 149.355 330.739 148.9 331.296 148.9C331.853 148.9 332.307 149.346 332.307 149.912Z" fill="white"/>
<path opacity="0.3" d="M330.85 165.979C338.851 165.979 345.337 158.964 345.337 150.312C345.337 141.659 338.851 134.644 330.85 134.644C322.85 134.644 316.364 141.659 316.364 150.312C316.364 158.964 322.85 165.979 330.85 165.979Z" fill="white"/>
<path d="M210.545 286.182C212.15 287.426 244.565 283.934 236.185 226.373C236.185 226.373 251.562 230.283 253.214 230.023C253.214 230.023 275.783 264.636 259.348 281.789C242.923 298.933 218.442 299.945 218.442 299.945L210.545 286.182Z" fill="#7BA8FF"/>
<path opacity="0.3" d="M210.545 286.182C212.15 287.426 244.565 283.934 236.185 226.373C236.185 226.373 251.562 230.283 253.214 230.023C253.214 230.023 275.783 264.636 259.348 281.789C242.923 298.933 218.442 299.945 218.442 299.945L210.545 286.182Z" fill="black"/>
<path d="M246.468 235.279C246.551 235.298 237.41 235.456 234.348 231.639C231.285 227.822 229.253 221.042 234.793 216.361C240.333 211.671 273.046 191.658 288.45 190.079C303.855 188.5 320.327 198.465 320.327 198.465L300.171 213.38L256.759 223.893L246.468 235.279Z" fill="#263338"/>
<path d="M216.911 277.118L217.755 285.439L227.74 284.594L226.237 276.04L216.911 277.118Z" fill="#FFC3BD"/>
<path d="M214.971 284.835L229.457 284.631L230.487 291.949C230.487 291.949 216.92 292.144 211.343 291.392C205.765 290.64 206.629 287.742 206.629 287.742C206.629 287.742 213.171 287.9 214.971 284.835Z" fill="#263338"/>
<path d="M341.394 305.875C343.556 284.601 330.721 265.87 312.727 264.038C294.732 262.206 278.392 277.967 276.229 299.241C274.067 320.516 286.902 339.247 304.896 341.079C322.891 342.91 339.231 327.149 341.394 305.875Z" fill="#263338"/>
<path d="M286.047 184.154C286.047 184.154 287.55 218.674 267.478 219.658C247.405 220.643 225.857 218.442 225.857 218.442L232.186 280.433L213.366 281.585C213.366 281.585 199.863 228.964 197.738 215.739C195.613 202.514 197.46 193.162 211.408 187.302C225.365 181.442 286.047 184.154 286.047 184.154Z" fill="#7BA8FF"/>
<path d="M173.768 293.677L198.759 221.033L232.204 184.126C232.204 184.126 203.046 184.247 189.034 192.299C175.021 200.351 174.427 210.056 171.894 221.572C169.369 233.097 159.013 287.64 159.013 287.64L173.768 293.677Z" fill="#7BA8FF"/>
<path opacity="0.7" d="M286.047 184.154C286.047 184.154 254.987 182.77 232.204 184.126C232.204 184.126 203.046 184.247 189.034 192.299C175.021 200.351 174.427 210.056 171.894 221.572C169.369 233.097 159.013 287.64 159.013 287.64L173.768 293.677L198.759 221.033C202.963 241.167 213.366 281.594 213.366 281.594L232.186 280.442L225.857 218.451C225.857 218.451 247.405 220.643 267.478 219.668C287.55 218.674 286.047 184.154 286.047 184.154Z" fill="black"/>
<path d="M234.803 128.171L223.268 129.574C223.268 129.574 221.254 150.795 219.398 154.909C219.398 154.909 183.92 159.794 169.388 159.367L162.01 164.382L161.76 173.102L168.989 173.316L171.318 167.79C171.318 167.79 176.199 167.586 177.322 164.827C177.322 164.827 215.018 173.938 228.901 163.546C228.901 163.546 237.271 151.24 234.803 128.171Z" fill="#FFC3BD"/>
<path d="M267.839 71.3342C267.839 71.3342 271.459 75.9592 270.076 80.0084C268.693 84.0483 264.981 84.6798 264.981 84.6798C264.981 84.6798 264.304 91.1157 260.508 91.3015C256.713 91.4872 258.003 77.1294 258.003 77.1294L267.839 71.3342Z" fill="#263338"/>
<path d="M238.617 184.312L236.074 142.826L220.354 132.369C220.354 132.369 225.458 114.194 235.331 111.148C245.196 108.102 266.633 101.025 279.634 104.526C292.645 108.028 291.151 123.398 288.951 134.784L286.446 135.387C286.446 135.387 286.056 180.29 286.047 184.145L238.617 184.312Z" fill="#263338"/>
<path d="M266.902 107.099C261.743 112.086 251.238 115.058 248.305 112.588C245.363 110.117 249.066 107.833 251.794 105.028C253.279 103.486 253.223 100.598 252.88 98.2947C252.583 96.3815 252.082 94.8677 252.082 94.8677C242.44 94.3291 238.431 89.8248 238.041 81.9029C237.633 73.981 241.299 64.6661 241.299 64.6661L248.119 58.8431C248.119 58.8431 257.362 60.2454 264.861 65.3533C269.269 68.3624 267.969 74.2875 266.132 78.6525C264.851 81.7172 263.311 84.0111 263.311 84.0111C262.253 94.9049 266.902 107.099 266.902 107.099Z" fill="#FFC3BD"/>
<path d="M243.442 84.0483C243.442 84.0483 247.154 84.2247 248.778 81.9215" stroke="#263338" stroke-miterlimit="10" stroke-linecap="round" stroke-linejoin="round"/>
<path d="M249.354 74.6497C249.335 75.3555 248.927 75.9128 248.435 75.8942C247.952 75.8756 247.572 75.2998 247.59 74.594C247.609 73.8882 248.017 73.3309 248.509 73.3495C249.001 73.3681 249.381 73.9439 249.354 74.6497Z" fill="#263338"/>
<path d="M240.89 74.8726C240.872 75.5784 240.463 76.1356 239.972 76.1171C239.489 76.0985 239.109 75.5227 239.127 74.8169C239.146 74.1111 239.554 73.5538 240.046 73.5724C240.538 73.591 240.918 74.1761 240.89 74.8726Z" fill="#263338"/>
<path d="M243.832 80.6399L243.452 74.9469L240.733 80.352C240.733 80.352 242.125 81.615 243.832 80.6399Z" fill="#ED847E"/>
<path d="M248.908 70.1919C248.908 70.1919 251.414 69.4675 252.564 71.8914" stroke="#263338" stroke-miterlimit="10" stroke-linecap="round" stroke-linejoin="round"/>
<path d="M238.273 71.2413C238.273 71.2413 239.981 69.3932 241.985 69.8576" stroke="#263338" stroke-miterlimit="10" stroke-linecap="round" stroke-linejoin="round"/>
<path d="M266.141 78.6524H266.132C255.516 79.0332 254.198 66.9785 254.198 66.9785C248.955 69.7554 241.308 64.6568 241.308 64.6568L248.129 58.8245C248.129 58.8245 257.372 60.2268 264.87 65.3347C269.278 68.353 267.969 74.2782 266.141 78.6524Z" fill="#263338"/>
<path d="M237.902 68.1951C237.902 68.1951 232.408 64.5267 234.83 61.8985C237.262 59.2702 252.091 64.276 263.181 70.4148C263.181 70.4148 237.772 53.4194 230.877 58.7966C225.17 63.2451 237.828 69.421 237.447 69.4118L237.902 68.1951Z" fill="#7BA8FF"/>
<path d="M268.888 66.9507C268.842 70.229 267.812 72.5787 267.812 72.5787L242.858 60.5055C242.858 60.5055 244.083 58.9359 246.514 57.5522C247.776 56.8278 249.363 56.1684 251.265 55.7969C252.843 55.4904 254.625 55.3697 256.629 55.6019C265.77 56.6327 268.934 63.6723 268.888 66.9507Z" fill="#7BA8FF"/>
<path d="M211.575 177.996C209.942 179.705 188.941 175.34 185.275 177.291C183.726 178.117 183.048 181.033 181.498 184.191V184.2C179.373 188.519 175.596 193.255 165.685 193.571C148.536 194.119 150.605 176.706 149.25 171.04C149.25 171.04 133.01 168.078 132.166 165.236C131.303 162.403 132.351 161.948 132.351 161.948C132.351 161.948 152.396 165.645 156.275 160.592C156.275 160.592 157.036 159.719 158.864 158.856C158.874 158.856 158.874 158.846 158.883 158.846C160.423 158.122 162.716 157.416 165.927 157.249C172.989 156.887 181.61 158.874 184.013 163.341C188.913 172.48 209.923 170.427 211.881 172.814C213.83 175.22 213.208 176.297 211.575 177.996Z" fill="#7BA8FF"/>
<path d="M158.419 189.884C158.419 189.884 130.245 228.899 153.445 288.94" stroke="#263338" stroke-miterlimit="10" stroke-linecap="round" stroke-linejoin="round"/>
<path d="M195.604 210.158C195.604 210.158 195.604 210.232 195.595 210.39C195.595 210.483 195.576 210.622 195.567 210.78V210.873C195.27 214.56 194.574 218.358 193.692 222.045C192.402 227.46 190.713 232.614 189.312 236.756C183.373 254.355 184.06 273.319 184.06 273.319C182.092 270.877 178.464 269.121 173.991 267.896C157.602 263.391 129.781 265.797 129.781 265.797C124.324 246.637 126.282 216.659 131.702 199.849C137.121 183.039 152.192 186.819 152.192 186.819C152.192 186.819 168.07 187.284 170.075 187.07C174.362 186.624 177.99 186.736 181.044 187.284C193.367 189.559 196.318 199.264 195.604 210.158Z" fill="#7BA8FF"/>
<path d="M317.924 283.229C290.056 308.378 236.343 311.016 196.383 308.229L173.981 267.896L164.906 251.56L194.063 212.229L195.604 210.158C195.604 210.158 195.604 210.241 195.585 210.39C195.585 210.483 195.567 210.622 195.557 210.78V210.873C195.158 217.885 192.579 274.155 213.152 287.928C213.208 287.965 213.273 288.011 213.319 288.039C216.029 289.813 219.129 290.853 222.692 290.955C260.517 292.061 259.46 242.625 249.845 232.094L315.464 218.897C315.464 218.906 328.438 251.541 317.924 283.229Z" fill="#7BA8FF"/>
<path d="M244.936 221.386C244.936 221.386 238.784 226.494 241.958 233.338C245.131 240.183 275.718 226.884 287.764 224.46C299.809 222.036 313.803 219.668 319.743 218.432C325.682 217.197 325.227 199.988 320.327 198.465C315.427 196.933 267.422 205.44 259.46 210.093C251.507 214.764 244.936 221.386 244.936 221.386Z" fill="#263338"/>
<path d="M260.341 82.9059C259.107 81.6521 259.014 79.6554 259.989 78.188C261.464 75.9591 264.471 72.4115 267.348 75.0583C271.366 78.7546 264.499 85.5248 261.64 83.8903C261.102 83.5838 260.675 83.2495 260.341 82.9059Z" fill="#FFC2BD"/>
<path opacity="0.2" d="M237.902 68.1952C237.902 68.1952 232.408 64.5268 234.83 61.8985C235.907 60.7284 239.127 61.007 243.479 62.2143C245.92 62.8923 248.76 63.7838 251.692 65.0654C255.506 66.7278 259.571 68.8546 263.19 70.4241C263.19 70.4241 237.782 53.4287 230.886 58.8059C225.179 63.2545 237.048 69.0217 237.457 69.4025L237.661 68.6595L237.902 68.1952Z" fill="black"/>
<path d="M240.51 66.6071C240.51 66.6071 234.923 67.5358 238.774 73.5352L240.51 66.6071Z" fill="#263338"/>
<path d="M245.846 62.948C245.846 62.948 237.447 59.9854 235.109 61.6571C232.78 63.3287 235.211 66.5235 237.902 68.1952L240.046 68.4645L241.308 64.6568L244.584 64.2574L245.846 62.948Z" fill="#263338"/>
<path opacity="0.3" d="M257.288 58.4066L255.274 61.397L246.523 57.5615C247.785 56.8371 249.372 56.1777 251.275 55.8062L257.288 58.4066Z" fill="white"/>
<path opacity="0.1" d="M255.339 94.0411C255.339 94.0411 254.513 96.4186 252.88 98.2853C252.583 96.3722 252.082 94.8584 252.082 94.8584C252.082 94.8584 254.207 94.7005 255.339 94.0411Z" fill="black"/>
<path d="M172.144 175.721C171.782 182.157 168.989 187.414 165.574 188.686C165.565 188.686 165.565 188.686 165.565 188.686C164.971 188.909 164.358 189.011 163.746 188.974C159.533 188.732 156.47 182.408 156.897 174.857C157.324 167.316 161.092 161.382 165.305 161.623C167.021 161.725 168.534 162.821 169.713 164.604C169.722 164.604 169.722 164.614 169.722 164.614C171.42 167.196 172.395 171.235 172.144 175.721Z" fill="#F5F5F5"/>
<path d="M172.144 175.721C171.782 182.157 168.989 187.414 165.574 188.686C165.565 188.686 165.565 188.686 165.565 188.686C161.676 188.463 158.837 182.621 159.236 175.656C159.635 168.682 163.115 163.211 167.003 163.434C167.977 163.49 168.896 163.908 169.703 164.604C169.713 164.604 169.713 164.614 169.713 164.614C171.42 167.196 172.395 171.235 172.144 175.721Z" fill="white"/>
<path d="M322.545 266.939C315.372 261.896 287.606 256.946 287.606 256.946C270.744 256.909 255.952 272.121 253.901 292.293C252.23 308.694 259.487 323.581 271.143 330.379C271.143 330.379 272.108 330.778 273.751 331.429C279.922 333.871 295.605 339.815 304.885 341.087" fill="#263338"/>
<path opacity="0.3" d="M341.394 305.875C343.556 284.601 330.721 265.87 312.727 264.038C294.732 262.206 278.392 277.967 276.229 299.241C274.067 320.516 286.902 339.247 304.896 341.079C322.891 342.91 339.231 327.149 341.394 305.875Z" fill="black"/>
<path d="M197.131 304.646C199.294 283.372 186.459 264.641 168.465 262.809C150.47 260.977 134.13 276.738 131.967 298.013C129.805 319.287 142.64 338.018 160.634 339.85C178.629 341.682 194.969 325.92 197.131 304.646Z" fill="#263338"/>
<path d="M184.561 269.92L167.95 339.638C165.565 340.028 163.115 340.112 160.628 339.861C160.563 339.852 160.498 339.852 160.442 339.843C157.259 339.025 158.679 339.908 155.486 338.849C147.366 336.165 135.572 331.41 135.572 331.41C123.081 325.336 116.019 310.533 117.735 293.63C119.814 273.152 134.495 257.856 151.774 259.11C151.774 259.11 159.987 260.624 168.423 262.834C172.088 263.791 175.8 264.877 178.9 266.029C178.909 266.029 178.918 266.029 178.918 266.038C180.923 267.097 182.807 268.406 184.561 269.92Z" fill="#263338"/>
<path opacity="0.3" d="M197.126 304.654C195.26 322.996 182.862 337.224 167.949 339.629C165.564 340.019 163.115 340.103 160.628 339.852C160.563 339.843 160.498 339.843 160.442 339.833C156.971 339.453 153.695 338.459 150.698 336.927C138.161 330.565 130.226 315.111 131.962 298.023C134.124 276.765 150.429 261.023 168.413 262.825H168.46C172.19 263.206 175.698 264.311 178.891 266.02C178.9 266.02 178.909 266.02 178.909 266.029C180.923 267.097 182.816 268.416 184.57 269.929C193.423 277.619 198.564 290.584 197.126 304.654Z" fill="black"/>
<path d="M192.606 280.192C192.254 279.402 191.307 278.455 190.788 277.758C186.649 272.084 177.155 269.976 170.947 270.468C166.168 270.858 161.658 272.641 157.658 275.242C153.129 278.176 149.881 282.662 145.399 285.764C136.88 291.643 123.953 291.485 115.397 285.42C114.905 285.077 114.45 284.705 114.023 284.297C113.105 283.442 112.622 282.216 112.353 281C112 279.421 112.177 277.87 112.696 276.375C114.543 271.165 120.742 266.568 124.649 263.772C132.528 258.144 141.873 254.959 151.515 254.29C179.132 252.358 190.871 275.938 192.606 280.192Z" fill="#7BA8FF"/>
<path opacity="0.3" d="M190.695 280.935C184.765 272.372 177.155 269.976 170.947 270.468C166.168 270.858 161.658 272.641 157.658 275.242C153.129 278.176 149.881 282.662 145.399 285.764C136.88 291.643 123.953 291.485 115.397 285.42C114.905 285.077 114.45 284.705 114.023 284.297C113.105 283.442 112.622 282.216 112.353 281C112 279.421 112.177 277.87 112.696 276.375C115.564 279.69 123.916 287.677 135.219 283.777C149.325 278.901 152.767 264.413 167.857 264.543C179.828 264.636 187.205 273.988 190.695 280.935Z" fill="black"/>
<g opacity="0.3">
<path opacity="0.3" d="M128.639 261.19C132.593 258.274 137.214 256.324 141.975 255.07C146.754 253.844 151.756 253.445 156.674 253.863C159.133 254.114 161.583 254.494 163.968 255.135C166.353 255.757 168.72 256.51 170.975 257.503L172.664 258.246L174.316 259.073C175.429 259.593 176.478 260.243 177.554 260.837C178.612 261.46 179.624 262.165 180.654 262.825C181.665 263.521 182.64 264.264 183.633 264.989C179.54 262.295 175.234 259.946 170.706 258.172C166.186 256.38 161.426 255.191 156.6 254.791C151.774 254.309 146.884 254.708 142.142 255.767C139.775 256.296 137.437 257.02 135.182 257.921C132.917 258.813 130.709 259.871 128.639 261.19Z" fill="black"/>
</g>
<g opacity="0.3">
<path opacity="0.3" d="M158.716 254.55C157.426 250.714 156.99 246.665 156.646 242.653C156.34 238.632 156.285 234.592 156.359 230.552C156.479 226.522 156.721 222.491 157.092 218.479L157.76 212.47C158.057 210.473 158.317 208.486 158.642 206.499L157.797 218.535L157.463 224.553C157.407 226.559 157.287 228.565 157.277 230.571C157.12 234.583 157.194 238.595 157.342 242.607C157.407 244.613 157.565 246.61 157.76 248.606C157.983 250.594 158.233 252.59 158.716 254.55Z" fill="black"/>
</g>
<path opacity="0.3" d="M213.162 287.928C193.785 275.446 193.015 243.275 193.692 222.045C193.803 218.395 193.961 215.08 194.073 212.229C194.221 208.347 194.295 205.366 194.063 203.657C192.05 189.048 180.997 187.293 180.997 187.293C181.016 187.293 181.025 187.284 181.034 187.284C193.367 189.55 196.318 199.255 195.604 210.148C195.604 210.148 195.604 210.232 195.585 210.381C195.585 210.473 195.567 210.613 195.557 210.771V210.863C195.158 217.885 192.579 274.155 213.162 287.928Z" fill="black"/>
<path opacity="0.2" d="M211.575 177.996C209.942 179.705 188.941 175.34 185.275 177.291C183.725 178.117 183.048 181.033 181.498 184.191V184.2C181.489 184.21 181.489 184.219 181.48 184.219C177.1 191.193 170.947 192.28 170.566 192.336C177.916 186.782 179.967 173.353 176.32 164.874C172.692 156.469 159.625 158.596 158.883 158.846C160.423 158.122 162.716 157.416 165.926 157.249C172.989 156.887 181.61 158.874 184.013 163.341C188.913 172.48 209.923 170.427 211.881 172.814C213.83 175.22 213.208 176.297 211.575 177.996Z" fill="black"/>
<path d="M195.14 169.889C195.14 169.889 193.182 173 193.683 177.616L211.473 179.622C211.473 179.622 214.303 176.817 213.737 171.876C213.728 171.867 196.105 170.093 195.14 169.889Z" fill="#263338"/>
<path d="M141.121 169.229C141.121 169.229 139.348 165.459 141.474 163.081C136.722 162.654 133.78 162.181 130.718 161.698C130.273 163.081 130.041 164.419 131.637 166.518C133.233 168.626 141.121 169.229 141.121 169.229Z" fill="#263338"/>
<path d="M131.238 192.828C128.157 197.852 125.521 205.895 125.289 218.739" stroke="#7BA8FF" stroke-miterlimit="10" stroke-linecap="round" stroke-linejoin="round"/>
<path d="M141.381 184.544C141.381 184.544 138.643 184.934 135.414 187.766" stroke="#7BA8FF" stroke-miterlimit="10" stroke-linecap="round" stroke-linejoin="round"/>
<path d="M279.773 136.13L268.062 137.56C268.062 137.56 266.02 159.107 264.127 163.286C264.127 163.286 228.102 168.245 213.347 167.809L205.858 172.898L205.598 181.758L212.939 181.971L215.305 176.362C215.305 176.362 220.261 176.148 221.402 173.353C221.402 173.353 259.673 182.603 273.769 172.053C273.769 172.053 282.27 159.562 279.773 136.13Z" fill="#FFC3BD"/>
<path opacity="0.2" d="M184.412 301.868C184.069 313.551 176.431 322.801 167.328 322.541C166.084 322.504 164.878 322.299 163.727 321.919C156.424 319.597 151.181 310.997 151.468 300.911C151.756 291.169 157.12 283.108 164.182 280.86C165.583 280.415 167.049 280.192 168.553 280.238C177.666 280.498 184.756 290.185 184.412 301.868Z" fill="#FAFAFA"/>
<path d="M176.032 301.84C175.745 311.805 170.492 320.005 163.727 321.919C156.424 319.597 151.181 310.997 151.468 300.911C151.756 291.169 157.12 283.108 164.182 280.86C171.207 282.755 176.339 291.503 176.032 301.84Z" fill="#263338"/>
<path opacity="0.2" d="M327.398 302.778C327.055 314.461 319.418 323.711 310.314 323.451C309.07 323.414 307.864 323.209 306.713 322.829C299.41 320.507 294.167 311.907 294.454 301.821C294.742 292.079 300.106 284.018 307.168 281.77C308.569 281.325 310.036 281.102 311.539 281.148C320.643 281.418 327.732 291.095 327.398 302.778Z" fill="#FAFAFA"/>
<path d="M319.019 302.759C318.731 312.724 313.478 320.925 306.713 322.838C299.41 320.516 294.167 311.916 294.454 301.831C294.742 292.088 300.106 284.027 307.168 281.78C314.193 283.674 319.316 292.423 319.019 302.759Z" fill="#263338"/>
<path d="M341.745 271.982C341.903 283.47 324.429 291.076 295.188 295.868C285.611 297.438 277.676 297.187 271.329 296.147C258.309 294.002 251.998 288.513 251.998 288.513C251.998 288.513 255.302 248.801 287.996 243.777C310.24 240.359 327.027 249.331 335.528 259.026C339.527 263.577 341.699 268.304 341.745 271.982Z" fill="#7BA8FF"/>
<path opacity="0.3" d="M341.745 271.982C341.903 283.47 324.429 291.076 295.188 295.868C285.611 297.438 277.676 297.187 271.329 296.147C272.73 285.365 279.022 257.085 306.37 254.151C318.777 252.823 328.354 255.321 335.518 259.026C339.527 263.577 341.699 268.304 341.745 271.982Z" fill="black"/>
<g opacity="0.3">
<path opacity="0.3" d="M253.892 288.68C254.439 283.275 255.822 277.963 257.733 272.855C259.645 267.747 262.262 262.89 265.557 258.516C267.218 256.333 269.101 254.327 271.143 252.507C273.175 250.677 275.384 249.024 277.788 247.715C282.52 244.947 287.903 243.443 293.285 242.885C290.622 243.406 287.958 243.926 285.444 244.91C284.154 245.3 282.938 245.904 281.694 246.415C280.507 247.046 279.282 247.603 278.149 248.337C276.98 249.006 275.904 249.814 274.799 250.566C273.751 251.402 272.674 252.21 271.709 253.138C269.723 254.949 267.904 256.937 266.299 259.082C263.004 263.326 260.434 268.118 258.402 273.115C257.372 275.613 256.49 278.167 255.748 280.767C254.968 283.368 254.346 286.005 253.892 288.68Z" fill="black"/>
</g>
<path d="M210.025 275.567L211.946 282.123L232.186 280.433L232.455 271.267L210.025 275.567Z" fill="#7BA8FF"/>
<path d="M330.517 230.849L375.051 229.038" stroke="#407BFF" stroke-miterlimit="10" stroke-linecap="round" stroke-linejoin="round"/>
<path d="M389.769 220.921L396.386 220.652" stroke="#407BFF" stroke-miterlimit="10" stroke-linecap="round" stroke-linejoin="round"/>
<path d="M351.861 222.463L384.693 221.126" stroke="#407BFF" stroke-miterlimit="10" stroke-linecap="round" stroke-linejoin="round"/>
<path d="M374.838 245.532L402.353 244.418" stroke="#407BFF" stroke-miterlimit="10" stroke-linecap="round" stroke-linejoin="round"/>
<path d="M357.828 246.229L369.817 245.737" stroke="#407BFF" stroke-miterlimit="10" stroke-linecap="round" stroke-linejoin="round"/>
</svg>
