<svg width="19" height="18" viewBox="0 0 19 18" fill="none" xmlns="http://www.w3.org/2000/svg">
<path d="M0.696212 18C0.605114 18.0005 0.514808 17.9831 0.430472 17.9486C0.346137 17.9142 0.26943 17.8634 0.204751 17.7992C0.139872 17.7349 0.0883768 17.6583 0.0532348 17.574C0.0180928 17.4896 0 17.3992 0 17.3078C0 17.2164 0.0180928 17.1259 0.0532348 17.0416C0.0883768 16.9572 0.139872 16.8807 0.204751 16.8163L16.8175 0.20357C16.9479 0.0732263 17.1246 0 17.309 0C17.4933 0 17.6701 0.0732263 17.8004 0.20357C17.9308 0.333913 18.004 0.510697 18.004 0.695031C18.004 0.879364 17.9308 1.05615 17.8004 1.18649L1.18767 17.7992C1.12299 17.8634 1.04629 17.9142 0.961951 17.9486C0.877616 17.9831 0.78731 18.0005 0.696212 18Z" fill="black"/>
<path d="M17.3095 18C17.2184 18.0005 17.1281 17.9831 17.0438 17.9486C16.9594 17.9142 16.8827 17.8634 16.818 17.7992L0.205279 1.18649C0.0749351 1.05615 0.00170898 0.879364 0.00170898 0.69503C0.00170899 0.510697 0.0749351 0.333913 0.205279 0.20357C0.335622 0.0732261 0.512406 1.37339e-09 0.696739 0C0.881073 -1.37339e-09 1.05786 0.0732261 1.1882 0.20357L17.801 16.8163C17.8658 16.8807 17.9173 16.9572 17.9525 17.0416C17.9876 17.1259 18.0057 17.2164 18.0057 17.3078C18.0057 17.3992 17.9876 17.4896 17.9525 17.574C17.9173 17.6583 17.8658 17.7349 17.801 17.7992C17.7363 17.8634 17.6596 17.9142 17.5752 17.9486C17.4909 17.9831 17.4006 18.0005 17.3095 18Z" fill="black"/>
</svg>
